<?xml version="1.0" encoding="UTF-8" standalone="no"?>
<!-- Created with Inkscape (http://www.inkscape.org/) -->

<svg
   xmlns:dc="http://purl.org/dc/elements/1.1/"
   xmlns:cc="http://creativecommons.org/ns#"
   xmlns:rdf="http://www.w3.org/1999/02/22-rdf-syntax-ns#"
   xmlns:svg="http://www.w3.org/2000/svg"
   xmlns="http://www.w3.org/2000/svg"
   xmlns:sodipodi="http://sodipodi.sourceforge.net/DTD/sodipodi-0.dtd"
   xmlns:inkscape="http://www.inkscape.org/namespaces/inkscape"
   width="300"
   height="97.390564"
   id="svg2"
   sodipodi:version="0.32"
   inkscape:version="0.91pre1 r13432"
   sodipodi:docname="antxetamedia.svg"
   inkscape:output_extension="org.inkscape.output.svg.inkscape"
   version="1.1"
   viewBox="0 0 299.99999 97.390566">
  <defs
     id="defs4" />
  <sodipodi:namedview
     id="base"
     pagecolor="#ffffff"
     bordercolor="#666666"
     borderopacity="1.0"
     inkscape:pageopacity="0.0"
     inkscape:pageshadow="2"
     inkscape:zoom="0.95703125"
     inkscape:cx="144.98976"
     inkscape:cy="-122.65969"
     inkscape:document-units="px"
     inkscape:current-layer="layer1"
     inkscape:window-width="1598"
     inkscape:window-height="879"
     inkscape:window-x="0"
     inkscape:window-y="19"
     showgrid="false"
     fit-margin-top="0"
     fit-margin-left="0"
     fit-margin-right="0"
     fit-margin-bottom="0"
     inkscape:window-maximized="0" />
  <metadata
     id="metadata7">
    <rdf:RDF>
      <cc:Work
         rdf:about="">
        <dc:format>image/svg+xml</dc:format>
        <dc:type
           rdf:resource="http://purl.org/dc/dcmitype/StillImage" />
        <dc:title />
      </cc:Work>
    </rdf:RDF>
  </metadata>
  <g
     inkscape:label="Capa 1"
     inkscape:groupmode="layer"
     id="layer1"
     transform="translate(-205.01024,-312.31193)">
    <path
       style="color:#000000;display:inline;overflow:visible;visibility:visible;opacity:1;fill:#5a9503;fill-opacity:1;fill-rule:nonzero;stroke:none;stroke-width:2.23399997;stroke-linecap:round;stroke-linejoin:miter;stroke-miterlimit:4;stroke-dasharray:none;stroke-dashoffset:0;stroke-opacity:1;marker:none;enable-background:accumulate"
       d="m 213.86391,312.31192 282.29263,0 c 4.90494,0 8.85368,3.94874 8.85368,8.85369 l 0,79.68319 c 0,4.90494 -3.94874,8.85368 -8.85368,8.85368 l -282.29263,0 c -4.90494,0 -8.85369,-3.94874 -8.85369,-8.85368 l 0,-79.68319 c 0,-4.90495 3.94875,-8.85369 8.85369,-8.85369 z"
       id="rect4240-0-6-2-8-3-6" />
    <g
       style="color:#000000;font-style:normal;font-variant:normal;font-weight:normal;font-stretch:normal;font-size:32.74692917px;line-height:125%;font-family:Lato;-inkscape-font-specification:Lato;text-indent:0;text-align:start;text-decoration:none;text-decoration-line:none;letter-spacing:0px;word-spacing:0px;text-transform:none;direction:ltr;block-progression:tb;writing-mode:lr-tb;baseline-shift:baseline;text-anchor:start;display:inline;overflow:visible;visibility:visible;fill:#ffffff;fill-opacity:1;fill-rule:nonzero;stroke:none;stroke-width:1px;stroke-linecap:butt;stroke-linejoin:miter;stroke-opacity:1;marker:none;enable-background:accumulate"
       id="text4277-38-17-6-5-4-7">
      <path
         d="m 322.49198,377.95517 5.14135,-24.10211 c -0.78594,-0.32747 -1.83386,-0.45846 -2.58705,-0.45846 -3.83145,0 -8.08861,4.4209 -11.3961,9.66049 -0.6877,-0.0655 -1.24441,-0.0982 -1.70287,-0.0982 -3.8642,0 -6.68048,1.80111 -6.68048,4.02793 0,1.27715 0.91693,1.89935 2.03034,1.89935 1.01517,0 1.83386,-0.49121 1.83386,-1.27715 0,-0.45846 -0.26198,-1.01517 -0.42572,-1.01517 0.42572,-1.11341 1.80111,-1.57187 3.83145,-1.70286 -2.84902,5.01035 -4.81387,10.38093 -4.81387,13.3282 0,3.40573 2.6198,3.47123 4.38816,3.47123 -0.19649,-0.29473 -0.45847,-0.78594 -0.45847,-1.83386 0,-3.40573 1.80111,-9.62774 4.25717,-14.96557 1.44089,0.13099 2.71803,0.42571 4.38815,1.1789 l -2.52155,11.88732 4.71563,0 z m -1.89935,-13.3282 c -1.27715,-0.52396 -2.68529,-0.88418 -3.99519,-1.14616 1.83386,-3.66772 3.9297,-6.71323 5.89454,-7.76114 l -1.89935,8.9073 z"
         style="font-style:normal;font-variant:normal;font-weight:normal;font-stretch:normal;font-size:32.74742889px;line-height:125%;font-family:'Lobster 1.4';-inkscape-font-specification:'Lobster 1.4, Normal';text-align:start;writing-mode:lr-tb;text-anchor:start"
         id="path4307" />
      <path
         d="m 336.27763,366.1006 c 0,2.09584 -1.47364,6.12377 -1.47364,8.35059 0,1.86661 1.01517,3.70046 3.8642,3.70046 1.73561,0 4.25716,-0.68769 6.09102,-6.05827 l -1.37539,0 c -0.72044,1.70287 -1.3099,2.88177 -2.75079,2.88177 -0.98242,0 -1.30989,-0.5567 -1.30989,-1.37539 0,-1.83385 1.57187,-5.79629 1.57187,-8.44884 0,-2.61979 -1.53913,-3.70045 -3.63496,-3.70045 -1.01517,0 -2.45606,0.26197 -3.83145,1.83385 l 0.36022,-1.70286 -4.71563,0 -3.47123,16.37371 4.71563,0 2.22683,-10.51192 c 0.49121,-1.63738 1.37539,-3.01277 2.5543,-3.01277 0.78594,0 1.17891,0.58946 1.17891,1.67012 z"
         style="font-style:normal;font-variant:normal;font-weight:normal;font-stretch:normal;font-size:32.74742889px;line-height:125%;font-family:'Lobster 1.4';-inkscape-font-specification:'Lobster 1.4, Normal';text-align:start;writing-mode:lr-tb;text-anchor:start"
         id="path4309" />
      <path
         d="m 343.44471,372.09338 c -0.16374,0.81869 -0.26198,1.53913 -0.26198,2.16133 0,2.68529 1.47363,3.89694 3.47123,3.89694 3.01276,0 6.12377,-2.09583 8.25235,-4.48639 0.72044,3.1765 1.70286,4.48639 3.7987,4.48639 1.76836,0 4.87937,-0.72044 6.74597,-6.05827 l -1.37539,0 c -0.49121,1.63737 -1.67012,2.88177 -2.94727,2.88177 -1.44089,0 -1.70287,-1.63737 -1.9321,-2.88177 l -0.29473,-1.63737 c 3.20925,-3.40573 4.68289,-5.66531 4.68289,-7.79389 0,-1.60462 -0.75319,-2.91452 -2.22683,-2.91452 -1.01517,0 -1.83385,0.55671 -1.83385,1.53913 0,1.01517 0.39296,1.83385 1.53912,1.83385 0.16374,0 0.36023,-0.0327 0.55671,-0.0655 0.0328,0.13099 0.0328,0.26198 0.0328,0.39297 0,1.17891 -1.17891,3.111 -3.11101,5.20684 l -1.27715,-7.07344 -6.87696,0 1.11342,-5.1741 -4.84662,0.65495 -0.98243,4.51915 -1.08066,0 -0.26198,1.30989 1.08066,0 -1.96484,9.20203 z m 6.68047,-9.20203 2.75079,0 1.67012,9.00555 c -1.44089,1.8011 -3.56947,3.04551 -5.20684,3.04551 -0.85144,0 -1.44089,-0.36023 -1.44089,-1.17891 0,-0.29473 0.0327,-0.6222 0.13099,-1.04792 l 2.09583,-9.82423 z"
         style="font-style:normal;font-variant:normal;font-weight:normal;font-stretch:normal;font-size:32.74742889px;line-height:125%;font-family:'Lobster 1.4';-inkscape-font-specification:'Lobster 1.4, Normal';text-align:start;writing-mode:lr-tb;text-anchor:start"
         id="path4311" />
      <path
         d="m 368.49189,372.65009 c 0,-0.39297 0.0327,-0.85144 0.0655,-1.3099 3.92969,-0.22923 7.53191,-3.14375 7.53191,-6.90971 0,-1.63737 -0.6877,-3.14375 -3.60222,-3.14375 -6.71322,0 -8.8418,7.89213 -8.8418,11.65808 0,3.70046 2.03034,5.20684 5.1086,5.20684 4.3554,0 7.13894,-3.04551 9.00554,-6.05827 l -1.11341,0 c -1.63737,1.8666 -3.20925,3.30749 -5.7963,3.30749 -1.57187,0 -2.35781,-0.52396 -2.35781,-2.75078 z m 5.07585,-8.2851 c 0,2.71803 -2.22683,5.23959 -4.74838,5.40332 0.65495,-3.24199 2.25957,-6.74597 3.92969,-6.74597 0.6222,0 0.81869,0.52396 0.81869,1.34265 z"
         style="font-style:normal;font-variant:normal;font-weight:normal;font-stretch:normal;font-size:32.74742889px;line-height:125%;font-family:'Lobster 1.4';-inkscape-font-specification:'Lobster 1.4, Normal';text-align:start;writing-mode:lr-tb;text-anchor:start"
         id="path4313" />
      <path
         d="m 379.88031,357.06231 -0.98242,4.51915 -1.08066,0 -0.26198,1.30989 1.08066,0 -1.96484,9.20203 c -0.16374,0.78594 -0.26198,1.50638 -0.26198,2.12858 0,2.75079 1.53913,3.92969 3.50397,3.92969 1.76836,0 5.01036,-0.72044 6.87696,-6.05827 l -1.37539,0 c -0.49121,1.63737 -1.67012,2.88177 -2.94727,2.88177 -0.91693,0 -1.34264,-0.29472 -1.34264,-1.21165 0,-0.29473 0.0327,-0.6222 0.13099,-1.04792 l 2.09583,-9.82423 1.96485,0 0.26198,-1.30989 -1.96485,0 1.11341,-5.1741 -4.84662,0.65495 z"
         style="font-style:normal;font-variant:normal;font-weight:normal;font-stretch:normal;font-size:32.74742889px;line-height:125%;font-family:'Lobster 1.4';-inkscape-font-specification:'Lobster 1.4, Normal';text-align:start;writing-mode:lr-tb;text-anchor:start"
         id="path4315" />
      <path
         d="m 396.4367,361.58146 -0.36022,1.73561 0,-0.22923 c 0,-0.94968 -0.78594,-1.67012 -2.65254,-1.67012 -5.69806,0 -8.41609,7.0407 -8.41609,11.4616 0,3.89694 2.12858,5.27233 4.3554,5.27233 2.32507,0 3.8642,-1.50638 4.87937,-3.01276 0.19649,1.96485 1.37539,3.01276 3.20925,3.01276 1.76836,0 4.71563,-0.72044 6.58223,-6.05827 l -1.37539,0 c -0.49121,1.63737 -1.37539,3.07826 -2.65254,3.07826 -0.91693,0 -1.34265,-0.49121 -1.34265,-1.40814 0,-0.29473 0.0328,-0.6222 0.13099,-1.04792 l 2.35782,-11.13412 -4.71563,0 z m -1.99759,1.8666 c 1.04791,0 1.34264,0.85143 1.34264,1.2444 l -1.57188,7.40092 c -0.39296,1.89935 -1.76836,2.88177 -2.71803,2.88177 -0.58946,0 -1.63737,-0.0327 -1.63737,-2.5543 0,-3.07825 1.8011,-8.97279 4.58464,-8.97279 z"
         style="font-style:normal;font-variant:normal;font-weight:normal;font-stretch:normal;font-size:32.74742889px;line-height:125%;font-family:'Lobster 1.4';-inkscape-font-specification:'Lobster 1.4, Normal';text-align:start;writing-mode:lr-tb;text-anchor:start"
         id="path4317" />
      <path
         d="m 420.15863,366.1006 c 0,2.09584 -1.47363,6.12377 -1.47363,8.35059 0,1.86661 1.01517,3.70046 3.86419,3.70046 1.73562,0 4.25717,-0.68769 6.09102,-6.05827 l -1.37539,0 c -0.72044,1.70287 -1.30989,2.88177 -2.75078,2.88177 -0.98242,0 -1.3099,-0.5567 -1.3099,-1.37539 0,-1.83385 1.57188,-5.79629 1.57188,-8.44884 0,-2.61979 -1.53913,-3.70045 -3.63497,-3.70045 -1.21165,0 -2.98001,0.36022 -4.55189,2.78353 -0.36022,-2.03034 -1.63737,-2.81628 -3.37298,-2.81628 -1.14616,0 -2.6198,0.29472 -3.99519,1.8666 l 0.36022,-1.70286 -4.71563,0 -3.47123,16.37371 4.71563,0 2.22683,-10.51192 c 0.49121,-1.63738 1.37539,-3.04552 2.65254,-3.04552 0.72044,0 0.98242,0.72045 0.98242,1.44089 0,0.29473 -0.0327,0.55671 -0.0982,0.81869 l -2.39056,11.29786 4.71563,0 2.22682,-10.51192 c 0.49121,-1.63738 1.3754,-3.01277 2.5543,-3.01277 0.78594,0 1.17891,0.58946 1.17891,1.67012 z"
         style="font-style:normal;font-variant:normal;font-weight:normal;font-stretch:normal;font-size:32.74742889px;line-height:125%;font-family:'Lobster 1.4';-inkscape-font-specification:'Lobster 1.4, Normal';text-align:start;writing-mode:lr-tb;text-anchor:start"
         id="path4319" />
      <path
         d="m 431.68419,372.65009 c 0,-0.39297 0.0328,-0.85144 0.0655,-1.3099 3.92969,-0.22923 7.53191,-3.14375 7.53191,-6.90971 0,-1.63737 -0.6877,-3.14375 -3.60222,-3.14375 -6.71322,0 -8.84181,7.89213 -8.84181,11.65808 0,3.70046 2.03034,5.20684 5.1086,5.20684 4.35541,0 7.13894,-3.04551 9.00555,-6.05827 l -1.11342,0 c -1.63737,1.8666 -3.20924,3.30749 -5.79629,3.30749 -1.57188,0 -2.35782,-0.52396 -2.35782,-2.75078 z m 5.07585,-8.2851 c 0,2.71803 -2.22682,5.23959 -4.74837,5.40332 0.65495,-3.24199 2.25957,-6.74597 3.92969,-6.74597 0.6222,0 0.81868,0.52396 0.81868,1.34265 z"
         style="font-style:normal;font-variant:normal;font-weight:normal;font-stretch:normal;font-size:32.74742889px;line-height:125%;font-family:'Lobster 1.4';-inkscape-font-specification:'Lobster 1.4, Normal';text-align:start;writing-mode:lr-tb;text-anchor:start"
         id="path4321" />
      <path
         d="m 452.11091,355.68692 -1.60462,7.53191 0,-0.13099 c 0,-0.94968 -0.78594,-1.67012 -2.65254,-1.67012 -5.69806,0 -8.41609,7.0407 -8.41609,11.4616 0,3.89694 2.12858,5.27233 4.3554,5.27233 2.32507,0 3.8642,-1.50638 4.84662,-3.01276 0.26198,1.83386 1.44089,2.81628 3.20925,2.81628 1.76836,0 4.71563,-0.52396 6.58223,-5.86179 l -1.37539,0 c -0.49121,1.63737 -1.37539,2.88177 -2.65254,2.88177 -0.91693,0 -1.34264,-0.29472 -1.34264,-1.21165 0,-0.29473 0.0327,-0.6222 0.13099,-1.04792 l 3.76595,-17.68361 -4.84662,0.65495 z m -3.50397,16.5702 c -0.42572,1.80111 -1.76836,2.71803 -2.68529,2.71803 -0.58946,0 -1.63737,-0.0327 -1.63737,-2.5543 0,-3.07825 1.8011,-8.97279 4.58464,-8.97279 0.98242,0 1.27715,0.75319 1.34264,1.14616 l -1.60462,7.49916 0,0.16374 z"
         style="font-style:normal;font-variant:normal;font-weight:normal;font-stretch:normal;font-size:32.74742889px;line-height:125%;font-family:'Lobster 1.4';-inkscape-font-specification:'Lobster 1.4, Normal';text-align:start;writing-mode:lr-tb;text-anchor:start"
         id="path4323" />
      <path
         d="m 459.95035,357.22605 c 0,1.44088 1.14616,2.58704 2.58704,2.58704 1.44089,0 2.6198,-1.14616 2.6198,-2.58704 0,-1.44089 -1.17891,-2.6198 -2.6198,-2.6198 -1.44088,0 -2.58704,1.17891 -2.58704,2.6198 z m -0.65495,4.35541 -2.22683,10.51192 c -0.16373,0.78594 -0.26198,1.50638 -0.26198,2.12858 0,2.75079 1.53913,3.92969 3.50398,3.92969 1.76836,0 5.01036,-0.72044 6.87696,-6.05827 l -1.37539,0 c -0.49121,1.63737 -1.67012,2.88177 -2.94727,2.88177 -0.91693,0 -1.34265,-0.29472 -1.34265,-1.21165 0,-0.29473 0.0328,-0.6222 0.13099,-1.04792 l 2.35782,-11.13412 -4.71563,0 z"
         style="font-style:normal;font-variant:normal;font-weight:normal;font-stretch:normal;font-size:32.74742889px;line-height:125%;font-family:'Lobster 1.4';-inkscape-font-specification:'Lobster 1.4, Normal';text-align:start;writing-mode:lr-tb;text-anchor:start"
         id="path4325" />
      <path
         d="m 476.83419,361.58146 -0.36022,1.73561 0,-0.22923 c 0,-0.94968 -0.78594,-1.67012 -2.65254,-1.67012 -5.69806,0 -8.41609,7.0407 -8.41609,11.4616 0,3.89694 2.12858,5.27233 4.35541,5.27233 2.32506,0 3.89694,-1.53912 4.87936,-3.04551 0.26198,1.89935 1.44089,3.04551 3.20925,3.04551 1.76836,0 2.39056,-1.01517 3.27474,-3.30749 -0.22923,0.0983 -0.42571,0.13099 -0.72044,0.13099 -0.91693,0 -1.34264,-0.29472 -1.34264,-1.21165 0,-0.29473 0.0327,-0.6222 0.13099,-1.04792 l 2.35781,-11.13412 -4.71563,0 z m -1.99759,1.8666 c 1.04792,0 1.34264,0.85143 1.34264,1.2444 l -1.57187,7.40092 c -0.39297,1.89935 -1.76837,2.88177 -2.71804,2.88177 -0.58945,0 -1.63737,-0.0327 -1.63737,-2.5543 0,-3.07825 1.80111,-8.97279 4.58464,-8.97279 z"
         style="font-style:normal;font-variant:normal;font-weight:normal;font-stretch:normal;font-size:32.74742889px;line-height:125%;font-family:'Lobster 1.4';-inkscape-font-specification:'Lobster 1.4, Normal';text-align:start;writing-mode:lr-tb;text-anchor:start"
         id="path4327" />
    </g>
    <path
       style="color:#000000;font-style:normal;font-variant:normal;font-weight:normal;font-stretch:normal;font-size:medium;line-height:normal;font-family:sans-serif;text-indent:0;text-align:start;text-decoration:none;text-decoration-line:none;text-decoration-style:solid;text-decoration-color:#000000;letter-spacing:normal;word-spacing:normal;text-transform:none;direction:ltr;block-progression:tb;writing-mode:lr-tb;baseline-shift:baseline;text-anchor:start;clip-rule:nonzero;display:inline;overflow:visible;visibility:visible;opacity:1;isolation:auto;color-interpolation:sRGB;color-interpolation-filters:linearRGB;fill:#4f8203;fill-opacity:1;fill-rule:nonzero;stroke:none;stroke-width:3.20000005;stroke-linecap:round;stroke-linejoin:miter;stroke-miterlimit:4;stroke-dasharray:none;stroke-dashoffset:0;stroke-opacity:1;marker:none;color-rendering:auto;image-rendering:auto;shape-rendering:auto;text-rendering:auto;enable-background:accumulate"
       d="m 251.87688,351.36121 c -7.86561,0 -14.14732,6.82469 -14.14732,15.03695 0,4.89248 2.23981,9.27961 5.70545,12.03748 2.58666,3.27643 6.45996,5.38415 10.82654,5.38415 7.86573,0 14.14743,-6.8247 14.14743,-15.03695 0,-4.8925 -2.2398,-9.27961 -5.70557,-12.03748 -2.58653,-3.27644 -6.45984,-5.38415 -10.82653,-5.38415 z m 2.38467,6.19922 c 2.10376,0 4.07183,0.68597 5.71487,1.86769 1.39086,1.90314 2.23325,4.31284 2.23325,6.97004 0,6.28996 -4.67909,11.22241 -10.33279,11.22241 -2.10484,0 -4.07171,-0.68716 -5.71475,-1.87002 -1.38967,-1.90291 -2.23099,-4.31122 -2.23099,-6.96771 0,-6.28997 4.67671,-11.22241 10.33041,-11.22241 z"
       id="path4370-5-9-94-35-8-3-5-3-2"
       inkscape:connector-curvature="0" />
    <path
       style="color:#000000;font-style:normal;font-variant:normal;font-weight:normal;font-stretch:normal;font-size:medium;line-height:normal;font-family:sans-serif;text-indent:0;text-align:start;text-decoration:none;text-decoration-line:none;text-decoration-style:solid;text-decoration-color:#000000;letter-spacing:normal;word-spacing:normal;text-transform:none;direction:ltr;block-progression:tb;writing-mode:lr-tb;baseline-shift:baseline;text-anchor:start;clip-rule:nonzero;display:inline;overflow:visible;visibility:visible;opacity:1;isolation:auto;color-interpolation:sRGB;color-interpolation-filters:linearRGB;fill:#4f8203;fill-opacity:1;fill-rule:nonzero;stroke:none;stroke-width:3.20000029;stroke-linecap:round;stroke-linejoin:miter;stroke-miterlimit:4;stroke-dasharray:none;stroke-dashoffset:0;stroke-opacity:1;marker:none;color-rendering:auto;image-rendering:auto;shape-rendering:auto;text-rendering:auto;enable-background:accumulate"
       d="m 251.87688,340.5743 c -13.4659,0 -24.29613,11.65032 -24.29613,25.82386 0,8.04991 3.49867,15.27759 8.98438,20.02753 4.42452,5.01532 10.69561,8.18101 17.69642,8.18101 13.46589,0 24.29624,-11.65032 24.29624,-25.82386 0,-8.05306 -3.50201,-15.28466 -8.99141,-20.03453 -4.42428,-5.01103 -10.69216,-8.17401 -17.6895,-8.17401 z m 2.38467,6.20154 c 4.78139,0 9.18278,1.7726 12.67788,4.73441 3.34856,3.90718 5.41678,9.11307 5.41678,14.88791 0,12.24326 -9.21616,22.00932 -20.47933,22.00932 -4.78092,0 -9.1829,-1.77256 -12.67788,-4.73441 -3.34916,-3.90787 -5.41679,-9.11473 -5.41679,-14.89023 0,-12.24326 9.21629,-22.007 20.47934,-22.007 z"
       id="path4370-5-7-4-8-0-1-3-8-6-2"
       inkscape:connector-curvature="0" />
    <path
       style="color:#000000;font-style:normal;font-variant:normal;font-weight:normal;font-stretch:normal;font-size:medium;line-height:normal;font-family:sans-serif;text-indent:0;text-align:start;text-decoration:none;text-decoration-line:none;text-decoration-style:solid;text-decoration-color:#000000;letter-spacing:normal;word-spacing:normal;text-transform:none;direction:ltr;block-progression:tb;writing-mode:lr-tb;baseline-shift:baseline;text-anchor:start;clip-rule:nonzero;display:inline;overflow:visible;visibility:visible;opacity:1;isolation:auto;color-interpolation:sRGB;color-interpolation-filters:linearRGB;fill:#4f8203;fill-opacity:1;fill-rule:nonzero;stroke:none;stroke-width:3.20000005;stroke-linecap:round;stroke-linejoin:miter;stroke-miterlimit:4;stroke-dasharray:none;stroke-dashoffset:0;stroke-opacity:1;marker:none;color-rendering:auto;image-rendering:auto;shape-rendering:auto;text-rendering:auto;enable-background:accumulate"
       d="m 251.87688,330.42546 c -18.73734,0 -33.84412,16.19292 -33.84412,35.9727 0,10.91988 4.61076,20.73924 11.88843,27.35155 6.14721,6.77289 14.76697,11.00583 24.34036,11.00583 18.73733,0 33.84424,-16.19294 33.84424,-35.9727 0,-10.92314 -4.61399,-20.74619 -11.89547,-27.35854 -6.14685,-6.76862 -14.76339,-10.99884 -24.33344,-10.99884 z m 2.38467,6.20155 c 7.31284,0 14.02713,2.80176 19.24503,7.46607 5.19191,5.76909 8.39763,13.61447 8.39763,22.30508 0,17.84659 -13.48939,32.15583 -30.02733,32.15583 -7.31559,0 -14.03321,-2.80311 -19.25207,-7.47074 -5.18893,-5.76857 -8.39059,-13.61261 -8.39059,-22.30041 0,-17.8466 13.4895,-32.15583 30.02733,-32.15583 z"
       id="path4370-5-7-6-87-6-4-7-1-0-3-5"
       inkscape:connector-curvature="0" />
    <path
       style="color:#000000;font-style:normal;font-variant:normal;font-weight:normal;font-stretch:normal;font-size:medium;line-height:normal;font-family:sans-serif;text-indent:0;text-align:start;text-decoration:none;text-decoration-line:none;text-decoration-style:solid;text-decoration-color:#000000;letter-spacing:normal;word-spacing:normal;text-transform:none;direction:ltr;block-progression:tb;writing-mode:lr-tb;baseline-shift:baseline;text-anchor:start;clip-rule:nonzero;display:inline;overflow:visible;visibility:visible;opacity:1;isolation:auto;color-interpolation:sRGB;color-interpolation-filters:linearRGB;fill:#4f8203;fill-opacity:1;fill-rule:nonzero;stroke:none;stroke-width:3.20000005;stroke-linecap:round;stroke-linejoin:miter;stroke-miterlimit:4;stroke-dasharray:none;stroke-dashoffset:0;stroke-opacity:1;marker:none;color-rendering:auto;image-rendering:auto;shape-rendering:auto;text-rendering:auto;enable-background:accumulate"
       d="m 251.42975,319.64552 c -4.89717,0.0476 -9.84727,0.96907 -14.65036,2.83412 -2.77564,2.20875 2.52525,6.39162 3.76564,5.94074 13.91683,-5.40395 29.11328,-2.14719 39.91538,7.80375 1.83309,1.9889 3.51202,4.18615 4.99291,6.59511 10.26053,16.69065 8.38105,38.77554 -4.50155,53.21501 -0.7526,2.67341 3.72355,6.45025 5.23281,4.92538 14.04191,-15.73892 16.05719,-39.6117 4.90432,-57.75381 -2.21024,-3.59546 -4.83791,-6.76534 -7.76641,-9.50143 -8.41849,-9.13925 -19.99954,-14.17442 -31.89274,-14.05887 z"
       id="path4370-5-7-6-8-7-4-40-9-4-8-9-1"
       inkscape:connector-curvature="0"
       sodipodi:nodetypes="scccsccccs" />
    <g
       style="color:#000000;font-style:normal;font-variant:normal;font-weight:normal;font-stretch:normal;font-size:32.74692917px;line-height:125%;font-family:Lato;-inkscape-font-specification:Lato;text-indent:0;text-align:start;text-decoration:none;text-decoration-line:none;letter-spacing:0px;word-spacing:0px;text-transform:none;direction:ltr;block-progression:tb;writing-mode:lr-tb;baseline-shift:baseline;text-anchor:start;display:inline;overflow:visible;visibility:visible;fill:#4f8203;fill-opacity:1;fill-rule:nonzero;stroke:none;stroke-width:1px;stroke-linecap:butt;stroke-linejoin:miter;stroke-opacity:1;marker:none;enable-background:accumulate"
       id="text4277-38-6-2-5-7-4-4-3">
      <path
         d="m 324.87669,380.33984 5.14134,-24.1021 c -0.78594,-0.32748 -1.83385,-0.45847 -2.58704,-0.45847 -3.83145,0 -8.08862,4.4209 -11.39611,9.66049 -0.6877,-0.0655 -1.2444,-0.0982 -1.70287,-0.0982 -3.86419,0 -6.68047,1.80111 -6.68047,4.02794 0,1.27714 0.91693,1.89935 2.03034,1.89935 1.01517,0 1.83385,-0.49122 1.83385,-1.27715 0,-0.45847 -0.26197,-1.01517 -0.42571,-1.01517 0.42571,-1.11342 1.80111,-1.57188 3.83145,-1.70287 -2.84903,5.01036 -4.81387,10.38093 -4.81387,13.3282 0,3.40574 2.61979,3.47123 4.38815,3.47123 -0.19648,-0.29473 -0.45846,-0.78594 -0.45846,-1.83386 0,-3.40573 1.80111,-9.62774 4.25716,-14.96557 1.44089,0.13099 2.71804,0.42572 4.38816,1.17891 l -2.52155,11.88731 4.71563,0 z m -1.89935,-13.3282 c -1.27715,-0.52396 -2.68529,-0.88418 -3.99519,-1.14616 1.83385,-3.66771 3.92969,-6.71322 5.89454,-7.76114 l -1.89935,8.9073 z"
         style="font-style:normal;font-variant:normal;font-weight:normal;font-stretch:normal;font-size:32.74742889px;line-height:125%;font-family:'Lobster 1.4';-inkscape-font-specification:'Lobster 1.4, Normal';text-align:start;writing-mode:lr-tb;text-anchor:start;fill:#4f8203;fill-opacity:1"
         id="path4330" />
      <path
         d="m 338.66233,368.48527 c 0,2.09584 -1.47363,6.12377 -1.47363,8.3506 0,1.8666 1.01517,3.70046 3.86419,3.70046 1.73562,0 4.25717,-0.6877 6.09103,-6.05828 l -1.3754,0 c -0.72044,1.70287 -1.30989,2.88178 -2.75078,2.88178 -0.98242,0 -1.3099,-0.55671 -1.3099,-1.37539 0,-1.83386 1.57188,-5.7963 1.57188,-8.44884 0,-2.6198 -1.53913,-3.70046 -3.63497,-3.70046 -1.01517,0 -2.45605,0.26198 -3.83145,1.83386 l 0.36023,-1.70287 -4.71563,0 -3.47123,16.37371 4.71563,0 2.22682,-10.51192 c 0.49122,-1.63737 1.3754,-3.01276 2.5543,-3.01276 0.78594,0 1.17891,0.58945 1.17891,1.67011 z"
         style="font-style:normal;font-variant:normal;font-weight:normal;font-stretch:normal;font-size:32.74742889px;line-height:125%;font-family:'Lobster 1.4';-inkscape-font-specification:'Lobster 1.4, Normal';text-align:start;writing-mode:lr-tb;text-anchor:start;fill:#4f8203;fill-opacity:1"
         id="path4332" />
      <path
         d="m 345.82941,374.47805 c -0.16373,0.81869 -0.26198,1.53913 -0.26198,2.16133 0,2.68529 1.47364,3.89695 3.47123,3.89695 3.01276,0 6.12377,-2.09584 8.25235,-4.4864 0.72045,3.1765 1.70287,4.4864 3.7987,4.4864 1.76837,0 4.87937,-0.72045 6.74597,-6.05828 l -1.37539,0 c -0.49121,1.63738 -1.67012,2.88178 -2.94727,2.88178 -1.44088,0 -1.70286,-1.63737 -1.93209,-2.88178 l -0.29473,-1.63737 c 3.20925,-3.40573 4.68288,-5.6653 4.68288,-7.79389 0,-1.60462 -0.75319,-2.91452 -2.22682,-2.91452 -1.01517,0 -1.83386,0.55671 -1.83386,1.53913 0,1.01517 0.39297,1.83386 1.53913,1.83386 0.16374,0 0.36022,-0.0328 0.55671,-0.0655 0.0327,0.13099 0.0327,0.26198 0.0327,0.39297 0,1.17891 -1.1789,3.11101 -3.111,5.20684 l -1.27715,-7.07344 -6.87696,0 1.11341,-5.17409 -4.84662,0.65494 -0.98242,4.51915 -1.08067,0 -0.26198,1.3099 1.08067,0 -1.96485,9.20202 z m 6.68048,-9.20202 2.75078,0 1.67012,9.00554 c -1.44089,1.80111 -3.56947,3.04551 -5.20684,3.04551 -0.85143,0 -1.44089,-0.36022 -1.44089,-1.17891 0,-0.29472 0.0328,-0.6222 0.13099,-1.04791 l 2.09584,-9.82423 z"
         style="font-style:normal;font-variant:normal;font-weight:normal;font-stretch:normal;font-size:32.74742889px;line-height:125%;font-family:'Lobster 1.4';-inkscape-font-specification:'Lobster 1.4, Normal';text-align:start;writing-mode:lr-tb;text-anchor:start;fill:#4f8203;fill-opacity:1"
         id="path4334" />
      <path
         d="m 370.87659,375.03476 c 0,-0.39297 0.0327,-0.85143 0.0655,-1.3099 3.92969,-0.22923 7.5319,-3.14375 7.5319,-6.9097 0,-1.63738 -0.68769,-3.14376 -3.60221,-3.14376 -6.71323,0 -8.84181,7.89213 -8.84181,11.65809 0,3.70046 2.03034,5.20684 5.1086,5.20684 4.35541,0 7.13894,-3.04551 9.00554,-6.05828 l -1.11341,0 c -1.63737,1.86661 -3.20925,3.30749 -5.79629,3.30749 -1.57188,0 -2.35782,-0.52395 -2.35782,-2.75078 z m 5.07585,-8.2851 c 0,2.71804 -2.22682,5.23959 -4.74837,5.40333 0.65494,-3.242 2.25957,-6.74597 3.92969,-6.74597 0.6222,0 0.81868,0.52396 0.81868,1.34264 z"
         style="font-style:normal;font-variant:normal;font-weight:normal;font-stretch:normal;font-size:32.74742889px;line-height:125%;font-family:'Lobster 1.4';-inkscape-font-specification:'Lobster 1.4, Normal';text-align:start;writing-mode:lr-tb;text-anchor:start;fill:#4f8203;fill-opacity:1"
         id="path4336" />
      <path
         d="m 382.26502,359.44698 -0.98242,4.51915 -1.08067,0 -0.26198,1.3099 1.08067,0 -1.96485,9.20202 c -0.16374,0.78594 -0.26198,1.50639 -0.26198,2.12859 0,2.75078 1.53913,3.92969 3.50398,3.92969 1.76836,0 5.01035,-0.72045 6.87696,-6.05828 l -1.3754,0 c -0.49121,1.63738 -1.67011,2.88178 -2.94726,2.88178 -0.91693,0 -1.34265,-0.29473 -1.34265,-1.21166 0,-0.29472 0.0328,-0.6222 0.13099,-1.04791 l 2.09584,-9.82423 1.96484,0 0.26198,-1.3099 -1.96484,0 1.11341,-5.17409 -4.84662,0.65494 z"
         style="font-style:normal;font-variant:normal;font-weight:normal;font-stretch:normal;font-size:32.74742889px;line-height:125%;font-family:'Lobster 1.4';-inkscape-font-specification:'Lobster 1.4, Normal';text-align:start;writing-mode:lr-tb;text-anchor:start;fill:#4f8203;fill-opacity:1"
         id="path4338" />
      <path
         d="m 398.8214,363.96613 -0.36022,1.73561 0,-0.22923 c 0,-0.94967 -0.78594,-1.67012 -2.65254,-1.67012 -5.69805,0 -8.41609,7.0407 -8.41609,11.4616 0,3.89695 2.12858,5.27234 4.35541,5.27234 2.32507,0 3.8642,-1.50638 4.87937,-3.01277 0.19648,1.96485 1.37539,3.01277 3.20924,3.01277 1.76837,0 4.71563,-0.72045 6.58224,-6.05828 l -1.37539,0 c -0.49122,1.63738 -1.3754,3.07826 -2.65255,3.07826 -0.91692,0 -1.34264,-0.49121 -1.34264,-1.40814 0,-0.29472 0.0328,-0.6222 0.13099,-1.04791 l 2.35781,-11.13413 -4.71563,0 z m -1.99759,1.8666 c 1.04792,0 1.34265,0.85144 1.34265,1.24441 l -1.57188,7.40091 c -0.39297,1.89935 -1.76836,2.88178 -2.71804,2.88178 -0.58945,0 -1.63737,-0.0327 -1.63737,-2.5543 0,-3.07826 1.80111,-8.9728 4.58464,-8.9728 z"
         style="font-style:normal;font-variant:normal;font-weight:normal;font-stretch:normal;font-size:32.74742889px;line-height:125%;font-family:'Lobster 1.4';-inkscape-font-specification:'Lobster 1.4, Normal';text-align:start;writing-mode:lr-tb;text-anchor:start;fill:#4f8203;fill-opacity:1"
         id="path4340" />
      <path
         d="m 422.54333,368.48527 c 0,2.09584 -1.47363,6.12377 -1.47363,8.3506 0,1.8666 1.01517,3.70046 3.8642,3.70046 1.73561,0 4.25716,-0.6877 6.09102,-6.05828 l -1.37539,0 c -0.72045,1.70287 -1.3099,2.88178 -2.75079,2.88178 -0.98242,0 -1.30989,-0.55671 -1.30989,-1.37539 0,-1.83386 1.57187,-5.7963 1.57187,-8.44884 0,-2.6198 -1.53913,-3.70046 -3.63496,-3.70046 -1.21166,0 -2.98002,0.36022 -4.55189,2.78353 -0.36023,-2.03034 -1.63738,-2.81628 -3.37299,-2.81628 -1.14616,0 -2.61979,0.29473 -3.99519,1.86661 l 0.36023,-1.70287 -4.71563,0 -3.47123,16.37371 4.71563,0 2.22682,-10.51192 c 0.49121,-1.63737 1.3754,-3.04551 2.65254,-3.04551 0.72045,0 0.98243,0.72044 0.98243,1.44089 0,0.29472 -0.0327,0.5567 -0.0982,0.81868 l -2.39057,11.29786 4.71563,0 2.22683,-10.51192 c 0.49121,-1.63737 1.37539,-3.01276 2.5543,-3.01276 0.78594,0 1.1789,0.58945 1.1789,1.67011 z"
         style="font-style:normal;font-variant:normal;font-weight:normal;font-stretch:normal;font-size:32.74742889px;line-height:125%;font-family:'Lobster 1.4';-inkscape-font-specification:'Lobster 1.4, Normal';text-align:start;writing-mode:lr-tb;text-anchor:start;fill:#4f8203;fill-opacity:1"
         id="path4342" />
      <path
         d="m 434.0689,375.03476 c 0,-0.39297 0.0328,-0.85143 0.0655,-1.3099 3.92969,-0.22923 7.53191,-3.14375 7.53191,-6.9097 0,-1.63738 -0.68769,-3.14376 -3.60222,-3.14376 -6.71322,0 -8.8418,7.89213 -8.8418,11.65809 0,3.70046 2.03034,5.20684 5.1086,5.20684 4.35541,0 7.13894,-3.04551 9.00554,-6.05828 l -1.11341,0 c -1.63737,1.86661 -3.20925,3.30749 -5.7963,3.30749 -1.57187,0 -2.35781,-0.52395 -2.35781,-2.75078 z m 5.07585,-8.2851 c 0,2.71804 -2.22683,5.23959 -4.74838,5.40333 0.65495,-3.242 2.25957,-6.74597 3.92969,-6.74597 0.6222,0 0.81869,0.52396 0.81869,1.34264 z"
         style="font-style:normal;font-variant:normal;font-weight:normal;font-stretch:normal;font-size:32.74742889px;line-height:125%;font-family:'Lobster 1.4';-inkscape-font-specification:'Lobster 1.4, Normal';text-align:start;writing-mode:lr-tb;text-anchor:start;fill:#4f8203;fill-opacity:1"
         id="path4344" />
      <path
         d="m 454.49562,358.07159 -1.60463,7.53191 0,-0.13099 c 0,-0.94967 -0.78594,-1.67012 -2.65254,-1.67012 -5.69805,0 -8.41609,7.0407 -8.41609,11.4616 0,3.89695 2.12858,5.27234 4.35541,5.27234 2.32507,0 3.8642,-1.50638 4.84662,-3.01277 0.26198,1.83386 1.44089,2.81628 3.20925,2.81628 1.76836,0 4.71563,-0.52396 6.58223,-5.86179 l -1.37539,0 c -0.49121,1.63738 -1.37539,2.88178 -2.65254,2.88178 -0.91693,0 -1.34265,-0.29473 -1.34265,-1.21166 0,-0.29472 0.0328,-0.6222 0.13099,-1.04791 l 3.76596,-17.68362 -4.84662,0.65495 z m -3.50398,16.5702 c -0.42572,1.80111 -1.76836,2.71804 -2.68529,2.71804 -0.58945,0 -1.63737,-0.0327 -1.63737,-2.5543 0,-3.07826 1.80111,-8.9728 4.58464,-8.9728 0.98242,0 1.27715,0.75319 1.34264,1.14616 l -1.60462,7.49916 0,0.16374 z"
         style="font-style:normal;font-variant:normal;font-weight:normal;font-stretch:normal;font-size:32.74742889px;line-height:125%;font-family:'Lobster 1.4';-inkscape-font-specification:'Lobster 1.4, Normal';text-align:start;writing-mode:lr-tb;text-anchor:start;fill:#4f8203;fill-opacity:1"
         id="path4346" />
      <path
         d="m 462.33505,359.61072 c 0,1.44089 1.14616,2.58705 2.58705,2.58705 1.44089,0 2.61979,-1.14616 2.61979,-2.58705 0,-1.44089 -1.1789,-2.61979 -2.61979,-2.61979 -1.44089,0 -2.58705,1.1789 -2.58705,2.61979 z m -0.65495,4.35541 -2.22682,10.51192 c -0.16374,0.78594 -0.26198,1.50639 -0.26198,2.12859 0,2.75078 1.53913,3.92969 3.50397,3.92969 1.76836,0 5.01036,-0.72045 6.87696,-6.05828 l -1.37539,0 c -0.49121,1.63738 -1.67012,2.88178 -2.94727,2.88178 -0.91693,0 -1.34264,-0.29473 -1.34264,-1.21166 0,-0.29472 0.0328,-0.6222 0.13099,-1.04791 l 2.35781,-11.13413 -4.71563,0 z"
         style="font-style:normal;font-variant:normal;font-weight:normal;font-stretch:normal;font-size:32.74742889px;line-height:125%;font-family:'Lobster 1.4';-inkscape-font-specification:'Lobster 1.4, Normal';text-align:start;writing-mode:lr-tb;text-anchor:start;fill:#4f8203;fill-opacity:1"
         id="path4348" />
      <path
         d="m 479.2189,363.96613 -0.36023,1.73561 0,-0.22923 c 0,-0.94967 -0.78593,-1.67012 -2.65254,-1.67012 -5.69805,0 -8.41609,7.0407 -8.41609,11.4616 0,3.89695 2.12859,5.27234 4.35541,5.27234 2.32507,0 3.89694,-1.53913 4.87937,-3.04551 0.26198,1.89935 1.44088,3.04551 3.20925,3.04551 1.76836,0 2.39056,-1.01517 3.27474,-3.30749 -0.22923,0.0982 -0.42572,0.13099 -0.72044,0.13099 -0.91693,0 -1.34265,-0.29473 -1.34265,-1.21166 0,-0.29472 0.0328,-0.6222 0.13099,-1.04791 l 2.35782,-11.13413 -4.71563,0 z m -1.9976,1.8666 c 1.04792,0 1.34265,0.85144 1.34265,1.24441 l -1.57188,7.40091 c -0.39297,1.89935 -1.76836,2.88178 -2.71804,2.88178 -0.58945,0 -1.63737,-0.0327 -1.63737,-2.5543 0,-3.07826 1.80111,-8.9728 4.58464,-8.9728 z"
         style="font-style:normal;font-variant:normal;font-weight:normal;font-stretch:normal;font-size:32.74742889px;line-height:125%;font-family:'Lobster 1.4';-inkscape-font-specification:'Lobster 1.4, Normal';text-align:start;writing-mode:lr-tb;text-anchor:start;fill:#4f8203;fill-opacity:1"
         id="path4350" />
    </g>
    <path
       inkscape:connector-curvature="0"
       style="color:#000000;font-style:normal;font-variant:normal;font-weight:normal;font-stretch:normal;font-size:medium;line-height:normal;font-family:sans-serif;text-indent:0;text-align:start;text-decoration:none;text-decoration-line:none;text-decoration-style:solid;text-decoration-color:#000000;letter-spacing:normal;word-spacing:normal;text-transform:none;direction:ltr;block-progression:tb;writing-mode:lr-tb;baseline-shift:baseline;text-anchor:start;clip-rule:nonzero;display:inline;overflow:visible;visibility:visible;opacity:1;isolation:auto;color-interpolation:sRGB;color-interpolation-filters:linearRGB;fill:#4f8203;fill-opacity:1;fill-rule:nonzero;stroke:none;stroke-width:3.20000005;stroke-linecap:round;stroke-linejoin:miter;stroke-miterlimit:4;stroke-dasharray:none;stroke-dashoffset:0;stroke-opacity:1;marker:none;color-rendering:auto;image-rendering:auto;shape-rendering:auto;text-rendering:auto;enable-background:accumulate"
       d="m 251.87688,351.36121 c -7.86561,0 -14.14732,6.82469 -14.14732,15.03695 0,4.89248 2.23981,9.27961 5.70545,12.03748 2.58666,3.27643 6.45996,5.38415 10.82654,5.38415 7.86573,0 14.14743,-6.8247 14.14743,-15.03695 0,-4.8925 -2.2398,-9.27961 -5.70557,-12.03748 -2.58653,-3.27644 -6.45984,-5.38415 -10.82653,-5.38415 z m 2.38467,6.19922 c 2.10376,0 4.07183,0.68597 5.71487,1.86769 1.39086,1.90314 2.23325,4.31284 2.23325,6.97004 0,6.28996 -4.67909,11.22241 -10.33279,11.22241 -2.10484,0 -4.07171,-0.68716 -5.71475,-1.87002 -1.38967,-1.90291 -2.23099,-4.31122 -2.23099,-6.96771 0,-6.28997 4.67671,-11.22241 10.33041,-11.22241 z"
       id="path4370-5-9-94-3-3-0-8-1-7-5" />
    <path
       inkscape:connector-curvature="0"
       style="color:#000000;font-style:normal;font-variant:normal;font-weight:normal;font-stretch:normal;font-size:medium;line-height:normal;font-family:sans-serif;text-indent:0;text-align:start;text-decoration:none;text-decoration-line:none;text-decoration-style:solid;text-decoration-color:#000000;letter-spacing:normal;word-spacing:normal;text-transform:none;direction:ltr;block-progression:tb;writing-mode:lr-tb;baseline-shift:baseline;text-anchor:start;clip-rule:nonzero;display:inline;overflow:visible;visibility:visible;opacity:1;isolation:auto;color-interpolation:sRGB;color-interpolation-filters:linearRGB;fill:#4f8203;fill-opacity:1;fill-rule:nonzero;stroke:none;stroke-width:3.20000029;stroke-linecap:round;stroke-linejoin:miter;stroke-miterlimit:4;stroke-dasharray:none;stroke-dashoffset:0;stroke-opacity:1;marker:none;color-rendering:auto;image-rendering:auto;shape-rendering:auto;text-rendering:auto;enable-background:accumulate"
       d="m 251.87688,340.5743 c -13.4659,0 -24.29613,11.65032 -24.29613,25.82386 0,8.04991 3.49867,15.27759 8.98438,20.02753 4.42452,5.01532 10.69561,8.18101 17.69642,8.18101 13.46589,0 24.29624,-11.65032 24.29624,-25.82386 0,-8.05306 -3.50201,-15.28466 -8.99141,-20.03453 -4.42428,-5.01103 -10.69216,-8.17401 -17.6895,-8.17401 z m 2.38467,6.20154 c 4.78139,0 9.18278,1.7726 12.67788,4.73441 3.34856,3.90718 5.41678,9.11307 5.41678,14.88791 0,12.24326 -9.21616,22.00932 -20.47933,22.00932 -4.78092,0 -9.1829,-1.77256 -12.67788,-4.73441 -3.34916,-3.90787 -5.41679,-9.11473 -5.41679,-14.89023 0,-12.24326 9.21629,-22.007 20.47934,-22.007 z"
       id="path4370-5-7-4-8-7-7-3-3-4-2-9" />
    <path
       inkscape:connector-curvature="0"
       style="color:#000000;font-style:normal;font-variant:normal;font-weight:normal;font-stretch:normal;font-size:medium;line-height:normal;font-family:sans-serif;text-indent:0;text-align:start;text-decoration:none;text-decoration-line:none;text-decoration-style:solid;text-decoration-color:#000000;letter-spacing:normal;word-spacing:normal;text-transform:none;direction:ltr;block-progression:tb;writing-mode:lr-tb;baseline-shift:baseline;text-anchor:start;clip-rule:nonzero;display:inline;overflow:visible;visibility:visible;opacity:1;isolation:auto;color-interpolation:sRGB;color-interpolation-filters:linearRGB;fill:#4f8203;fill-opacity:1;fill-rule:nonzero;stroke:none;stroke-width:3.20000005;stroke-linecap:round;stroke-linejoin:miter;stroke-miterlimit:4;stroke-dasharray:none;stroke-dashoffset:0;stroke-opacity:1;marker:none;color-rendering:auto;image-rendering:auto;shape-rendering:auto;text-rendering:auto;enable-background:accumulate"
       d="m 251.87688,330.42546 c -18.73734,0 -33.84412,16.19292 -33.84412,35.9727 0,10.91988 4.61076,20.73924 11.88843,27.35155 6.14721,6.77289 14.76697,11.00583 24.34036,11.00583 18.73733,0 33.84424,-16.19294 33.84424,-35.9727 0,-10.92314 -4.61399,-20.74619 -11.89547,-27.35854 -6.14685,-6.76862 -14.76339,-10.99884 -24.33344,-10.99884 z m 2.38467,6.20155 c 7.31284,0 14.02713,2.80176 19.24503,7.46607 5.19191,5.76909 8.39763,13.61447 8.39763,22.30508 0,17.84659 -13.48939,32.15583 -30.02733,32.15583 -7.31559,0 -14.03321,-2.80311 -19.25207,-7.47074 -5.18893,-5.76857 -8.39059,-13.61261 -8.39059,-22.30041 0,-17.8466 13.4895,-32.15583 30.02733,-32.15583 z"
       id="path4370-5-7-6-87-6-8-1-1-3-3-8-6" />
    <path
       style="color:#000000;font-style:normal;font-variant:normal;font-weight:normal;font-stretch:normal;font-size:medium;line-height:normal;font-family:sans-serif;text-indent:0;text-align:start;text-decoration:none;text-decoration-line:none;text-decoration-style:solid;text-decoration-color:#000000;letter-spacing:normal;word-spacing:normal;text-transform:none;direction:ltr;block-progression:tb;writing-mode:lr-tb;baseline-shift:baseline;text-anchor:start;clip-rule:nonzero;display:inline;overflow:visible;visibility:visible;opacity:1;isolation:auto;color-interpolation:sRGB;color-interpolation-filters:linearRGB;fill:#4f8203;fill-opacity:1;fill-rule:nonzero;stroke:none;stroke-width:3.20000005;stroke-linecap:round;stroke-linejoin:miter;stroke-miterlimit:4;stroke-dasharray:none;stroke-dashoffset:0;stroke-opacity:1;marker:none;color-rendering:auto;image-rendering:auto;shape-rendering:auto;text-rendering:auto;enable-background:accumulate"
       d="m 251.42975,319.64552 c -4.89717,0.0476 -9.84727,0.96907 -14.65036,2.83412 -2.77564,2.20875 2.52525,6.39162 3.76564,5.94074 13.91683,-5.40395 29.11328,-2.14719 39.91538,7.80375 1.83309,1.9889 3.51202,4.18615 4.99291,6.59511 10.26053,16.69065 8.38105,38.77554 -4.50155,53.21501 -0.7526,2.67341 3.72355,6.45025 5.23281,4.92538 14.04191,-15.73892 16.05719,-39.6117 4.90432,-57.75381 -2.21024,-3.59546 -4.83791,-6.76534 -7.76641,-9.50143 -8.41849,-9.13925 -19.99954,-14.17442 -31.89274,-14.05887 z"
       id="path4370-5-7-6-8-7-4-4-5-0-2-0-8-3"
       inkscape:connector-curvature="0"
       sodipodi:nodetypes="scccsccccs" />
    <path
       style="color:#000000;font-style:normal;font-variant:normal;font-weight:normal;font-stretch:normal;font-size:medium;line-height:normal;font-family:sans-serif;text-indent:0;text-align:start;text-decoration:none;text-decoration-line:none;text-decoration-style:solid;text-decoration-color:#000000;letter-spacing:normal;word-spacing:normal;text-transform:none;direction:ltr;block-progression:tb;writing-mode:lr-tb;baseline-shift:baseline;text-anchor:start;clip-rule:nonzero;display:inline;overflow:visible;visibility:visible;opacity:1;isolation:auto;color-interpolation:sRGB;color-interpolation-filters:linearRGB;fill:#ffffff;fill-opacity:1;fill-rule:nonzero;stroke:none;stroke-width:3.20000005;stroke-linecap:round;stroke-linejoin:miter;stroke-miterlimit:4;stroke-dasharray:none;stroke-dashoffset:0;stroke-opacity:1;marker:none;color-rendering:auto;image-rendering:auto;shape-rendering:auto;text-rendering:auto;enable-background:accumulate"
       d="m 249.49218,348.97653 c -7.86561,0 -14.14732,6.82469 -14.14732,15.03695 0,4.89248 2.23981,9.27961 5.70545,12.03748 2.58666,3.27643 6.45996,5.38415 10.82654,5.38415 7.86573,0 14.14743,-6.8247 14.14743,-15.03695 0,-4.8925 -2.2398,-9.27961 -5.70557,-12.03748 -2.58653,-3.27644 -6.45984,-5.38415 -10.82653,-5.38415 z m 2.38467,6.19922 c 2.10376,0 4.07183,0.68597 5.71487,1.86769 1.39086,1.90314 2.23325,4.31284 2.23325,6.97004 0,6.28996 -4.67909,11.22241 -10.33279,11.22241 -2.10484,0 -4.07171,-0.68716 -5.71475,-1.87002 -1.38967,-1.90291 -2.23099,-4.31122 -2.23099,-6.96771 0,-6.28997 4.67671,-11.22241 10.33041,-11.22241 z"
       id="path4370-5-9-94-30-9-7-4-8"
       inkscape:connector-curvature="0" />
    <path
       style="color:#000000;font-style:normal;font-variant:normal;font-weight:normal;font-stretch:normal;font-size:medium;line-height:normal;font-family:sans-serif;text-indent:0;text-align:start;text-decoration:none;text-decoration-line:none;text-decoration-style:solid;text-decoration-color:#000000;letter-spacing:normal;word-spacing:normal;text-transform:none;direction:ltr;block-progression:tb;writing-mode:lr-tb;baseline-shift:baseline;text-anchor:start;clip-rule:nonzero;display:inline;overflow:visible;visibility:visible;opacity:1;isolation:auto;color-interpolation:sRGB;color-interpolation-filters:linearRGB;fill:#ffffff;fill-opacity:1;fill-rule:nonzero;stroke:none;stroke-width:3.20000029;stroke-linecap:round;stroke-linejoin:miter;stroke-miterlimit:4;stroke-dasharray:none;stroke-dashoffset:0;stroke-opacity:1;marker:none;color-rendering:auto;image-rendering:auto;shape-rendering:auto;text-rendering:auto;enable-background:accumulate"
       d="m 249.49218,338.18962 c -13.4659,0 -24.29613,11.65032 -24.29613,25.82386 0,8.04991 3.49867,15.27759 8.98438,20.02753 4.42452,5.01532 10.69561,8.18101 17.69642,8.18101 13.46589,0 24.29624,-11.65032 24.29624,-25.82386 0,-8.05306 -3.50201,-15.28466 -8.99141,-20.03453 -4.42428,-5.01103 -10.69216,-8.17401 -17.6895,-8.17401 z m 2.38467,6.20154 c 4.78139,0 9.18278,1.7726 12.67788,4.73441 3.34856,3.90718 5.41678,9.11307 5.41678,14.88791 0,12.24326 -9.21616,22.00932 -20.47933,22.00932 -4.78092,0 -9.1829,-1.77256 -12.67788,-4.73441 -3.34916,-3.90787 -5.41679,-9.11473 -5.41679,-14.89023 0,-12.24326 9.21629,-22.007 20.47934,-22.007 z"
       id="path4370-5-7-4-8-61-4-8-7-9"
       inkscape:connector-curvature="0" />
    <path
       style="color:#000000;font-style:normal;font-variant:normal;font-weight:normal;font-stretch:normal;font-size:medium;line-height:normal;font-family:sans-serif;text-indent:0;text-align:start;text-decoration:none;text-decoration-line:none;text-decoration-style:solid;text-decoration-color:#000000;letter-spacing:normal;word-spacing:normal;text-transform:none;direction:ltr;block-progression:tb;writing-mode:lr-tb;baseline-shift:baseline;text-anchor:start;clip-rule:nonzero;display:inline;overflow:visible;visibility:visible;opacity:1;isolation:auto;color-interpolation:sRGB;color-interpolation-filters:linearRGB;fill:#ffffff;fill-opacity:1;fill-rule:nonzero;stroke:none;stroke-width:3.20000005;stroke-linecap:round;stroke-linejoin:miter;stroke-miterlimit:4;stroke-dasharray:none;stroke-dashoffset:0;stroke-opacity:1;marker:none;color-rendering:auto;image-rendering:auto;shape-rendering:auto;text-rendering:auto;enable-background:accumulate"
       d="m 249.49218,328.04078 c -18.73734,0 -33.84412,16.19292 -33.84412,35.9727 0,10.91988 4.61076,20.73924 11.88843,27.35155 6.14721,6.77289 14.76697,11.00583 24.34036,11.00583 18.73733,0 33.84424,-16.19294 33.84424,-35.9727 0,-10.92314 -4.61399,-20.74619 -11.89547,-27.35854 -6.14685,-6.76862 -14.76339,-10.99884 -24.33344,-10.99884 z m 2.38467,6.20155 c 7.31284,0 14.02713,2.80176 19.24503,7.46607 5.19191,5.76909 8.39763,13.61447 8.39763,22.30508 0,17.84659 -13.48939,32.15583 -30.02733,32.15583 -7.31559,0 -14.03321,-2.80311 -19.25207,-7.47074 -5.18893,-5.76857 -8.39059,-13.61261 -8.39059,-22.30041 0,-17.8466 13.4895,-32.15583 30.02733,-32.15583 z"
       id="path4370-5-7-6-87-6-5-2-5-7-2"
       inkscape:connector-curvature="0" />
    <path
       style="color:#000000;font-style:normal;font-variant:normal;font-weight:normal;font-stretch:normal;font-size:medium;line-height:normal;font-family:sans-serif;text-indent:0;text-align:start;text-decoration:none;text-decoration-line:none;text-decoration-style:solid;text-decoration-color:#000000;letter-spacing:normal;word-spacing:normal;text-transform:none;direction:ltr;block-progression:tb;writing-mode:lr-tb;baseline-shift:baseline;text-anchor:start;clip-rule:nonzero;display:inline;overflow:visible;visibility:visible;opacity:1;isolation:auto;color-interpolation:sRGB;color-interpolation-filters:linearRGB;fill:#ffffff;fill-opacity:1;fill-rule:nonzero;stroke:none;stroke-width:3.20000005;stroke-linecap:round;stroke-linejoin:miter;stroke-miterlimit:4;stroke-dasharray:none;stroke-dashoffset:0;stroke-opacity:1;marker:none;color-rendering:auto;image-rendering:auto;shape-rendering:auto;text-rendering:auto;enable-background:accumulate"
       d="m 249.04505,317.26084 c -4.89717,0.0476 -9.84727,0.96907 -14.65036,2.83412 -2.77564,2.20875 2.52525,6.39162 3.76564,5.94074 13.91683,-5.40395 29.11328,-2.14719 39.91538,7.80375 1.83309,1.9889 3.51202,4.18615 4.99291,6.59511 10.26053,16.69065 8.38105,38.77554 -4.50155,53.21501 -0.7526,2.67341 3.72355,6.45025 5.23281,4.92538 14.04191,-15.73892 16.05719,-39.6117 4.90432,-57.75381 -2.21024,-3.59546 -4.83791,-6.76534 -7.76641,-9.50143 -8.41849,-9.13925 -19.99954,-14.17442 -31.89274,-14.05887 z"
       id="path4370-5-7-6-8-7-4-8-0-3-6-5"
       inkscape:connector-curvature="0"
       sodipodi:nodetypes="scccsccccs" />
    <g
       style="color:#000000;font-style:normal;font-variant:normal;font-weight:normal;font-stretch:normal;font-size:32.74692917px;line-height:125%;font-family:Lato;-inkscape-font-specification:Lato;text-indent:0;text-align:start;text-decoration:none;text-decoration-line:none;letter-spacing:0px;word-spacing:0px;text-transform:none;direction:ltr;block-progression:tb;writing-mode:lr-tb;baseline-shift:baseline;text-anchor:start;display:inline;overflow:visible;visibility:visible;fill:#ffffff;fill-opacity:1;fill-rule:nonzero;stroke:none;stroke-width:1px;stroke-linecap:butt;stroke-linejoin:miter;stroke-opacity:1;marker:none;enable-background:accumulate"
       id="text4277-38-6-7-0-9-8-0">
      <path
         d="m 322.49198,377.95517 5.14135,-24.10211 c -0.78594,-0.32747 -1.83386,-0.45846 -2.58705,-0.45846 -3.83145,0 -8.08861,4.4209 -11.3961,9.66049 -0.6877,-0.0655 -1.24441,-0.0982 -1.70287,-0.0982 -3.8642,0 -6.68048,1.80111 -6.68048,4.02793 0,1.27715 0.91693,1.89935 2.03034,1.89935 1.01517,0 1.83386,-0.49121 1.83386,-1.27715 0,-0.45846 -0.26198,-1.01517 -0.42572,-1.01517 0.42572,-1.11341 1.80111,-1.57187 3.83145,-1.70286 -2.84902,5.01035 -4.81387,10.38093 -4.81387,13.3282 0,3.40573 2.6198,3.47123 4.38816,3.47123 -0.19649,-0.29473 -0.45847,-0.78594 -0.45847,-1.83386 0,-3.40573 1.80111,-9.62774 4.25717,-14.96557 1.44089,0.13099 2.71803,0.42571 4.38815,1.1789 l -2.52155,11.88732 4.71563,0 z m -1.89935,-13.3282 c -1.27715,-0.52396 -2.68529,-0.88418 -3.99519,-1.14616 1.83386,-3.66772 3.9297,-6.71323 5.89454,-7.76114 l -1.89935,8.9073 z"
         style="font-style:normal;font-variant:normal;font-weight:normal;font-stretch:normal;font-size:32.74742889px;line-height:125%;font-family:'Lobster 1.4';-inkscape-font-specification:'Lobster 1.4, Normal';text-align:start;writing-mode:lr-tb;text-anchor:start"
         id="path4353" />
      <path
         d="m 336.27763,366.1006 c 0,2.09584 -1.47364,6.12377 -1.47364,8.35059 0,1.86661 1.01517,3.70046 3.8642,3.70046 1.73561,0 4.25716,-0.68769 6.09102,-6.05827 l -1.37539,0 c -0.72044,1.70287 -1.3099,2.88177 -2.75079,2.88177 -0.98242,0 -1.30989,-0.5567 -1.30989,-1.37539 0,-1.83385 1.57187,-5.79629 1.57187,-8.44884 0,-2.61979 -1.53913,-3.70045 -3.63496,-3.70045 -1.01517,0 -2.45606,0.26197 -3.83145,1.83385 l 0.36022,-1.70286 -4.71563,0 -3.47123,16.37371 4.71563,0 2.22683,-10.51192 c 0.49121,-1.63738 1.37539,-3.01277 2.5543,-3.01277 0.78594,0 1.17891,0.58946 1.17891,1.67012 z"
         style="font-style:normal;font-variant:normal;font-weight:normal;font-stretch:normal;font-size:32.74742889px;line-height:125%;font-family:'Lobster 1.4';-inkscape-font-specification:'Lobster 1.4, Normal';text-align:start;writing-mode:lr-tb;text-anchor:start"
         id="path4355" />
      <path
         d="m 343.44471,372.09338 c -0.16374,0.81869 -0.26198,1.53913 -0.26198,2.16133 0,2.68529 1.47363,3.89694 3.47123,3.89694 3.01276,0 6.12377,-2.09583 8.25235,-4.48639 0.72044,3.1765 1.70286,4.48639 3.7987,4.48639 1.76836,0 4.87937,-0.72044 6.74597,-6.05827 l -1.37539,0 c -0.49121,1.63737 -1.67012,2.88177 -2.94727,2.88177 -1.44089,0 -1.70287,-1.63737 -1.9321,-2.88177 l -0.29473,-1.63737 c 3.20925,-3.40573 4.68289,-5.66531 4.68289,-7.79389 0,-1.60462 -0.75319,-2.91452 -2.22683,-2.91452 -1.01517,0 -1.83385,0.55671 -1.83385,1.53913 0,1.01517 0.39296,1.83385 1.53912,1.83385 0.16374,0 0.36023,-0.0327 0.55671,-0.0655 0.0328,0.13099 0.0328,0.26198 0.0328,0.39297 0,1.17891 -1.17891,3.111 -3.11101,5.20684 l -1.27715,-7.07344 -6.87696,0 1.11342,-5.1741 -4.84662,0.65495 -0.98243,4.51915 -1.08066,0 -0.26198,1.30989 1.08066,0 -1.96484,9.20203 z m 6.68047,-9.20203 2.75079,0 1.67012,9.00555 c -1.44089,1.8011 -3.56947,3.04551 -5.20684,3.04551 -0.85144,0 -1.44089,-0.36023 -1.44089,-1.17891 0,-0.29473 0.0327,-0.6222 0.13099,-1.04792 l 2.09583,-9.82423 z"
         style="font-style:normal;font-variant:normal;font-weight:normal;font-stretch:normal;font-size:32.74742889px;line-height:125%;font-family:'Lobster 1.4';-inkscape-font-specification:'Lobster 1.4, Normal';text-align:start;writing-mode:lr-tb;text-anchor:start"
         id="path4357" />
      <path
         d="m 368.49189,372.65009 c 0,-0.39297 0.0327,-0.85144 0.0655,-1.3099 3.92969,-0.22923 7.53191,-3.14375 7.53191,-6.90971 0,-1.63737 -0.6877,-3.14375 -3.60222,-3.14375 -6.71322,0 -8.8418,7.89213 -8.8418,11.65808 0,3.70046 2.03034,5.20684 5.1086,5.20684 4.3554,0 7.13894,-3.04551 9.00554,-6.05827 l -1.11341,0 c -1.63737,1.8666 -3.20925,3.30749 -5.7963,3.30749 -1.57187,0 -2.35781,-0.52396 -2.35781,-2.75078 z m 5.07585,-8.2851 c 0,2.71803 -2.22683,5.23959 -4.74838,5.40332 0.65495,-3.24199 2.25957,-6.74597 3.92969,-6.74597 0.6222,0 0.81869,0.52396 0.81869,1.34265 z"
         style="font-style:normal;font-variant:normal;font-weight:normal;font-stretch:normal;font-size:32.74742889px;line-height:125%;font-family:'Lobster 1.4';-inkscape-font-specification:'Lobster 1.4, Normal';text-align:start;writing-mode:lr-tb;text-anchor:start"
         id="path4359" />
      <path
         d="m 379.88031,357.06231 -0.98242,4.51915 -1.08066,0 -0.26198,1.30989 1.08066,0 -1.96484,9.20203 c -0.16374,0.78594 -0.26198,1.50638 -0.26198,2.12858 0,2.75079 1.53913,3.92969 3.50397,3.92969 1.76836,0 5.01036,-0.72044 6.87696,-6.05827 l -1.37539,0 c -0.49121,1.63737 -1.67012,2.88177 -2.94727,2.88177 -0.91693,0 -1.34264,-0.29472 -1.34264,-1.21165 0,-0.29473 0.0327,-0.6222 0.13099,-1.04792 l 2.09583,-9.82423 1.96485,0 0.26198,-1.30989 -1.96485,0 1.11341,-5.1741 -4.84662,0.65495 z"
         style="font-style:normal;font-variant:normal;font-weight:normal;font-stretch:normal;font-size:32.74742889px;line-height:125%;font-family:'Lobster 1.4';-inkscape-font-specification:'Lobster 1.4, Normal';text-align:start;writing-mode:lr-tb;text-anchor:start"
         id="path4361" />
      <path
         d="m 396.4367,361.58146 -0.36022,1.73561 0,-0.22923 c 0,-0.94968 -0.78594,-1.67012 -2.65254,-1.67012 -5.69806,0 -8.41609,7.0407 -8.41609,11.4616 0,3.89694 2.12858,5.27233 4.3554,5.27233 2.32507,0 3.8642,-1.50638 4.87937,-3.01276 0.19649,1.96485 1.37539,3.01276 3.20925,3.01276 1.76836,0 4.71563,-0.72044 6.58223,-6.05827 l -1.37539,0 c -0.49121,1.63737 -1.37539,3.07826 -2.65254,3.07826 -0.91693,0 -1.34265,-0.49121 -1.34265,-1.40814 0,-0.29473 0.0328,-0.6222 0.13099,-1.04792 l 2.35782,-11.13412 -4.71563,0 z m -1.99759,1.8666 c 1.04791,0 1.34264,0.85143 1.34264,1.2444 l -1.57188,7.40092 c -0.39296,1.89935 -1.76836,2.88177 -2.71803,2.88177 -0.58946,0 -1.63737,-0.0327 -1.63737,-2.5543 0,-3.07825 1.8011,-8.97279 4.58464,-8.97279 z"
         style="font-style:normal;font-variant:normal;font-weight:normal;font-stretch:normal;font-size:32.74742889px;line-height:125%;font-family:'Lobster 1.4';-inkscape-font-specification:'Lobster 1.4, Normal';text-align:start;writing-mode:lr-tb;text-anchor:start"
         id="path4363" />
      <path
         d="m 420.15863,366.1006 c 0,2.09584 -1.47363,6.12377 -1.47363,8.35059 0,1.86661 1.01517,3.70046 3.86419,3.70046 1.73562,0 4.25717,-0.68769 6.09102,-6.05827 l -1.37539,0 c -0.72044,1.70287 -1.30989,2.88177 -2.75078,2.88177 -0.98242,0 -1.3099,-0.5567 -1.3099,-1.37539 0,-1.83385 1.57188,-5.79629 1.57188,-8.44884 0,-2.61979 -1.53913,-3.70045 -3.63497,-3.70045 -1.21165,0 -2.98001,0.36022 -4.55189,2.78353 -0.36022,-2.03034 -1.63737,-2.81628 -3.37298,-2.81628 -1.14616,0 -2.6198,0.29472 -3.99519,1.8666 l 0.36022,-1.70286 -4.71563,0 -3.47123,16.37371 4.71563,0 2.22683,-10.51192 c 0.49121,-1.63738 1.37539,-3.04552 2.65254,-3.04552 0.72044,0 0.98242,0.72045 0.98242,1.44089 0,0.29473 -0.0327,0.55671 -0.0982,0.81869 l -2.39056,11.29786 4.71563,0 2.22682,-10.51192 c 0.49121,-1.63738 1.3754,-3.01277 2.5543,-3.01277 0.78594,0 1.17891,0.58946 1.17891,1.67012 z"
         style="font-style:normal;font-variant:normal;font-weight:normal;font-stretch:normal;font-size:32.74742889px;line-height:125%;font-family:'Lobster 1.4';-inkscape-font-specification:'Lobster 1.4, Normal';text-align:start;writing-mode:lr-tb;text-anchor:start"
         id="path4365" />
      <path
         d="m 431.68419,372.65009 c 0,-0.39297 0.0328,-0.85144 0.0655,-1.3099 3.92969,-0.22923 7.53191,-3.14375 7.53191,-6.90971 0,-1.63737 -0.6877,-3.14375 -3.60222,-3.14375 -6.71322,0 -8.84181,7.89213 -8.84181,11.65808 0,3.70046 2.03034,5.20684 5.1086,5.20684 4.35541,0 7.13894,-3.04551 9.00555,-6.05827 l -1.11342,0 c -1.63737,1.8666 -3.20924,3.30749 -5.79629,3.30749 -1.57188,0 -2.35782,-0.52396 -2.35782,-2.75078 z m 5.07585,-8.2851 c 0,2.71803 -2.22682,5.23959 -4.74837,5.40332 0.65495,-3.24199 2.25957,-6.74597 3.92969,-6.74597 0.6222,0 0.81868,0.52396 0.81868,1.34265 z"
         style="font-style:normal;font-variant:normal;font-weight:normal;font-stretch:normal;font-size:32.74742889px;line-height:125%;font-family:'Lobster 1.4';-inkscape-font-specification:'Lobster 1.4, Normal';text-align:start;writing-mode:lr-tb;text-anchor:start"
         id="path4367" />
      <path
         d="m 452.11091,355.68692 -1.60462,7.53191 0,-0.13099 c 0,-0.94968 -0.78594,-1.67012 -2.65254,-1.67012 -5.69806,0 -8.41609,7.0407 -8.41609,11.4616 0,3.89694 2.12858,5.27233 4.3554,5.27233 2.32507,0 3.8642,-1.50638 4.84662,-3.01276 0.26198,1.83386 1.44089,2.81628 3.20925,2.81628 1.76836,0 4.71563,-0.52396 6.58223,-5.86179 l -1.37539,0 c -0.49121,1.63737 -1.37539,2.88177 -2.65254,2.88177 -0.91693,0 -1.34264,-0.29472 -1.34264,-1.21165 0,-0.29473 0.0327,-0.6222 0.13099,-1.04792 l 3.76595,-17.68361 -4.84662,0.65495 z m -3.50397,16.5702 c -0.42572,1.80111 -1.76836,2.71803 -2.68529,2.71803 -0.58946,0 -1.63737,-0.0327 -1.63737,-2.5543 0,-3.07825 1.8011,-8.97279 4.58464,-8.97279 0.98242,0 1.27715,0.75319 1.34264,1.14616 l -1.60462,7.49916 0,0.16374 z"
         style="font-style:normal;font-variant:normal;font-weight:normal;font-stretch:normal;font-size:32.74742889px;line-height:125%;font-family:'Lobster 1.4';-inkscape-font-specification:'Lobster 1.4, Normal';text-align:start;writing-mode:lr-tb;text-anchor:start"
         id="path4369" />
      <path
         d="m 459.95035,357.22605 c 0,1.44088 1.14616,2.58704 2.58704,2.58704 1.44089,0 2.6198,-1.14616 2.6198,-2.58704 0,-1.44089 -1.17891,-2.6198 -2.6198,-2.6198 -1.44088,0 -2.58704,1.17891 -2.58704,2.6198 z m -0.65495,4.35541 -2.22683,10.51192 c -0.16373,0.78594 -0.26198,1.50638 -0.26198,2.12858 0,2.75079 1.53913,3.92969 3.50398,3.92969 1.76836,0 5.01036,-0.72044 6.87696,-6.05827 l -1.37539,0 c -0.49121,1.63737 -1.67012,2.88177 -2.94727,2.88177 -0.91693,0 -1.34265,-0.29472 -1.34265,-1.21165 0,-0.29473 0.0328,-0.6222 0.13099,-1.04792 l 2.35782,-11.13412 -4.71563,0 z"
         style="font-style:normal;font-variant:normal;font-weight:normal;font-stretch:normal;font-size:32.74742889px;line-height:125%;font-family:'Lobster 1.4';-inkscape-font-specification:'Lobster 1.4, Normal';text-align:start;writing-mode:lr-tb;text-anchor:start"
         id="path4371" />
      <path
         d="m 476.83419,361.58146 -0.36022,1.73561 0,-0.22923 c 0,-0.94968 -0.78594,-1.67012 -2.65254,-1.67012 -5.69806,0 -8.41609,7.0407 -8.41609,11.4616 0,3.89694 2.12858,5.27233 4.35541,5.27233 2.32506,0 3.89694,-1.53912 4.87936,-3.04551 0.26198,1.89935 1.44089,3.04551 3.20925,3.04551 1.76836,0 2.39056,-1.01517 3.27474,-3.30749 -0.22923,0.0983 -0.42571,0.13099 -0.72044,0.13099 -0.91693,0 -1.34264,-0.29472 -1.34264,-1.21165 0,-0.29473 0.0327,-0.6222 0.13099,-1.04792 l 2.35781,-11.13412 -4.71563,0 z m -1.99759,1.8666 c 1.04792,0 1.34264,0.85143 1.34264,1.2444 l -1.57187,7.40092 c -0.39297,1.89935 -1.76837,2.88177 -2.71804,2.88177 -0.58945,0 -1.63737,-0.0327 -1.63737,-2.5543 0,-3.07825 1.80111,-8.97279 4.58464,-8.97279 z"
         style="font-style:normal;font-variant:normal;font-weight:normal;font-stretch:normal;font-size:32.74742889px;line-height:125%;font-family:'Lobster 1.4';-inkscape-font-specification:'Lobster 1.4, Normal';text-align:start;writing-mode:lr-tb;text-anchor:start"
         id="path4373" />
    </g>
    <path
       inkscape:connector-curvature="0"
       style="color:#000000;font-style:normal;font-variant:normal;font-weight:normal;font-stretch:normal;font-size:medium;line-height:normal;font-family:sans-serif;text-indent:0;text-align:start;text-decoration:none;text-decoration-line:none;text-decoration-style:solid;text-decoration-color:#000000;letter-spacing:normal;word-spacing:normal;text-transform:none;direction:ltr;block-progression:tb;writing-mode:lr-tb;baseline-shift:baseline;text-anchor:start;clip-rule:nonzero;display:inline;overflow:visible;visibility:visible;opacity:1;isolation:auto;color-interpolation:sRGB;color-interpolation-filters:linearRGB;fill:#ffffff;fill-opacity:1;fill-rule:nonzero;stroke:none;stroke-width:3.20000005;stroke-linecap:round;stroke-linejoin:miter;stroke-miterlimit:4;stroke-dasharray:none;stroke-dashoffset:0;stroke-opacity:1;marker:none;color-rendering:auto;image-rendering:auto;shape-rendering:auto;text-rendering:auto;enable-background:accumulate"
       d="m 249.49218,348.97653 c -7.86561,0 -14.14732,6.82469 -14.14732,15.03695 0,4.89248 2.23981,9.27961 5.70545,12.03748 2.58666,3.27643 6.45996,5.38415 10.82654,5.38415 7.86573,0 14.14743,-6.8247 14.14743,-15.03695 0,-4.8925 -2.2398,-9.27961 -5.70557,-12.03748 -2.58653,-3.27644 -6.45984,-5.38415 -10.82653,-5.38415 z m 2.38467,6.19922 c 2.10376,0 4.07183,0.68597 5.71487,1.86769 1.39086,1.90314 2.23325,4.31284 2.23325,6.97004 0,6.28996 -4.67909,11.22241 -10.33279,11.22241 -2.10484,0 -4.07171,-0.68716 -5.71475,-1.87002 -1.38967,-1.90291 -2.23099,-4.31122 -2.23099,-6.96771 0,-6.28997 4.67671,-11.22241 10.33041,-11.22241 z"
       id="path4370-5-9-94-3-5-6-2-2-4" />
    <path
       inkscape:connector-curvature="0"
       style="color:#000000;font-style:normal;font-variant:normal;font-weight:normal;font-stretch:normal;font-size:medium;line-height:normal;font-family:sans-serif;text-indent:0;text-align:start;text-decoration:none;text-decoration-line:none;text-decoration-style:solid;text-decoration-color:#000000;letter-spacing:normal;word-spacing:normal;text-transform:none;direction:ltr;block-progression:tb;writing-mode:lr-tb;baseline-shift:baseline;text-anchor:start;clip-rule:nonzero;display:inline;overflow:visible;visibility:visible;opacity:1;isolation:auto;color-interpolation:sRGB;color-interpolation-filters:linearRGB;fill:#ffffff;fill-opacity:1;fill-rule:nonzero;stroke:none;stroke-width:3.20000029;stroke-linecap:round;stroke-linejoin:miter;stroke-miterlimit:4;stroke-dasharray:none;stroke-dashoffset:0;stroke-opacity:1;marker:none;color-rendering:auto;image-rendering:auto;shape-rendering:auto;text-rendering:auto;enable-background:accumulate"
       d="m 249.49218,338.18962 c -13.4659,0 -24.29613,11.65032 -24.29613,25.82386 0,8.04991 3.49867,15.27759 8.98438,20.02753 4.42452,5.01532 10.69561,8.18101 17.69642,8.18101 13.46589,0 24.29624,-11.65032 24.29624,-25.82386 0,-8.05306 -3.50201,-15.28466 -8.99141,-20.03453 -4.42428,-5.01103 -10.69216,-8.17401 -17.6895,-8.17401 z m 2.38467,6.20154 c 4.78139,0 9.18278,1.7726 12.67788,4.73441 3.34856,3.90718 5.41678,9.11307 5.41678,14.88791 0,12.24326 -9.21616,22.00932 -20.47933,22.00932 -4.78092,0 -9.1829,-1.77256 -12.67788,-4.73441 -3.34916,-3.90787 -5.41679,-9.11473 -5.41679,-14.89023 0,-12.24326 9.21629,-22.007 20.47934,-22.007 z"
       id="path4370-5-7-4-8-7-8-9-4-1-6" />
    <path
       inkscape:connector-curvature="0"
       style="color:#000000;font-style:normal;font-variant:normal;font-weight:normal;font-stretch:normal;font-size:medium;line-height:normal;font-family:sans-serif;text-indent:0;text-align:start;text-decoration:none;text-decoration-line:none;text-decoration-style:solid;text-decoration-color:#000000;letter-spacing:normal;word-spacing:normal;text-transform:none;direction:ltr;block-progression:tb;writing-mode:lr-tb;baseline-shift:baseline;text-anchor:start;clip-rule:nonzero;display:inline;overflow:visible;visibility:visible;opacity:1;isolation:auto;color-interpolation:sRGB;color-interpolation-filters:linearRGB;fill:#ffffff;fill-opacity:1;fill-rule:nonzero;stroke:none;stroke-width:3.20000005;stroke-linecap:round;stroke-linejoin:miter;stroke-miterlimit:4;stroke-dasharray:none;stroke-dashoffset:0;stroke-opacity:1;marker:none;color-rendering:auto;image-rendering:auto;shape-rendering:auto;text-rendering:auto;enable-background:accumulate"
       d="m 249.49218,328.04078 c -18.73734,0 -33.84412,16.19292 -33.84412,35.9727 0,10.91988 4.61076,20.73924 11.88843,27.35155 6.14721,6.77289 14.76697,11.00583 24.34036,11.00583 18.73733,0 33.84424,-16.19294 33.84424,-35.9727 0,-10.92314 -4.61399,-20.74619 -11.89547,-27.35854 -6.14685,-6.76862 -14.76339,-10.99884 -24.33344,-10.99884 z m 2.38467,6.20155 c 7.31284,0 14.02713,2.80176 19.24503,7.46607 5.19191,5.76909 8.39763,13.61447 8.39763,22.30508 0,17.84659 -13.48939,32.15583 -30.02733,32.15583 -7.31559,0 -14.03321,-2.80311 -19.25207,-7.47074 -5.18893,-5.76857 -8.39059,-13.61261 -8.39059,-22.30041 0,-17.8466 13.4895,-32.15583 30.02733,-32.15583 z"
       id="path4370-5-7-6-87-6-8-0-6-3-4-9" />
    <path
       style="color:#000000;font-style:normal;font-variant:normal;font-weight:normal;font-stretch:normal;font-size:medium;line-height:normal;font-family:sans-serif;text-indent:0;text-align:start;text-decoration:none;text-decoration-line:none;text-decoration-style:solid;text-decoration-color:#000000;letter-spacing:normal;word-spacing:normal;text-transform:none;direction:ltr;block-progression:tb;writing-mode:lr-tb;baseline-shift:baseline;text-anchor:start;clip-rule:nonzero;display:inline;overflow:visible;visibility:visible;opacity:1;isolation:auto;color-interpolation:sRGB;color-interpolation-filters:linearRGB;fill:#ffffff;fill-opacity:1;fill-rule:nonzero;stroke:none;stroke-width:3.20000005;stroke-linecap:round;stroke-linejoin:miter;stroke-miterlimit:4;stroke-dasharray:none;stroke-dashoffset:0;stroke-opacity:1;marker:none;color-rendering:auto;image-rendering:auto;shape-rendering:auto;text-rendering:auto;enable-background:accumulate"
       d="m 249.04505,317.26084 c -4.89717,0.0476 -9.84727,0.96907 -14.65036,2.83412 -2.77564,2.20875 2.52525,6.39162 3.76564,5.94074 13.91683,-5.40395 29.11328,-2.14719 39.91538,7.80375 1.83309,1.9889 3.51202,4.18615 4.99291,6.59511 10.26053,16.69065 8.38105,38.77554 -4.50155,53.21501 -0.7526,2.67341 3.72355,6.45025 5.23281,4.92538 14.04191,-15.73892 16.05719,-39.6117 4.90432,-57.75381 -2.21024,-3.59546 -4.83791,-6.76534 -7.76641,-9.50143 -8.41849,-9.13925 -19.99954,-14.17442 -31.89274,-14.05887 z"
       id="path4370-5-7-6-8-7-4-4-7-6-9-4-9"
       inkscape:connector-curvature="0"
       sodipodi:nodetypes="scccsccccs" />
  </g>
</svg>
