<?xml version="1.0" encoding="UTF-8" standalone="no"?>
<!-- Created with Inkscape (http://www.inkscape.org/) -->

<svg
   xmlns:dc="http://purl.org/dc/elements/1.1/"
   xmlns:cc="http://creativecommons.org/ns#"
   xmlns:rdf="http://www.w3.org/1999/02/22-rdf-syntax-ns#"
   xmlns:svg="http://www.w3.org/2000/svg"
   xmlns="http://www.w3.org/2000/svg"
   xmlns:sodipodi="http://sodipodi.sourceforge.net/DTD/sodipodi-0.dtd"
   xmlns:inkscape="http://www.inkscape.org/namespaces/inkscape"
   width="300"
   height="97.390564"
   id="svg2"
   sodipodi:version="0.32"
   inkscape:version="0.91pre1 r13432"
   sodipodi:docname="antxetamedia.svg"
   inkscape:output_extension="org.inkscape.output.svg.inkscape"
   version="1.1"
   viewBox="0 0 299.99999 97.390566">
  <defs
     id="defs4" />
  <sodipodi:namedview
     id="base"
     pagecolor="#ffffff"
     bordercolor="#666666"
     borderopacity="1.0"
     inkscape:pageopacity="0.0"
     inkscape:pageshadow="2"
     inkscape:zoom="0.95703125"
     inkscape:cx="144.98976"
     inkscape:cy="-122.65969"
     inkscape:document-units="px"
     inkscape:current-layer="layer1"
     inkscape:window-width="1598"
     inkscape:window-height="879"
     inkscape:window-x="0"
     inkscape:window-y="19"
     showgrid="false"
     fit-margin-top="0"
     fit-margin-left="0"
     fit-margin-right="0"
     fit-margin-bottom="0"
     inkscape:window-maximized="0" />
  <metadata
     id="metadata7">
    <rdf:RDF>
      <cc:Work
         rdf:about="">
        <dc:format>image/svg+xml</dc:format>
        <dc:type
           rdf:resource="http://purl.org/dc/dcmitype/StillImage" />
        <dc:title></dc:title>
      </cc:Work>
    </rdf:RDF>
  </metadata>
  <g
     inkscape:label="Capa 1"
     inkscape:groupmode="layer"
     id="layer1"
     transform="translate(-205.01024,-312.31193)">
    <g
       id="g5627-5-5-3-9-4"
       transform="matrix(1.1923367,0,0,1.1923367,-1411.5838,-349.23677)">
      <rect
         ry="7.4254918"
         y="554.8338"
         x="1355.8201"
         height="81.68042"
         width="251.60678"
         id="rect4240-0-6-2-8-3-6"
         style="color:#000000;display:inline;overflow:visible;visibility:visible;opacity:1;fill:#5a9503;fill-opacity:1;fill-rule:nonzero;stroke:none;stroke-width:2.23399997;stroke-linecap:round;stroke-linejoin:miter;stroke-miterlimit:4;stroke-dasharray:none;stroke-dashoffset:0;stroke-opacity:1;marker:none;enable-background:accumulate" />
      <g
         transform="translate(1.7360435,2.2284053)"
         id="g5586-5-9-0-2-8">
        <text
           xml:space="preserve"
           style="color:#000000;font-style:normal;font-variant:normal;font-weight:normal;font-stretch:normal;font-size:27.46449852px;line-height:125%;font-family:Lato;-inkscape-font-specification:Lato;text-indent:0;text-align:start;text-decoration:none;text-decoration-line:none;letter-spacing:0px;word-spacing:0px;text-transform:none;direction:ltr;block-progression:tb;writing-mode:lr-tb;baseline-shift:baseline;text-anchor:start;display:inline;overflow:visible;visibility:visible;fill:#ffffff;fill-opacity:1;fill-rule:nonzero;stroke:none;stroke-width:1px;stroke-linecap:butt;stroke-linejoin:miter;stroke-opacity:1;marker:none;enable-background:accumulate"
           x="1437.921"
           y="607.65967"
           id="text4277-38-17-6-5-4-7"
           sodipodi:linespacing="125%"><tspan
             sodipodi:role="line"
             id="tspan4279-0-3-7-3-1-0"
             x="1437.921"
             y="607.65967"
             style="font-style:normal;font-variant:normal;font-weight:normal;font-stretch:normal;font-size:27.46491623px;line-height:125%;font-family:'Lobster 1.4';-inkscape-font-specification:'Lobster 1.4, Normal';text-align:start;writing-mode:lr-tb;text-anchor:start">Antxetamedia</tspan></text>
        <g
           transform="translate(2.0000225,2.0000036)"
           id="g5529-7-9-0-3-5-2"
           style="fill:#4f8203;fill-opacity:1">
          <path
             inkscape:connector-curvature="0"
             id="path4370-5-9-94-35-8-3-5-3-2"
             d="m 1391.3906,583.3556 c -6.5968,0 -11.8652,5.72379 -11.8652,12.61133 0,4.10327 1.8785,7.78271 4.7851,10.0957 2.1694,2.74791 5.4179,4.51563 9.0801,4.51563 6.5969,0 11.8653,-5.7238 11.8653,-12.61133 0,-4.10328 -1.8785,-7.78271 -4.7852,-10.0957 -2.1693,-2.74792 -5.4178,-4.51563 -9.0801,-4.51563 z m 2,5.19922 c 1.7644,0 3.415,0.57531 4.793,1.56641 1.1665,1.59614 1.873,3.61713 1.873,5.8457 0,5.27532 -3.9243,9.41211 -8.666,9.41211 -1.7653,0 -3.4149,-0.57631 -4.7929,-1.56836 -1.1655,-1.59595 -1.8711,-3.61578 -1.8711,-5.84375 0,-5.27533 3.9223,-9.41211 8.664,-9.41211 z"
             style="color:#000000;font-style:normal;font-variant:normal;font-weight:normal;font-stretch:normal;font-size:medium;line-height:normal;font-family:sans-serif;text-indent:0;text-align:start;text-decoration:none;text-decoration-line:none;text-decoration-style:solid;text-decoration-color:#000000;letter-spacing:normal;word-spacing:normal;text-transform:none;direction:ltr;block-progression:tb;writing-mode:lr-tb;baseline-shift:baseline;text-anchor:start;clip-rule:nonzero;display:inline;overflow:visible;visibility:visible;opacity:1;isolation:auto;color-interpolation:sRGB;color-interpolation-filters:linearRGB;fill:#4f8203;fill-opacity:1;fill-rule:nonzero;stroke:none;stroke-width:3.20000005;stroke-linecap:round;stroke-linejoin:miter;stroke-miterlimit:4;stroke-dasharray:none;stroke-dashoffset:0;stroke-opacity:1;marker:none;color-rendering:auto;image-rendering:auto;shape-rendering:auto;text-rendering:auto;enable-background:accumulate" />
          <path
             inkscape:connector-curvature="0"
             id="path4370-5-7-4-8-0-1-3-8-6-2"
             d="m 1391.3906,574.30873 c -11.2937,0 -20.3769,9.771 -20.3769,21.6582 0,6.75137 2.9343,12.81315 7.5351,16.79687 3.7108,4.2063 8.9703,6.86133 14.8418,6.86133 11.2937,0 20.377,-9.771 20.377,-21.6582 0,-6.75401 -2.9371,-12.81908 -7.541,-16.80274 -3.7106,-4.2027 -8.9674,-6.85546 -14.836,-6.85546 z m 2,5.20117 c 4.0101,0 7.7015,1.48666 10.6328,3.9707 2.8084,3.27691 4.543,7.64303 4.543,12.48633 0,10.26829 -7.7295,18.45898 -17.1758,18.45898 -4.0097,0 -7.7016,-1.48663 -10.6328,-3.9707 -2.8089,-3.27749 -4.543,-7.64443 -4.543,-12.48828 0,-10.26829 7.7296,-18.45703 17.1758,-18.45703 z"
             style="color:#000000;font-style:normal;font-variant:normal;font-weight:normal;font-stretch:normal;font-size:medium;line-height:normal;font-family:sans-serif;text-indent:0;text-align:start;text-decoration:none;text-decoration-line:none;text-decoration-style:solid;text-decoration-color:#000000;letter-spacing:normal;word-spacing:normal;text-transform:none;direction:ltr;block-progression:tb;writing-mode:lr-tb;baseline-shift:baseline;text-anchor:start;clip-rule:nonzero;display:inline;overflow:visible;visibility:visible;opacity:1;isolation:auto;color-interpolation:sRGB;color-interpolation-filters:linearRGB;fill:#4f8203;fill-opacity:1;fill-rule:nonzero;stroke:none;stroke-width:3.20000029;stroke-linecap:round;stroke-linejoin:miter;stroke-miterlimit:4;stroke-dasharray:none;stroke-dashoffset:0;stroke-opacity:1;marker:none;color-rendering:auto;image-rendering:auto;shape-rendering:auto;text-rendering:auto;enable-background:accumulate" />
          <path
             inkscape:connector-curvature="0"
             id="path4370-5-7-6-87-6-4-7-1-0-3-5"
             d="m 1391.3906,565.79701 c -15.7148,0 -28.3847,13.58083 -28.3847,30.16992 0,9.15838 3.867,17.39378 9.9707,22.93945 5.1556,5.68035 12.3849,9.23047 20.414,9.23047 15.7148,0 28.3848,-13.58084 28.3848,-30.16992 0,-9.16112 -3.8697,-17.3996 -9.9766,-22.94531 -5.1553,-5.67677 -12.3819,-9.22461 -20.4082,-9.22461 z m 2,5.20117 c 6.1332,0 11.7644,2.34981 16.1406,6.26172 4.3544,4.83847 7.043,11.41831 7.043,18.70703 0,14.96774 -11.3134,26.96875 -25.1836,26.96875 -6.1355,0 -11.7695,-2.35094 -16.1465,-6.26563 -4.3519,-4.83804 -7.0371,-11.41675 -7.0371,-18.70312 0,-14.96775 11.3135,-26.96875 25.1836,-26.96875 z"
             style="color:#000000;font-style:normal;font-variant:normal;font-weight:normal;font-stretch:normal;font-size:medium;line-height:normal;font-family:sans-serif;text-indent:0;text-align:start;text-decoration:none;text-decoration-line:none;text-decoration-style:solid;text-decoration-color:#000000;letter-spacing:normal;word-spacing:normal;text-transform:none;direction:ltr;block-progression:tb;writing-mode:lr-tb;baseline-shift:baseline;text-anchor:start;clip-rule:nonzero;display:inline;overflow:visible;visibility:visible;opacity:1;isolation:auto;color-interpolation:sRGB;color-interpolation-filters:linearRGB;fill:#4f8203;fill-opacity:1;fill-rule:nonzero;stroke:none;stroke-width:3.20000005;stroke-linecap:round;stroke-linejoin:miter;stroke-miterlimit:4;stroke-dasharray:none;stroke-dashoffset:0;stroke-opacity:1;marker:none;color-rendering:auto;image-rendering:auto;shape-rendering:auto;text-rendering:auto;enable-background:accumulate" />
          <path
             sodipodi:nodetypes="scccsccccs"
             inkscape:connector-curvature="0"
             id="path4370-5-7-6-8-7-4-40-9-4-8-9-1"
             d="m 1391.0156,556.75599 c -4.1072,0.0399 -8.2588,0.81275 -12.2871,2.37695 -2.3279,1.85245 2.1179,5.36058 3.1582,4.98243 11.6719,-4.53223 24.417,-1.80082 33.4766,6.54492 1.5374,1.66807 2.9455,3.51088 4.1875,5.53125 8.6054,13.99827 7.0291,32.52063 -3.7754,44.63086 -0.6312,2.24216 3.1229,5.40975 4.3887,4.13086 11.7768,-13.20006 13.467,-33.22191 4.1132,-48.4375 -1.8537,-3.01547 -4.0575,-5.67402 -6.5136,-7.96875 -7.0605,-7.66499 -16.7734,-11.88793 -26.7481,-11.79102 z"
             style="color:#000000;font-style:normal;font-variant:normal;font-weight:normal;font-stretch:normal;font-size:medium;line-height:normal;font-family:sans-serif;text-indent:0;text-align:start;text-decoration:none;text-decoration-line:none;text-decoration-style:solid;text-decoration-color:#000000;letter-spacing:normal;word-spacing:normal;text-transform:none;direction:ltr;block-progression:tb;writing-mode:lr-tb;baseline-shift:baseline;text-anchor:start;clip-rule:nonzero;display:inline;overflow:visible;visibility:visible;opacity:1;isolation:auto;color-interpolation:sRGB;color-interpolation-filters:linearRGB;fill:#4f8203;fill-opacity:1;fill-rule:nonzero;stroke:none;stroke-width:3.20000005;stroke-linecap:round;stroke-linejoin:miter;stroke-miterlimit:4;stroke-dasharray:none;stroke-dashoffset:0;stroke-opacity:1;marker:none;color-rendering:auto;image-rendering:auto;shape-rendering:auto;text-rendering:auto;enable-background:accumulate" />
          <text
             sodipodi:linespacing="125%"
             id="text4277-38-6-2-5-7-4-4-3"
             y="607.65967"
             x="1437.921"
             style="color:#000000;font-style:normal;font-variant:normal;font-weight:normal;font-stretch:normal;font-size:27.46449852px;line-height:125%;font-family:Lato;-inkscape-font-specification:Lato;text-indent:0;text-align:start;text-decoration:none;text-decoration-line:none;letter-spacing:0px;word-spacing:0px;text-transform:none;direction:ltr;block-progression:tb;writing-mode:lr-tb;baseline-shift:baseline;text-anchor:start;display:inline;overflow:visible;visibility:visible;fill:#4f8203;fill-opacity:1;fill-rule:nonzero;stroke:none;stroke-width:1px;stroke-linecap:butt;stroke-linejoin:miter;stroke-opacity:1;marker:none;enable-background:accumulate"
             xml:space="preserve"><tspan
               style="font-style:normal;font-variant:normal;font-weight:normal;font-stretch:normal;font-size:27.46491623px;line-height:125%;font-family:'Lobster 1.4';-inkscape-font-specification:'Lobster 1.4, Normal';text-align:start;writing-mode:lr-tb;text-anchor:start;fill:#4f8203;fill-opacity:1"
               y="607.65967"
               x="1437.921"
               id="tspan4279-0-0-8-7-1-8-4-4"
               sodipodi:role="line">Antxetamedia</tspan></text>
          <path
             id="path4370-5-9-94-3-3-0-8-1-7-5"
             d="m 1391.3906,583.3556 c -6.5968,0 -11.8652,5.72379 -11.8652,12.61133 0,4.10327 1.8785,7.78271 4.7851,10.0957 2.1694,2.74791 5.4179,4.51563 9.0801,4.51563 6.5969,0 11.8653,-5.7238 11.8653,-12.61133 0,-4.10328 -1.8785,-7.78271 -4.7852,-10.0957 -2.1693,-2.74792 -5.4178,-4.51563 -9.0801,-4.51563 z m 2,5.19922 c 1.7644,0 3.415,0.57531 4.793,1.56641 1.1665,1.59614 1.873,3.61713 1.873,5.8457 0,5.27532 -3.9243,9.41211 -8.666,9.41211 -1.7653,0 -3.4149,-0.57631 -4.7929,-1.56836 -1.1655,-1.59595 -1.8711,-3.61578 -1.8711,-5.84375 0,-5.27533 3.9223,-9.41211 8.664,-9.41211 z"
             style="color:#000000;font-style:normal;font-variant:normal;font-weight:normal;font-stretch:normal;font-size:medium;line-height:normal;font-family:sans-serif;text-indent:0;text-align:start;text-decoration:none;text-decoration-line:none;text-decoration-style:solid;text-decoration-color:#000000;letter-spacing:normal;word-spacing:normal;text-transform:none;direction:ltr;block-progression:tb;writing-mode:lr-tb;baseline-shift:baseline;text-anchor:start;clip-rule:nonzero;display:inline;overflow:visible;visibility:visible;opacity:1;isolation:auto;color-interpolation:sRGB;color-interpolation-filters:linearRGB;fill:#4f8203;fill-opacity:1;fill-rule:nonzero;stroke:none;stroke-width:3.20000005;stroke-linecap:round;stroke-linejoin:miter;stroke-miterlimit:4;stroke-dasharray:none;stroke-dashoffset:0;stroke-opacity:1;marker:none;color-rendering:auto;image-rendering:auto;shape-rendering:auto;text-rendering:auto;enable-background:accumulate"
             inkscape:connector-curvature="0" />
          <path
             id="path4370-5-7-4-8-7-7-3-3-4-2-9"
             d="m 1391.3906,574.30873 c -11.2937,0 -20.3769,9.771 -20.3769,21.6582 0,6.75137 2.9343,12.81315 7.5351,16.79687 3.7108,4.2063 8.9703,6.86133 14.8418,6.86133 11.2937,0 20.377,-9.771 20.377,-21.6582 0,-6.75401 -2.9371,-12.81908 -7.541,-16.80274 -3.7106,-4.2027 -8.9674,-6.85546 -14.836,-6.85546 z m 2,5.20117 c 4.0101,0 7.7015,1.48666 10.6328,3.9707 2.8084,3.27691 4.543,7.64303 4.543,12.48633 0,10.26829 -7.7295,18.45898 -17.1758,18.45898 -4.0097,0 -7.7016,-1.48663 -10.6328,-3.9707 -2.8089,-3.27749 -4.543,-7.64443 -4.543,-12.48828 0,-10.26829 7.7296,-18.45703 17.1758,-18.45703 z"
             style="color:#000000;font-style:normal;font-variant:normal;font-weight:normal;font-stretch:normal;font-size:medium;line-height:normal;font-family:sans-serif;text-indent:0;text-align:start;text-decoration:none;text-decoration-line:none;text-decoration-style:solid;text-decoration-color:#000000;letter-spacing:normal;word-spacing:normal;text-transform:none;direction:ltr;block-progression:tb;writing-mode:lr-tb;baseline-shift:baseline;text-anchor:start;clip-rule:nonzero;display:inline;overflow:visible;visibility:visible;opacity:1;isolation:auto;color-interpolation:sRGB;color-interpolation-filters:linearRGB;fill:#4f8203;fill-opacity:1;fill-rule:nonzero;stroke:none;stroke-width:3.20000029;stroke-linecap:round;stroke-linejoin:miter;stroke-miterlimit:4;stroke-dasharray:none;stroke-dashoffset:0;stroke-opacity:1;marker:none;color-rendering:auto;image-rendering:auto;shape-rendering:auto;text-rendering:auto;enable-background:accumulate"
             inkscape:connector-curvature="0" />
          <path
             id="path4370-5-7-6-87-6-8-1-1-3-3-8-6"
             d="m 1391.3906,565.79701 c -15.7148,0 -28.3847,13.58083 -28.3847,30.16992 0,9.15838 3.867,17.39378 9.9707,22.93945 5.1556,5.68035 12.3849,9.23047 20.414,9.23047 15.7148,0 28.3848,-13.58084 28.3848,-30.16992 0,-9.16112 -3.8697,-17.3996 -9.9766,-22.94531 -5.1553,-5.67677 -12.3819,-9.22461 -20.4082,-9.22461 z m 2,5.20117 c 6.1332,0 11.7644,2.34981 16.1406,6.26172 4.3544,4.83847 7.043,11.41831 7.043,18.70703 0,14.96774 -11.3134,26.96875 -25.1836,26.96875 -6.1355,0 -11.7695,-2.35094 -16.1465,-6.26563 -4.3519,-4.83804 -7.0371,-11.41675 -7.0371,-18.70312 0,-14.96775 11.3135,-26.96875 25.1836,-26.96875 z"
             style="color:#000000;font-style:normal;font-variant:normal;font-weight:normal;font-stretch:normal;font-size:medium;line-height:normal;font-family:sans-serif;text-indent:0;text-align:start;text-decoration:none;text-decoration-line:none;text-decoration-style:solid;text-decoration-color:#000000;letter-spacing:normal;word-spacing:normal;text-transform:none;direction:ltr;block-progression:tb;writing-mode:lr-tb;baseline-shift:baseline;text-anchor:start;clip-rule:nonzero;display:inline;overflow:visible;visibility:visible;opacity:1;isolation:auto;color-interpolation:sRGB;color-interpolation-filters:linearRGB;fill:#4f8203;fill-opacity:1;fill-rule:nonzero;stroke:none;stroke-width:3.20000005;stroke-linecap:round;stroke-linejoin:miter;stroke-miterlimit:4;stroke-dasharray:none;stroke-dashoffset:0;stroke-opacity:1;marker:none;color-rendering:auto;image-rendering:auto;shape-rendering:auto;text-rendering:auto;enable-background:accumulate"
             inkscape:connector-curvature="0" />
          <path
             sodipodi:nodetypes="scccsccccs"
             inkscape:connector-curvature="0"
             id="path4370-5-7-6-8-7-4-4-5-0-2-0-8-3"
             d="m 1391.0156,556.75599 c -4.1072,0.0399 -8.2588,0.81275 -12.2871,2.37695 -2.3279,1.85245 2.1179,5.36058 3.1582,4.98243 11.6719,-4.53223 24.417,-1.80082 33.4766,6.54492 1.5374,1.66807 2.9455,3.51088 4.1875,5.53125 8.6054,13.99827 7.0291,32.52063 -3.7754,44.63086 -0.6312,2.24216 3.1229,5.40975 4.3887,4.13086 11.7768,-13.20006 13.467,-33.22191 4.1132,-48.4375 -1.8537,-3.01547 -4.0575,-5.67402 -6.5136,-7.96875 -7.0605,-7.66499 -16.7734,-11.88793 -26.7481,-11.79102 z"
             style="color:#000000;font-style:normal;font-variant:normal;font-weight:normal;font-stretch:normal;font-size:medium;line-height:normal;font-family:sans-serif;text-indent:0;text-align:start;text-decoration:none;text-decoration-line:none;text-decoration-style:solid;text-decoration-color:#000000;letter-spacing:normal;word-spacing:normal;text-transform:none;direction:ltr;block-progression:tb;writing-mode:lr-tb;baseline-shift:baseline;text-anchor:start;clip-rule:nonzero;display:inline;overflow:visible;visibility:visible;opacity:1;isolation:auto;color-interpolation:sRGB;color-interpolation-filters:linearRGB;fill:#4f8203;fill-opacity:1;fill-rule:nonzero;stroke:none;stroke-width:3.20000005;stroke-linecap:round;stroke-linejoin:miter;stroke-miterlimit:4;stroke-dasharray:none;stroke-dashoffset:0;stroke-opacity:1;marker:none;color-rendering:auto;image-rendering:auto;shape-rendering:auto;text-rendering:auto;enable-background:accumulate" />
        </g>
        <g
           id="g5529-6-5-6-8-4">
          <path
             inkscape:connector-curvature="0"
             id="path4370-5-9-94-30-9-7-4-8"
             d="m 1391.3906,583.3556 c -6.5968,0 -11.8652,5.72379 -11.8652,12.61133 0,4.10327 1.8785,7.78271 4.7851,10.0957 2.1694,2.74791 5.4179,4.51563 9.0801,4.51563 6.5969,0 11.8653,-5.7238 11.8653,-12.61133 0,-4.10328 -1.8785,-7.78271 -4.7852,-10.0957 -2.1693,-2.74792 -5.4178,-4.51563 -9.0801,-4.51563 z m 2,5.19922 c 1.7644,0 3.415,0.57531 4.793,1.56641 1.1665,1.59614 1.873,3.61713 1.873,5.8457 0,5.27532 -3.9243,9.41211 -8.666,9.41211 -1.7653,0 -3.4149,-0.57631 -4.7929,-1.56836 -1.1655,-1.59595 -1.8711,-3.61578 -1.8711,-5.84375 0,-5.27533 3.9223,-9.41211 8.664,-9.41211 z"
             style="color:#000000;font-style:normal;font-variant:normal;font-weight:normal;font-stretch:normal;font-size:medium;line-height:normal;font-family:sans-serif;text-indent:0;text-align:start;text-decoration:none;text-decoration-line:none;text-decoration-style:solid;text-decoration-color:#000000;letter-spacing:normal;word-spacing:normal;text-transform:none;direction:ltr;block-progression:tb;writing-mode:lr-tb;baseline-shift:baseline;text-anchor:start;clip-rule:nonzero;display:inline;overflow:visible;visibility:visible;opacity:1;isolation:auto;color-interpolation:sRGB;color-interpolation-filters:linearRGB;fill:#ffffff;fill-opacity:1;fill-rule:nonzero;stroke:none;stroke-width:3.20000005;stroke-linecap:round;stroke-linejoin:miter;stroke-miterlimit:4;stroke-dasharray:none;stroke-dashoffset:0;stroke-opacity:1;marker:none;color-rendering:auto;image-rendering:auto;shape-rendering:auto;text-rendering:auto;enable-background:accumulate" />
          <path
             inkscape:connector-curvature="0"
             id="path4370-5-7-4-8-61-4-8-7-9"
             d="m 1391.3906,574.30873 c -11.2937,0 -20.3769,9.771 -20.3769,21.6582 0,6.75137 2.9343,12.81315 7.5351,16.79687 3.7108,4.2063 8.9703,6.86133 14.8418,6.86133 11.2937,0 20.377,-9.771 20.377,-21.6582 0,-6.75401 -2.9371,-12.81908 -7.541,-16.80274 -3.7106,-4.2027 -8.9674,-6.85546 -14.836,-6.85546 z m 2,5.20117 c 4.0101,0 7.7015,1.48666 10.6328,3.9707 2.8084,3.27691 4.543,7.64303 4.543,12.48633 0,10.26829 -7.7295,18.45898 -17.1758,18.45898 -4.0097,0 -7.7016,-1.48663 -10.6328,-3.9707 -2.8089,-3.27749 -4.543,-7.64443 -4.543,-12.48828 0,-10.26829 7.7296,-18.45703 17.1758,-18.45703 z"
             style="color:#000000;font-style:normal;font-variant:normal;font-weight:normal;font-stretch:normal;font-size:medium;line-height:normal;font-family:sans-serif;text-indent:0;text-align:start;text-decoration:none;text-decoration-line:none;text-decoration-style:solid;text-decoration-color:#000000;letter-spacing:normal;word-spacing:normal;text-transform:none;direction:ltr;block-progression:tb;writing-mode:lr-tb;baseline-shift:baseline;text-anchor:start;clip-rule:nonzero;display:inline;overflow:visible;visibility:visible;opacity:1;isolation:auto;color-interpolation:sRGB;color-interpolation-filters:linearRGB;fill:#ffffff;fill-opacity:1;fill-rule:nonzero;stroke:none;stroke-width:3.20000029;stroke-linecap:round;stroke-linejoin:miter;stroke-miterlimit:4;stroke-dasharray:none;stroke-dashoffset:0;stroke-opacity:1;marker:none;color-rendering:auto;image-rendering:auto;shape-rendering:auto;text-rendering:auto;enable-background:accumulate" />
          <path
             inkscape:connector-curvature="0"
             id="path4370-5-7-6-87-6-5-2-5-7-2"
             d="m 1391.3906,565.79701 c -15.7148,0 -28.3847,13.58083 -28.3847,30.16992 0,9.15838 3.867,17.39378 9.9707,22.93945 5.1556,5.68035 12.3849,9.23047 20.414,9.23047 15.7148,0 28.3848,-13.58084 28.3848,-30.16992 0,-9.16112 -3.8697,-17.3996 -9.9766,-22.94531 -5.1553,-5.67677 -12.3819,-9.22461 -20.4082,-9.22461 z m 2,5.20117 c 6.1332,0 11.7644,2.34981 16.1406,6.26172 4.3544,4.83847 7.043,11.41831 7.043,18.70703 0,14.96774 -11.3134,26.96875 -25.1836,26.96875 -6.1355,0 -11.7695,-2.35094 -16.1465,-6.26563 -4.3519,-4.83804 -7.0371,-11.41675 -7.0371,-18.70312 0,-14.96775 11.3135,-26.96875 25.1836,-26.96875 z"
             style="color:#000000;font-style:normal;font-variant:normal;font-weight:normal;font-stretch:normal;font-size:medium;line-height:normal;font-family:sans-serif;text-indent:0;text-align:start;text-decoration:none;text-decoration-line:none;text-decoration-style:solid;text-decoration-color:#000000;letter-spacing:normal;word-spacing:normal;text-transform:none;direction:ltr;block-progression:tb;writing-mode:lr-tb;baseline-shift:baseline;text-anchor:start;clip-rule:nonzero;display:inline;overflow:visible;visibility:visible;opacity:1;isolation:auto;color-interpolation:sRGB;color-interpolation-filters:linearRGB;fill:#ffffff;fill-opacity:1;fill-rule:nonzero;stroke:none;stroke-width:3.20000005;stroke-linecap:round;stroke-linejoin:miter;stroke-miterlimit:4;stroke-dasharray:none;stroke-dashoffset:0;stroke-opacity:1;marker:none;color-rendering:auto;image-rendering:auto;shape-rendering:auto;text-rendering:auto;enable-background:accumulate" />
          <path
             sodipodi:nodetypes="scccsccccs"
             inkscape:connector-curvature="0"
             id="path4370-5-7-6-8-7-4-8-0-3-6-5"
             d="m 1391.0156,556.75599 c -4.1072,0.0399 -8.2588,0.81275 -12.2871,2.37695 -2.3279,1.85245 2.1179,5.36058 3.1582,4.98243 11.6719,-4.53223 24.417,-1.80082 33.4766,6.54492 1.5374,1.66807 2.9455,3.51088 4.1875,5.53125 8.6054,13.99827 7.0291,32.52063 -3.7754,44.63086 -0.6312,2.24216 3.1229,5.40975 4.3887,4.13086 11.7768,-13.20006 13.467,-33.22191 4.1132,-48.4375 -1.8537,-3.01547 -4.0575,-5.67402 -6.5136,-7.96875 -7.0605,-7.66499 -16.7734,-11.88793 -26.7481,-11.79102 z"
             style="color:#000000;font-style:normal;font-variant:normal;font-weight:normal;font-stretch:normal;font-size:medium;line-height:normal;font-family:sans-serif;text-indent:0;text-align:start;text-decoration:none;text-decoration-line:none;text-decoration-style:solid;text-decoration-color:#000000;letter-spacing:normal;word-spacing:normal;text-transform:none;direction:ltr;block-progression:tb;writing-mode:lr-tb;baseline-shift:baseline;text-anchor:start;clip-rule:nonzero;display:inline;overflow:visible;visibility:visible;opacity:1;isolation:auto;color-interpolation:sRGB;color-interpolation-filters:linearRGB;fill:#ffffff;fill-opacity:1;fill-rule:nonzero;stroke:none;stroke-width:3.20000005;stroke-linecap:round;stroke-linejoin:miter;stroke-miterlimit:4;stroke-dasharray:none;stroke-dashoffset:0;stroke-opacity:1;marker:none;color-rendering:auto;image-rendering:auto;shape-rendering:auto;text-rendering:auto;enable-background:accumulate" />
          <text
             sodipodi:linespacing="125%"
             id="text4277-38-6-7-0-9-8-0"
             y="607.65967"
             x="1437.921"
             style="color:#000000;font-style:normal;font-variant:normal;font-weight:normal;font-stretch:normal;font-size:27.46449852px;line-height:125%;font-family:Lato;-inkscape-font-specification:Lato;text-indent:0;text-align:start;text-decoration:none;text-decoration-line:none;letter-spacing:0px;word-spacing:0px;text-transform:none;direction:ltr;block-progression:tb;writing-mode:lr-tb;baseline-shift:baseline;text-anchor:start;display:inline;overflow:visible;visibility:visible;fill:#ffffff;fill-opacity:1;fill-rule:nonzero;stroke:none;stroke-width:1px;stroke-linecap:butt;stroke-linejoin:miter;stroke-opacity:1;marker:none;enable-background:accumulate"
             xml:space="preserve"><tspan
               style="font-style:normal;font-variant:normal;font-weight:normal;font-stretch:normal;font-size:27.46491623px;line-height:125%;font-family:'Lobster 1.4';-inkscape-font-specification:'Lobster 1.4, Normal';text-align:start;writing-mode:lr-tb;text-anchor:start"
               y="607.65967"
               x="1437.921"
               id="tspan4279-0-0-2-2-4-3-4"
               sodipodi:role="line">Antxetamedia</tspan></text>
          <path
             id="path4370-5-9-94-3-5-6-2-2-4"
             d="m 1391.3906,583.3556 c -6.5968,0 -11.8652,5.72379 -11.8652,12.61133 0,4.10327 1.8785,7.78271 4.7851,10.0957 2.1694,2.74791 5.4179,4.51563 9.0801,4.51563 6.5969,0 11.8653,-5.7238 11.8653,-12.61133 0,-4.10328 -1.8785,-7.78271 -4.7852,-10.0957 -2.1693,-2.74792 -5.4178,-4.51563 -9.0801,-4.51563 z m 2,5.19922 c 1.7644,0 3.415,0.57531 4.793,1.56641 1.1665,1.59614 1.873,3.61713 1.873,5.8457 0,5.27532 -3.9243,9.41211 -8.666,9.41211 -1.7653,0 -3.4149,-0.57631 -4.7929,-1.56836 -1.1655,-1.59595 -1.8711,-3.61578 -1.8711,-5.84375 0,-5.27533 3.9223,-9.41211 8.664,-9.41211 z"
             style="color:#000000;font-style:normal;font-variant:normal;font-weight:normal;font-stretch:normal;font-size:medium;line-height:normal;font-family:sans-serif;text-indent:0;text-align:start;text-decoration:none;text-decoration-line:none;text-decoration-style:solid;text-decoration-color:#000000;letter-spacing:normal;word-spacing:normal;text-transform:none;direction:ltr;block-progression:tb;writing-mode:lr-tb;baseline-shift:baseline;text-anchor:start;clip-rule:nonzero;display:inline;overflow:visible;visibility:visible;opacity:1;isolation:auto;color-interpolation:sRGB;color-interpolation-filters:linearRGB;fill:#ffffff;fill-opacity:1;fill-rule:nonzero;stroke:none;stroke-width:3.20000005;stroke-linecap:round;stroke-linejoin:miter;stroke-miterlimit:4;stroke-dasharray:none;stroke-dashoffset:0;stroke-opacity:1;marker:none;color-rendering:auto;image-rendering:auto;shape-rendering:auto;text-rendering:auto;enable-background:accumulate"
             inkscape:connector-curvature="0" />
          <path
             id="path4370-5-7-4-8-7-8-9-4-1-6"
             d="m 1391.3906,574.30873 c -11.2937,0 -20.3769,9.771 -20.3769,21.6582 0,6.75137 2.9343,12.81315 7.5351,16.79687 3.7108,4.2063 8.9703,6.86133 14.8418,6.86133 11.2937,0 20.377,-9.771 20.377,-21.6582 0,-6.75401 -2.9371,-12.81908 -7.541,-16.80274 -3.7106,-4.2027 -8.9674,-6.85546 -14.836,-6.85546 z m 2,5.20117 c 4.0101,0 7.7015,1.48666 10.6328,3.9707 2.8084,3.27691 4.543,7.64303 4.543,12.48633 0,10.26829 -7.7295,18.45898 -17.1758,18.45898 -4.0097,0 -7.7016,-1.48663 -10.6328,-3.9707 -2.8089,-3.27749 -4.543,-7.64443 -4.543,-12.48828 0,-10.26829 7.7296,-18.45703 17.1758,-18.45703 z"
             style="color:#000000;font-style:normal;font-variant:normal;font-weight:normal;font-stretch:normal;font-size:medium;line-height:normal;font-family:sans-serif;text-indent:0;text-align:start;text-decoration:none;text-decoration-line:none;text-decoration-style:solid;text-decoration-color:#000000;letter-spacing:normal;word-spacing:normal;text-transform:none;direction:ltr;block-progression:tb;writing-mode:lr-tb;baseline-shift:baseline;text-anchor:start;clip-rule:nonzero;display:inline;overflow:visible;visibility:visible;opacity:1;isolation:auto;color-interpolation:sRGB;color-interpolation-filters:linearRGB;fill:#ffffff;fill-opacity:1;fill-rule:nonzero;stroke:none;stroke-width:3.20000029;stroke-linecap:round;stroke-linejoin:miter;stroke-miterlimit:4;stroke-dasharray:none;stroke-dashoffset:0;stroke-opacity:1;marker:none;color-rendering:auto;image-rendering:auto;shape-rendering:auto;text-rendering:auto;enable-background:accumulate"
             inkscape:connector-curvature="0" />
          <path
             id="path4370-5-7-6-87-6-8-0-6-3-4-9"
             d="m 1391.3906,565.79701 c -15.7148,0 -28.3847,13.58083 -28.3847,30.16992 0,9.15838 3.867,17.39378 9.9707,22.93945 5.1556,5.68035 12.3849,9.23047 20.414,9.23047 15.7148,0 28.3848,-13.58084 28.3848,-30.16992 0,-9.16112 -3.8697,-17.3996 -9.9766,-22.94531 -5.1553,-5.67677 -12.3819,-9.22461 -20.4082,-9.22461 z m 2,5.20117 c 6.1332,0 11.7644,2.34981 16.1406,6.26172 4.3544,4.83847 7.043,11.41831 7.043,18.70703 0,14.96774 -11.3134,26.96875 -25.1836,26.96875 -6.1355,0 -11.7695,-2.35094 -16.1465,-6.26563 -4.3519,-4.83804 -7.0371,-11.41675 -7.0371,-18.70312 0,-14.96775 11.3135,-26.96875 25.1836,-26.96875 z"
             style="color:#000000;font-style:normal;font-variant:normal;font-weight:normal;font-stretch:normal;font-size:medium;line-height:normal;font-family:sans-serif;text-indent:0;text-align:start;text-decoration:none;text-decoration-line:none;text-decoration-style:solid;text-decoration-color:#000000;letter-spacing:normal;word-spacing:normal;text-transform:none;direction:ltr;block-progression:tb;writing-mode:lr-tb;baseline-shift:baseline;text-anchor:start;clip-rule:nonzero;display:inline;overflow:visible;visibility:visible;opacity:1;isolation:auto;color-interpolation:sRGB;color-interpolation-filters:linearRGB;fill:#ffffff;fill-opacity:1;fill-rule:nonzero;stroke:none;stroke-width:3.20000005;stroke-linecap:round;stroke-linejoin:miter;stroke-miterlimit:4;stroke-dasharray:none;stroke-dashoffset:0;stroke-opacity:1;marker:none;color-rendering:auto;image-rendering:auto;shape-rendering:auto;text-rendering:auto;enable-background:accumulate"
             inkscape:connector-curvature="0" />
          <path
             sodipodi:nodetypes="scccsccccs"
             inkscape:connector-curvature="0"
             id="path4370-5-7-6-8-7-4-4-7-6-9-4-9"
             d="m 1391.0156,556.75599 c -4.1072,0.0399 -8.2588,0.81275 -12.2871,2.37695 -2.3279,1.85245 2.1179,5.36058 3.1582,4.98243 11.6719,-4.53223 24.417,-1.80082 33.4766,6.54492 1.5374,1.66807 2.9455,3.51088 4.1875,5.53125 8.6054,13.99827 7.0291,32.52063 -3.7754,44.63086 -0.6312,2.24216 3.1229,5.40975 4.3887,4.13086 11.7768,-13.20006 13.467,-33.22191 4.1132,-48.4375 -1.8537,-3.01547 -4.0575,-5.67402 -6.5136,-7.96875 -7.0605,-7.66499 -16.7734,-11.88793 -26.7481,-11.79102 z"
             style="color:#000000;font-style:normal;font-variant:normal;font-weight:normal;font-stretch:normal;font-size:medium;line-height:normal;font-family:sans-serif;text-indent:0;text-align:start;text-decoration:none;text-decoration-line:none;text-decoration-style:solid;text-decoration-color:#000000;letter-spacing:normal;word-spacing:normal;text-transform:none;direction:ltr;block-progression:tb;writing-mode:lr-tb;baseline-shift:baseline;text-anchor:start;clip-rule:nonzero;display:inline;overflow:visible;visibility:visible;opacity:1;isolation:auto;color-interpolation:sRGB;color-interpolation-filters:linearRGB;fill:#ffffff;fill-opacity:1;fill-rule:nonzero;stroke:none;stroke-width:3.20000005;stroke-linecap:round;stroke-linejoin:miter;stroke-miterlimit:4;stroke-dasharray:none;stroke-dashoffset:0;stroke-opacity:1;marker:none;color-rendering:auto;image-rendering:auto;shape-rendering:auto;text-rendering:auto;enable-background:accumulate" />
        </g>
      </g>
    </g>
  </g>
</svg>
