<?xml version="1.0" encoding="UTF-8" standalone="no"?>
<!-- Created with Inkscape (http://www.inkscape.org/) -->

<svg
   xmlns:dc="http://purl.org/dc/elements/1.1/"
   xmlns:cc="http://creativecommons.org/ns#"
   xmlns:rdf="http://www.w3.org/1999/02/22-rdf-syntax-ns#"
   xmlns:svg="http://www.w3.org/2000/svg"
   xmlns="http://www.w3.org/2000/svg"
   xmlns:sodipodi="http://sodipodi.sourceforge.net/DTD/sodipodi-0.dtd"
   xmlns:inkscape="http://www.inkscape.org/namespaces/inkscape"
   id="svg4268"
   version="1.1"
   inkscape:version="0.91pre1 r13432"
   width="417.02841"
   height="135.40065"
   viewBox="0 0 417.02842 135.40066"
   sodipodi:docname="antxetairratia.svg">
  <metadata
     id="metadata4274">
    <rdf:RDF>
      <cc:Work
         rdf:about="">
        <dc:format>image/svg+xml</dc:format>
        <dc:type
           rdf:resource="http://purl.org/dc/dcmitype/StillImage" />
        <dc:title></dc:title>
      </cc:Work>
    </rdf:RDF>
  </metadata>
  <defs
     id="defs4272" />
  <sodipodi:namedview
     pagecolor="#ffffff"
     bordercolor="#666666"
     borderopacity="1"
     objecttolerance="10"
     gridtolerance="10"
     guidetolerance="10"
     inkscape:pageopacity="0"
     inkscape:pageshadow="2"
     inkscape:window-width="1598"
     inkscape:window-height="879"
     id="namedview4270"
     showgrid="false"
     fit-margin-top="0"
     fit-margin-left="0"
     fit-margin-right="0"
     fit-margin-bottom="0"
     inkscape:zoom="0.61831109"
     inkscape:cx="-74.843794"
     inkscape:cy="-36.480359"
     inkscape:window-x="0"
     inkscape:window-y="19"
     inkscape:window-maximized="0"
     inkscape:current-layer="svg4268" />
  <path
     style="fill:#ffffff"
     d="m 162.26633,27.485668 -3.86693,10.0166 -3.8693,10.01659 1.18638,0 c 1.16471,0 1.20968,-0.06027 2.36798,-3.272558 l 1.17926,-3.274926 4.09425,0 4.09427,0 1.17923,3.274926 c 1.15976,3.216285 1.20141,3.272558 2.37273,3.272558 l 1.19348,0 -3.74615,-9.912396 -3.74618,-9.910042 -1.21951,-0.106567 z m 111.66252,0 -3.86693,10.0166 -3.86929,10.01659 1.18638,0 c 1.1647,0 1.20967,-0.06027 2.36797,-3.272558 l 1.18163,-3.274926 4.09188,0 4.09426,0 1.17926,3.274926 c 1.15972,3.216285 1.20139,3.272558 2.37272,3.272558 l 1.19347,0 -3.74616,-9.912396 -3.74615,-9.910042 -1.21951,-0.106567 z m -97.29593,0.02837 0,10.00239 0,10.002387 1.13663,0 1.13426,0 -0.14673,-8.183771 c -0.0807,-4.501073 -0.1076,-8.18377 -0.0592,-8.18377 0.0484,0 2.56449,3.682697 5.59082,8.18377 5.37659,7.996648 5.53067,8.183771 6.74403,8.183771 l 1.24082,0 0,-10.002387 0,-10.00239 -1.1461,0 -1.14375,0 0.19892,8.183775 c 0.10998,4.501074 0.0944,8.179151 -0.0356,8.174302 -0.12999,-0.005 -2.67614,-3.6875 -5.65711,-8.183771 -5.27144,-7.951029 -5.45289,-8.174306 -6.63748,-8.174306 z m 20.00477,0 0,0.909313 c 0,0.898396 0.0373,0.909308 3.09259,0.909308 l 3.09261,0 0,9.093077 0,9.093079 1.27159,0 1.27397,0 0,-9.093079 0,-9.093077 3.09025,0 c 3.05526,0 3.09258,-0.01097 3.09258,-0.909308 l 0,-0.909313 -7.4568,0 z m 18.72133,0 c -0.94446,0 -1.22984,0.125391 -1.03482,0.454658 0.14807,0.25006 1.54983,2.372385 3.1139,4.717041 1.56409,2.344668 2.84159,4.354844 2.84159,4.466022 0,0.111178 -1.47214,2.403472 -3.27255,5.093543 -1.80044,2.690084 -3.27256,4.976353 -3.27256,5.081711 0,0.105349 0.53146,0.188274 1.18161,0.187057 1.09954,-0.0037 1.34259,-0.255739 3.47148,-3.615913 3.79862,-5.995613 3.13682,-5.895007 6.2515,-0.935351 1.4727,2.345068 2.88175,4.342187 3.13048,4.437606 0.24871,0.09542 0.87015,0.119414 1.3829,0.05447 0.90813,-0.114941 0.84811,-0.244228 -2.32299,-5.027249 -1.79052,-2.700643 -3.25989,-5.080327 -3.26546,-5.287721 -0.006,-0.207396 1.22913,-2.173391 2.7445,-4.366569 3.8005,-5.500395 3.69825,-5.261841 2.25905,-5.254567 -1.09764,0.005 -1.36508,0.26427 -3.28914,3.182581 -1.15196,1.747277 -2.39209,3.562692 -2.75633,4.032683 l -0.66304,0.854847 -2.59767,-4.037424 c -2.5145,-3.906548 -2.64049,-4.037429 -3.90245,-4.037429 z m 19.1073,0 0,10.00239 0,10.002387 5.81813,0 5.82053,0 0,-0.909307 0,-0.909308 -4.72888,0 -4.72887,0 0,-3.819568 0,-3.819564 4.36659,0 4.36418,0 0,-0.909309 0,-0.909307 -4.36418,0 -4.36659,0 0,-3.454897 0,-3.454896 4.54653,0 4.54655,0 0,-0.909308 0,-0.909313 -5.6358,0 z m 14.91122,0 0,0.909313 c 0,0.898396 0.0373,0.909308 3.09259,0.909308 l 3.09261,0 0,9.093077 0,9.093079 1.27159,0 1.274,0 0,-9.093079 0,-9.093077 3.0902,0 c 3.05529,0 3.09261,-0.01097 3.09261,-0.909308 l 0,-0.909313 -7.45681,0 z m -85.82776,2.801338 c 0.26818,0.295805 2.90079,8.068665 2.90079,8.565014 0,0.14966 -1.39219,0.272321 -3.0926,0.272321 -1.70041,0 -3.0926,-0.106568 -3.0926,-0.236796 0,-0.799912 3.06954,-8.83754 3.28441,-8.600539 z m 111.66253,0 c 0.2682,0.295805 2.90079,8.068665 2.90079,8.565014 0,0.14966 -1.3922,0.272321 -3.09261,0.272321 -1.7004,0 -3.09021,-0.106568 -3.09021,-0.236796 0,-0.799912 3.06715,-8.83754 3.28203,-8.600539 z m 54.00437,26.260991 c -9.35405,0 -18.70982,0.156623 -19.02443,0.471246 -0.28186,0.281859 -0.43572,1.738544 -0.43572,4.110817 0,2.372291 0.15386,3.826618 0.43572,4.108458 0.30766,0.307679 2.40246,0.438089 7.09449,0.438089 l 6.65405,0 0,20.852516 c 0,11.469388 0.11457,20.967107 0.25337,21.105867 0.13874,0.13871 2.47161,0.20696 5.18354,0.15155 l 4.93014,-0.0994 0.0947,-21.006427 0.0924,-21.004058 6.65404,0 c 4.68974,0 6.78212,-0.130419 7.08975,-0.43808 0.28187,-0.281849 0.43573,-1.736176 0.43573,-4.108458 0,-2.372282 -0.15386,-3.828958 -0.43573,-4.110826 -0.31461,-0.314623 -9.66801,-0.471237 -19.02203,-0.471237 z m -169.49595,0.03547 c -2.93806,0 -4.54641,0.144336 -4.83779,0.435722 -0.33101,0.331 -0.43572,6.470305 -0.43572,25.401412 0,13.72995 0.10814,25.071519 0.24154,25.204869 0.45036,0.45036 9.40137,0.27424 9.86979,-0.19417 0.63123,-0.63123 0.63123,-49.780872 0,-50.412111 -0.29138,-0.291376 -1.89973,-0.435722 -4.83782,-0.435722 z m 200.41241,0 c -2.93807,0 -4.54643,0.144336 -4.83782,0.435722 -0.33098,0.331 -0.43808,6.470305 -0.43808,25.401412 0,13.72995 0.11057,25.071529 0.24392,25.204869 0.45035,0.45036 9.40136,0.27424 9.86977,-0.19417 0.63125,-0.63123 0.63125,-49.780872 0,-50.412111 -0.29138,-0.291376 -1.89971,-0.435722 -4.83779,-0.435722 z m -173.02897,0.01217 c -10.31942,-0.01095 -10.82451,0.01975 -11.18402,0.691452 -0.58356,1.090413 -0.51723,49.568101 0.0686,50.154021 0.31815,0.31812 1.80818,0.4176 5.18353,0.34571 l 4.73598,-0.0994 0.18233,-10.549379 0.18233,-10.547023 4.90885,0 4.9112,0 1.51316,3.090228 c 0.83202,1.700398 2.96028,6.486835 4.72886,10.634634 l 3.21573,7.53967 5.33982,0.007 c 4.87627,0.005 5.35826,-0.052 5.55294,-0.6654 0.22151,-0.69792 -7.02681,-16.64059 -9.39383,-20.660694 l -1.24318,-2.10988 1.70731,-0.975612 c 2.09534,-1.196688 4.25655,-3.533258 5.16459,-5.586088 1.86166,-4.208603 1.66311,-10.14774 -0.47833,-14.354752 -1.42995,-2.809202 -3.28704,-4.352518 -6.54038,-5.434537 -3.60798,-1.199963 -6.97414,-1.467859 -18.55557,-1.479978 z m 47.28401,0 c -10.31941,-0.01095 -10.82452,0.01975 -11.18402,0.691452 -0.58357,1.090413 -0.51724,49.568101 0.0686,50.154021 0.31815,0.31812 1.80819,0.4176 5.18354,0.34571 l 4.73598,-0.0994 0.18233,-10.549379 0.18232,-10.547023 4.90886,0 4.91119,0 1.51316,3.090228 c 0.83202,1.700398 2.96028,6.486835 4.72887,10.634634 l 3.21573,7.53967 5.33981,0.007 c 4.87627,0.005 5.35827,-0.052 5.55295,-0.6654 0.2215,-0.69792 -7.02682,-16.64059 -9.39383,-20.660694 l -1.24318,-2.10988 1.70732,-0.975612 c 2.09533,-1.196688 4.25651,-3.533258 5.16458,-5.586088 1.86168,-4.208603 1.66311,-10.14774 -0.47832,-14.354752 -1.42996,-2.809202 -3.28706,-4.352518 -6.5404,-5.434537 -3.60797,-1.199963 -6.97413,-1.467859 -18.55557,-1.479978 z m 51.77608,0.03285 c -2.24643,0.0037 -2.59164,0.143755 -2.76345,0.582528 -1.38913,3.547539 -17.65573,49.327535 -17.65573,49.689875 0,0.26525 0.11487,0.59545 0.25339,0.73408 0.13858,0.13859 2.52956,0.20683 5.31375,0.15154 l 5.06277,-0.0994 2.41535,-6.91214 2.41298,-6.9098 7.82147,0 7.8191,0 2.36562,6.9098 2.36326,6.91214 4.94909,0.0994 c 3.82742,0.078 5.04089,-0.01 5.35877,-0.39309 0.31726,-0.38226 -1.61092,-6.21302 -8.45373,-25.562426 l -8.86339,-25.065173 -5.45585,-0.101839 c -1.23538,-0.02265 -2.1946,-0.03678 -2.9434,-0.03547 z m 105.11503,0 c -2.24642,0.0037 -2.59163,0.143755 -2.76345,0.582528 -1.38912,3.547539 -17.65334,49.327535 -17.65334,49.689875 0,0.26525 0.11234,0.59545 0.251,0.73408 0.13859,0.13859 2.52957,0.20683 5.31377,0.15154 l 5.06276,-0.0994 2.41535,-6.91214 2.41535,-6.9098 7.81909,0 7.82148,0 2.36324,6.9098 2.36325,6.91214 4.9491,0.0994 c 3.8274,0.078 5.04089,-0.01 5.35877,-0.39309 0.31724,-0.38226 -1.60854,-6.21302 -8.45136,-25.562426 l -8.86576,-25.065173 -5.45346,-0.101839 c -1.2354,-0.02265 -2.19698,-0.03678 -2.94579,-0.03547 z m -205.18862,8.264289 6.8198,0.118459 c 6.19979,0.108503 6.9566,0.191381 8.31639,0.918779 1.91283,1.023256 2.68529,2.620544 2.68529,5.54346 0,3.092585 -0.91085,4.785572 -3.16126,5.874965 -1.54927,0.749998 -2.37786,0.854149 -7.92093,0.98747 -3.40581,0.08198 -6.31693,0.02227 -6.46698,-0.13261 -0.15003,-0.154892 -0.27231,-3.21302 -0.27231,-6.79613 z m 47.284,0 6.8198,0.118459 c 6.19978,0.108503 6.95661,0.191381 8.3164,0.918779 1.91283,1.023256 2.68528,2.620544 2.68528,5.54346 0,3.092585 -0.91086,4.785572 -3.16125,5.874965 -1.54927,0.749998 -2.37787,0.854149 -7.92092,0.98747 -3.40581,0.08198 -6.31695,0.02227 -6.46699,-0.13261 -0.15004,-0.154892 -0.27232,-3.21302 -0.27232,-6.79613 z m 55.73538,4.245794 2.43665,7.999069 c 1.34012,4.398899 2.37473,8.121348 2.29932,8.271383 -0.0754,0.150035 -2.35252,0.272313 -5.06276,0.272313 -3.78918,0 -4.89106,-0.104992 -4.76204,-0.454644 0.19429,-0.526443 0.62722,-1.890563 3.2039,-10.090007 z m 105.1174,0 2.43664,7.999069 c 1.34013,4.398899 2.37475,8.121348 2.29934,8.271383 -0.0754,0.150035 -2.35491,0.272313 -5.06513,0.272313 -3.78919,0 -4.8887,-0.104992 -4.75968,-0.454644 0.1943,-0.526443 0.62722,-1.890563 3.2039,-10.090007 z"
     id="path4278-0"
     inkscape:connector-curvature="0"
     sodipodi:nodetypes="cccscccccsccccccccscccccscccccccccccssscccccccssccsscccccccsscccsssssscssscscscscccsccccccccccccccccccccccccccsscccccccsscccssssscssscscssscscccccscssssssssssscscssssssccccccccccccccsssssssccccccccccscccsssssssccccccccccscccssssccccccccccscccsccsssssscccsssssscccsssscccssssc" />
  <g
     id="g4342"
     transform="matrix(0.94704544,0,0,0.94704544,-95.895759,-28.383618)">
    <path
       id="path4337"
       d="m 172.70898,29.970703 c -3.32742,0 -6.65569,0.163026 -9.18359,0.486328 -28.91445,3.697968 -52.8984,24.979354 -60.10742,53.335938 -1.5383,6.050883 -2.16016,11.116355 -2.16016,17.607421 0,6.49106 0.62186,11.55459 2.16016,17.60547 7.79088,30.64534 34.94606,52.66791 66.44141,53.88281 33.73544,1.30131 63.82504,-21.17357 72.14062,-53.88281 1.53864,-6.05219 2.14844,-11.04324 2.14844,-17.60547 0,-6.562232 -0.6098,-11.555233 -2.14844,-17.607421 C 234.79293,55.444047 210.79921,34.154 181.89258,30.457031 c -2.5279,-0.323302 -5.85617,-0.486328 -9.1836,-0.486328 z m 0.0254,17.144531 c 2.99265,0.0023 5.99049,0.148253 7.92382,0.439454 7.96042,1.199002 15.66564,4.146416 22.14453,8.470703 11.36859,7.587885 19.2932,18.805909 22.69336,32.123047 2.11913,8.299788 2.06602,18.361382 -0.14257,27.074222 -5.28923,20.86585 -23.05896,36.77717 -44.69532,40.02343 -3.74672,0.56217 -12.49155,0.55294 -16.16015,-0.0176 -22.65308,-3.52282 -40.6901,-20.75471 -45.20508,-43.1875 -0.83297,-4.13859 -1.13745,-13.103227 -0.59375,-17.472661 0.47049,-3.781049 2.07552,-10.000596 3.46094,-13.416015 7.34877,-18.116663 23.3177,-30.690243 42.68359,-33.609375 1.91199,-0.2882 4.89796,-0.430067 7.89063,-0.427735 z"
       style="color:#000000;text-decoration:none;text-decoration-line:none;text-decoration-style:solid;text-decoration-color:#000000;clip-rule:nonzero;display:inline;overflow:visible;visibility:visible;opacity:1;isolation:auto;color-interpolation:sRGB;color-interpolation-filters:linearRGB;fill:#036da4;fill-opacity:1;fill-rule:evenodd;stroke:none;stroke-width:1;stroke-linecap:round;stroke-linejoin:miter;stroke-miterlimit:4;stroke-dasharray:none;stroke-dashoffset:0;stroke-opacity:1;marker:none;color-rendering:auto;image-rendering:auto;shape-rendering:auto;text-rendering:auto;enable-background:accumulate"
       inkscape:connector-curvature="0" />
    <path
       id="path4300-8"
       d="m 173.00977,61.339844 0,7.279297 0,7.28125 1.57421,0.002 c 3.6659,0.0049 9.30703,2.013739 12.92774,4.605468 2.12328,1.51986 5.03217,4.484492 6.46875,6.589844 2.30675,3.380629 4.22156,9.011062 4.22656,12.427735 l 0.002,1.574222 7.2793,0 7.28125,0 -0.20703,-2.923832 c -0.97062,-13.703898 -9.33309,-26.120503 -21.9082,-32.529297 -4.70806,-2.399424 -9.48048,-3.728455 -14.72071,-4.099609 l -2.92382,-0.207031 z m -0.68165,29.789062 c -0.42759,0.0152 -0.86136,0.0564 -1.29882,0.125 -5.68058,0.890802 -9.57409,6.51766 -8.41211,12.156254 0.86298,4.18771 4.22717,7.46881 8.35742,8.15429 5.6436,0.93663 11.00359,-2.89204 11.88086,-8.48633 1.02901,-6.561876 -4.11335,-12.177244 -10.52735,-11.949214 z m -39.67968,10.570314 0.20898,2.92578 c 0.67292,9.50077 4.63307,18.03152 11.61328,25.01172 6.93498,6.93499 15.35786,10.86836 24.9375,11.64453 1.5675,0.127 2.88458,0.25139 2.92578,0.27539 0.0413,0.024 0.0742,-3.26414 0.0742,-7.30664 l 0,-7.34961 -1.57422,-0.002 c -3.66589,-0.005 -9.30702,-2.01569 -12.92773,-4.60742 -2.12328,-1.51986 -5.03218,-4.48255 -6.46875,-6.5879 -2.30676,-3.38062 -4.22156,-9.01106 -4.22656,-12.42773 l -0.002,-1.57617 -7.27929,0 -7.28125,0 z"
       style="color:#000000;text-decoration:none;text-decoration-line:none;text-decoration-style:solid;text-decoration-color:#000000;clip-rule:nonzero;display:inline;overflow:visible;visibility:visible;opacity:1;isolation:auto;color-interpolation:sRGB;color-interpolation-filters:linearRGB;fill:#62a303;fill-opacity:1;fill-rule:evenodd;stroke:none;stroke-width:1;stroke-linecap:round;stroke-linejoin:miter;stroke-miterlimit:4;stroke-dasharray:none;stroke-dashoffset:0;stroke-opacity:1;marker:none;color-rendering:auto;image-rendering:auto;shape-rendering:auto;text-rendering:auto;enable-background:accumulate"
       inkscape:connector-curvature="0" />
  </g>
</svg>
