<?xml version="1.0" encoding="UTF-8" standalone="no"?>
<!-- Created with Inkscape (http://www.inkscape.org/) -->

<svg
   xmlns:dc="http://purl.org/dc/elements/1.1/"
   xmlns:cc="http://creativecommons.org/ns#"
   xmlns:rdf="http://www.w3.org/1999/02/22-rdf-syntax-ns#"
   xmlns:svg="http://www.w3.org/2000/svg"
   xmlns="http://www.w3.org/2000/svg"
   xmlns:sodipodi="http://sodipodi.sourceforge.net/DTD/sodipodi-0.dtd"
   xmlns:inkscape="http://www.inkscape.org/namespaces/inkscape"
   version="1.1"
   id="svg64"
   width="396.16"
   height="112.32"
   viewBox="0 0 396.16 112.32"
   sodipodi:docname="ej.svg"
   inkscape:version="0.92.2 (5c3e80d, 2017-08-06)">
  <metadata
     id="metadata70">
    <rdf:RDF>
      <cc:Work
         rdf:about="">
        <dc:format>image/svg+xml</dc:format>
        <dc:type
           rdf:resource="http://purl.org/dc/dcmitype/StillImage" />
        <dc:title></dc:title>
      </cc:Work>
    </rdf:RDF>
  </metadata>
  <defs
     id="defs68" />
  <sodipodi:namedview
     pagecolor="#ffffff"
     bordercolor="#666666"
     borderopacity="1"
     objecttolerance="10"
     gridtolerance="10"
     guidetolerance="10"
     inkscape:pageopacity="0"
     inkscape:pageshadow="2"
     inkscape:window-width="1280"
     inkscape:window-height="781"
     id="namedview66"
     showgrid="false"
     inkscape:zoom="2.8195678"
     inkscape:cx="198.08"
     inkscape:cy="56.16"
     inkscape:window-x="0"
     inkscape:window-y="19"
     inkscape:window-maximized="0"
     inkscape:current-layer="svg64" />
  <path
     style="fill:#000000;stroke-width:0.31999999"
     d="m 58.881826,110.9562 c -0.458061,-0.57409 -1.425524,-1.45452 -2.149917,-1.95653 l -1.317082,-0.91274 -0.776822,0.9232 c -2.112771,2.51089 -5.892138,3.0446 -7.647536,1.07997 l -0.904954,-1.01282 -1.648256,0.82136 c -2.795958,1.39328 -5.295251,0.88464 -5.989501,-1.21896 -0.352192,-1.06716 -0.38487,-1.08388 -1.467955,-0.75148 -0.924105,0.28362 -1.35951,0.22765 -2.626441,-0.33761 -0.835284,-0.37267 -1.837908,-0.76519 -2.228054,-0.87227 -0.692458,-0.19005 -3.507512,0.20873 -4.676147,0.66242 -0.495928,0.19253 -0.569363,0.0868 -0.48,-0.69093 0.09491,-0.82607 0.282153,-0.9597 1.865503,-1.33137 1.923676,-0.45155 4.05608,-0.31252 6.062093,0.39524 1.606704,0.56688 2.830797,0.20712 3.812291,-1.12042 l 0.694173,-0.93892 -0.724279,-0.14742 c -0.398352,-0.0811 -2.308278,-0.22037 -4.244278,-0.30952 -1.972557,-0.0908 -4.153045,-0.38532 -4.96,-0.66985 -3.319727,-1.17053 -6.282816,-4.4388 -7.482614,-8.253272 l -0.552482,-1.756483 -1.63616,-0.217043 C 17.472058,92.031488 16.140209,91.389024 15.438526,90.2352 15.102943,89.683376 14.529154,89.022304 14.163439,88.766147 13.36865,88.209453 11.876452,85.3512 11.870294,84.373709 11.860557,82.827696 11.466948,82.271923 9.7757717,81.416269 7.101901,80.063411 6.5840197,79.346976 6.6503215,77.092515 6.6912815,75.699754 6.593166,75.2 6.2787676,75.2 c -0.5476717,0 -2.0841034,-1.815248 -2.0841034,-2.462307 0,-0.271261 -0.432,-0.985226 -0.96,-1.586583 -1.0578347,-1.204806 -1.2396223,-2.499094 -0.4901771,-3.489948 0.2584026,-0.341639 0.4744026,-0.852135 0.48,-1.134436 0.0056,-0.282297 0.3968408,-0.930297 0.8694299,-1.44 0.6917222,-0.746041 0.8431936,-1.188547 0.7768854,-2.26958 -0.063188,-1.03016 0.059018,-1.431149 0.5248154,-1.722045 0.5901936,-0.368583 0.5909274,-0.411075 0.02623,-1.518698 C 5.1023237,58.949674 4.424772,57.996595 3.9161778,57.458448 2.7582282,56.233216 2.2746642,55.302851 2.2746642,54.300221 c 0,-0.430023 -0.2254949,-0.969002 -0.5010997,-1.197731 C 0.760054,52.26135 0.37701883,50.972906 0.39019524,48.449142 0.41150819,44.366934 1.2188107,43.2 4.0216271,43.2 5.3900866,43.2 5.5035026,43.13581 5.6781813,42.262413 5.781316,41.746742 6.1966636,41.013901 6.6011759,40.633882 L 7.336653,39.942938 6.5589112,38.79687 C 6.1311532,38.166534 5.5160514,37.465107 5.1920181,37.238147 4.1217189,36.48848 3.7806469,35.08089 4.0284712,32.43624 4.3072677,29.461067 5.0396373,28.48 6.9818178,28.48 c 1.117297,0 1.2504781,-0.09763 1.6370381,-1.2 0.2314361,-0.66 0.5397526,-1.93759 0.6851472,-2.839089 0.4719168,-2.926054 1.5886789,-4.261651 3.5735449,-4.273795 0.960883,-0.0059 1.349985,-0.230205 2.24,-1.291405 2.886542,-3.441739 3.700254,-4.25654 4.822733,-4.829186 1.098631,-0.56048 1.214383,-0.740919 1.214383,-1.893029 0,-1.231087 0.03568,-1.273496 1.0714,-1.273496 0.942606,0 1.141641,-0.155765 1.655708,-1.295763 0.765835,-1.698318 2.401862,-3.1030863 3.90605,-3.3539138 C 28.451585,6.1196387 29.537578,5.824536 30.20114,5.5745395 31.566392,5.0601808 32.941061,4.9945424 33.600667,5.412217 34.362798,5.8948122 35.83325,5.1439955 36.379202,3.9934896 37.060376,2.5580224 38.789435,1.7353943 40.321995,2.1176407 41.137214,2.3209699 41.709182,2.7806531 42.365522,3.76 c 0.501292,0.748 1.028457,1.36 1.171472,1.36 0.143014,0 0.44134,-0.437735 0.66295,-0.9727446 C 44.656981,3.0438672 45.646251,2.24 46.547083,2.24 c 0.335507,0 1.176237,-0.5115499 1.868288,-1.1367774 1.254647,-1.1334973 1.265648,-1.1364169 3.813047,-1.0118318 3.445398,0.1685033 4.305929,0.774713 4.238848,2.9860959 -0.09252,3.0498365 -0.87401,5.6150373 -1.821383,5.9785793 -0.245606,0.09425 -0.517638,0.54319 -0.604515,0.997648 L 53.883413,10.88 h 6.018979 6.018979 L 65.586715,9.92 C 65.402651,9.392 65.127208,8.96 64.974619,8.96 c -0.735462,0 -1.605878,-3.0251536 -1.692557,-5.8825133 -0.06487,-2.138377 0.77897,-2.775245 3.918272,-2.9572357 2.430733,-0.1409138 3.512695,0.1961564 4.644682,1.4469877 C 72.179877,1.9372574 72.764386,2.24 73.143922,2.24 c 0.829875,0 2.016137,1.0421069 2.432313,2.1367395 0.376237,0.9895773 0.697511,0.8851415 1.651149,-0.5367395 0.952941,-1.4208396 2.215299,-2.0422498 3.61521,-1.7796254 1.068073,0.2003719 2.71207,1.7464203 2.71207,2.5504875 0,0.5284256 2.043072,1.150639 2.60631,0.7937456 0.647895,-0.4105389 2.030605,-0.3411703 3.387213,0.1699318 0.663562,0.2499965 1.749555,0.5450992 2.413319,0.6557837 1.504188,0.2508275 3.140214,1.6555958 3.906051,3.3539138 0.514067,1.139998 0.713101,1.295763 1.655705,1.295763 1.032292,0 1.071402,0.04562 1.071402,1.249593 0,1.136825 0.12599,1.323429 1.396112,2.067769 1.374224,0.805354 3.403884,2.828887 3.403884,3.39362 0,0.655365 2.42772,2.563556 3.26494,2.566242 1.42215,0.0046 2.45688,0.670547 3.05274,1.964828 l 0.56232,1.221437 143.12,0.0083 143.12,0.0083 v 15.2 15.2 h -139.52 -139.52 v 0.8 0.8 h 139.52 139.52 v 15.199559 15.199648 l -144.56,0.08035 -144.56,0.08035 -0.55348,1.12 c -0.30442,0.616 -0.88818,1.408 -1.29726,1.76 -0.40908,0.352 -0.97723,1.014474 -1.26256,1.472166 -0.6548,1.050365 -2.18529,1.783357 -4.312994,2.065607 l -1.658604,0.220022 -0.552484,1.756483 c -1.199798,3.814476 -4.162886,7.082746 -7.482614,8.253276 -0.806954,0.28453 -2.987443,0.57901 -4.96,0.66985 -1.936,0.0892 -3.845306,0.22828 -4.242906,0.30917 -0.703046,0.14304 -0.707859,0.17004 -0.175228,0.98294 0.973724,1.48609 2.042633,1.69713 4.915862,0.97055 2.325683,-0.58812 2.700826,-0.60327 4.69496,-0.18962 2.017264,0.41844 2.174518,0.51251 2.271386,1.35876 0.08628,0.75374 0.0042,0.87886 -0.48,0.73174 -3.205965,-0.97411 -4.735684,-0.93317 -6.945792,0.1859 -1.117367,0.56577 -2.099988,0.60903 -3.615312,0.15915 -0.122256,-0.0363 -0.343088,0.4002 -0.490733,0.96998 -0.544535,2.10143 -3.189991,2.57505 -6.122093,1.09607 -1.70928,-0.86218 -1.809811,-0.8772 -1.993667,-0.29792 -0.276029,0.86969 -2.025859,1.84328 -3.315447,1.84468 -1.440854,0.002 -3.63912,-1.08269 -4.663644,-2.30027 l -0.817549,-0.9716 -1.317082,0.91274 c -0.724393,0.50201 -1.691856,1.38244 -2.149917,1.95653 -0.45806,0.57408 -0.904838,1.04378 -0.992838,1.04378 -0.088,0 -0.534778,-0.4697 -0.992838,-1.04378 z m -6.442461,-2.61573 c 1.380349,-1.26974 1.297862,-1.44375 -1.136547,-2.39758 -2.338496,-0.91625 -2.783095,-0.85705 -3.404941,0.45339 -1.297987,2.7353 2.100064,4.19 4.541488,1.94419 z m 18.844214,0.62932 c 0.918307,-0.64321 1.084106,-1.51567 0.512368,-2.69618 -0.568416,-1.17365 -0.696713,-1.18778 -3.14248,-0.34632 -2.642531,0.90917 -2.756326,1.11356 -1.343504,2.41318 1.324634,1.2185 2.799063,1.45201 3.973616,0.62932 z m -28.123005,-0.34506 c 0.651946,-0.2724 1.525002,-0.8124 1.940128,-1.2 0.784343,-0.73234 1.794432,-2.43093 1.575674,-2.64969 -0.06901,-0.069 -1.223325,-0.29615 -2.565136,-0.50476 -2.768992,-0.43048 -3.033312,-0.32643 -3.920659,1.54352 -0.758378,1.59816 -0.09546,2.88378 1.694361,3.28592 0.04965,0.0112 0.623687,-0.20259 1.275632,-0.47499 z m 36.33378,-0.5523 c 0.390819,-0.45303 0.514214,-0.93285 0.378723,-1.47268 C 79.554261,105.32948 78.452734,104 77.719086,104 c -0.954489,0 -4.724422,0.67727 -4.724422,0.84874 0,0.4109 0.993981,1.95976 1.651882,2.57403 1.020108,0.95246 2.847168,1.70495 3.628118,1.49427 0.352,-0.095 0.900861,-0.47504 1.21969,-0.84461 z m -20.57969,-1.80198 v -2.20955 l -1.242339,0.16663 c -0.830205,0.11136 -1.842679,-0.058 -3.052003,-0.51045 -1.811936,-0.67793 -3.672157,-0.83435 -4.771744,-0.40125 -0.442288,0.17421 -0.128234,0.37324 1.28,0.81122 2.406892,0.74857 5.90896,2.57671 6.845244,3.57334 0.402823,0.42879 0.779303,0.77961 0.836621,0.77961 0.05732,0 0.104221,-0.9943 0.104221,-2.20955 z m 3.747856,0.76955 1.347856,-0.96 0.01213,-25.36 0.01216,-25.36 h -1.6 -1.6 v 26.426666 c 0,14.534668 0.108,26.378664 0.24,26.320004 0.132,-0.0587 0.846534,-0.53867 1.587856,-1.06667 z m 3.692144,-2.06588 1.2,-0.46269 V 79.935715 55.36 h -1.44 -1.44 v 25.146666 c 0,13.830668 0.108,25.097944 0.24,25.038404 0.132,-0.0595 0.78,-0.31647 1.44,-0.57095 z m 3.682035,-1.27457 1.362032,-0.36531 -0.08203,-23.907123 -0.08204,-23.907117 -1.52,-0.09753 -1.52,-0.09753 v 24.51642 c 0,13.484028 0.108,24.45052 0.24,24.36996 0.132,-0.0806 0.852915,-0.31085 1.602035,-0.51176 z m 3.677965,-0.86494 1.2,-0.19835 V 78.998131 55.36 h -1.6 -1.6 V 79.2 c 0,18.86054 0.08355,23.83926 0.4,23.83648 0.22,-0.002 0.94,-0.0928 1.6,-0.20187 z m 3.72,-0.63461 1,-0.2 V 78.662467 55.324934 l -1.52,0.09753 -1.52,0.09753 -0.08208,23.44 c -0.07971,22.763606 -0.0647,23.439996 0.52,23.439996 0.331143,0 1.052077,-0.09 1.602077,-0.2 z m 3.586173,-0.44 h 0.933827 V 78.542467 55.324934 l -1.52,0.09753 -1.52,0.09753 -0.0828,22.88 c -0.04554,12.584 -0.0083,23.074936 0.0827,23.313196 0.09234,0.2417 0.38807,0.34779 0.668972,0.24 0.276909,-0.10626 0.923696,-0.1932 1.437303,-0.1932 z m 3.453827,-0.2 1,-0.2 v -23 -23 h -1.44 -1.44 v 23.2 c 0,19.47151 0.07071,23.2 0.44,23.2 0.242,0 0.89,-0.09 1.44,-0.2 z m 4.013827,-0.31424 c 0.455024,-0.1746 0.506173,-2.50284 0.506173,-23.039997 V 55.36 h -1.44 -1.44 v 23.04 23.04 h 0.933827 c 0.513607,0 1.161607,-0.0874 1.44,-0.19424 z m 2.792723,-1.15037 c 0.68953,-0.38754 1.324858,-0.99954 1.411844,-1.36 C 92.780048,98.37493 92.811486,88.504 92.762938,76.8 l -0.08827,-21.28 -1.52,-0.09753 -1.52,-0.09753 v 22.737533 c 0,12.505642 0.08839,22.737537 0.196432,22.737537 0.108035,0 0.760589,-0.31708 1.450118,-0.70461 z M 38.162888,99.36313 c 2.250848,-1.04783 4.194384,-1.04882 6.16105,-0.003 0.827523,0.44 1.791568,0.8 2.142316,0.8 0.350749,0 1.313984,-0.36 2.140522,-0.8 1.90345,-1.01329 4.35048,-1.07697 6.147888,-0.16 1.250835,0.63812 2.693786,0.81416 3.653827,0.44576 0.373427,-0.1433 0.506173,-0.63884 0.506173,-1.889549 v -1.695315 l -1.275165,0.171036 c -0.89607,0.120189 -1.746125,-0.03155 -2.859321,-0.510451 -2.13058,-0.916547 -4.040058,-0.878288 -5.914788,0.118515 -1.842316,0.979568 -2.666841,1.000244 -4.375366,0.109712 -2.095098,-1.092028 -4.058029,-1.138534 -6.222877,-0.147433 -2.219072,1.015926 -2.643222,1.030342 -4.337123,0.147433 -2.222661,-1.158515 -3.943886,-1.12056 -6.503851,0.143421 l -2.208491,1.090442 1.088491,1.186159 1.088491,1.18616 1.27511,-0.53362 c 1.56063,-0.65312 3.726647,-0.46416 5.48553,0.47855 1.569773,0.84135 1.931158,0.82893 4.007584,-0.1377 z M 94.372149,97.2 c 0.510528,-0.748 1.237446,-2.193402 1.615373,-3.212003 0.673398,-1.81496 0.687142,-2.219818 0.687142,-20.24 V 55.36 h -1.76 -1.76 v 21.6 c 0,11.88 0.06508,21.6 0.144627,21.6 0.07955,0 0.56233,-0.612 1.072858,-1.36 z M 27.874664,91.36 c 2.029521,-1.028435 3.839324,-1.030602 5.92,-0.0071 1.968547,0.968362 2.078595,0.971549 3.937555,0.113987 2.376131,-1.096134 4.463955,-1.141901 6.573155,-0.144086 2.180157,1.031379 2.429754,1.033536 4.301402,0.03718 1.91881,-1.021463 4.50049,-1.087751 6.231466,-0.16 1.189801,0.637692 2.608492,0.814825 3.570249,0.445763 0.373427,-0.143267 0.506173,-0.638813 0.506173,-1.88952 v -1.695315 l -1.275165,0.171037 c -0.89607,0.120188 -1.746125,-0.03155 -2.859321,-0.510452 -2.13409,-0.91807 -4.13664,-0.879196 -6.105514,0.118506 -1.919606,0.972739 -2.644989,0.997443 -4.036445,0.137475 -0.58959,-0.364387 -1.849494,-0.742768 -2.799785,-0.840848 -1.428589,-0.147443 -2.045863,-0.03271 -3.564455,0.662525 -2.222541,1.01751 -2.65039,1.033296 -4.326592,0.15961 -2.128194,-1.109277 -3.841861,-1.145956 -5.924905,-0.12682 -1.75226,0.857303 -2.980615,0.953207 -4.387818,0.342583 -0.489986,-0.212618 -0.56,-0.04794 -0.56,1.31712 0,1.356349 0.114939,1.631382 0.88,2.105721 1.209355,0.749805 2.0754,0.697364 3.92,-0.237366 z m -6.72,-4.176646 v -3.376647 l -0.8908,-0.310534 C 19.623089,83.272797 19.353233,82.946013 19.302406,82.331891 19.225237,81.399478 18.094847,80 17.418884,80 17.171136,80 16.99174,79.633926 16.987636,79.12 16.983771,78.636 16.675705,77.592 16.303045,76.8 15.930386,76.008 15.654781,74.912899 15.69059,74.366442 15.7991,72.710544 13.265105,69.44 11.873618,69.44 c -0.274253,0 -0.661704,-0.432 -0.861001,-0.96 -0.382243,-1.012675 -1.2085736,-1.244426 -2.3187128,-0.650298 -0.4363971,0.233552 -0.7188067,0.154871 -1.1485587,-0.32 -0.8005437,-0.884588 -1.5973888,-0.783779 -2.3688912,0.299696 -0.9145728,1.2844 -0.8606496,2.397264 0.1382099,2.852378 0.515639,0.234941 0.8,0.625994 0.8,1.10016 0,1.183056 0.8756509,2.158064 1.9381453,2.158064 0.6074249,0 0.9418547,0.163994 0.9418547,0.461856 0,0.796957 1.2556468,1.451562 2.1396528,1.115462 C 11.564423,75.333795 12.247534,75.2 12.652341,75.2 c 0.892468,0 2.376063,1.112371 2.723491,2.042022 0.617194,1.651495 0.691869,2.117978 0.339045,2.117978 -0.558821,0 -2.560213,-1.625056 -2.560213,-2.078797 0,-0.221561 -0.226975,-0.591209 -0.504389,-0.821443 -0.399355,-0.331437 -0.555609,-0.335731 -0.750354,-0.02064 -0.152807,0.247248 -0.556478,0.320048 -1.065806,0.192214 -1.1095369,-0.278464 -2.1594508,0.334496 -2.1594508,1.260743 0,0.926691 0.7067395,1.547923 1.7609848,1.547923 0.439459,0 0.799015,0.126 0.799015,0.28 0,0.51151 1.242937,0.289274 1.565982,-0.28 0.302158,-0.532467 0.345534,-0.532579 0.882186,-0.0022 0.440836,0.43561 0.479832,0.642285 0.178118,0.944 -0.444587,0.444586 -0.520771,2.057398 -0.109201,2.311763 0.152397,0.09419 0.207661,0.534416 0.122808,0.978291 -0.0861,0.450416 0.07427,1.15585 0.362916,1.596381 0.284455,0.434131 0.519222,0.9744 0.521705,1.200592 0.0052,0.471191 3.112374,3.603277 3.835486,3.866202 0.264,0.09599 0.948,0.185897 1.52,0.199792 l 1.04,0.02518 z m 82.103866,1.412755 c 1.00055,-0.994183 1.729,-2.002512 1.73161,-2.396928 0.003,-0.374448 0.2288,-0.866954 0.50293,-1.094455 0.27412,-0.227504 0.46401,-0.785136 0.42197,-1.239184 -0.042,-0.454048 0.0348,-1.160156 0.17065,-1.569132 0.14633,-0.4404 0.0839,-1.137453 -0.15304,-1.709556 -0.32994,-0.796544 -0.32229,-1.014067 0.0436,-1.24022 0.27851,-0.172132 0.6346,-0.101546 0.95626,0.189555 0.58597,0.530297 1.58211,0.620845 1.58211,0.143811 0,-0.176 0.4032,-0.32 0.896,-0.32 1.08441,0 1.664,-0.519942 1.664,-1.492742 0,-0.907888 -1.06772,-1.509712 -2.2566,-1.27194 -0.55998,0.111997 -0.94754,0.03372 -1.02886,-0.207817 -0.16956,-0.503642 -1.19454,0.291894 -1.19454,0.927142 0,0.491223 -2.47084,2.241184 -2.7584,1.953626 -0.38289,-0.382893 0.59729,-2.477757 1.52431,-3.257795 1.02609,-0.863399 1.96269,-1.004276 3.299,-0.496212 0.66811,0.254016 0.94816,0.192669 1.46083,-0.32 0.34888,-0.348844 0.6343,-0.778262 0.6343,-0.954262 0,-0.176 0.36,-0.32 0.8,-0.32 1.01257,0 2.08,-1.048544 2.08,-2.043197 0,-0.460963 0.31681,-0.970777 0.8,-1.287376 0.7583,-0.496857 1.16451,-2.109427 0.53137,-2.109427 -0.14775,0 -0.43267,-0.36 -0.63315,-0.8 -0.43748,-0.960182 -1.34814,-1.033027 -2.1289,-0.170298 -0.42975,0.474871 -0.71216,0.553552 -1.14856,0.32 -1.11014,-0.594128 -1.93647,-0.362377 -2.31871,0.650298 -0.1993,0.528 -0.58675,0.96 -0.861,0.96 -0.78032,0 -1.79957,0.847171 -2.79639,2.324298 -1.17445,1.740313 -1.3276,2.174432 -1.04276,2.955702 0.15454,0.423882 0.0172,0.94703 -0.40688,1.549229 -0.35212,0.500073 -0.70859,1.515801 -0.79216,2.257171 -0.1248,1.107238 -0.3162,1.420656 -1.07185,1.755139 -0.64001,0.283293 -1.0314,0.779296 -1.2863,1.630071 -0.2258,0.75367 -0.657663,1.35559 -1.125544,1.568771 -0.729719,0.332483 -0.759162,0.478096 -0.759162,3.754374 v 3.408477 l 1.468386,-0.165507 c 1.24594,-0.140435 1.73001,-0.425475 3.19548,-1.881616 z M 27.622232,83.445485 29.129799,82.72 l 0.01243,-1.961178 c 0.01203,-1.898233 -0.01958,-1.974435 -0.984878,-2.374278 -3.386942,-1.402915 -4.101286,-7.529165 -1.527086,-13.096352 1.826969,-3.951165 3.326366,-5.237306 5.060348,-4.340627 1.049793,0.542867 2.666282,2.940822 3.73626,5.542483 0.413929,1.006474 0.756131,1.613952 0.760445,1.349952 0.01158,-0.70935 1.851369,-4.478061 2.782508,-5.699875 2.167146,-2.843671 4.394554,-1.528624 6.950928,4.103779 0.438372,0.965853 0.805335,1.520771 0.815472,1.233152 0.02842,-0.805725 2.478727,-5.527629 3.213504,-6.192592 0.359255,-0.325123 1.110173,-0.59113 1.668708,-0.59113 2.094608,0 4.777587,4.429847 5.441398,8.98425 0.671504,4.607184 -0.310003,7.500992 -3.025174,8.919203 -0.789242,0.412243 -0.88,0.632263 -0.88,2.133303 v 1.673654 l 1.565369,0.718128 c 1.569354,0.719955 2.743082,0.886666 3.688458,0.523891 0.450927,-0.173037 0.506175,-1.727296 0.506175,-14.24 V 55.36 h -17.92 -17.92 v 14.018227 14.018227 l 0.88,0.347732 c 1.365239,0.539472 2.040037,0.484515 3.667568,-0.298701 z m 10.613763,-0.108944 1.798669,-0.823456 v -1.728327 c 0,-1.576713 -0.08004,-1.769715 -0.912499,-2.200195 -1.030887,-0.533091 -2.922458,-2.565357 -2.937232,-3.155699 -0.0053,-0.213875 -0.168624,-0.100864 -0.362832,0.251136 -0.565802,1.02553 -1.955226,2.419418 -2.907437,2.916787 -0.796283,0.41592 -0.88,0.625715 -0.88,2.205296 v 1.745651 l 1.52,0.791232 c 1.932506,1.005965 2.479338,1.00568 4.681331,-0.0026 z m 10.621687,-0.0069 c 1.411267,-0.827059 1.416979,-0.837706 1.416118,-2.64 -9.6e-4,-1.759706 -0.03365,-1.827239 -1.190093,-2.449594 -0.654073,-0.352 -1.506643,-1.112909 -1.894598,-1.690912 l -0.70537,-1.050912 -0.554489,0.938672 c -0.304967,0.516272 -1.18001,1.334064 -1.944538,1.817315 -1.35513,0.856529 -1.390048,0.921268 -1.390048,2.577185 v 1.698589 l 1.52,0.789664 c 1.972032,1.024499 3.008109,1.026672 4.743018,0.01 z M 20.620689,67.280963 c -0.733751,-0.536534 -1.859128,-0.507638 -2.330081,0.05983 -0.210332,0.253434 -0.695964,0.505434 -1.079183,0.56 -0.538455,0.07667 -0.697039,0.317325 -0.697986,1.05921 -6.72e-4,0.528 -0.11961,1.143946 -0.264303,1.368765 -0.157784,0.245161 0.01651,0.98631 0.435469,1.851769 0.384201,0.793655 0.620106,1.742967 0.524234,2.109581 -0.09587,0.366618 0.104717,1.187187 0.445756,1.823491 0.341038,0.636304 0.620069,1.335351 0.620069,1.553437 0,0.218087 0.406488,0.606723 0.903307,0.863639 0.496818,0.256915 1.108818,0.714998 1.36,1.017961 0.399379,0.481715 0.467635,-0.228339 0.54388,-5.657936 0.07801,-5.555421 0.02948,-6.250979 -0.461162,-6.609744 z M 100.75466,78.42873 c 0.396,-0.204186 0.72,-0.514807 0.72,-0.690266 0,-0.175462 0.22896,-0.854394 0.5088,-1.508742 0.27984,-0.654346 0.53726,-1.792602 0.57206,-2.529456 0.0371,-0.786522 0.31117,-1.613664 0.66361,-2.003111 0.5171,-0.571385 0.54348,-0.769645 0.1902,-1.42975 -0.22559,-0.421507 -0.32071,-0.911114 -0.21137,-1.088013 0.32068,-0.51889 -0.14388,-1.339392 -0.75835,-1.339392 -0.31163,0 -0.74585,-0.216 -0.96495,-0.48 -0.46384,-0.558893 -1.38182,-0.61928 -2.261033,-0.148742 -0.579696,0.310243 -0.618963,0.729964 -0.618963,6.615782 v 6.284522 l 0.72,-0.655792 c 0.396,-0.360688 1.043996,-0.822855 1.439996,-1.02704 z m 122.77837,0.646272 c 0.0969,-0.156746 -0.16695,-0.509792 -0.58627,-0.784541 -0.81004,-0.530759 -3.27515,-4.061226 -4.21121,-6.031184 l -0.56104,-1.180723 0.96744,-1.101853 c 2.36188,-2.690039 1.19591,-6.937885 -2.16926,-7.903005 C 216.3711,61.901165 214.14251,61.76 212.02028,61.76 h -3.8586 l -0.66069,1.563808 -0.66069,1.563805 1.23718,-0.165939 1.23718,-0.165943 v 5.941303 c 0,3.267715 -0.14044,6.310678 -0.31208,6.762134 L 208.6905,78.08 h 2.42632 c 2.1868,0 2.40316,-0.05528 2.19174,-0.56 -0.12902,-0.308 -0.30569,-1.654688 -0.39261,-2.992643 -0.14715,-2.265085 -0.112,-2.444682 0.51041,-2.607443 0.55534,-0.145226 0.94003,0.248582 2.27355,2.327417 1.72277,2.685648 2.7338,3.580666 5.08223,4.499059 1.67056,0.653303 2.48974,0.751159 2.75089,0.328612 z M 212.83466,66.72 v -2.08 h 1.41714 c 1.70674,0 2.42286,0.606877 2.42286,2.053261 0,1.401501 -0.83862,2.106739 -2.5052,2.106739 h -1.3348 z m -69.71845,11.01416 1.16154,-0.377936 0.22178,-3.558112 c 0.12198,-1.956963 0.2989,-3.882112 0.39315,-4.278112 0.1686,-0.708413 0.12212,-0.72 -2.88836,-0.72 h -3.05971 l -0.65498,1.480678 c -0.36023,0.814372 -0.65497,1.539332 -0.65497,1.611021 0,0.07169 0.72,0.03483 1.6,-0.0819 l 1.6,-0.212246 v 1.613097 1.613098 l -1.27726,0.215792 c -1.67204,0.28249 -3.43981,-0.57001 -4.3122,-2.079536 -0.88401,-1.529626 -0.88846,-4.550522 -0.009,-6.043808 1.27918,-2.171763 4.37027,-2.892355 7.0969,-1.654422 l 1.33853,0.607712 0.46723,-1.371258 c 0.25698,-0.754192 0.37464,-1.519136 0.26147,-1.699878 -0.11317,-0.180746 -0.98789,-0.560314 -1.94384,-0.843485 -4.59725,-1.361815 -9.11409,0.141049 -11.05911,3.679632 -0.82785,1.506102 -0.94864,2.051021 -0.94993,4.285507 -0.001,2.030547 0.15219,2.874442 0.74155,4.080387 0.8969,1.83521 2.58024,3.296557 4.52557,3.928746 1.62396,0.527753 5.49362,0.425817 7.40155,-0.194973 z m 17.4737,-0.250928 c 1.5933,-0.812838 3.07079,-2.547206 3.55949,-4.178362 0.51887,-1.731827 0.45212,-5.458201 -0.12717,-7.100102 -0.95931,-2.718986 -3.41288,-4.420963 -6.76062,-4.689686 -4.04207,-0.324458 -6.86027,1.021129 -8.29943,3.962659 -0.75846,1.550243 -0.89457,2.226141 -0.88931,4.416317 0.01,4.154672 1.76132,7.018521 4.91424,8.035936 2.01703,0.650876 5.89832,0.4228 7.6028,-0.446762 z m -6.22895,-2.757661 c -1.61585,-0.702454 -2.32391,-2.16663 -2.32391,-4.805571 0,-2.57361 0.64798,-3.977968 2.20757,-4.784464 2.06885,-1.069846 4.88119,-0.234003 5.86954,1.744464 0.75853,1.51841 0.74495,4.619693 -0.0266,6.084992 -1.03714,1.969584 -3.50237,2.727498 -5.72656,1.760579 z m 103.18895,2.757661 c 1.5933,-0.812838 3.07079,-2.547206 3.55949,-4.178362 0.51887,-1.731827 0.45212,-5.458201 -0.12717,-7.100102 -0.95931,-2.718986 -3.41288,-4.420963 -6.76062,-4.689686 -4.01306,-0.322132 -6.88028,1.062028 -8.32755,4.020144 -0.728,1.487961 -0.8664,2.188486 -0.86119,4.358832 0.01,4.154672 1.76132,7.018521 4.91424,8.035936 2.01703,0.650876 5.89832,0.4228 7.6028,-0.446762 z m -6.22895,-2.757661 c -1.61585,-0.702454 -2.32391,-2.16663 -2.32391,-4.805571 0,-3.400874 1.50326,-5.280784 4.22172,-5.279504 2.75955,0.0013 4.41489,1.980826 4.41489,5.279504 0,2.411152 -0.73981,3.970573 -2.239,4.719504 -1.33832,0.668566 -2.6691,0.696685 -4.0737,0.08607 z m 32.4001,-2.772096 c 1.75648,-3.54559 3.6616,-7.235037 4.2336,-8.198771 0.572,-0.963731 1.04,-1.806797 1.04,-1.873472 0,-0.06668 -1.08,-0.121232 -2.4,-0.121232 -1.81523,0 -2.4,0.106493 -2.4,0.437072 0,0.240387 -0.83959,2.48055 -1.86577,4.978134 -2.06197,5.018618 -1.9224,4.9473 -3.49284,1.784794 -1.29595,-2.609725 -1.73472,-4.06807 -1.73472,-5.765606 V 61.76 h -2.97859 -2.97859 l -0.58362,1.36 c -0.32099,0.748 -0.63054,1.449747 -0.68789,1.559437 -0.0574,0.109689 0.51365,0.07996 1.26887,-0.06606 2.07289,-0.400797 2.07,-0.402227 2.47656,1.226627 0.75081,3.008109 5.71947,12.56 6.5334,12.56 0.20679,0 1.8131,-2.900938 3.56959,-6.446525 z m 31.45019,5.438659 c 2.24237,-1.083708 3.19133,-3.164144 2.56957,-5.633366 -0.38748,-1.538864 -1.06127,-2.139712 -4.71282,-4.202659 -1.97495,-1.115754 -2.38855,-1.603527 -2.068,-2.438871 0.36176,-0.942729 3.13576,-0.959308 5.26003,-0.03142 0.38572,0.168484 0.59407,-0.07529 0.88,-1.029654 0.53979,-1.801638 0.50011,-1.911219 -0.82537,-2.279322 -2.95025,-0.819324 -6.24253,-0.232963 -7.87871,1.40322 -2.11445,2.114444 -1.59681,5.015424 1.20769,6.768256 4.53628,2.835209 4.93332,3.343865 3.54338,4.539446 -0.79187,0.681136 -1.12635,0.761843 -2.48865,0.600499 -0.8656,-0.102518 -2.0486,-0.466521 -2.62888,-0.808896 l -1.05505,-0.622496 -0.18552,0.691571 c -0.32737,1.22034 -0.20727,2.682413 0.25162,3.063255 1.33203,1.105491 5.82517,1.094691 8.13071,-0.01955 z m 17.18971,0.337728 c 0.89053,-0.425529 0.96004,-0.589411 1.04951,-2.474067 l 0.0958,-2.018349 -0.98272,0.726551 c -1.32138,0.976944 -4.57687,1.217923 -6.06403,0.448873 -2.03844,-1.054108 -2.83341,-4.489795 -1.64468,-7.107923 1.11069,-2.446304 3.77204,-3.299913 6.51098,-2.088355 l 1.46717,0.649008 0.50083,-1.469805 c 0.27542,-0.808393 0.5008,-1.512454 0.5008,-1.564582 0,-0.405514 -2.35709,-1.145095 -4.1207,-1.292951 -5.75197,-0.48222 -9.3193,2.787892 -9.3193,8.542813 0,3.785709 1.96442,6.842803 5.02634,7.822109 1.83344,0.586403 5.58496,0.493248 6.97996,-0.173322 z m 14.72935,0.312816 c 1.92637,-0.485065 4.1007,-2.449251 4.8359,-4.36855 0.3864,-1.008707 0.57373,-2.328736 0.56119,-3.954512 -0.0433,-5.60312 -3.47546,-8.664019 -9.19968,-8.204534 -4.77783,0.383516 -7.25306,3.25184 -7.25306,8.404918 0,3.712614 1.19882,6.136982 3.68,7.442102 1.96765,1.034999 4.89526,1.305143 7.37565,0.680576 z m -4.97565,-3.403174 c -1.4992,-0.748931 -2.23901,-2.308352 -2.23901,-4.719504 0,-2.411152 0.73981,-3.970573 2.23901,-4.719504 2.17853,-1.088304 4.59328,-0.47968 5.77296,1.45504 0.88714,1.454938 0.87539,5.093187 -0.0211,6.563722 -1.12659,1.847824 -3.64909,2.470678 -5.75181,1.420246 z m -164.32,2.835683 c 1.92791,-0.889789 2.78708,-1.9956 2.96159,-3.81175 0.16378,-1.704467 -0.4442,-3.304861 -1.50785,-3.969117 -0.58572,-0.365789 -0.58042,-0.409062 0.15734,-1.285843 1.5893,-1.888784 1.18457,-4.612055 -0.9137,-6.147827 -0.80535,-0.589453 -1.44333,-0.670916 -5.92,-0.755917 l -5.01738,-0.09527 -0.70763,1.633017 -0.70763,1.633021 1.42763,-0.214086 1.42763,-0.214087 v 6.095504 c 0,3.352525 -0.14044,6.464877 -0.31208,6.916333 l -0.31208,0.820832 4.07208,-0.007 c 3.27277,-0.0057 4.32333,-0.122989 5.35208,-0.597786 z m -5.28,-4.515187 v -2.24 h 1.5288 c 2.09561,0 2.9512,0.649405 2.9512,2.24 0,1.590595 -0.85559,2.24 -2.9512,2.24 h -1.5288 z m 0,-6.525763 c 0,-1.893475 0.21474,-2.114237 2.05658,-2.114237 1.22691,0 2.10342,0.823245 2.10342,1.9756 0,1.208618 -0.93746,1.8644 -2.6652,1.8644 h -1.4948 z m 17.12,3.485763 v -8.16 h -2.49126 c -2.36387,0 -2.47432,0.03165 -2.16,0.618963 0.19906,0.371946 0.33126,3.381427 0.33126,7.541037 0,4.15961 -0.1322,7.169091 -0.33126,7.541037 -0.31432,0.587315 -0.20387,0.618963 2.16,0.618963 h 2.49126 z m 14.99455,7.6 c 0.0867,-0.308 0.24712,-1.00641 0.35645,-1.552026 l 0.19878,-0.992022 -3.21489,0.154806 -3.21489,0.154807 V 73.162784 71.04 h 2.22496 2.22496 l 0.33325,-1.2 c 0.52034,-1.873651 0.54534,-1.854214 -2.22317,-1.72849 l -2.56,0.116256 V 66.4 64.572234 l 2.55582,0.116067 2.55582,0.116064 0.32418,-0.929933 C 204.94702,61.704218 205.0776,61.76 199.24116,61.76 h -5.27349 l -0.64651,1.267251 c -0.88813,1.740877 -0.83651,1.908202 0.49596,1.607683 l 1.14246,-0.257667 -0.10246,6.851683 -0.10246,6.851687 4.85844,-3.2e-4 c 4.35352,-2.85e-4 4.87482,-0.05851 5.01611,-0.560317 z m 25.48855,-0.0742 c -0.20914,-0.39079 -0.30558,-2.533264 -0.25125,-5.582176 l 0.0881,-4.947977 4,5.570893 4,5.570896 1.76,0.01149 1.76,0.01149 v -7.280215 c 0,-4.004118 0.11074,-7.676214 0.2461,-8.160214 l 0.24609,-0.88 h -2.44033 c -2.20575,0 -2.41637,0.05383 -2.19108,0.56 0.27126,0.60944 0.58705,7.674403 0.40906,9.151715 -0.0985,0.817834 -0.50483,0.364746 -3.94565,-4.4 L 229.96304,61.76 h -2.62922 -2.62921 l -0.65498,1.480678 c -0.77114,1.743306 -0.76973,1.734592 -0.25497,1.576007 0.22,-0.06778 0.796,-0.21 1.28,-0.316055 l 0.88,-0.192822 v 6.267133 c 0,3.708144 -0.13526,6.519869 -0.33126,6.886096 -0.31478,0.588185 -0.20284,0.618963 2.25126,0.618963 2.47548,0 2.56845,-0.02627 2.2431,-0.634202 z m 62.8769,-1.419134 c 0,-1.129332 0.0937,-2.147015 0.20818,-2.261514 0.1145,-0.114499 0.96897,0.177338 1.89881,0.648525 l 1.69063,0.856707 1.38975,-0.67519 c 0.76436,-0.371357 1.54219,-0.675194 1.7285,-0.675194 0.21459,0 0.29941,0.762557 0.23144,2.080672 l -0.10731,2.080672 2.16,-6.4e-4 c 2.50378,-6.4e-4 2.40607,0.217978 1.81247,-4.057517 -0.46769,-3.368637 -1.93672,-7.824589 -3.38354,-10.263155 l -1.18661,-2 h -3.76619 -3.76618 l -0.65498,1.480678 c -0.36023,0.81434 -0.65497,1.515005 -0.65497,1.556999 0,0.042 0.612,-0.04204 1.36,-0.186739 2.20644,-0.426845 2.27952,-0.374525 1.26967,0.90903 -2.41638,3.071296 -4.22967,7.715789 -4.22967,10.833709 V 78.08 h 2 2 z m 2.30354,-4.696896 c -1.00782,-0.531847 -1.17997,-0.762676 -1.0037,-1.34586 0.36602,-1.21096 2.10252,-4.323052 2.7281,-4.889193 0.57151,-0.51721 0.62533,-0.47681 1.22325,0.91808 0.64218,1.498137 1.30386,3.646368 1.30702,4.243437 0.001,0.25966 -2.63326,1.795648 -2.96677,1.729622 -0.0393,-0.0078 -0.61884,-0.303018 -1.2879,-0.656086 z M 16.599953,65.860032 c 1.043935,0.101565 2.52543,-0.544246 3.834711,-1.671626 0.708318,-0.609907 0.72,-0.740915 0.72,-8.074144 0,-6.96088 -0.03706,-7.441148 -0.56,-7.257308 -0.794391,0.279264 -2.32,1.74567 -2.32,2.229964 0,0.223949 -0.369309,0.749626 -0.820688,1.168167 -0.451378,0.418541 -0.85476,0.993133 -0.896404,1.27687 -0.07375,0.50249 -1.508744,1.828045 -1.978968,1.828045 -0.24216,0 0.01352,-3.240979 0.366694,-4.648128 C 15.066417,50.229296 15.373384,49.92 15.731209,49.92 c 0.32294,0 0.77533,-0.254218 1.00531,-0.564928 0.22998,-0.310707 0.820815,-0.742659 1.312967,-0.959891 0.492152,-0.217232 1.140152,-0.827386 1.44,-1.355898 0.299848,-0.528512 0.797178,-1.042262 1.105178,-1.14167 0.522811,-0.168739 0.56,-1.178093 0.56,-15.199177 0,-8.26014 -0.08578,-15.018436 -0.190627,-15.018436 -1.025336,0 -3.009373,2.197982 -3.009373,3.333884 0,0.283326 -0.468,0.933392 -1.04,1.444592 l -1.04,0.929454 0.72,0.766659 c 0.396,0.421663 0.72,0.987061 0.72,1.256439 0,0.269379 0.302743,0.763758 0.672761,1.098621 0.949792,0.859549 1.567239,2.171612 1.567239,3.330351 0,0.54548 0.232839,1.442044 0.517421,1.992364 0.375736,0.726594 0.464596,1.450034 0.32451,2.64195 -0.106101,0.902748 -0.0627,2.095366 0.09644,2.650259 0.244004,0.850793 0.19624,1.038445 -0.304803,1.197469 -0.986907,0.313232 -2.541917,2.345222 -2.94337,3.846211 -0.31104,1.162944 -1.045315,2.057005 -1.379161,1.67928 -0.04255,-0.04814 0.07161,-0.998007 0.25369,-2.110807 0.252994,-1.546195 0.551832,-2.244051 1.267361,-2.95958 0.796614,-0.796615 0.923185,-1.149655 0.848367,-2.366314 -0.04837,-0.786509 0.01275,-1.530698 0.135805,-1.653757 0.3899,-0.389897 0.24173,-2.188991 -0.236515,-2.871781 -0.253141,-0.36141 -0.505141,-1.350701 -0.56,-2.198423 -0.0729,-1.126555 -0.267757,-1.636244 -0.724114,-1.894092 -0.947817,-0.535529 -1.753093,-1.560992 -1.764982,-2.247582 -0.02983,-1.722848 -2.327738,-2.4319 -2.933574,-0.905197 -0.192064,0.484 -0.550796,1.265298 -0.797182,1.736217 -0.616688,1.178678 -0.331124,8.139978 0.365491,8.909729 0.26104,0.288448 0.474619,0.89806 0.474619,1.3547 0,0.939988 1.311705,2.664724 2.254054,2.963815 0.650491,0.206457 0.828552,1.446909 0.424254,2.955539 -0.216061,0.806221 -0.758311,0.980262 -0.758311,0.243389 0,-0.262138 -0.716734,-1.268055 -1.592742,-2.235376 C 11.645914,37.600694 10.846361,36.411171 10.745138,35.924627 10.643916,35.438083 10.282157,34.464 9.9412306,33.76 9.6003039,33.056 9.2838565,32.048 9.2380143,31.52 c -0.076902,-0.885731 -0.17852,-0.96 -1.313521,-0.96 -0.6765936,0 -1.390911,0.09924 -1.5873718,0.220524 -0.1964605,0.121288 -0.3886109,1.086414 -0.4270007,2.144724 -0.061314,1.690272 0.041144,2.063805 0.8427744,3.072525 C 8.3788594,38.043786 10.184622,39.68 10.816677,39.68 c 0.770373,0 1.848308,0.983661 2.536679,2.314822 0.617051,1.193245 0.990695,4.865639 0.524371,5.153844 -0.601322,0.371635 -1.469661,-1.039981 -1.496728,-2.433162 -0.01713,-0.88176 -0.162321,-1.328816 -0.415426,-1.279139 -0.214,0.042 -0.747455,-0.282 -1.185455,-0.72 -1.8114743,-1.811475 -3.570594,0.0066 -1.9806013,2.047008 0.1900262,0.243853 0.3476723,0.671971 0.3503248,0.951373 0.00272,0.285372 0.4255408,0.63336 0.9648225,0.794038 1.540768,0.459075 1.87865,0.690544 2.64,1.808563 0.642137,0.94296 0.724079,1.476103 0.75772,4.929975 0.05841,5.996739 0.349202,7.769068 1.551819,9.457987 0.63014,0.88495 0.677831,1.140086 0.3483,1.863331 -0.306742,0.673222 -0.439441,0.74689 -0.674925,0.374672 C 14.576365,64.68849 14.440908,64.264 14.436561,64 c -0.0043,-0.264 -0.467198,-1.272 -1.028559,-2.24 -0.561361,-0.968 -1.068078,-2.044579 -1.126038,-2.3924 -0.05796,-0.347821 -0.290904,-0.911811 -0.517653,-1.253315 -0.306576,-0.461728 -0.330504,-0.927255 -0.09333,-1.815818 0.258665,-0.969094 0.214897,-1.353693 -0.231603,-2.035139 -0.369868,-0.56449 -0.490344,-1.178758 -0.367111,-1.871779 0.230914,-1.298579 -0.75872,-3.009283 -1.9076747,-3.297651 -0.505072,-0.126765 -0.8099261,-0.42834 -0.8099261,-0.801213 0,-0.328861 -0.3890509,-0.852848 -0.8645571,-1.16441 C 7.0146005,46.81671 6.2905861,46.226832 5.8811861,45.81743 5.2822312,45.218477 4.9354047,45.115491 4.1057432,45.290246 2.602204,45.606941 2.4433055,45.882467 2.3778946,48.286282 c -0.045098,1.657334 0.087112,2.417388 0.5540652,3.185232 0.3373136,0.554668 0.7234138,1.008944 0.858001,1.0095 0.1345869,6.4e-4 0.252386,0.595636 0.2617757,1.322394 0.017488,1.353578 0.2713319,1.681142 2.5197523,3.25153 0.5007047,0.349715 0.8231754,0.87959 0.8231754,1.352624 0,0.921939 0.9512659,1.615788 2.6377478,1.923955 1.442648,0.263616 2.935734,1.825062 3.423011,3.579737 0.371665,1.338359 0.427727,2.008746 0.167982,2.008746 -0.534804,0 -1.748741,-1.120365 -1.748741,-1.613946 0,-0.67902 -0.889249,-1.667552 -1.281819,-1.424931 -0.148622,0.09186 -0.6367482,7e-6 -1.0847248,-0.204105 -1.6249885,-0.740394 -2.5059341,1.161395 -0.9962035,2.150608 0.4384889,0.287308 0.7179904,0.65063 0.6211145,0.807376 -0.1782665,0.288441 0.6056212,0.397542 2.1453778,0.298592 0.606145,-0.03895 1.034179,0.213219 1.52,0.895491 0.37194,0.522342 0.676255,1.078681 0.676255,1.236313 0,0.157632 0.169298,0.455901 0.376218,0.66282 0.28829,0.288291 0.533356,-0.01459 1.048571,-1.296 0.633719,-1.576128 0.731435,-1.666471 1.7005,-1.572186 z m 89.704897,2.060554 c 0.55644,-1.463536 1.23812,-1.99618 2.49569,-1.950052 0.85375,0.03133 1.42479,-0.196505 2.19412,-0.87536 1.13547,-1.001936 1.30909,-1.753481 0.55052,-2.38304 -0.37336,-0.309865 -0.67609,-0.321196 -1.2762,-0.04777 -0.43271,0.197152 -0.98137,0.283769 -1.21926,0.192483 -0.52674,-0.202128 -1.12438,0.464771 -1.26967,1.4168 -0.10883,0.713088 -1.39833,1.86008 -1.7245,1.533914 -0.35861,-0.358618 0.25182,-2.373834 1.1463,-3.784295 0.79597,-1.25511 1.1069,-1.479661 2.3161,-1.672672 1.83307,-0.292591 2.83671,-0.975269 2.83671,-1.929525 0,-0.734557 1.58885,-2.421069 2.28088,-2.421069 0.47084,0 1.29407,-2.202739 1.07785,-2.884 -0.12561,-0.39577 0.0188,-0.708464 0.42824,-0.927622 0.87255,-0.46697 1.0853,-1.146196 1.18276,-3.776061 0.0948,-2.557891 -0.0345,-2.778128 -1.81955,-3.099431 -0.97845,-0.176118 -1.26637,-0.09107 -1.76,0.519892 -0.3246,0.40175 -0.98618,0.985046 -1.47018,1.296214 -0.484,0.311168 -0.88,0.850442 -0.88,1.198384 0,0.347942 -0.20797,0.632624 -0.46216,0.632624 -0.25418,0 -0.86209,0.344013 -1.35091,0.764477 -0.70546,0.606809 -0.89496,1.052288 -0.91883,2.16 -0.0165,0.767536 -0.20063,1.710057 -0.40909,2.094486 -0.44348,0.817866 -0.48892,2.312029 -0.0895,2.942691 0.18099,0.285751 0.0523,0.82714 -0.36457,1.533664 -0.35436,0.600605 -0.56068,1.175632 -0.45847,1.27784 0.10221,0.102208 -0.17002,0.652378 -0.60495,1.222599 -0.43493,0.570221 -1.05874,1.812448 -1.38624,2.760505 L 104.7545,65.44 104.35476,64.585328 c -0.34822,-0.74449 -0.31142,-0.978723 0.28543,-1.816915 1.15563,-1.622935 1.51187,-3.807693 1.58448,-9.717277 0.0499,-4.065066 0.0509,-4.069923 1.04314,-5.2 0.54623,-0.622125 1.18745,-1.131136 1.42494,-1.131136 0.71067,0 2.0542,-0.713584 1.87858,-0.997754 -0.0898,-0.145292 0.0692,-0.618928 0.35328,-1.052524 0.2841,-0.433594 0.47009,-1.193664 0.4133,-1.689037 -0.1469,-1.281498 -1.53145,-1.423453 -2.45328,-0.251533 -0.36535,0.464474 -0.80683,0.756394 -0.98107,0.64871 -0.48823,-0.301744 -1.02909,0.990596 -0.79872,1.908468 0.14066,0.560419 0.0263,1.017692 -0.36185,1.446563 -0.89662,0.990758 -1.10883,0.757053 -1.1013,-1.212893 0.0109,-2.86529 1.64679,-5.84 3.21152,-5.84 0.60033,0 1.86007,-1.137962 4.21794,-3.81017 0.79962,-0.906217 0.86374,-1.166342 0.73117,-2.965795 -0.0799,-1.084847 -0.30096,-2.068647 -0.4912,-2.18622 -0.19023,-0.117572 -0.87926,-0.195394 -1.53117,-0.172937 -1.14042,0.03929 -1.1921,0.09139 -1.36527,1.376462 -0.099,0.734596 -0.42299,1.604151 -0.72,1.932343 -0.29701,0.328192 -0.54002,0.916525 -0.54002,1.307405 0,0.990205 -0.72185,2.268064 -1.92,3.398912 -0.55942,0.528 -1.23482,1.37697 -1.50088,1.886598 -0.37591,0.720045 -0.54679,0.827044 -0.76653,0.48 -0.37567,-0.593276 -0.37334,-3.166598 0.003,-3.166598 0.76454,0 2.25621,-1.713571 2.4542,-2.81929 0.11628,-0.649392 0.41044,-1.409443 0.65368,-1.689004 0.66087,-0.75952 0.86289,-7.839328 0.25463,-8.923356 -0.24947,-0.444593 -0.595,-1.20435 -0.76785,-1.68835 -0.55471,-1.553261 -2.87452,-0.895202 -2.90076,0.822857 -0.0122,0.799478 -0.84608,1.90747 -1.67415,2.224504 -0.72444,0.277357 -1.25103,1.658764 -1.0054,2.637456 0.11478,0.457303 -0.0126,1.050822 -0.31947,1.488995 -0.51711,0.738264 -0.6941,2.535753 -0.28953,2.940322 0.12144,0.12144 0.18387,0.916586 0.13874,1.766992 -0.0733,1.380842 0.0229,1.634493 0.8992,2.371876 0.66802,0.562102 0.98126,1.113865 0.98126,1.728451 0,0.496525 0.14154,1.396285 0.31453,1.999465 0.35244,1.22889 0.30006,1.392042 -0.36497,1.136842 -0.25413,-0.09752 -0.64017,-0.843277 -0.85787,-1.657248 -0.37717,-1.410192 -2.17233,-3.647498 -3.191652,-3.977757 -0.326211,-0.105689 -0.342704,-0.33928 -0.07388,-1.046345 0.195638,-0.514564 0.257014,-1.581744 0.141187,-2.454884 -0.138749,-1.045951 -0.04063,-2.041269 0.303943,-3.083064 0.279862,-0.846154 0.587102,-2.053239 0.682762,-2.68241 0.10522,-0.692107 0.55153,-1.505724 1.12993,-2.05987 0.52579,-0.503756 0.956,-1.118761 0.956,-1.366678 0,-0.247916 0.252,-0.880176 0.56,-1.40502 0.55304,-0.942404 0.5495,-0.963327 -0.2845,-1.683485 -0.46447,-0.401072 -0.94258,-1.175836 -1.06248,-1.721698 C 101.44184,17.682092 99.57267,15.68 98.903528,15.68 c -0.194099,0 -0.308864,5.580428 -0.308864,15.018436 0,14.452898 0.02282,15.025673 0.605584,15.210642 0.333072,0.105712 0.777427,0.607063 0.987452,1.114112 0.22294,0.53824 0.80325,1.093098 1.39441,1.333261 0.5569,0.226247 1.20072,0.670602 1.43069,0.987453 0.22998,0.316854 0.68654,0.576096 1.01458,0.576096 0.62085,0 0.75359,0.376605 1.14809,3.25728 0.11277,0.823504 0.11057,1.65015 -0.005,1.836992 -0.29898,0.483744 -2.09591,-0.911238 -2.09591,-1.627075 0,-0.314842 -0.36,-0.808323 -0.8,-1.096624 -0.44,-0.288298 -0.8,-0.71257 -0.8,-0.942823 0,-0.691097 -1.611874,-2.38775 -2.268441,-2.38775 -0.583888,0 -0.611555,0.324563 -0.611555,7.173827 0,3.945607 0.08748,7.401805 0.194406,7.680442 0.301703,0.786221 3.33632,2.183584 4.31637,1.987574 0.87779,-0.175555 1.15919,0.142397 1.8747,2.118157 0.40588,1.120787 0.89873,1.121005 1.32471,6.4e-4 z M 96.674664,33.28 V 12.8 h -17.92 -17.92 v 20.48 20.48 h 17.92 17.92 z m -35.136,19.456 C 61.24597,52.443306 61.317813,52.187584 61.852683,51.61824 L 62.546226,50.88 61.788469,50.073405 c -0.673562,-0.716973 -0.704426,-0.85993 -0.277757,-1.286595 0.426666,-0.426666 0.564381,-0.39018 1.239443,0.32839 l 0.75944,0.808387 0.746771,-0.701555 c 0.57146,-0.536858 0.834932,-0.613398 1.122298,-0.326032 0.287366,0.287366 0.210826,0.550838 -0.326032,1.122298 l -0.701555,0.746771 0.808387,0.75944 c 0.71857,0.675062 0.755056,0.812777 0.32839,1.239443 -0.426665,0.426669 -0.569622,0.395805 -1.286595,-0.277757 l -0.806595,-0.757757 -0.73824,0.693543 c -0.569344,0.53487 -0.825066,0.606713 -1.11776,0.314019 z M 76.835726,52.64128 C 76.4882,52.222538 76.531493,52.023334 77.102011,51.416045 l 0.681283,-0.725191 -0.687977,-0.68798 c -0.581779,-0.581776 -0.622883,-0.766413 -0.266288,-1.196087 0.380742,-0.458765 0.494717,-0.439507 1.173664,0.198333 l 0.751971,0.706442 0.751971,-0.706442 c 0.678947,-0.63784 0.792922,-0.657098 1.173664,-0.198333 0.356595,0.429674 0.315491,0.614311 -0.266288,1.196087 l -0.687977,0.68798 0.681283,0.725191 c 0.570518,0.607289 0.613811,0.806493 0.266285,1.225235 -0.371632,0.447789 -0.493568,0.426224 -1.166967,-0.2064 l -0.751971,-0.706442 -0.751971,0.706442 c -0.673399,0.632624 -0.795335,0.654189 -1.166967,0.2064 z m 15.04,0 C 91.5282,52.222538 91.571493,52.023334 92.142011,51.416045 l 0.681283,-0.725191 -0.687977,-0.68798 c -0.581779,-0.581776 -0.622883,-0.766413 -0.266288,-1.196087 0.380742,-0.458765 0.494717,-0.439507 1.173664,0.198333 l 0.751971,0.706442 0.751971,-0.706442 c 0.673399,-0.632624 0.795335,-0.654189 1.166967,-0.2064 0.347654,0.418896 0.303228,0.619014 -0.273764,1.233194 l -0.688761,0.733155 0.808387,0.75944 c 0.71857,0.675062 0.755056,0.812777 0.32839,1.239443 -0.426665,0.426669 -0.569622,0.395805 -1.286595,-0.277757 l -0.806595,-0.757757 -0.751971,0.706442 c -0.673399,0.632624 -0.795335,0.654189 -1.166967,0.2064 z M 66.274664,33.28 V 18.56 h 12.48 12.48 V 33.28 48 h -12.48 -12.48 z m 10.381856,9.208797 c 0.570176,-0.814039 0.654122,-2.559424 0.166886,-3.469834 C 76.583867,38.571379 76.150667,38.4 75.258856,38.4 c -1.597354,0 -2.487312,-0.75952 -2.999654,-2.56 L 71.849442,34.4 70.182053,34.30328 68.514664,34.20656 V 31.983277 29.76 h 1.610042 c 1.651468,0 1.689004,-0.03018 2.039171,-1.639536 0.296659,-1.363426 1.242969,-2.264288 2.610601,-2.485223 l 1.260186,-0.203577 0.09597,-1.835832 0.09597,-1.835832 h 2.384029 2.384032 v 1.731873 1.731872 l 1.331347,0.22493 c 1.625427,0.274614 2.828653,1.394521 2.828653,2.632779 0,1.258375 0.536682,1.678546 2.144,1.678546 h 1.376 V 32 34.24 h -1.376 c -1.635267,0 -2.144,0.419565 -2.144,1.768221 0,1.459837 -1.077101,2.328416 -3.04,2.451472 l -1.6,0.100307 -0.09411,1.777635 c -0.146787,2.772679 0.114576,2.900016 5.729315,2.791424 L 90.754664,43.04 90.838558,31.12 90.922453,19.2 H 78.758558 66.594664 v 11.786667 c 0,6.482667 0.096,11.882667 0.213334,11.999999 C 66.92533,43.104 69.077166,43.2 71.589851,43.2 c 4.358224,0 4.591453,-0.03274 5.066669,-0.711203 z M 70.976712,32.96 c -0.269814,-0.714816 -0.269814,-1.205185 0,-1.92 L 71.33907,30.08 H 70.086869 68.834664 V 32 33.92 h 1.252205 1.252201 z M 88.354664,32 v -1.92 h -1.092205 c -1.080749,0 -1.088403,0.01007 -0.729843,0.96 0.269814,0.714815 0.269814,1.205184 0,1.92 -0.35856,0.949933 -0.350906,0.96 0.729843,0.96 h 1.092205 z m -9.2,-7.800577 c 1.463853,0.02441 1.52,-0.0084 1.52,-0.887039 0,-0.909601 -0.0063,-0.912384 -2.08,-0.912384 h -2.08 v 1.154236 c 0,0.987729 0.08078,1.115692 0.56,0.887039 0.308,-0.146958 1.244,-0.255792 2.08,-0.241852 z M 61.540904,35.13824 c -0.29568,-0.29568 -0.225379,-0.548221 0.311779,-1.12 L 62.546226,33.28 61.839784,32.528029 c -0.63784,-0.678949 -0.657098,-0.792921 -0.198333,-1.173663 0.429674,-0.356597 0.614311,-0.315491 1.196087,0.266286 l 0.68798,0.687978 0.725191,-0.681282 c 0.607289,-0.570518 0.806493,-0.613812 1.225235,-0.266287 0.447789,0.371634 0.426224,0.49357 -0.2064,1.166968 L 64.563102,33.28 l 0.706442,0.751971 c 0.632624,0.673399 0.654189,0.795335 0.2064,1.166967 -0.41896,0.347705 -0.619469,0.302803 -1.23657,-0.276935 l -0.736531,-0.691936 -0.583686,0.644967 c -0.677367,0.748483 -0.858403,0.783056 -1.378253,0.263206 z m 30.4,0 c -0.29568,-0.29568 -0.225379,-0.548221 0.311779,-1.12 L 92.946226,33.28 92.239784,32.528029 c -0.632624,-0.673398 -0.654189,-0.795334 -0.2064,-1.166968 0.41896,-0.347705 0.619469,-0.302801 1.23657,0.276937 l 0.736531,0.691935 0.583686,-0.644967 C 94.911198,31.330235 95.300056,31.04 95.454302,31.04 c 0.581773,0 0.635799,1.008352 0.08654,1.61527 -0.550521,0.608324 -0.545696,0.658839 0.13185,1.380055 0.629888,0.670486 0.651101,0.791929 0.203251,1.163613 -0.41896,0.347705 -0.619469,0.302803 -1.23657,-0.276935 l -0.736531,-0.691936 -0.583686,0.644967 C 92.64179,35.623517 92.460754,35.65809 91.940904,35.13824 Z M 61.477202,17.763059 c -0.350426,-0.422239 -0.298685,-0.627201 0.326275,-1.29244 L 62.546226,15.68 61.839784,14.928029 c -0.63784,-0.678949 -0.657098,-0.792921 -0.198333,-1.173663 0.429674,-0.356597 0.614311,-0.315491 1.196087,0.266286 l 0.68798,0.687979 0.725191,-0.681283 c 0.607289,-0.570518 0.806493,-0.613812 1.225235,-0.266287 0.447789,0.371634 0.426224,0.49357 -0.2064,1.166968 L 64.563102,15.68 l 0.706442,0.751971 c 0.63784,0.678949 0.657098,0.792921 0.198333,1.173663 -0.429706,0.356623 -0.614493,0.315307 -1.197555,-0.267753 l -0.689444,-0.689445 -0.8436,0.808222 c -0.75383,0.722214 -0.88792,0.75482 -1.260076,0.306401 z m 15.358524,-0.0018 C 76.4882,17.342516 76.531493,17.143314 77.102011,16.536026 l 0.681283,-0.725193 -0.687977,-0.687979 c -0.581779,-0.581777 -0.622883,-0.766413 -0.266288,-1.196086 0.380742,-0.458766 0.494717,-0.439507 1.173664,0.198333 l 0.751971,0.70646 0.751971,-0.70644 c 0.678947,-0.637839 0.792922,-0.657099 1.173664,-0.198333 0.356595,0.429673 0.315491,0.614309 -0.266288,1.196087 l -0.687977,0.687978 0.681283,0.725193 c 0.570518,0.607288 0.613811,0.806491 0.266285,1.225233 -0.371632,0.447791 -0.493568,0.426225 -1.166967,-0.2064 l -0.751971,-0.70644 -0.751971,0.70644 c -0.673399,0.632625 -0.795335,0.654191 -1.166967,0.2064 z m 15.041476,0.0018 c -0.350426,-0.422239 -0.298685,-0.627201 0.326275,-1.29244 L 92.946226,15.68 92.252683,14.94176 c -0.53487,-0.569345 -0.606713,-0.825067 -0.314019,-1.11776 0.292694,-0.292693 0.548416,-0.220852 1.11776,0.31402 l 0.73824,0.693541 0.806595,-0.757757 c 0.716973,-0.673561 0.85993,-0.704423 1.286595,-0.277757 0.426666,0.426667 0.39018,0.564383 -0.32839,1.239443 l -0.808387,0.759442 0.701555,0.746772 c 0.54496,0.580084 0.615994,0.832333 0.318237,1.13009 -0.297754,0.297756 -0.540311,0.226324 -1.086653,-0.32002 l -0.703338,-0.703338 -0.8436,0.808222 c -0.75383,0.722214 -0.88792,0.75482 -1.260076,0.306401 z M 219.10638,50.176598 c 2.48118,-2.287072 2.50167,-2.367977 2.69953,-10.656598 0.0966,-4.048 0.29303,-7.612 0.43646,-7.92 0.23792,-0.51094 0.011,-0.56 -2.58996,-0.56 h -2.85073 l -0.6757,1.599334 -0.6757,1.599335 1.25219,-0.200234 1.25219,-0.200233 -0.007,6.040899 c -0.008,6.929766 -0.2381,7.825216 -2.50981,9.769718 -1.30383,1.116029 -1.31293,1.138339 -0.60347,1.480483 1.52599,0.735936 2.7318,0.467031 4.27203,-0.952704 z M 58.914664,31.2 V 12.8 h -17.92 -17.92 v 16.066627 16.066627 l 1.418461,-1.392115 1.41846,-1.392115 0.169921,-2.754512 c 0.09346,-1.514982 0.258572,-3.627398 0.366924,-4.694262 0.157201,-1.547834 0.09489,-2.024493 -0.308381,-2.359181 C 25.431608,31.753114 25.409539,27.84 26.114664,27.84 c 0.264,0 0.48,0.216 0.48,0.48 0,0.621982 0.605603,0.621982 0.84428,0 0.389634,-1.01537 1.07572,-0.505136 1.07572,0.8 0,1.066667 0.106667,1.28 0.64,1.28 0.574359,0 0.64,-0.213333 0.64,-2.08 0,-1.866667 0.06564,-2.08 0.64,-2.08 0.352,0 0.64,0.144 0.64,0.32 0,0.176 0.288,0.32 0.64,0.32 0.352,0 0.64,-0.144 0.64,-0.32 0,-0.176 0.288,-0.32 0.64,-0.32 0.56889,0 0.64,0.213333 0.64,1.92 0,1.706667 0.07111,1.92 0.64,1.92 0.518096,0 0.64,-0.213333 0.64,-1.12 0,-0.782222 0.144762,-1.12 0.48,-1.12 0.264,0 0.48,0.216 0.48,0.48 0,0.264 0.216,0.48 0.48,0.48 0.264,0 0.48,-0.216 0.48,-0.48 0,-0.264 0.216,-0.48 0.48,-0.48 0.376611,0 0.48,0.44064 0.48,2.045764 0,1.523259 -0.122595,2.092808 -0.48,2.229958 -0.650362,0.249564 -0.660525,3.64414 -0.01366,4.567644 0.294771,0.420845 0.500787,1.6537 0.56,3.351204 0.0724,2.075612 0.19791,2.68543 0.552691,2.68543 0.286023,0 0.506739,-0.417942 0.585651,-1.108966 0.06965,-0.609933 0.29337,-1.401933 0.497156,-1.76 0.236364,-0.415312 0.371907,-2.45192 0.374348,-5.624858 0.0041,-5.371231 0.191661,-6.080641 1.903904,-7.202546 0.691002,-0.452762 0.865165,-0.455171 1.675543,-0.02318 1.315392,0.701204 2.664384,1.963312 2.664384,2.492781 0,0.252322 -0.1728,0.631568 -0.384,0.842768 -0.2112,0.2112 -0.278135,0.384 -0.148743,0.384 0.129392,0 0.08113,0.288 -0.107257,0.64 -0.188384,0.352 -0.645597,0.64 -1.016029,0.64 -0.624202,0 -0.660349,0.12751 -0.493754,1.74167 0.09887,0.95792 0.04742,1.78592 -0.114316,1.84 -0.17057,0.05703 -0.06608,1.833028 0.248796,4.228839 l 0.542868,4.130509 -1.475168,1.335555 -1.475168,1.335555 0.905459,0.968842 c 0.880422,0.942048 1.010144,0.974803 4.691385,1.184614 2.08226,0.118678 4.613927,0.301571 5.625927,0.406429 l 1.84,0.190653 v -1.92401 c 0,-1.65489 -0.08952,-1.947421 -0.64,-2.091376 -0.508515,-0.132979 -0.64,-0.436483 -0.64,-1.477322 -1.7e-5,-0.720475 -0.09214,-1.309957 -0.20474,-1.309957 -0.324314,0 -1.053901,1.074925 -1.065101,1.569248 -0.0056,0.247088 -0.534608,1.387021 -1.175581,2.533184 -1.015305,1.815539 -1.215616,2.015267 -1.555277,1.550752 C 49.259554,47.919933 48.847982,47.68 48.559387,47.68 c -0.698688,0 -0.668861,-0.177818 0.309978,-1.848083 0.720006,-1.228599 0.780397,-1.525783 0.439488,-2.162775 -0.348867,-0.651865 -0.259066,-0.956128 0.765731,-2.594483 1.144314,-1.82943 1.152154,-1.864806 0.547315,-2.469648 -0.604838,-0.604838 -0.626093,-0.603827 -1.483587,0.07068 -1.083213,0.852053 -1.423648,0.862651 -1.423648,0.04431 0,-0.446422 -0.217773,-0.644029 -0.72,-0.653322 -0.658448,-0.01219 -0.620656,-0.101184 0.442096,-1.041145 L 48.598853,35.99771 47.210984,34.238855 C 45.627787,32.232464 45.547179,32 46.434664,32 c 0.448515,0 0.64,-0.213333 0.64,-0.713025 0,-0.614507 0.191933,-0.503971 1.389107,0.800001 1.479056,1.610995 1.838666,1.77071 2.417232,1.073584 0.545847,-0.657706 0.07227,-1.488839 -0.966745,-1.696642 C 48.71853,31.224773 48.603979,30.08 49.775778,30.08 c 0.429612,0 0.870112,-0.144 0.978886,-0.32 0.189472,-0.306572 4.32,-0.473951 4.32,-0.175057 0,0.07972 -0.171811,0.522031 -0.381805,0.982916 -0.297446,0.652822 -0.29583,0.891111 0.0073,1.078465 0.299856,0.185321 0.276346,0.510409 -0.102486,1.417084 -0.440263,1.053731 -0.44058,1.176592 -0.003,1.176592 0.436534,0 0.437443,0.122406 0.0085,1.148947 -0.502218,1.201981 -0.346893,1.879085 0.614,2.676554 0.443802,0.36832 0.497472,0.09683 0.497472,-2.516362 0,-2.37255 0.09594,-2.966038 0.504813,-3.122941 0.277648,-0.106544 0.737536,0.03901 1.021977,0.32345 0.476218,0.476218 0.45768,0.580477 -0.234134,1.31688 -0.821792,0.874758 -0.818755,0.607725 -0.130656,11.491203 0.218605,3.457607 0.215894,3.476467 -0.468198,3.259344 -0.378442,-0.120112 -0.869364,-0.101091 -1.090938,0.04227 -0.380358,0.246096 0.984349,0.575869 2.877136,0.695245 L 58.914664,49.6 Z m -20.32865,-2.093996 c -0.120121,-0.19436 0.08091,-0.671989 0.446743,-1.061397 l 0.665145,-0.708016 -5.772137,-5.748295 C 28.452436,16.137574 27.187828,14.72 27.798609,14.72 c 0.146554,0 3.21162,2.516187 6.811258,5.591526 l 6.544797,5.591526 0.652019,-0.791526 c 0.714733,-0.867654 1.115568,-1.011087 1.094157,-0.391526 -0.02291,0.662536 -4.072179,4.778615 -4.314826,4.386004 z M 274.02825,46.899597 c -0.87485,-0.957223 -2.14732,-2.821824 -2.82773,-4.143562 l -1.2371,-2.403158 0.90127,-0.940714 c 2.12651,-2.219603 1.52376,-6.207987 -1.15304,-7.629559 -0.78755,-0.418246 -2.07661,-0.582013 -5.35904,-0.680832 l -4.32206,-0.130119 -0.69013,1.633509 -0.69014,1.633507 1.27675,-0.20416 1.27675,-0.20416 -0.11723,6.364825 c -0.0645,3.500653 -0.23493,6.616826 -0.3788,6.924826 -0.23706,0.507542 -0.0303,0.56 2.20691,0.56 2.22777,0 2.44539,-0.05461 2.23175,-0.56 -0.13019,-0.308 -0.30766,-1.748 -0.39436,-3.2 l -0.15765,-2.64 0.92013,0.0091 c 0.7708,0.0076 1.0959,0.299386 2.0032,1.797917 0.59569,0.983862 1.53064,2.298595 2.07767,2.921632 1.1217,1.277539 3.73938,2.623549 5.11137,2.628249 l 0.91211,0.0032 -1.59063,-1.740403 z M 264.67466,36.16 v -2.24 h 1.2088 c 1.67034,0 2.63243,0.739312 2.6263,2.018144 -0.003,0.562022 -0.11069,1.180298 -0.24,1.373952 C 267.87297,37.906349 266.6868,38.4 265.6557,38.4 h -0.98104 z m 54.16952,11.12 c -1.4464,-1.486019 -4.24952,-5.844726 -4.24952,-6.607776 0,-0.262461 0.38933,-0.883581 0.86519,-1.380266 0.70941,-0.74047 0.8873,-1.262147 0.98803,-2.89751 0.24722,-4.013734 -1.77623,-5.315918 -8.29847,-5.340442 L 304.42415,31.04 303.84053,32.4 c -0.32099,0.748 -0.6379,1.471824 -0.70424,1.608499 -0.0663,0.136675 0.4797,0.152503 1.21343,0.03518 l 1.33406,-0.213325 -0.11723,6.364825 c -0.0645,3.500653 -0.23493,6.616826 -0.3788,6.924826 -0.23706,0.507542 -0.0303,0.56 2.20691,0.56 2.23243,0 2.44467,-0.05355 2.21954,-0.56 -0.13691,-0.308 -0.3111,-1.748 -0.38707,-3.2 -0.13176,-2.518074 -0.10689,-2.64 0.53867,-2.64 0.4764,0 1.01958,0.544845 1.83438,1.84 0.63667,1.012 1.60688,2.325635 2.15603,2.919187 1.22515,1.324221 3.81728,2.593485 5.30508,2.597687 l 1.10662,0.0032 -1.32373,-1.36 z m -9.68952,-11.12 v -2.24 h 1.2088 c 1.69799,0 2.6312,0.73591 2.6312,2.074918 0,1.349991 -1.21218,2.405082 -2.76316,2.405082 h -1.07684 z M 140.78144,47.264125 c 0.18983,-0.228733 0.43644,-0.984733 0.54801,-1.68 l 0.20286,-1.264125 -3.06882,0.101958 -3.06883,0.101959 V 42.421958 40.32 h 2.2 2.2 l 0.2,-1 c 0.37798,-1.889907 0.38957,-1.88 -2.2,-1.88 h -2.4 v -1.6 -1.6 h 2.49389 2.49389 l 0.33754,-1.264576 c 0.23537,-0.881818 0.236,-1.366099 0.002,-1.599999 C 140.51685,31.170192 138.44896,31.04 135.39443,31.04 h -4.99224 l -0.70376,1.44856 c -0.38708,0.796707 -0.70377,1.51841 -0.70377,1.603782 0,0.08537 0.58726,0.06131 1.30503,-0.05346 l 1.30504,-0.208682 -0.11828,6.2049 c -0.0651,3.412697 -0.23381,6.451894 -0.375,6.753772 -0.23267,0.497447 0.0684,0.558535 3.21325,0.652039 1.90848,0.05674 4.06433,0.13375 4.79078,0.171129 0.77033,0.03964 1.46466,-0.105366 1.66596,-0.347913 z m 12.7469,-0.06593 c 1.03967,-0.434403 1.18984,-0.43159 1.52632,0.02858 0.32676,0.446867 0.61783,0.462253 2.33897,0.123639 l 1.96577,-0.38674 -0.54237,-0.82702 c -0.46312,-0.706184 -0.54237,-1.740955 -0.54237,-7.081838 0,-3.44015 0.11074,-6.650816 0.2461,-7.134816 l 0.24609,-0.88 h -2.60033 c -2.36761,0 -2.5758,0.05012 -2.3262,0.56 0.15078,0.308 0.31614,3.16217 0.36749,6.342598 l 0.0933,5.782599 -0.82831,0.377401 C 153.01728,44.31017 151.84824,44.48 150.87499,44.48 c -1.52916,0 -1.89663,-0.127072 -2.70494,-0.935386 -0.87695,-0.87694 -0.93539,-1.094304 -0.93539,-3.478966 0,-1.658838 0.27827,-3.640547 0.8,-5.697277 0.44,-1.734531 0.8,-3.192996 0.8,-3.241032 0,-0.04804 -1.26,-0.08394 -2.8,-0.0798 l -2.8,0.0075 -0.70488,1.60412 -0.70487,1.604121 1.15391,-0.216473 c 1.10303,-0.206931 1.14385,-0.182749 0.92564,0.548336 -0.12556,0.420646 -0.31166,2.383587 -0.41356,4.362089 -0.14969,2.906426 -0.0834,3.863898 0.34492,4.985575 0.60545,1.585325 1.84193,2.864992 3.23884,3.351961 1.45943,0.508762 5.13655,0.453712 6.45368,-0.09662 z M 169.00427,46.96 c 1.87737,-0.948419 2.87074,-2.46047 2.86919,-4.367322 -0.002,-2.154156 -0.84267,-3.288601 -3.45548,-4.661593 -3.36792,-1.769789 -4.21355,-2.769677 -3.11409,-3.682144 0.47553,-0.394656 3.19951,-0.31801 4.49966,0.126608 0.5568,0.190413 0.70147,0.02624 1.01938,-1.156823 0.23888,-0.888998 0.26048,-1.490367 0.0608,-1.693028 -0.45708,-0.463911 -4.99523,-0.615116 -6.34293,-0.211337 -1.5525,0.46514 -3.20216,2.209905 -3.43271,3.630609 -0.31958,1.969382 0.59262,3.283312 3.69799,5.326547 2.92282,1.923126 3.56447,2.937472 2.39781,3.790553 -0.87559,0.64025 -3.63172,0.518151 -5.01281,-0.22207 -0.65676,-0.352 -1.26662,-0.64 -1.35526,-0.64 -0.0886,0 -0.16116,0.79895 -0.16116,1.775446 0,1.697015 0.046,1.795418 1.04,2.227476 1.70563,0.741334 5.59806,0.611622 7.28961,-0.242922 z m 9.73162,0.16 c -0.13598,-0.308 -0.30931,-1.646813 -0.38517,-2.975142 -0.19502,-3.41465 0.29121,-3.735716 2.14299,-1.41506 2.04014,2.556708 4.68213,4.950202 5.46414,4.950202 0.60204,0 3.51681,-1.731277 3.51681,-2.08887 0,-0.07597 -0.612,-0.449037 -1.36,-0.829044 -0.748,-0.380006 -2.55132,-1.851712 -4.00737,-3.270457 l -2.64737,-2.579539 2.00737,-2.042909 c 1.10405,-1.1236 2.62926,-2.476547 3.38936,-3.006547 1.3015,-0.907511 1.35141,-0.997437 0.85687,-1.543898 -0.28882,-0.31914 -0.94587,-0.754532 -1.4601,-0.967536 -1.24403,-0.515294 -1.85084,-0.100275 -4.79419,3.278925 -1.26945,1.45743 -2.5171,2.865875 -2.77255,3.129875 -0.40676,0.420378 -0.44848,0.102394 -0.33593,-2.56 0.0707,-1.672 0.24189,-3.292 0.38045,-3.6 0.22915,-0.509363 0.004,-0.56 -2.48986,-0.56 h -2.7418 l -0.76383,1.596006 -0.76382,1.59601 1.25947,-0.201398 1.25947,-0.201399 -0.10808,6.925632 -0.10809,6.925629 2.35424,-2.4e-4 c 2.12293,-2.18e-4 2.32994,-0.05526 2.10699,-0.56024 z m 21.974,0.06757 c 1.66255,-0.586579 2.97116,-1.759546 3.91319,-3.507568 1.03138,-1.913798 0.99818,-6.73737 -0.0612,-8.888701 -0.98431,-1.998944 -2.3428,-2.992455 -4.98249,-3.643863 -1.78158,-0.439648 -2.48527,-0.469635 -4.07647,-0.173719 -4.52447,0.841412 -6.51963,3.417739 -6.49455,8.386283 0.0212,4.190755 1.5445,6.747453 4.70271,7.892842 1.51112,0.548038 5.36228,0.512121 6.99879,-0.06527 z m -5.98073,-3.31092 c -1.28804,-0.785447 -1.8983,-2.304864 -1.87834,-4.67665 0.0281,-3.34345 1.50109,-5.083078 4.30384,-5.083078 2.64832,0 4.0779,1.439539 4.38506,4.415625 0.24108,2.335917 -0.53876,4.477773 -1.94187,5.333347 -1.30224,0.794068 -3.57592,0.799088 -4.86869,0.01075 z m 34.1055,1.616684 c 0,-1.202668 0.0958,-2.282425 0.2128,-2.399465 0.11704,-0.11704 0.82668,0.14696 1.57698,0.586665 1.65779,0.97153 2.03252,0.984756 3.70638,0.130816 1.66762,-0.850755 1.96192,-0.49694 1.69994,2.043671 l -0.19128,1.855024 2.17759,-0.09502 2.17759,-0.09502 -0.10433,-1.92 c -0.23556,-4.335264 -1.88125,-9.839626 -3.89868,-13.04 l -0.95816,-1.52 h -3.66698 -3.66697 l -0.75167,1.570608 -0.75166,1.570605 1.76427,-0.18209 1.76427,-0.182086 -1.18349,1.612243 c -2.19477,2.989862 -4.04082,7.989027 -4.06104,10.997386 -0.008,1.153187 0.17505,1.253334 2.28777,1.253334 h 1.86667 z m 2.32,-4.771856 c -0.572,-0.284675 -1.04,-0.711571 -1.04,-0.948659 0,-0.490848 1.57516,-3.634525 2.51086,-5.011123 l 0.62419,-0.918307 0.48443,0.758307 c 0.3847,0.602192 1.82052,4.755021 1.82052,5.265507 0,0.21904 -2.52764,1.413136 -2.94725,1.392333 -0.22701,-0.01126 -0.88075,-0.253382 -1.45275,-0.538058 z m 20.95957,6.5069 c 1.12081,-0.395447 1.34011,-0.391552 1.76295,0.0313 0.41405,0.414044 0.73692,0.426073 2.26396,0.08434 l 1.78105,-0.39858 -0.48587,-0.939561 c -0.40118,-0.775799 -0.46807,-2.162013 -0.38376,-7.953027 l 0.1021,-7.013472 -2.49126,3.15e-4 c -2.36383,2.99e-4 -2.47431,0.03198 -2.16,0.619278 0.19297,0.36056 0.33126,3.010976 0.33126,6.348634 v 5.729673 l -0.81506,0.371364 c -1.00962,0.460019 -3.8141,0.485315 -4.64266,0.04188 -0.33861,-0.181219 -0.8525,-0.787494 -1.14198,-1.34728 -0.67613,-1.307504 -0.43754,-5.461529 0.50541,-8.799184 0.35986,-1.273773 0.65429,-2.461772 0.65429,-2.64 0,-0.193178 -1.09247,-0.324051 -2.70503,-0.324051 h -2.70502 l -0.65498,1.480678 c -0.36023,0.814372 -0.65497,1.545815 -0.65497,1.625424 0,0.07961 0.45346,0.04515 1.0077,-0.07658 l 1.00769,-0.221325 -0.21955,1.235901 c -0.12075,0.679744 -0.30591,2.54344 -0.41147,4.141543 -0.38983,5.901984 1.58895,8.411897 6.6554,8.441833 1.16587,0.0069 2.69578,-0.190707 3.3998,-0.439097 z M 285.39511,47.28 c 0.17535,-0.22 0.42079,-1.103939 0.54543,-1.96431 0.20822,-1.437252 0.17901,-1.543725 -0.35963,-1.310855 -0.32244,0.139402 -1.56697,0.320083 -2.76563,0.401517 l -2.17937,0.148061 0.10583,-6.197207 c 0.0582,-3.408464 0.22633,-6.449206 0.37361,-6.757206 0.24457,-0.511466 0.0207,-0.56 -2.58294,-0.56 h -2.85073 l -0.6757,1.599334 -0.6757,1.599335 1.25219,-0.200234 1.25219,-0.200233 v 5.940067 c 0,3.267037 -0.13834,6.303917 -0.30741,6.748624 l -0.30742,0.808557 2.78742,0.106473 c 1.53307,0.05856 3.52578,0.136083 4.42823,0.172272 1.00227,0.04019 1.76489,-0.08986 1.95963,-0.334195 z m 5.83955,-1.786666 c 0,-1.202668 0.087,-2.273721 0.19345,-2.380118 0.1064,-0.106397 0.96906,0.186944 1.91703,0.651872 l 1.72359,0.845325 1.46384,-0.711191 c 0.80511,-0.391155 1.61739,-0.616294 1.80505,-0.500313 0.21736,0.134342 0.27223,0.949507 0.15116,2.245984 L 298.29874,47.68 h 2.04908 c 1.12699,0 2.12661,-0.125469 2.22139,-0.278819 0.30712,-0.496935 -0.50129,-5.888906 -1.29231,-8.619571 -0.77574,-2.677869 -1.9186,-5.236324 -3.06507,-6.86161 -0.61524,-0.872183 -0.65313,-0.88 -4.26652,-0.88 h -3.64577 l -0.75167,1.570608 -0.75166,1.570605 1.76427,-0.18209 1.76427,-0.182086 -1.14561,1.571481 c -2.19151,3.006164 -3.48776,6.272752 -3.95106,9.956733 -0.11518,0.915891 -0.11632,1.815891 -0.003,2 0.11379,0.184112 1.06239,0.334749 2.108,0.334749 h 1.90111 v -2.186666 z m 2.32,-4.771856 c -0.572,-0.284675 -1.04,-0.711571 -1.04,-0.948659 0,-0.587856 1.69839,-3.909833 2.502,-4.893792 0.81239,-0.99471 1.13694,-0.723779 1.94021,1.619632 1.15833,3.379223 1.15652,3.407357 -0.2655,4.132819 -1.49899,0.764724 -1.76561,0.772375 -3.13671,0.09 z M 325.24077,46.8 c -0.13536,-0.484 -0.24611,-3.832 -0.24611,-7.44 0,-3.608 0.11075,-6.956 0.24611,-7.44 l 0.24608,-0.88 h -2.58765 c -2.54768,0 -2.58362,0.01113 -2.32611,0.72 0.14387,0.396 0.26157,3.816 0.26157,7.6 0,3.784 -0.1177,7.204 -0.26157,7.6 -0.25751,0.708874 -0.22157,0.72 2.32611,0.72 h 2.58765 z M 335.45149,40.96032 335.34832,34.24 h 1.95108 c 2.10284,0 2.14102,-0.03288 2.69449,-2.32 l 0.21296,-0.88 -6.00608,0.0049 c -3.30336,0.0027 -6.16313,0.110695 -6.35507,0.24 -0.19194,0.129305 -0.58106,0.924479 -0.86467,1.767052 l -0.51568,1.531955 2.40835,-0.218237 2.40832,-0.218236 -0.10368,6.766604 -0.10368,6.766605 h 2.24 2.24 z M 352.76896,47.36 c 0.19306,-0.204656 0.8512,-3.321152 0.72749,-3.444886 -0.0512,-0.05116 -0.48237,0.05501 -0.95824,0.235932 -0.79568,0.302519 -6.58355,0.485005 -6.58355,0.207575 0,-0.06676 1.7145,-3.054762 3.80998,-6.64 L 353.57463,31.2 348.40464,31.10864 c -2.84348,-0.05025 -5.47024,-0.01747 -5.83718,0.07285 -0.58848,0.144833 -1.4128,1.866321 -1.4128,2.950436 0,0.171993 1.28346,0.241529 3.04,0.164704 1.672,-0.07313 3.04,-0.05447 3.04,0.04146 0,0.09593 -1.71286,3.056249 -3.80634,6.578496 -2.0935,3.522246 -3.76022,6.448934 -3.70384,6.503753 0.17354,0.168784 12.88378,0.11 13.04448,-0.06033 z m 5.9857,-1.573827 c 0,-2.944343 0.077,-3.018394 2.10474,-2.023907 l 1.72934,0.848147 1.46384,-0.711191 c 0.80509,-0.391155 1.61738,-0.616294 1.80502,-0.500313 0.21776,0.134579 0.27197,0.952422 0.14983,2.260361 l -0.19136,2.049485 2.14928,-0.09438 2.14931,-0.09437 -0.1128,-2.24 c -0.20995,-4.169386 -2.21267,-10.47896 -4.22173,-13.300391 L 365.11108,31.04 h -3.64324 -3.64323 l -0.65497,1.480678 c -0.36023,0.814372 -0.65498,1.513236 -0.65498,1.553028 0,0.03979 0.74768,6.4e-4 1.66147,-0.0873 l 1.66147,-0.159648 -1.14204,1.566621 c -2.18788,3.001245 -3.48445,6.270032 -3.94749,9.951872 -0.11517,0.915891 -0.11632,1.815891 -0.003,2 0.11379,0.184112 1.0624,0.334749 2.108,0.334749 h 1.90112 v -1.893827 z m 2.32,-5.064695 c -0.572,-0.284675 -1.04,-0.722409 -1.04,-0.972739 0,-0.651401 2.18371,-4.718592 2.86397,-5.334243 0.53872,-0.48752 0.61088,-0.418781 1.23225,1.17383 0.36304,0.93042 0.74189,2.015674 0.84192,2.411674 0.10004,0.396 0.26141,1.001219 0.35863,1.344934 0.13766,0.48664 -0.10736,0.769895 -1.10723,1.28 -1.51245,0.771591 -1.77687,0.779696 -3.14954,0.09654 z m -328.079996,0.24978 c 0,-1.243236 -0.134608,-1.660778 -0.618963,-1.92 -0.800498,-0.428413 -0.843271,-0.423309 -1.43818,0.1716 -0.305745,0.305744 -0.502857,1.058355 -0.502857,1.92 V 42.56 h 1.28 1.28 z M 30.694939,34.16 c -0.07686,-0.797104 -0.268435,-1.063882 -0.820275,-1.142256 -0.631294,-0.08966 -0.72,0.03847 -0.72,1.04 0,1.012602 0.09311,1.142256 0.820275,1.142256 0.732674,0 0.809566,-0.111066 0.72,-1.04 z m 3.52,0 c -0.07685,-0.797104 -0.268435,-1.063882 -0.820275,-1.142256 -0.631293,-0.08966 -0.72,0.03847 -0.72,1.04 0,1.012602 0.09311,1.142256 0.820275,1.142256 0.732672,0 0.809565,-0.111066 0.72,-1.04 z M 37.705704,10.196646 C 37.216776,9.831953 36.60108,9.116515 36.337486,8.606784 35.97828,7.9121526 35.628978,7.68 34.943026,7.68 34.439662,7.68 33.615362,7.4658573 33.111243,7.2041274 32.115498,6.6871526 31.248688,6.8218934 30.321038,7.6378499 29.978723,7.9389488 29.173022,8.16 28.417873,8.16 c -1.131219,0 -1.409874,0.148061 -2.046374,1.087323 -0.405259,0.598027 -0.736835,1.210027 -0.736835,1.36 0,0.149972 2.916,0.268115 6.48,0.262539 l 6.48,-0.01014 z m 3.60896,-0.417761 c 0,-0.605613 0.144,-1.190111 0.32,-1.298885 0.414598,-0.256236 0.418435,-2.4 0.0043,-2.4 -0.173638,0 -0.520493,-0.4901238 -0.770787,-1.0891642 C 40.318538,3.675369 39.272001,3.2422243 38.44707,3.9887786 c -0.4457,0.4033507 -0.568887,0.9441273 -0.526781,2.3125046 0.04805,1.5616246 0.17767,1.8911268 1.03159,2.6223788 0.537137,0.459986 1.067988,1.088338 1.179655,1.396338 0.373248,1.029444 1.18313,0.659035 1.18313,-0.541115 z m 10.868742,0.482152 c 0.182192,-0.340429 0.331258,-0.978725 0.331258,-1.418436 0,-0.51812 0.22497,-0.8708752 0.639258,-1.0023648 C 53.784693,7.6400365 54.333685,6.3431123 54.15612,5.4726634 54.105931,5.2266285 54.328072,4.5317178 54.649765,3.9284176 55.23261,2.8353592 55.231979,2.8293207 54.470062,2.2083457 53.950805,1.7851401 53.488744,1.6592904 53.030062,1.8161376 52.658594,1.9431627 51.994664,2.0219847 51.554664,1.9912977 50.136946,1.8924212 49.480875,2.1922259 48.876674,3.2150573 48.46603,3.9102173 48.106373,4.1697139 47.700597,4.0636019 46.808792,3.8303894 45.84389,4.6921971 45.611826,5.9291974 45.449666,6.7935792 45.248658,7.04 44.70572,7.04 c -0.850061,0 -1.782202,1.822061 -1.550963,3.031692 L 43.309272,10.88 h 4.271437 c 3.895539,0 4.300589,-0.05447 4.602697,-0.618963 z M 76.514664,10.022719 C 76.514664,8.464948 75.813029,7.04 75.045992,7.04 74.498942,7.04 74.299858,6.7946224 74.135323,5.9175786 73.913477,4.7350378 72.665739,3.6099738 72.019234,4.0095363 71.808795,4.1395952 71.242526,3.7330352 70.674792,3.0442747 69.798424,1.98109 69.571442,1.8719273 68.544293,2.0196541 c -0.632295,0.090938 -1.435328,0.056012 -1.784519,-0.077613 -1.5516,-0.593756 -2.537008,0.6806152 -1.614713,2.0882139 0.28791,0.4394051 0.440185,1.0613347 0.338387,1.3820656 -0.270122,0.8510771 0.378704,2.3034035 1.115069,2.4959677 0.416416,0.1088947 0.636147,0.4370597 0.636147,0.9500707 0,0.431044 0.149066,1.062249 0.331258,1.402678 0.302329,0.564903 0.70758,0.618963 4.64,0.618963 h 4.308742 z m 3.13031,0.259237 C 79.771304,9.953032 80.319931,9.311358 80.864149,8.856014 81.765307,8.102022 81.847182,7.8768928 81.78133,6.3340586 81.686,4.1007152 81.7286,4.2327917 80.973205,3.8285158 80.458667,3.5531427 80.138821,3.5878189 79.533205,3.9846339 79.105006,4.2652 78.754664,4.685401 78.754664,4.9184138 c 0,0.2330131 -0.273216,0.7386793 -0.607146,1.1237033 -0.609504,0.7027664 -0.588467,1.6986515 0.05321,2.5186769 0.172493,0.220437 0.227293,0.832437 0.121779,1.36 -0.16215,0.81074 -0.09243,0.959206 0.450467,0.959206 0.353274,0 0.745674,-0.26912 0.872,-0.598044 z M 94.113467,10.64 C 94.112827,10.508 93.829275,9.935865 93.483394,9.368588 92.836949,8.308362 91.69901,7.8039267 90.601294,8.090986 90.25859,8.180606 89.798818,8.037796 89.579579,7.7736288 88.83147,6.8722096 87.741438,6.6772682 86.566565,7.2347814 85.964626,7.5204205 85.115874,7.6860224 84.68045,7.6027856 84.100891,7.4919962 83.836872,7.6149556 83.695086,8.061687 83.588558,8.39732 83.004587,9.168745 82.397368,9.775964 L 81.29333,10.88 h 6.410668 c 3.525866,0 6.410128,-0.108 6.409469,-0.24 z"
     id="path93"
     inkscape:connector-curvature="0" />
</svg>
