<?xml version="1.0" encoding="UTF-8" standalone="no"?>
<!-- Generator: Adobe Illustrator 16.0.0, SVG Export Plug-In . SVG Version: 6.00 Build 0) -->

<svg
   xmlns:dc="http://purl.org/dc/elements/1.1/"
   xmlns:cc="http://creativecommons.org/ns#"
   xmlns:rdf="http://www.w3.org/1999/02/22-rdf-syntax-ns#"
   xmlns:svg="http://www.w3.org/2000/svg"
   xmlns="http://www.w3.org/2000/svg"
   xmlns:sodipodi="http://sodipodi.sourceforge.net/DTD/sodipodi-0.dtd"
   xmlns:inkscape="http://www.inkscape.org/namespaces/inkscape"
   version="1.1"
   id="Layer_1"
   x="0px"
   y="0px"
   width="178.01437"
   height="50.976238"
   viewBox="0 0 178.01438 50.976239"
   xml:space="preserve"
   inkscape:version="0.91pre1 r13432"
   sodipodi:docname="jaurlaritza.svg"><metadata
     id="metadata11963"><rdf:RDF><cc:Work
         rdf:about=""><dc:format>image/svg+xml</dc:format><dc:type
           rdf:resource="http://purl.org/dc/dcmitype/StillImage" /><dc:title></dc:title></cc:Work></rdf:RDF></metadata><defs
     id="defs11961" /><sodipodi:namedview
     pagecolor="#ffffff"
     bordercolor="#666666"
     borderopacity="1"
     objecttolerance="10"
     gridtolerance="10"
     guidetolerance="10"
     inkscape:pageopacity="0"
     inkscape:pageshadow="2"
     inkscape:window-width="1598"
     inkscape:window-height="879"
     id="namedview11959"
     showgrid="false"
     fit-margin-top="0"
     fit-margin-left="0"
     fit-margin-right="0"
     fit-margin-bottom="0"
     inkscape:zoom="2.3063941"
     inkscape:cx="53.544541"
     inkscape:cy="-16.536484"
     inkscape:window-x="0"
     inkscape:window-y="19"
     inkscape:window-maximized="0"
     inkscape:current-layer="g11585" /><g
     id="g11585"
     transform="translate(-5.6365043,-62.435124)"><polygon
       style="clip-rule:evenodd;fill:#b3b3b3;fill-rule:evenodd"
       points="46.179,100.546 46.179,73.029 46.179,73.029 46.179,73.029 182.195,73.029 182.195,100.546 "
       id="polygon11591" /><path
       style="clip-rule:evenodd;fill:#000000;fill-rule:evenodd"
       d="m 94.566,76.358 c -2.354,0 -3.63,1.297 -3.63,3.695 0,2.396 1.276,3.704 3.63,3.704 2.354,0 3.629,-1.318 3.629,-3.704 0,-2.386 -1.276,-3.695 -3.629,-3.695 l 0,0 0,0 0,0 z m 0,1.36 c 1.276,0 1.97,0.81 1.97,2.335 0,1.525 -0.694,2.345 -1.97,2.345 -1.275,0 -1.98,-0.82 -1.98,-2.345 -0.001,-1.525 0.705,-2.335 1.98,-2.335 l 0,0 0,0 z"
       id="path11593"
       inkscape:connector-curvature="0" /><path
       style="clip-rule:evenodd;fill:#000000;fill-rule:evenodd"
       d="m 157.455,76.412 c -0.238,0.062 -0.529,0.073 -0.861,0.073 l -4.16,0 c -0.281,0 -0.457,0 -0.539,0.239 l -0.445,1.308 c 0.486,-0.135 0.912,-0.187 1.223,-0.187 l 0.934,0 0,4.452 c 0,0.603 -0.072,1.038 -0.289,1.349 l 2.262,0 c -0.219,-0.332 -0.303,-0.768 -0.303,-1.349 l 0,-4.452 1.277,0 c 0.404,0 0.539,0 0.633,-0.374 l 0.268,-1.059 0,0 0,0 z"
       id="path11595"
       inkscape:connector-curvature="0" /><path
       style="clip-rule:evenodd;fill:#000000;fill-rule:evenodd"
       d="m 158.717,76.489 c -0.064,0 -0.111,0 -0.121,0 -0.262,0 -0.338,0.114 -0.422,0.405 l -0.334,1.151 c 0.527,-0.218 0.938,-0.311 1.451,-0.311 0.039,0 0.086,0 0.133,0 0.178,0 0.303,0 0.641,0 l 0.682,0 -3.504,5.915 c 0.656,-0.021 1.312,-0.031 1.986,-0.031 1.773,0 2.889,0.073 3.34,0.073 0.348,0 0.486,-0.062 0.562,-0.457 l 0.244,-1.22 c -0.375,0.208 -0.807,0.379 -1.258,0.379 -0.459,0 -1.068,-0.041 -1.809,-0.041 -0.189,0 -0.18,0.01 -0.404,0.021 l 3.434,-5.884 -4.621,0 0,0 0,0 z"
       id="path11597"
       inkscape:connector-curvature="0" /><path
       style="clip-rule:evenodd;fill:#000000;fill-rule:evenodd"
       d="m 105.375,80.205 0,-2.325 c -0.02,-0.971 0.301,-1.393 0.301,-1.393 l -2.014,0 c -0.082,0 -0.156,0 -0.238,0 -0.207,0 -0.002,0 -0.209,-0.042 -0.145,0.468 -0.352,0.914 -0.621,1.38 0.662,-0.155 0.758,-0.218 1.088,-0.218 0.01,0 0.018,0 0.027,0 l 0.006,0.184 -0.004,4.364 c 0,0.806 -0.035,1.043 -0.189,1.387 -0.271,0.605 -0.807,1.163 -1.457,1.506 0.367,0.273 0.709,0.416 1.029,0.416 0.344,0 0.725,-0.214 1.186,-0.641 0.236,-0.226 0.439,-0.474 0.605,-0.747 0.295,-0.463 0.492,-0.973 0.492,-1.969 l -0.002,-1.902 0,0 0,0 z"
       id="path11599"
       inkscape:connector-curvature="0" /><path
       style="clip-rule:evenodd;fill:#000000;fill-rule:evenodd"
       d="m 124.24,79.648 c 0.104,0.01 0.154,0.021 0.176,0.021 l 0.279,0 c 0.883,0 1.328,-0.395 1.328,-1.038 0,-0.633 -0.436,-0.997 -1.266,-0.997 -0.176,0 -0.352,0.021 -0.518,0.042 l 0,1.972 10e-4,0 0,0 0,0 z m -1.539,-2.014 c -0.299,0.028 -0.676,0.091 -1.131,0.198 0.27,-0.466 0.477,-0.913 0.621,-1.38 0.207,0.042 0.404,0.042 0.613,0.042 l 0.238,0 1.293,0 c 0.211,-0.006 0.424,-0.011 0.641,-0.011 1.699,0 2.551,0.851 2.551,2.158 0,0.831 -0.363,1.495 -1.016,1.837 0,0 1.191,2.791 2.541,3.595 -0.717,0.338 -2.477,-0.503 -3.08,-1.654 l -1,-1.561 c -0.197,0.021 -0.297,0.025 -0.516,0.025 l -0.217,0 0,1.422 c 0,0.592 0.113,1.048 0.311,1.349 l -2.146,0 c 0.229,-0.342 0.301,-0.778 0.301,-1.349 l 0,-4.463 c 0,-0.071 -0.002,-0.141 -0.004,-0.208 l 0,0 0,0 z"
       id="path11601"
       inkscape:connector-curvature="0" /><path
       style="clip-rule:evenodd;fill:#000000;fill-rule:evenodd"
       d="m 143.793,79.648 c 0.104,0.01 0.154,0.021 0.176,0.021 l 0.279,0 c 0.883,0 1.328,-0.395 1.328,-1.038 0,-0.633 -0.436,-0.997 -1.266,-0.997 -0.176,0 -0.352,0.021 -0.518,0.042 l 0,1.972 0.001,0 0,0 0,0 z m -1.539,-2.014 c -0.299,0.028 -0.676,0.091 -1.131,0.198 0.27,-0.466 0.477,-0.913 0.623,-1.38 0.207,0.042 0.404,0.042 0.611,0.042 l 0.238,0 1.293,0 c 0.211,-0.006 0.424,-0.011 0.641,-0.011 1.701,0 2.551,0.851 2.551,2.158 0,0.831 -0.363,1.495 -1.016,1.837 0,0 1.191,2.791 2.543,3.595 -0.717,0.338 -2.637,-0.503 -3.242,-1.654 l -0.998,-1.561 c -0.197,0.021 -0.139,0.025 -0.355,0.025 l -0.219,0 0,1.422 c 0,0.592 0.115,1.048 0.311,1.349 l -2.146,0 c 0.229,-0.342 0.301,-0.778 0.301,-1.349 l 0,-4.463 c -10e-4,-0.071 -10e-4,-0.141 -0.005,-0.208 l 0,0 0,0 z"
       id="path11603"
       inkscape:connector-curvature="0" /><path
       style="clip-rule:evenodd;fill:#000000;fill-rule:evenodd"
       d="m 66.97,76.485 2.36,0 c 0.342,0 0.477,0.042 0.498,0.312 l -0.313,1.079 c -0.28,-0.124 -0.601,-0.124 -0.975,-0.124 l -1.256,0 0,1.525 1.578,0 c 0.239,0 0.457,0 0.675,-0.062 l -0.276,1.338 c -0.229,-0.042 -0.446,-0.052 -0.643,-0.052 l -1.333,0 0,1.878 1.8,0 c 0.466,0 0.809,-0.042 1.017,-0.146 l -0.197,0.986 c -0.083,0.425 -0.135,0.447 -0.623,0.447 -0.383,0 -1.375,-0.052 -2.432,-0.052 -0.394,0 -0.882,0.01 -1.453,0.03 0.229,-0.456 0.28,-0.882 0.28,-1.349 l 0,-4.494 c 0,-0.06 -0.001,-0.119 -0.003,-0.178 -0.298,0.03 -0.674,0.092 -1.127,0.199 0.27,-0.468 0.477,-0.914 0.623,-1.381 0.207,0.042 0.404,0.042 0.612,0.042 l 0.238,0 0.95,0 0,0.002 0,0 z"
       id="path11605"
       inkscape:connector-curvature="0" /><path
       style="clip-rule:evenodd;fill:#000000;fill-rule:evenodd"
       d="m 71.459,76.485 0.239,0 0.95,0 0.667,0 c -0.602,1.702 -0.819,3.155 -0.819,4.016 0,1.318 0.54,1.909 1.711,1.909 0.654,0 1.192,-0.176 1.514,-0.466 l 0,-4.089 c 0,-0.571 -0.062,-1.006 -0.301,-1.37 l 2.25,0 c -0.25,0.374 -0.28,0.82 -0.28,1.391 l 0,4.079 c 0,0.727 0.166,1.193 0.56,1.432 l -1.68,0.363 c -0.197,-0.197 -0.322,-0.342 -0.353,-0.477 -0.622,0.342 -1.276,0.498 -2.022,0.498 -2.042,0 -3.028,-1.038 -3.028,-3.175 0,-1.132 0.242,-2.143 0.356,-2.955 -0.275,0.033 -0.609,0.093 -0.999,0.185 0.27,-0.468 0.477,-0.914 0.622,-1.381 0.21,0.04 0.406,0.04 0.613,0.04 l 0,0 0,0 z"
       id="path11607"
       inkscape:connector-curvature="0" /><path
       style="clip-rule:evenodd;fill:#000000;fill-rule:evenodd"
       d="m 89.882,76.63 0.768,0.56 c -0.726,0.447 -1.431,1.018 -2.084,1.691 l -0.954,0.976 1.058,1.121 c 0.923,0.976 1.918,1.619 2.52,1.826 -0.736,0.582 -1.203,0.935 -1.555,0.935 -0.394,0 -1.058,-0.571 -2.022,-1.744 l -1.027,-1.235 -0.363,0.321 0,1.214 c 0,0.581 0.083,1.017 0.301,1.349 l -2.209,0 c 0.228,-0.343 0.301,-0.778 0.301,-1.349 l 0,-4.452 c 0,-0.075 -0.002,-0.147 -0.004,-0.218 -0.298,0.029 -0.673,0.092 -1.125,0.198 0.27,-0.468 0.477,-0.914 0.623,-1.381 0.207,0.042 0.404,0.042 0.611,0.042 l 0.239,0 0.951,0 0.613,0 c -0.218,0.312 -0.301,0.768 -0.301,1.359 l 0,1.827 1.317,-1.536 c 0.933,-1.089 1.503,-1.66 1.918,-1.66 0.134,10e-4 0.279,0.052 0.424,0.156 l 0,0 0,0 z"
       id="path11609"
       inkscape:connector-curvature="0" /><path
       style="clip-rule:evenodd;fill:#000000;fill-rule:evenodd"
       d="m 114.875,76.485 0.238,0 0.951,0 0.65,0 c -0.602,1.702 -0.82,3.155 -0.82,4.016 0,1.318 0.541,1.909 1.711,1.909 0.654,0 1.193,-0.176 1.516,-0.466 l 0,-4.089 c 0,-0.571 -0.062,-1.006 -0.301,-1.37 l 2.25,0 c -0.248,0.374 -0.279,0.82 -0.279,1.391 l 0,4.079 c 0,0.727 0.166,1.193 0.559,1.432 l -1.68,0.363 c -0.195,-0.197 -0.32,-0.342 -0.352,-0.477 -0.623,0.342 -1.275,0.498 -2.021,0.498 -2.045,0 -3.029,-1.038 -3.029,-3.175 0,-1.131 0.242,-2.141 0.355,-2.953 -0.273,0.034 -0.6,0.092 -0.982,0.183 0.27,-0.468 0.477,-0.914 0.621,-1.381 0.209,0.04 0.406,0.04 0.613,0.04 l 0,0 0,0 z"
       id="path11611"
       inkscape:connector-curvature="0" /><path
       style="clip-rule:evenodd;fill:#000000;fill-rule:evenodd"
       d="m 131.494,76.604 c -0.236,0.528 -0.256,0.962 -0.256,1.368 l 0,0.239 0,4.141 1.434,0 c 0.238,0 0.602,-0.119 1.01,-0.311 l -0.211,1.255 c -0.062,0.342 -0.219,0.395 -0.561,0.395 -0.652,0 -1.443,-0.083 -2.625,-0.083 -0.322,0 -0.654,0.021 -0.975,0.031 0.227,-0.374 0.279,-0.716 0.279,-1.1 l 0,-4.327 0,-0.239 c 0,-0.113 -0.002,-0.228 -0.008,-0.346 -0.297,0.029 -0.67,0.092 -1.119,0.198 0.27,-0.468 0.477,-0.914 0.623,-1.381 0.207,0.042 0.404,0.042 0.611,0.042 l 0.238,0 1.723,0 -0.163,0.118 0,0 0,0 z"
       id="path11613"
       inkscape:connector-curvature="0" /><path
       style="clip-rule:evenodd;fill:#000000;fill-rule:evenodd"
       d="m 83.141,76.731 c -0.24,-0.195 -0.925,-0.34 -1.8,-0.34 -1.637,0 -2.656,0.943 -2.656,2.001 0,1.978 2.981,2.206 2.981,3.276 0,0.395 -0.392,0.772 -1.056,0.772 -0.721,0 -1.484,-0.224 -2.021,-0.729 l -0.124,1.321 c 0,0.011 0,0.021 0,0.031 0,0.437 0.847,0.695 2.107,0.695 1.82,0 2.858,-1.014 2.851,-2.186 -0.012,-1.598 -0.939,-1.728 -2.034,-2.366 -0.681,-0.396 -1.147,-0.646 -1.07,-1.066 0.06,-0.326 0.299,-0.515 0.836,-0.515 0.451,0 1.065,0.065 1.597,0.368 l 0.389,-1.262 0,0 0,0 z"
       id="path11615"
       inkscape:connector-curvature="0" /><path
       style="clip-rule:evenodd;fill:#000000;fill-rule:evenodd"
       d="m 148.75,76.487 c 0.219,0.332 0.301,0.778 0.301,1.36 l 0,4.452 c 0,0.581 -0.082,1.017 -0.301,1.349 l 2.262,0 c -0.219,-0.322 -0.303,-0.758 -0.303,-1.349 l 0,-4.452 c 0,-0.592 0.084,-1.039 0.303,-1.36 l -2.262,0 0,0 0,0 z"
       id="path11617"
       inkscape:connector-curvature="0" /><path
       style="clip-rule:evenodd;fill:#000000;fill-rule:evenodd"
       d="m 111.637,81.667 c 0.061,0.497 0.148,1.171 -0.049,1.974 l 1.887,0 c -0.104,-2.958 -0.912,-5.458 -2.209,-7.16 l -2.375,0 -0.238,0 c -0.207,0 -0.404,0 -0.611,-0.042 -0.145,0.467 -0.352,0.913 -0.623,1.38 0.664,-0.156 1.162,-0.217 1.494,-0.217 l 0.176,0 c -1.566,1.732 -2.375,3.715 -2.375,5.874 l 0,0.166 1.795,0 c -0.16,-0.865 -0.061,-1.518 0.059,-2.041 l 1.57,0.794 1.499,-0.728 0,0 0,0 0,0 z m -1.176,-4.041 c -0.904,1.041 -1.398,2.382 -1.537,2.761 l 1.227,0.63 1.289,-0.644 c -0.001,0 -0.264,-1.678 -0.979,-2.747 l 0,0 0,0 z"
       id="path11619"
       inkscape:connector-curvature="0" /><path
       style="clip-rule:evenodd;fill:#000000;fill-rule:evenodd"
       d="m 139.094,81.667 c 0.061,0.497 0.148,1.171 -0.049,1.974 l 1.887,0 c -0.104,-2.958 -0.914,-5.458 -2.209,-7.16 l -2.375,0 -0.238,0 c -0.207,0 -0.404,0 -0.611,-0.042 -0.146,0.467 -0.354,0.913 -0.623,1.38 0.662,-0.156 1.162,-0.217 1.494,-0.217 l 0.176,0 c -1.566,1.732 -2.375,3.715 -2.375,5.874 l 0,0.166 1.795,0 c -0.16,-0.865 -0.061,-1.518 0.059,-2.041 l 1.568,0.794 1.501,-0.728 0,0 0,0 0,0 z m -1.176,-4.041 c -0.904,1.041 -1.398,2.382 -1.537,2.761 l 1.227,0.63 1.289,-0.644 c -0.001,0 -0.266,-1.678 -0.979,-2.747 l 0,0 0,0 z"
       id="path11621"
       inkscape:connector-curvature="0" /><path
       style="clip-rule:evenodd;fill:#000000;fill-rule:evenodd"
       d="m 168.799,81.667 c 0.062,0.497 0.148,1.171 -0.049,1.974 l 1.887,0 c -0.104,-2.958 -0.912,-5.458 -2.207,-7.16 l -2.377,0 -0.238,0 c -0.207,0 -0.404,0 -0.611,-0.042 -0.145,0.467 -0.354,0.913 -0.623,1.38 0.664,-0.156 1.162,-0.217 1.494,-0.217 l 0.176,0 c -1.564,1.732 -2.375,3.715 -2.375,5.874 l 0,0.166 1.795,0 c -0.16,-0.865 -0.059,-1.518 0.059,-2.041 l 1.568,0.794 1.501,-0.728 0,0 0,0 0,0 z m -1.176,-4.041 c -0.904,1.041 -1.398,2.382 -1.537,2.761 l 1.227,0.63 1.291,-0.644 c 0,0 -0.266,-1.678 -0.981,-2.747 l 0,0 0,0 z"
       id="path11623"
       inkscape:connector-curvature="0" /><path
       style="clip-rule:evenodd;fill:#000000;fill-rule:evenodd"
       d="m 119.217,89.834 c -2.354,0 -3.629,1.297 -3.629,3.695 0,2.398 1.275,3.704 3.629,3.704 2.354,0 3.631,-1.317 3.631,-3.704 0,-2.387 -1.278,-3.695 -3.631,-3.695 l 0,0 0,0 0,0 z m 0,1.36 c 1.277,0 1.971,0.81 1.971,2.335 0,1.525 -0.693,2.345 -1.971,2.345 -1.275,0 -1.979,-0.82 -1.979,-2.345 0,-1.525 0.703,-2.335 1.979,-2.335 l 0,0 0,0 z"
       id="path11625"
       inkscape:connector-curvature="0" /><path
       style="clip-rule:evenodd;fill:#000000;fill-rule:evenodd"
       d="m 76.567,89.834 c -2.354,0 -3.63,1.297 -3.63,3.695 0,2.398 1.275,3.704 3.63,3.704 2.354,0 3.629,-1.317 3.629,-3.704 0,-2.387 -1.275,-3.695 -3.629,-3.695 l 0,0 0,0 0,0 z m 0,1.36 c 1.275,0 1.97,0.81 1.97,2.335 0,1.525 -0.695,2.345 -1.97,2.345 -1.275,0 -1.981,-0.82 -1.981,-2.345 0,-1.525 0.706,-2.335 1.981,-2.335 l 0,0 0,0 z"
       id="path11627"
       inkscape:connector-curvature="0" /><path
       style="clip-rule:evenodd;fill:#000000;fill-rule:evenodd"
       d="m 147.389,90.534 c 0.035,-0.114 0.059,-0.197 0.059,-0.218 0,-0.269 -0.791,-0.498 -1.889,-0.498 -1.639,0 -2.656,0.943 -2.656,2.002 0,1.977 2.98,2.206 2.98,3.276 0,0.395 -0.391,0.772 -1.055,0.772 -0.721,0 -1.484,-0.224 -2.021,-0.729 l -0.123,1.321 c 0,0.011 0,0.021 0,0.031 0,0.436 0.848,0.695 2.107,0.695 1.82,0 2.857,-1.014 2.85,-2.187 -0.01,-1.598 -0.939,-1.729 -2.033,-2.366 -0.682,-0.396 -1.146,-0.647 -1.07,-1.066 0.061,-0.326 0.299,-0.515 0.838,-0.515 0.492,0 1.178,0.077 1.74,0.456 l 0.273,-0.974 0,0 0,0 z"
       id="path11629"
       inkscape:connector-curvature="0" /><path
       style="clip-rule:evenodd;fill:#000000;fill-rule:evenodd"
       d="m 129.758,89.949 -1.787,0 c -0.082,0 -0.154,0 -0.236,0 -0.209,0 -0.406,0 -0.613,-0.042 -0.145,0.467 -0.352,0.913 -0.623,1.38 0.664,-0.156 1.162,-0.218 1.494,-0.218 l 0.029,0.011 c 0.418,2.426 2.889,6.153 2.889,6.153 l 0.279,0 3.037,-6.092 c 0.27,-0.519 0.539,-0.924 0.787,-1.193 l -2.094,0 c 0,0.155 -0.053,0.342 -0.156,0.571 l -1.604,3.922 c -2.207,-3.595 -1.402,-4.492 -1.402,-4.492 l 0,0 0,0 z"
       id="path11631"
       inkscape:connector-curvature="0" /><path
       style="clip-rule:evenodd;fill:#000000;fill-rule:evenodd"
       d="m 154.543,90.592 c 0.02,-0.072 0.041,-0.125 0.041,-0.145 0,-0.229 -1.025,-0.613 -2.291,-0.613 -2.221,0 -3.559,1.443 -3.559,3.726 0,2.334 1.328,3.673 3.619,3.673 1.111,0 1.898,-0.331 2.045,-0.487 0.092,-0.094 0.104,-0.219 0.104,-0.395 l 0,-1.328 c -0.477,0.488 -1.234,0.789 -2.033,0.789 -1.256,0 -2.064,-0.82 -2.064,-2.273 0,-1.495 0.789,-2.345 2.074,-2.345 0.592,0 1.193,0.208 1.689,0.581 l 0.375,-1.183 0,0 0,0 z"
       id="path11633"
       inkscape:connector-curvature="0" /><path
       style="clip-rule:evenodd;fill:#000000;fill-rule:evenodd"
       d="m 159.221,89.834 c -2.352,0 -3.629,1.297 -3.629,3.695 0,2.398 1.277,3.704 3.629,3.704 2.355,0 3.631,-1.317 3.631,-3.704 0,-2.387 -1.276,-3.695 -3.631,-3.695 l 0,0 0,0 0,0 z m 0,1.36 c 1.277,0 1.971,0.81 1.971,2.335 0,1.525 -0.693,2.345 -1.971,2.345 -1.275,0 -1.979,-0.82 -1.979,-2.345 0,-1.525 0.703,-2.335 1.979,-2.335 l 0,0 0,0 z"
       id="path11635"
       inkscape:connector-curvature="0" /><path
       style="clip-rule:evenodd;fill:#000000;fill-rule:evenodd"
       d="m 69.771,95.646 c -0.143,0.114 -0.466,0.197 -0.939,0.197 -1.111,0 -1.88,-0.893 -1.88,-2.304 0,-1.484 0.824,-2.367 2.254,-2.367 0.616,0 1.331,0.219 1.793,0.561 l 0.33,-1.027 c 0.022,-0.052 0.033,-0.083 0.033,-0.115 0,-0.187 0,-0.228 -0.264,-0.342 -0.583,-0.26 -1.309,-0.416 -2.067,-0.416 -2.364,0 -3.86,1.443 -3.86,3.674 0,2.325 1.419,3.725 3.772,3.725 0.803,0 1.76,-0.197 2.397,-0.498 l 0.003,-2.201 c -0.018,-0.972 0.301,-1.393 0.301,-1.393 l -1.875,0 c -0.083,0 -0.156,0 -0.239,0 -0.207,0 -0.404,0 -0.612,-0.042 -0.145,0.467 -0.352,0.913 -0.622,1.38 0.664,-0.155 1.162,-0.218 1.494,-0.218 0.009,0 0.017,0 0.026,0 l 0.006,0.184 -0.002,1.124 -0.049,0.078 0,0 0,0 z"
       id="path11637"
       inkscape:connector-curvature="0" /><path
       style="clip-rule:evenodd;fill:#000000;fill-rule:evenodd"
       d="m 83.717,92.803 c 0.187,0.021 0.586,0.031 0.628,0.031 0.83,0 1.245,-0.291 1.245,-0.914 0,-0.529 -0.363,-0.872 -0.964,-0.872 -0.239,0 -0.701,0.052 -0.908,0.176 l 0,1.579 -0.001,0 0,0 0,0 z m 0,3.102 c 0.197,0.031 0.649,0.042 0.794,0.042 0.767,0 1.223,-0.395 1.223,-1.059 0,-0.664 -0.425,-1.059 -1.203,-1.059 -0.176,0 -0.627,0.011 -0.814,0.021 l 0,2.055 0,0 0,0 0,0 z M 82.161,91.01 c -0.314,0.022 -0.729,0.087 -1.243,0.208 0.27,-0.467 0.477,-0.914 0.623,-1.381 0.207,0.042 0.404,0.042 0.611,0.042 l 0.239,0 0.951,0 0.137,0 c 0.219,-0.004 1.156,-0.002 1.695,-0.002 1.183,0 1.96,0.768 1.96,1.805 0,0.695 -0.301,1.245 -0.85,1.567 0.705,0.333 1.079,0.935 1.079,1.671 0,1.35 -1.006,2.21 -2.956,2.21 -0.487,0 -1.291,-0.051 -1.852,-0.051 -0.114,0 -0.332,0.01 -0.653,0.03 0.197,-0.395 0.259,-0.758 0.259,-1.162 l 0,-4.937 0,0 0,0 z"
       id="path11639"
       inkscape:connector-curvature="0" /><path
       style="clip-rule:evenodd;fill:#000000;fill-rule:evenodd"
       d="m 108.449,89.947 0.475,0.002 3.475,4.795 0,-3.436 c 0,-0.591 -0.094,-1.048 -0.301,-1.359 l 2.178,0 c -0.229,0.353 -0.301,0.789 -0.301,1.359 l 0,4.794 c 0,0.354 0.031,0.695 0.082,1.007 l -1.523,0 -3.691,-5.096 0,3.747 c 0,0.55 0.061,0.985 0.289,1.349 l -2.178,0 c 0.229,-0.343 0.301,-0.778 0.301,-1.349 l 0,-4.453 c 0,-0.079 0,-0.155 -0.004,-0.229 -0.311,0.025 -0.719,0.089 -1.221,0.207 0.271,-0.468 0.479,-0.914 0.623,-1.381 0.207,0.042 0.404,0.042 0.611,0.042 l 0.238,0 0.947,0 0,0.001 0,0 z"
       id="path11641"
       inkscape:connector-curvature="0" /><path
       style="clip-rule:evenodd;fill:#000000;fill-rule:evenodd"
       d="m 94.916,89.949 2.361,0.001 c 0.342,0 0.477,0.041 0.498,0.311 l -0.314,1.08 C 97.182,91.216 96.86,91.216 96.487,91.216 l -1.257,0 0,1.526 1.578,0 c 0.239,0 0.458,0 0.674,-0.062 l -0.275,1.339 C 96.979,93.977 96.76,93.967 96.563,93.967 l -1.333,0 0,1.878 1.801,0 c 0.465,0 0.809,-0.042 1.016,-0.146 l -0.197,0.986 c -0.084,0.425 -0.135,0.445 -0.623,0.445 -0.382,0 -1.375,-0.052 -2.432,-0.052 -0.394,0 -0.882,0.011 -1.452,0.031 0.228,-0.456 0.28,-0.882 0.28,-1.349 l 0,-4.493 c 0,-0.061 -0.001,-0.119 -0.003,-0.178 -0.298,0.029 -0.674,0.092 -1.127,0.198 0.27,-0.467 0.477,-0.913 0.622,-1.38 0.208,0.041 0.404,0.041 0.612,0.041 l 0.239,0 0.95,0 0,0.001 0,0 z"
       id="path11643"
       inkscape:connector-curvature="0" /><path
       style="clip-rule:evenodd;fill:#000000;fill-rule:evenodd"
       d="m 89.102,89.951 c 0.218,0.333 0.3,0.779 0.3,1.36 l 0,4.452 c 0,0.581 -0.082,1.018 -0.3,1.35 l 2.261,0 c -0.218,-0.322 -0.301,-0.758 -0.301,-1.35 l 0,-4.452 c 0,-0.592 0.083,-1.038 0.301,-1.36 l -2.261,0 0,0 0,0 z"
       id="path11645"
       inkscape:connector-curvature="0" /><path
       style="clip-rule:evenodd;fill:#000000;fill-rule:evenodd"
       d="m 101.438,93.121 c 0.104,0.011 0.154,0.021 0.176,0.021 l 0.281,0 c 0.881,0 1.326,-0.395 1.326,-1.038 0,-0.633 -0.434,-0.997 -1.264,-0.997 -0.178,0 -0.354,0.021 -0.52,0.042 l 0,1.972 0.001,0 0,0 0,0 z m -1.54,-2.014 c -0.299,0.029 -0.676,0.092 -1.131,0.198 0.27,-0.467 0.477,-0.913 0.623,-1.38 0.207,0.042 0.404,0.042 0.611,0.042 l 0.238,0 1.293,0 c 0.211,-0.005 0.424,-0.011 0.641,-0.011 1.699,0 2.551,0.852 2.551,2.159 0,0.831 -0.363,1.495 -1.016,1.837 0,0 1.191,2.791 2.543,3.595 -0.717,0.337 -2.637,-0.503 -3.24,-1.655 l -1,-1.561 c -0.197,0.021 -0.139,0.025 -0.357,0.025 l -0.217,0 0,1.421 c 0,0.591 0.115,1.048 0.312,1.349 l -2.148,0 c 0.229,-0.342 0.301,-0.778 0.301,-1.349 l 0,-4.462 c 0,-0.072 0,-0.141 -0.004,-0.208 l 0,0 0,0 z"
       id="path11647"
       inkscape:connector-curvature="0" /><path
       style="clip-rule:evenodd;fill:#000000;fill-rule:evenodd"
       d="m 139.824,95.142 c 0.061,0.497 0.148,1.171 -0.051,1.974 l 1.887,0 c -0.104,-2.958 -0.912,-5.458 -2.209,-7.161 l -2.375,0 -0.238,0 c -0.207,0 -0.404,0 -0.611,-0.042 -0.145,0.467 -0.354,0.914 -0.621,1.38 0.662,-0.155 1.162,-0.217 1.492,-0.217 l 0.176,0 c -1.564,1.733 -2.373,3.715 -2.373,5.874 l 0,0.166 1.793,0 c -0.16,-0.864 -0.059,-1.518 0.061,-2.041 l 1.568,0.795 1.501,-0.728 0,0 0,0 0,0 z m -1.178,-4.041 c -0.904,1.04 -1.396,2.383 -1.537,2.76 l 1.227,0.631 1.291,-0.645 c 0,0.001 -0.266,-1.677 -0.981,-2.746 l 0,0 0,0 z"
       id="path11649"
       inkscape:connector-curvature="0" /><polygon
       style="clip-rule:evenodd;fill:#ffffff;fill-rule:evenodd"
       points="45.757,87.132 45.757,86.466 45.757,86.466 45.757,86.466 182.307,86.466 182.307,87.132 "
       id="polygon11651" /><path
       style="clip-rule:evenodd;fill:#ffffff;fill-rule:evenodd;stroke:#000000;stroke-width:0.40000001;stroke-miterlimit:3.49367142;stroke-dasharray:none"
       d="m 50.927,90.98 -0.22,-0.005 0,8.703 0.22,-0.003 c 0.192,-0.356 0.545,-0.39 0.935,-0.474 -0.028,-1.031 0.749,-0.932 0.749,-0.932 -0.251,-1.281 0.612,-2.444 0.612,-2.444 -0.557,-1.338 0.362,-1.589 0.362,-1.589 0.083,-0.418 0.171,-0.553 -0.108,-0.664 0.195,-0.474 -0.195,-0.753 -0.417,-0.697 0.194,-0.696 -0.981,-0.92 -1.065,-0.613 -1.122,-0.307 -1.068,-1.282 -1.068,-1.282 l 0,0 0,0 z"
       id="path11653"
       inkscape:connector-curvature="0" /><path
       style="clip-rule:evenodd;fill:#ffffff;fill-rule:evenodd;stroke:#000000;stroke-width:0.40000001;stroke-miterlimit:3.49367142;stroke-dasharray:none"
       d="m 50.927,98.839 -0.22,-0.004 0,3.81 0.22,-10e-4 c 1.999,0.599 2.488,-0.906 2.488,-0.906 1.142,-0.027 0.987,-0.998 0.987,-0.998 0.646,-0.357 0.29,-1.182 0.29,-1.182 0.646,-0.747 -0.336,-1.439 -0.336,-1.439 0.122,-0.402 0.293,-0.288 0.293,-0.288 -0.087,-0.158 -0.027,-0.468 -0.027,-0.468 l -0.655,0.443 c -0.39,0.156 -0.213,-0.063 -0.213,-0.063 -0.167,-0.808 0.233,-1.149 0.503,-1.411 0.78,0.502 1.164,-0.083 1.164,-0.083 1.386,0.528 1.566,-1.086 1.566,-1.086 1.526,0.157 1.31,-1.376 1.31,-1.376 1.026,-0.226 1.126,-1.172 0.39,-1.293 -0.056,-1.121 -1.372,-0.48 -1.427,-0.007 -1.242,-0.932 -1.435,0.635 -1.435,0.635 -0.902,-0.334 -1.882,0.796 -1.739,1.339 -0.886,0.536 -0.301,1.427 -0.301,1.427 -0.936,1.148 -0.486,2.143 -0.486,2.143 -1.358,-0.053 -1.415,0.867 -1.415,0.867 -0.542,-0.494 -0.957,-0.059 -0.957,-0.059 l 0,0 0,0 z"
       id="path11655"
       inkscape:connector-curvature="0" /><path
       style="clip-rule:evenodd;fill:#ffffff;fill-rule:evenodd;stroke:#000000;stroke-width:0.40000001;stroke-miterlimit:3.49367142;stroke-dasharray:none"
       d="m 38.306,67.97 c -1.182,-0.635 -0.674,-1.462 -0.674,-1.462 -1.343,-0.25 -0.809,-1.668 -0.809,-1.668 -1.103,-0.956 0,-1.864 1.017,-1.067 1.054,-0.932 1.703,0.895 1.703,0.895 1.397,-0.625 1.41,1.435 1.41,1.435 l 0.71,-0.123 c 1.476,0.333 0.441,1.079 0.441,1.079 0.422,0.508 -0.159,0.911 -0.159,0.911 l 0.005,0.256 -3.551,0 -0.093,-0.256 0,0 0,0 z"
       id="path11657"
       inkscape:connector-curvature="0" /><path
       style="clip-rule:evenodd;fill:#ffffff;fill-rule:evenodd;stroke:#000000;stroke-width:0.40000001;stroke-miterlimit:3.49367142;stroke-dasharray:none"
       d="m 43.39,67.983 -0.167,-0.497 c -0.361,-1.731 1.598,-1.533 1.598,-1.533 l 0.857,0.172 c 1.213,-1.153 2.108,0.245 2.108,0.245 1.311,-0.785 1.936,0.975 2.045,1.613 -0.012,0 -0.028,0.242 -0.028,0.242 l -6.419,0 0.006,-0.242 0,0 0,0 z"
       id="path11659"
       inkscape:connector-curvature="0" /><polygon
       style="clip-rule:evenodd;fill:#ffffff;fill-rule:evenodd;stroke:#000000;stroke-width:0.40000001;stroke-miterlimit:3.49367142;stroke-dasharray:none"
       points="42.554,67.154 42.916,67.182 42.916,67.182 42.916,67.182 42.806,68.226 42.416,68.226 "
       id="polygon11661" /><path
       style="clip-rule:evenodd;fill:#ffffff;fill-rule:evenodd;stroke:#000000;stroke-width:0.40000001;stroke-miterlimit:3.49367142;stroke-dasharray:none"
       d="m 42.469,67.164 0.331,0.058 c 0.577,0.119 1.134,-1.021 1.134,-1.021 l -0.322,-0.081 0.122,-0.488 c 0.245,-1.075 -0.46,-1.119 -0.46,-1.119 -0.727,-0.225 -0.952,0.767 -0.952,0.767 L 42.2,65.768 41.858,65.683 c -0.194,1.25 0.611,1.481 0.611,1.481 l 0,0 0,0 z"
       id="path11663"
       inkscape:connector-curvature="0" /><path
       style="clip-rule:evenodd;fill:#ffffff;fill-rule:evenodd;stroke:#000000;stroke-width:0.40000001;stroke-miterlimit:3.49367142;stroke-dasharray:none"
       d="m 52.507,85.382 c 0.013,0.089 0.012,0.144 0.012,0.144 1.005,0 0.837,0.725 0.837,0.725 1.058,-0.056 0.779,1.219 0.779,1.219 0.248,-0.429 0,-1.988 0,-1.988 -0.222,0.042 -0.403,-0.01 -0.547,-0.1 l 1.058,0 c -0.095,1.002 -0.009,1.977 -0.009,1.977 0.196,1.84 -0.725,1.672 -0.725,1.672 0.501,0.558 -0.278,1.115 -0.278,1.115 -0.171,0.22 -0.668,0.668 -0.668,0.668 -0.183,0.552 0.61,0.658 0.712,0.688 0.232,-0.67 0.204,-1.255 1.182,-2.025 -0.501,-0.725 0.338,-1.234 0.338,-1.234 0,0 -0.743,-1.039 -0.017,-1.812 0.352,-0.293 -0.016,-0.625 -0.016,-0.625 0,0 -0.018,-0.18 0.021,-0.422 l 4.526,-0.002 c -0.212,0.534 -0.709,0.866 -0.709,0.866 0.813,0.804 -0.663,1.612 -0.663,1.612 0.39,0.558 -0.056,1.198 -1.197,1.254 -0.478,1.018 -1.875,0.632 -1.875,0.632 -1.593,1.288 -0.758,2.092 -0.758,2.092 l 0.688,-0.427 c 0.11,0.166 0.192,0.303 0.192,0.303 -0.936,0.717 -0.832,1.301 -0.832,1.301 -0.037,-0.018 0.261,0.124 0.253,0.27 -0.357,0.138 -0.496,0.469 -0.496,0.469 -0.56,-2.174 -1.155,-1.525 -1.657,-2.298 -0.534,0 -1.376,-0.323 -1.438,-1.047 -0.115,-0.22 -0.297,-0.012 -0.297,-0.012 l -0.219,-0.004 0,-5.01 1.803,0 0,-10e-4 0,0 z"
       id="path11665"
       inkscape:connector-curvature="0" /><path
       style="clip-rule:evenodd;fill:#ffffff;fill-rule:evenodd;stroke:#000000;stroke-width:0.40000001;stroke-miterlimit:3.49367142;stroke-dasharray:none"
       d="m 50.707,85.382 0,-1.051 0.221,0 c 1.28,0.01 1.531,0.742 1.58,1.055 l -1.801,-0.004 0,0 0,0 0,0 z m 2.881,0 C 53.27,85.183 53.131,84.795 53.131,84.795 52.06,84.606 51.808,83.363 51.808,83.363 51.304,83.564 50.925,83.118 50.925,83.118 l -0.218,-0.003 0,-13.775 0.219,-0.007 c 1.938,0.078 1.841,1.817 1.841,1.817 0.858,0.392 0.907,0.882 0.907,0.882 -0.31,0.177 -0.429,0.389 -0.485,0.946 -0.334,0.279 -0.39,0.641 -0.39,0.641 -1.605,0.5 -0.473,2.021 -0.472,2.022 l 0,0 c -0.02,-0.093 -0.035,-0.181 -0.047,-0.264 -0.249,-1.678 1.046,-1.353 1.046,-1.353 -0.049,-0.491 0.412,-0.811 0.412,-0.811 -0.037,-1.214 0.907,-1.352 0.907,-1.352 1.058,0.195 0.864,0.835 0.652,1.161 1.158,0.148 0.343,1.545 0.343,1.545 0.551,0.907 -0.285,1.643 -0.285,1.643 0.515,1.239 -0.441,1.693 -0.441,1.693 0.294,1.606 -1.372,1.937 -1.372,1.937 0.024,1.766 0.441,1.791 0.441,1.791 0.099,-0.484 0.544,-0.622 0.655,-0.991 -0.223,-0.306 0.01,-0.83 0.01,-0.83 0.891,-0.417 0.752,-1.728 0.752,-1.728 0.779,-0.39 0.609,-1.682 0.47,-1.85 0.307,-0.78 0.797,-0.646 0.903,-0.188 1.511,-1.005 1.153,0.76 0.955,1.002 0.662,1.226 -0.223,1.588 -0.223,1.588 0.259,0.975 -0.721,1.306 -0.721,1.306 0,0 0.164,0.672 -0.728,0.756 -0.167,0.334 -0.278,0.725 -1.169,0.307 -0.573,0.468 -0.529,1.337 -0.529,1.337 -0.056,1.338 0.109,1.638 0.109,1.638 l 0.699,-0.809 c 0.362,0.091 0.38,0.319 0.38,0.319 -0.331,0.343 -0.686,0.748 -0.686,0.748 -0.11,0.347 -0.176,0.747 -0.214,1.143 l -1.058,0.003 0,0 0,0 0,0 z m 1.6,0 c 0.072,-0.439 0.335,-1.085 1.255,-1.205 -0.049,-0.907 0.931,-1.042 0.931,-1.042 0.392,-1.141 1.163,-0.681 1.246,-0.319 1.169,-0.362 1.253,0.864 0.863,1.198 0.388,0.525 0.377,0.994 0.23,1.366 l -4.525,0.002 0,0 0,0 0,0 z m -3.25,-7.387 -0.704,0.826 c 1.542,0.771 1.652,2.755 1.652,2.755 0.71,0.343 0.502,0.204 0.502,0.204 -0.429,-0.882 -0.27,-2.035 -0.27,-2.035 -1.059,-0.414 -1.215,-1.208 -1.18,-1.75 l 0,0 0,0 z"
       id="path11667"
       inkscape:connector-curvature="0" /><path
       style="fill:#ffffff;stroke:#000000;stroke-width:0.40000001;stroke-miterlimit:3.49367142;stroke-dasharray:none"
       d="m 52.328,75.643 0,0 c -0.02,-0.093 -0.035,-0.181 -0.047,-0.264 -0.249,-1.678 1.046,-1.353 1.046,-1.353 -0.049,-0.491 0.412,-0.811 0.412,-0.811 -0.037,-1.214 0.907,-1.352 0.907,-1.352 1.058,0.195 0.864,0.835 0.652,1.161 1.158,0.148 0.343,1.545 0.343,1.545 0.551,0.907 -0.285,1.643 -0.285,1.643 0.515,1.239 -0.441,1.693 -0.441,1.693 0.294,1.606 -1.372,1.937 -1.372,1.937 0.024,1.766 0.441,1.791 0.441,1.791 0.099,-0.484 0.544,-0.622 0.655,-0.991 -0.223,-0.306 0.01,-0.83 0.01,-0.83 0.891,-0.417 0.752,-1.728 0.752,-1.728 0.779,-0.39 0.609,-1.682 0.47,-1.85 0.307,-0.78 0.797,-0.646 0.903,-0.188 1.511,-1.005 1.153,0.76 0.955,1.002 0.662,1.226 -0.223,1.588 -0.223,1.588 0.259,0.975 -0.721,1.306 -0.721,1.306 0,0 0.164,0.672 -0.728,0.756 -0.167,0.334 -0.278,0.725 -1.169,0.307 -0.573,0.468 -0.529,1.337 -0.529,1.337 -0.056,1.338 0.109,1.638 0.109,1.638 l 0.699,-0.809 c 0.362,0.091 0.38,0.319 0.38,0.319 -0.331,0.343 -0.686,0.748 -0.686,0.748 -0.39,1.227 -0.223,3.121 -0.223,3.121 0.196,1.84 -0.725,1.672 -0.725,1.672 0.501,0.558 -0.278,1.115 -0.278,1.115 -0.171,0.22 -0.668,0.668 -0.668,0.668 -0.183,0.552 0.61,0.658 0.712,0.688 0.232,-0.67 0.204,-1.255 1.182,-2.025 -0.501,-0.725 0.338,-1.234 0.338,-1.234 0,0 -0.743,-1.039 -0.017,-1.812 0.352,-0.293 -0.016,-0.625 -0.016,-0.625 0,0 -0.145,-1.445 1.276,-1.629 -0.049,-0.907 0.931,-1.042 0.931,-1.042 0.392,-1.141 1.163,-0.681 1.246,-0.319 1.169,-0.362 1.253,0.864 0.863,1.198 0.947,1.282 -0.479,2.234 -0.479,2.234 0.813,0.804 -0.663,1.612 -0.663,1.612 0.39,0.558 -0.056,1.198 -1.197,1.254 -0.478,1.018 -1.875,0.632 -1.875,0.632 -1.593,1.288 -0.758,2.092 -0.758,2.092 l 0.688,-0.427 c 0.11,0.166 0.192,0.303 0.192,0.303 -0.936,0.717 -0.832,1.301 -0.832,1.301 -0.037,-0.018 0.261,0.124 0.253,0.27 -0.357,0.138 -0.496,0.469 -0.496,0.469 -0.56,-2.174 -1.155,-1.525 -1.657,-2.298 -0.534,0 -1.376,-0.323 -1.438,-1.047 -0.115,-0.22 -0.297,-0.012 -0.297,-0.012 l -0.219,-0.004 0,-6.062 0.221,0 c 1.629,0.013 1.591,1.196 1.591,1.196 1.005,0 0.837,0.725 0.837,0.725 1.058,-0.056 0.779,1.219 0.779,1.219 0.248,-0.429 0,-1.988 0,-1.988 -0.71,0.134 -1.004,-0.687 -1.004,-0.687 -1.071,-0.189 -1.323,-1.432 -1.323,-1.432 -0.504,0.201 -0.883,-0.245 -0.883,-0.245 l -0.218,-0.003 0,-13.776 0.219,-0.007 c 1.938,0.078 1.841,1.817 1.841,1.817 0.858,0.392 0.907,0.882 0.907,0.882 -0.31,0.177 -0.429,0.389 -0.485,0.946 -0.334,0.279 -0.39,0.641 -0.39,0.641 -1.602,0.502 -0.469,2.022 -0.468,2.024 l 0,0 0,0 z m -0.39,2.352 -0.704,0.826 c 1.542,0.771 1.652,2.755 1.652,2.755 0.71,0.343 0.502,0.204 0.502,0.204 -0.429,-0.882 -0.27,-2.035 -0.27,-2.035 -1.059,-0.414 -1.215,-1.208 -1.18,-1.75 l 0,0 0,0 z"
       id="path11669"
       inkscape:connector-curvature="0" /><path
       style="clip-rule:evenodd;fill:#ffffff;fill-rule:evenodd;stroke:#000000;stroke-width:0.40000001;stroke-miterlimit:3.49367142;stroke-dasharray:none"
       d="m 55.187,83.316 0.254,0.171 c 0.435,0.312 1.319,-0.429 1.319,-0.429 l -0.238,-0.186 0.281,-0.361 c 0.602,-0.802 0.032,-1.1 0.032,-1.1 -0.52,-0.457 -1.074,0.284 -1.074,0.284 l -0.281,0.361 -0.253,-0.198 c -0.624,0.968 -0.04,1.458 -0.04,1.458 l 0,0 0,0 z"
       id="path11671"
       inkscape:connector-curvature="0" /><path
       style="clip-rule:evenodd;fill:#ffffff;fill-rule:evenodd;stroke:#000000;stroke-width:0.40000001;stroke-miterlimit:3.49367142;stroke-dasharray:none"
       d="m 55.246,91.48 0.167,0.256 c 0.278,0.457 1.381,0.121 1.381,0.121 l -0.146,-0.264 0.399,-0.221 c 0.867,-0.503 0.458,-1 0.458,-1 -0.301,-0.624 -1.1,-0.159 -1.1,-0.159 L 56.006,90.435 55.85,90.154 C 54.901,90.8 55.246,91.48 55.246,91.48 l 0,0 0,0 z"
       id="path11673"
       inkscape:connector-curvature="0" /><path
       style="clip-rule:evenodd;fill:#ffffff;fill-rule:evenodd;stroke:#000000;stroke-width:0.40000001;stroke-miterlimit:3.49367142;stroke-dasharray:none"
       d="m 54.577,97.628 0.069,0.298 c 0.105,0.525 1.257,0.587 1.257,0.587 l -0.047,-0.299 0.451,-0.07 c 0.987,-0.177 0.772,-0.783 0.772,-0.783 C 57.01,96.672 56.1,96.836 56.1,96.836 l -0.451,0.072 -0.05,-0.317 c -1.114,0.28 -1.022,1.037 -1.022,1.037 l 0,0 0,0 z"
       id="path11675"
       inkscape:connector-curvature="0" /><path
       style="clip-rule:evenodd;fill:#ffffff;fill-rule:evenodd;stroke:#000000;stroke-width:0.40000001;stroke-miterlimit:3.49367142;stroke-dasharray:none"
       d="m 17.384,90.98 0.263,-0.005 0,8.703 -0.263,-0.003 C 17.192,99.319 16.839,99.285 16.449,99.201 16.477,98.17 15.7,98.269 15.7,98.269 c 0.251,-1.281 -0.612,-2.444 -0.612,-2.444 0.557,-1.338 -0.362,-1.589 -0.362,-1.589 -0.084,-0.418 -0.17,-0.553 0.108,-0.664 -0.195,-0.474 0.195,-0.753 0.417,-0.697 -0.195,-0.696 0.98,-0.92 1.064,-0.613 1.123,-0.307 1.069,-1.282 1.069,-1.282 l 0,0 0,0 z"
       id="path11677"
       inkscape:connector-curvature="0" /><path
       style="clip-rule:evenodd;fill:#ffffff;fill-rule:evenodd;stroke:#000000;stroke-width:0.40000001;stroke-miterlimit:3.49367142;stroke-dasharray:none"
       d="m 17.384,98.839 0.263,-0.004 0,3.81 -0.263,-10e-4 c -1.999,0.599 -2.487,-0.906 -2.487,-0.906 -1.142,-0.027 -0.986,-0.998 -0.986,-0.998 -0.646,-0.357 -0.29,-1.182 -0.29,-1.182 -0.646,-0.747 0.335,-1.439 0.335,-1.439 -0.123,-0.402 -0.292,-0.288 -0.292,-0.288 0.087,-0.158 0.027,-0.468 0.027,-0.468 l 0.655,0.443 c 0.39,0.156 0.212,-0.063 0.212,-0.063 0.167,-0.808 -0.232,-1.149 -0.503,-1.411 -0.781,0.502 -1.164,-0.083 -1.164,-0.083 -1.386,0.528 -1.566,-1.086 -1.566,-1.086 -1.526,0.157 -1.309,-1.376 -1.309,-1.376 -1.027,-0.226 -1.126,-1.172 -0.39,-1.293 0.056,-1.121 1.371,-0.48 1.427,-0.007 1.242,-0.932 1.434,0.635 1.434,0.635 0.902,-0.334 1.883,0.796 1.74,1.339 0.885,0.536 0.3,1.427 0.3,1.427 0.936,1.148 0.486,2.143 0.486,2.143 1.359,-0.053 1.415,0.867 1.415,0.867 0.541,-0.494 0.956,-0.059 0.956,-0.059 l 0,0 0,0 z"
       id="path11679"
       inkscape:connector-curvature="0" /><path
       style="clip-rule:evenodd;fill:#ffffff;fill-rule:evenodd;stroke:#000000;stroke-width:0.40000001;stroke-miterlimit:3.49367142;stroke-dasharray:none"
       d="m 30.005,67.97 c 1.182,-0.635 0.675,-1.462 0.675,-1.462 1.343,-0.25 0.808,-1.668 0.808,-1.668 1.103,-0.956 0,-1.864 -1.017,-1.067 -1.054,-0.932 -1.703,0.895 -1.703,0.895 -1.397,-0.625 -1.409,1.435 -1.409,1.435 L 26.648,65.98 c -1.476,0.333 -0.441,1.079 -0.441,1.079 -0.421,0.508 0.16,0.911 0.16,0.911 l -0.005,0.256 3.55,0 0.093,-0.256 0,0 0,0 z"
       id="path11681"
       inkscape:connector-curvature="0" /><path
       style="clip-rule:evenodd;fill:#ffffff;fill-rule:evenodd;stroke:#000000;stroke-width:0.40000001;stroke-miterlimit:3.49367142;stroke-dasharray:none"
       d="m 24.922,67.983 0.167,-0.497 c 0.361,-1.731 -1.597,-1.533 -1.597,-1.533 l -0.858,0.172 c -1.212,-1.153 -2.107,0.245 -2.107,0.245 -1.311,-0.785 -1.936,0.975 -2.046,1.613 0.012,0 0.029,0.242 0.029,0.242 l 6.419,0 -0.007,-0.242 0,0 0,0 z"
       id="path11683"
       inkscape:connector-curvature="0" /><polygon
       style="clip-rule:evenodd;fill:#ffffff;fill-rule:evenodd;stroke:#000000;stroke-width:0.40000001;stroke-miterlimit:3.49367142;stroke-dasharray:none"
       points="25.757,67.154 25.396,67.182 25.396,67.182 25.396,67.182 25.506,68.226 25.896,68.226 "
       id="polygon11685" /><polygon
       style="fill:#ffffff;stroke:#000000;stroke-width:0.40000001;stroke-miterlimit:3.49367142;stroke-dasharray:none"
       points="25.757,67.154 25.396,67.182 25.396,67.182 25.396,67.182 25.506,68.226 25.896,68.226 "
       id="polygon11687" /><path
       style="clip-rule:evenodd;fill:#ffffff;fill-rule:evenodd;stroke:#000000;stroke-width:0.40000001;stroke-miterlimit:3.49367142;stroke-dasharray:none"
       d="m 25.842,67.164 -0.332,0.058 c -0.576,0.119 -1.134,-1.021 -1.134,-1.021 l 0.322,-0.081 -0.122,-0.488 c -0.246,-1.075 0.46,-1.119 0.46,-1.119 0.727,-0.225 0.952,0.767 0.952,0.767 l 0.122,0.488 0.343,-0.085 c 0.195,1.25 -0.611,1.481 -0.611,1.481 l 0,0 0,0 z"
       id="path11689"
       inkscape:connector-curvature="0" /><path
       style="clip-rule:evenodd;fill:#ffffff;fill-rule:evenodd;stroke:#000000;stroke-width:0.40000001;stroke-miterlimit:3.49367142;stroke-dasharray:none"
       d="m 8.597,85.382 c 0.212,0.534 0.71,0.866 0.71,0.866 -0.813,0.804 0.663,1.612 0.663,1.612 -0.39,0.558 0.055,1.198 1.197,1.254 0.479,1.018 1.876,0.632 1.876,0.632 1.592,1.288 0.757,2.092 0.757,2.092 l -0.688,-0.427 c -0.11,0.166 -0.192,0.303 -0.192,0.303 0.936,0.717 0.832,1.301 0.832,1.301 0.036,-0.018 -0.261,0.124 -0.254,0.27 0.358,0.138 0.495,0.469 0.495,0.469 0.56,-2.174 1.155,-1.525 1.658,-2.298 0.534,0 1.375,-0.323 1.437,-1.047 0.115,-0.22 0.298,-0.012 0.298,-0.012 l 0.262,-0.004 0,-5.01 -1.843,0 c -0.014,0.089 -0.012,0.144 -0.012,0.144 -1.005,0 -0.838,0.725 -0.838,0.725 -1.059,-0.056 -0.78,1.219 -0.78,1.219 -0.248,-0.429 0,-1.988 0,-1.988 0.222,0.042 0.404,-0.01 0.548,-0.1 l -1.059,0 c 0.096,1.002 0.009,1.977 0.009,1.977 -0.196,1.84 0.724,1.672 0.724,1.672 -0.502,0.558 0.278,1.115 0.278,1.115 0.172,0.22 0.668,0.668 0.668,0.668 0.184,0.552 -0.61,0.658 -0.711,0.688 -0.233,-0.67 -0.205,-1.255 -1.183,-2.025 0.501,-0.725 -0.338,-1.234 -0.338,-1.234 0,0 0.743,-1.039 0.017,-1.812 -0.353,-0.293 0.016,-0.625 0.016,-0.625 0,0 0.018,-0.18 -0.021,-0.422 l -4.526,-0.003 0,0 0,0 z"
       id="path11691"
       inkscape:connector-curvature="0" /><path
       style="clip-rule:evenodd;fill:#ffffff;fill-rule:evenodd;stroke:#000000;stroke-width:0.40000001;stroke-miterlimit:3.49367142;stroke-dasharray:none"
       d="M 13.124,85.382 C 13.052,84.943 12.789,84.297 11.869,84.177 11.918,83.27 10.938,83.135 10.938,83.135 10.545,81.994 9.775,82.454 9.692,82.816 8.522,82.454 8.439,83.68 8.829,84.014 8.441,84.539 8.451,85.008 8.598,85.38 l 4.526,0.002 0,0 0,0 0,0 z m 1.599,0 c 0.318,-0.199 0.457,-0.587 0.457,-0.587 1.071,-0.189 1.323,-1.432 1.323,-1.432 0.504,0.201 0.883,-0.245 0.883,-0.245 l 0.261,-0.003 0,-13.775 -0.262,-0.007 c -1.938,0.078 -1.842,1.817 -1.842,1.817 -0.857,0.392 -0.906,0.882 -0.906,0.882 0.309,0.177 0.429,0.389 0.484,0.946 0.334,0.279 0.39,0.641 0.39,0.641 1.606,0.5 0.474,2.021 0.473,2.022 l 0,0 c 0.019,-0.093 0.034,-0.181 0.047,-0.264 0.248,-1.678 -1.046,-1.353 -1.046,-1.353 0.048,-0.491 -0.412,-0.811 -0.412,-0.811 0.036,-1.214 -0.907,-1.352 -0.907,-1.352 -1.058,0.195 -0.863,0.835 -0.651,1.161 -1.159,0.148 -0.343,1.545 -0.343,1.545 -0.551,0.907 0.286,1.643 0.286,1.643 -0.515,1.239 0.441,1.693 0.441,1.693 -0.294,1.606 1.372,1.937 1.372,1.937 -0.024,1.766 -0.441,1.791 -0.441,1.791 -0.1,-0.484 -0.544,-0.622 -0.655,-0.991 0.222,-0.306 -0.01,-0.83 -0.01,-0.83 -0.892,-0.417 -0.752,-1.728 -0.752,-1.728 -0.78,-0.39 -0.61,-1.682 -0.47,-1.85 -0.307,-0.78 -0.797,-0.646 -0.904,-0.188 -1.512,-1.005 -1.153,0.76 -0.954,1.002 -0.662,1.226 0.222,1.588 0.222,1.588 -0.258,0.975 0.721,1.306 0.721,1.306 0,0 -0.164,0.672 0.727,0.756 0.167,0.334 0.279,0.725 1.169,0.307 0.574,0.468 0.529,1.337 0.529,1.337 0.056,1.338 -0.108,1.638 -0.108,1.638 l -0.698,-0.809 c -0.363,0.091 -0.38,0.319 -0.38,0.319 0.33,0.343 0.686,0.748 0.686,0.748 0.11,0.347 0.176,0.747 0.214,1.143 l 1.056,0.003 0,0 0,0 0,0 z m 2.924,0 0,-1.051 -0.264,0 c -1.279,0.01 -1.53,0.742 -1.579,1.055 l 1.843,-0.004 0,0 0,0 0,0 z m -1.274,-7.387 0.704,0.826 c -1.542,0.771 -1.652,2.755 -1.652,2.755 -0.711,0.343 -0.502,0.204 -0.502,0.204 0.429,-0.882 0.27,-2.035 0.27,-2.035 1.059,-0.414 1.216,-1.208 1.18,-1.75 l 0,0 0,0 z"
       id="path11693"
       inkscape:connector-curvature="0" /><path
       style="fill:#ffffff;stroke:#000000;stroke-width:0.40000001;stroke-miterlimit:3.49367142;stroke-dasharray:none"
       d="m 15.984,75.643 0,0 c 0.019,-0.093 0.034,-0.181 0.047,-0.264 0.248,-1.678 -1.046,-1.353 -1.046,-1.353 0.048,-0.491 -0.412,-0.811 -0.412,-0.811 0.036,-1.214 -0.907,-1.352 -0.907,-1.352 -1.058,0.195 -0.863,0.835 -0.651,1.161 -1.159,0.148 -0.343,1.545 -0.343,1.545 -0.551,0.907 0.286,1.643 0.286,1.643 -0.515,1.239 0.441,1.693 0.441,1.693 -0.294,1.606 1.372,1.937 1.372,1.937 -0.024,1.766 -0.441,1.791 -0.441,1.791 -0.1,-0.484 -0.544,-0.622 -0.655,-0.991 0.222,-0.306 -0.01,-0.83 -0.01,-0.83 -0.892,-0.417 -0.752,-1.728 -0.752,-1.728 -0.78,-0.39 -0.61,-1.682 -0.47,-1.85 -0.307,-0.78 -0.797,-0.646 -0.904,-0.188 -1.512,-1.005 -1.153,0.76 -0.954,1.002 -0.662,1.226 0.222,1.588 0.222,1.588 -0.258,0.975 0.721,1.306 0.721,1.306 0,0 -0.164,0.672 0.727,0.756 0.167,0.334 0.279,0.725 1.169,0.307 0.574,0.468 0.529,1.337 0.529,1.337 0.056,1.338 -0.108,1.638 -0.108,1.638 l -0.698,-0.809 c -0.363,0.091 -0.38,0.319 -0.38,0.319 0.33,0.343 0.686,0.748 0.686,0.748 0.391,1.227 0.223,3.121 0.223,3.121 -0.196,1.84 0.724,1.672 0.724,1.672 -0.502,0.558 0.278,1.115 0.278,1.115 0.172,0.22 0.668,0.668 0.668,0.668 0.184,0.552 -0.61,0.658 -0.711,0.688 -0.233,-0.67 -0.205,-1.255 -1.183,-2.025 0.501,-0.725 -0.338,-1.234 -0.338,-1.234 0,0 0.743,-1.039 0.017,-1.812 -0.353,-0.293 0.016,-0.625 0.016,-0.625 0,0 0.146,-1.445 -1.276,-1.629 C 11.92,83.27 10.94,83.135 10.94,83.135 10.547,81.994 9.777,82.454 9.694,82.816 8.524,82.454 8.441,83.68 8.831,84.014 c -0.947,1.282 0.479,2.234 0.479,2.234 -0.816,0.804 0.66,1.612 0.66,1.612 -0.39,0.558 0.055,1.198 1.197,1.254 0.479,1.018 1.876,0.632 1.876,0.632 1.592,1.288 0.757,2.092 0.757,2.092 l -0.688,-0.427 c -0.11,0.166 -0.192,0.303 -0.192,0.303 0.936,0.717 0.832,1.301 0.832,1.301 0.036,-0.018 -0.261,0.124 -0.254,0.27 0.358,0.138 0.495,0.469 0.495,0.469 0.56,-2.174 1.155,-1.525 1.658,-2.298 0.534,0 1.375,-0.323 1.437,-1.047 0.115,-0.22 0.298,-0.012 0.298,-0.012 l 0.262,-0.004 0,-6.062 -0.264,0 c -1.629,0.013 -1.59,1.196 -1.59,1.196 -1.005,0 -0.838,0.725 -0.838,0.725 -1.059,-0.056 -0.78,1.219 -0.78,1.219 -0.248,-0.429 0,-1.988 0,-1.988 0.711,0.134 1.005,-0.687 1.005,-0.687 1.071,-0.189 1.323,-1.432 1.323,-1.432 0.504,0.201 0.883,-0.245 0.883,-0.245 l 0.261,-0.003 0,-13.776 -0.262,-0.007 c -1.938,0.078 -1.842,1.817 -1.842,1.817 -0.857,0.392 -0.906,0.882 -0.906,0.882 0.309,0.177 0.429,0.389 0.484,0.946 0.334,0.279 0.39,0.641 0.39,0.641 1.606,0.502 0.473,2.022 0.472,2.024 l 0,0 0,0 z m 0.389,2.352 0.704,0.826 c -1.542,0.771 -1.652,2.755 -1.652,2.755 -0.711,0.343 -0.502,0.204 -0.502,0.204 0.429,-0.882 0.27,-2.035 0.27,-2.035 1.059,-0.414 1.216,-1.208 1.18,-1.75 l 0,0 0,0 z"
       id="path11695"
       inkscape:connector-curvature="0" /><path
       style="clip-rule:evenodd;fill:#ffffff;fill-rule:evenodd;stroke:#000000;stroke-width:0.40000001;stroke-miterlimit:3.49367142;stroke-dasharray:none"
       d="m 13.125,83.316 -0.254,0.171 c -0.435,0.312 -1.319,-0.429 -1.319,-0.429 l 0.238,-0.186 -0.281,-0.361 c -0.602,-0.802 -0.032,-1.1 -0.032,-1.1 0.521,-0.457 1.074,0.284 1.074,0.284 l 0.281,0.361 0.253,-0.198 c 0.623,0.968 0.04,1.458 0.04,1.458 l 0,0 0,0 z"
       id="path11697"
       inkscape:connector-curvature="0" /><path
       style="clip-rule:evenodd;fill:#ffffff;fill-rule:evenodd;stroke:#000000;stroke-width:0.40000001;stroke-miterlimit:3.49367142;stroke-dasharray:none"
       d="m 13.065,91.48 -0.167,0.256 c -0.278,0.457 -1.382,0.121 -1.382,0.121 l 0.146,-0.264 -0.399,-0.221 c -0.867,-0.503 -0.458,-1 -0.458,-1 0.301,-0.624 1.099,-0.159 1.099,-0.159 l 0.399,0.222 0.156,-0.281 c 0.952,0.646 0.606,1.326 0.606,1.326 l 0,0 0,0 z"
       id="path11699"
       inkscape:connector-curvature="0" /><path
       style="clip-rule:evenodd;fill:#ffffff;fill-rule:evenodd;stroke:#000000;stroke-width:0.40000001;stroke-miterlimit:3.49367142;stroke-dasharray:none"
       d="m 13.734,97.628 -0.07,0.298 c -0.104,0.525 -1.256,0.587 -1.256,0.587 l 0.047,-0.299 -0.452,-0.07 C 11.016,97.967 11.231,97.361 11.231,97.361 11.3,96.672 12.21,96.836 12.21,96.836 l 0.452,0.072 0.05,-0.317 c 1.115,0.28 1.022,1.037 1.022,1.037 l 0,0 0,0 z"
       id="path11701"
       inkscape:connector-curvature="0" /><path
       style="clip-rule:evenodd;fill:#ffffff;fill-rule:evenodd;stroke:#000000;stroke-width:0.40000001;stroke-miterlimit:3.49367142;stroke-dasharray:none"
       d="m 21.89,107.849 c 0,0 8.792,-0.092 11.89,3.146 l 0.378,0.432 0,-24.583 16.549,0 0,-18.63 -33.06,0 0,35.034 c 0,0 0.462,4.055 4.243,4.601 l 0,0 0,0 z"
       id="path11703"
       inkscape:connector-curvature="0" /><path
       style="clip-rule:evenodd;fill:#000000;fill-rule:evenodd;stroke:#000000;stroke-width:0.40000001;stroke-miterlimit:3.49367142;stroke-dasharray:none"
       d="m 28.321,95.904 c -0.256,1.193 -1.648,1.649 -1.648,1.649 l 0,1.918 -1.312,0 0,-1.918 c -1.426,-0.512 -1.674,-1.649 -1.674,-1.649 -0.256,1.193 -1.641,1.649 -1.641,1.649 l 0,1.918 -1.312,0 0,-1.918 c -1.425,-0.512 -1.674,-1.649 -1.674,-1.649 -0.724,-3.01 1.181,-5.507 1.181,-5.507 1.159,-1.962 2.271,0 2.271,0 0.633,0.831 0.999,1.71 1.176,2.515 0.375,-1.509 1.178,-2.515 1.178,-2.515 1.159,-1.962 2.271,0 2.271,0 0.633,0.831 0.964,1.697 1.142,2.502 0.376,-1.5 1.141,-2.502 1.141,-2.502 1.159,-1.962 2.272,0 2.272,0 1.928,2.531 1.181,5.507 1.181,5.507 -0.256,1.193 -1.648,1.649 -1.648,1.649 l 0,1.918 -1.312,0 0,-1.918 c -1.424,-0.511 -1.592,-1.649 -1.592,-1.649 l 0,0 0,0 z"
       id="path11705"
       inkscape:connector-curvature="0" /><path
       style="clip-rule:evenodd;fill:#000000;fill-rule:evenodd;stroke:#000000;stroke-width:0.40000001;stroke-miterlimit:3.49367142;stroke-dasharray:none"
       d="m 34.158,99.245 c 0,0 -1.038,1.029 -2.107,0.227 0,0 -1.337,-0.825 -2.784,0 0,0 -0.936,0.869 -1.894,0 0,0 -1.403,-0.781 -2.896,0.089 0,0 -0.824,0.691 -1.715,-0.066 0,0 -1.381,-0.78 -2.718,0.044 0,0 -0.757,0.646 -1.426,0.229 l -0.97,-0.554 0,4.034 c 0,0 0.462,4.055 4.243,4.601 0,0 8.792,-0.092 11.89,3.146 l 0.378,0.432 0,-12.182 -10e-4,0 0,0 z"
       id="path11707"
       inkscape:connector-curvature="0" /><path
       style="clip-rule:evenodd;fill:#ffffff;fill-rule:evenodd;stroke:#000000;stroke-width:0.40000001;stroke-miterlimit:3.49367142;stroke-dasharray:none"
       d="m 34.158,102.768 c 0,0 -1.038,1.029 -2.107,0.227 0,0 -1.337,-0.825 -2.784,0 0,0 -0.936,0.87 -1.894,0 0,0 -1.403,-0.78 -2.896,0.089 0,0 -0.824,0.691 -1.715,-0.067 0,0 -1.381,-0.779 -2.718,0.045 0,0 -0.757,0.646 -1.426,0.229 l -0.97,-0.557 0,-1.558 0.97,0.553 c 0.668,0.418 1.426,-0.229 1.426,-0.229 1.337,-0.824 2.718,-0.044 2.718,-0.044 0.891,0.758 1.715,0.066 1.715,0.066 1.493,-0.869 2.896,-0.089 2.896,-0.089 0.958,0.869 1.894,0 1.894,0 1.447,-0.825 2.784,0 2.784,0 1.069,0.803 2.107,-0.253 2.107,-0.253 l 0,1.588 0,0 0,0 z"
       id="path11709"
       inkscape:connector-curvature="0" /><path
       style="clip-rule:evenodd;fill:#ffffff;fill-rule:evenodd;stroke:#000000;stroke-width:0.40000001;stroke-miterlimit:3.49367142;stroke-dasharray:none"
       d="m 18.183,105 0.434,0.251 c 0.668,0.418 1.426,-0.228 1.426,-0.228 1.337,-0.827 2.718,-0.046 2.718,-0.046 0.891,0.76 1.715,0.068 1.715,0.068 1.493,-0.871 2.896,-0.09 2.896,-0.09 0.958,0.868 1.894,0 1.894,0 1.447,-0.825 2.784,0 2.784,0 1.069,0.803 2.107,-0.253 2.107,-0.253 l 0,1.588 c 0,0 -1.038,1.027 -2.107,0.225 0,0 -1.337,-0.824 -2.784,0 0,0 -0.936,0.871 -1.894,0 0,0 -1.403,-0.778 -2.896,0.09 0,0 -0.824,0.691 -1.715,-0.067 0,0 -1.381,-0.779 -2.718,0.046 0,0 -0.177,0.155 -0.437,0.265 -0.132,-0.077 -0.438,-0.299 -0.777,-0.747 -0.269,-0.359 -0.538,-0.753 -0.646,-1.102 l 0,0 0,0 z"
       id="path11711"
       inkscape:connector-curvature="0" /><path
       style="clip-rule:evenodd;fill:#ffffff;fill-rule:evenodd;stroke:#000000;stroke-width:0.40000001;stroke-miterlimit:3.49367142;stroke-dasharray:none"
       d="m 34.158,111.427 -0.378,-0.432 c -0.25,-0.3 -0.967,-0.837 -1.816,-1.292 -0.854,-0.391 -1.732,-0.73 -3.008,-1.054 0.193,-0.102 0.31,-0.171 0.31,-0.171 1.447,-0.825 2.784,0 2.784,0 1.069,0.803 2.107,-0.253 2.107,-0.253 l 0,3.202 0.001,0 0,0 z"
       id="path11713"
       inkscape:connector-curvature="0" /><path
       style="clip-rule:evenodd;fill:#000000;fill-rule:evenodd;stroke:#000000;stroke-width:0.40000001;stroke-miterlimit:3.49367142;stroke-dasharray:none"
       d="m 24.728,81.777 0.324,-0.31 -0.078,-0.123 0.24,-1.086 0.168,-0.011 0.1,-1.862 -0.189,-0.089 0.145,-2.652 0.557,-0.713 c 0,0 0.089,-0.223 0.4,-0.29 0,0 0.413,-0.178 0.657,0.222 0,0 0.368,-0.033 0.424,0.312 0,0 0.301,-0.056 0.356,0.346 0,0 0.423,-0.022 0.312,0.368 l -0.2,0.267 c 0,0 -0.201,0.134 -0.011,0.324 l -0.067,0.211 c 0,0 -0.089,0.268 -0.523,0.256 0,0 -0.312,-0.033 -0.279,0.301 l 0.223,1.182 -0.279,0 0.312,2.72 0.156,0.1 -0.078,0.814 c 0,0 0.033,0.145 -0.122,0.201 l -0.836,0.885 -0.111,-0.044 -0.202,0.206 -1.399,-1.535 0,0 0,0 z"
       id="path11715"
       inkscape:connector-curvature="0" /><polygon
       style="clip-rule:evenodd;fill:#000000;fill-rule:evenodd;stroke:#000000;stroke-width:0.40000001;stroke-miterlimit:3.49367142;stroke-dasharray:none"
       points="23.602,75.482 24.066,75.482 24.066,75.097 24.492,75.097 24.492,76.813 24.023,77.163 24.023,78.733 24.445,79.229 24.445,81.564 19.226,81.564 19.226,79.229 19.564,78.733 19.564,77.163 19.096,76.813 19.096,75.097 19.521,75.097 19.521,75.482 19.986,75.482 19.986,75.097 20.38,75.097 20.38,76.199 20.996,76.199 20.996,74.353 21.546,74.353 21.546,74.738 22.042,74.738 22.042,74.353 22.592,74.353 22.592,76.144 23.208,76.144 23.208,76.144 23.208,76.144 23.208,75.097 23.602,75.097 "
       id="polygon11717" /><polygon
       style="clip-rule:evenodd;fill:#ffffff;fill-rule:evenodd;stroke:#000000;stroke-width:0.40000001;stroke-miterlimit:3.49367142;stroke-dasharray:none"
       points="20.72,78.329 20.72,77.459 20.72,77.459 20.72,77.459 21.314,77.459 21.314,78.329 "
       id="polygon11719" /><polygon
       style="clip-rule:evenodd;fill:#ffffff;fill-rule:evenodd;stroke:#000000;stroke-width:0.40000001;stroke-miterlimit:3.49367142;stroke-dasharray:none"
       points="22.259,78.329 22.259,77.459 22.259,77.459 22.259,77.459 22.853,77.459 22.853,78.329 "
       id="polygon11721" /><path
       style="clip-rule:evenodd;fill:#ffffff;fill-rule:evenodd;stroke:#000000;stroke-width:0.40000001;stroke-miterlimit:3.49367142;stroke-dasharray:none"
       d="m 21.296,81.564 0,-1.066 c 0,-0.303 0.245,-0.547 0.547,-0.547 0.302,0 0.547,0.245 0.547,0.547 l 0,1.066 -1.094,0 0,0 0,0 z"
       id="path11723"
       inkscape:connector-curvature="0" /><polygon
       style="clip-rule:evenodd;fill:#ffffff;fill-rule:evenodd;stroke:#000000;stroke-width:0.40000001;stroke-miterlimit:3.49367142;stroke-dasharray:none"
       points="17.647,83 17.647,83.546 26.887,84.157 26.887,84.157 26.887,84.157 24.531,81.564 19.163,81.564 "
       id="polygon11725" /><polygon
       style="fill:#ffffff;stroke:#000000;stroke-width:0.40000001;stroke-miterlimit:3.49367142;stroke-dasharray:none"
       points="17.647,83 17.647,83.546 26.887,84.157 26.887,84.157 26.887,84.157 24.531,81.564 19.163,81.564 "
       id="polygon11727" /><polygon
       style="clip-rule:evenodd;fill:#000000;fill-rule:evenodd;stroke:#000000;stroke-width:0.40000001;stroke-miterlimit:3.49367142;stroke-dasharray:none"
       points="17.647,83 17.647,83.546 26.887,84.157 26.887,84.157 26.887,84.157 24.531,81.564 19.163,81.564 "
       id="polygon11729" /><path
       style="clip-rule:evenodd;fill:#ffffff;fill-rule:evenodd;stroke:#000000;stroke-width:0.40000001;stroke-miterlimit:3.49367142;stroke-dasharray:none"
       d="m 32.465,109.98 c -0.914,1.604 -2.531,1.865 -2.531,1.865 -1.562,0.063 -1.76,-1.159 -1.76,-1.159 -0.914,0.914 -2.094,0.868 -2.094,0.868 -1.604,-0.09 -1.381,-1.427 -1.381,-1.427 -0.891,0.536 -1.604,0.134 -1.604,0.134 -0.713,-0.58 -1.671,-0.469 -1.671,-0.469 -0.892,0.046 -1.693,0.387 -1.693,0.387 -0.178,-0.4 0,-0.713 0,-0.713 1.047,-0.379 1.982,-0.408 1.982,-0.408 0.551,0.087 1.226,0.2 1.649,0.399 0.557,0.245 1.114,-0.087 1.114,-0.087 0.312,-0.202 1.006,-1.315 1.006,-1.315 0.315,0.034 0.536,0.057 0.958,0.128 -0.257,0.414 -1.006,1.086 -1.04,1.665 -0.067,0.313 0.133,0.646 0.356,0.804 0.469,0.278 1.115,0.056 1.492,-0.212 0.312,-0.244 0.824,-0.639 1.248,-1.898 0.343,0.076 0.735,0.17 1.073,0.263 -0.296,0.366 -0.941,1.036 -0.75,1.59 0.111,0.391 0.678,0.626 1.013,0.626 0.637,0.032 1.446,-0.77 1.813,-1.471 0.002,0 0.541,0.265 0.82,0.43 l 0,0 0,0 z"
       id="path11731"
       inkscape:connector-curvature="0" /><path
       style="clip-rule:evenodd;fill:#ffffff;fill-rule:evenodd;stroke:#000000;stroke-width:0.40000001;stroke-miterlimit:3.49367142;stroke-dasharray:none"
       d="m 35.855,109.98 c 0.913,1.604 2.531,1.865 2.531,1.865 1.562,0.063 1.76,-1.159 1.76,-1.159 0.913,0.914 2.094,0.868 2.094,0.868 1.604,-0.09 1.381,-1.427 1.381,-1.427 0.892,0.536 1.604,0.134 1.604,0.134 0.713,-0.58 1.67,-0.469 1.67,-0.469 0.892,0.046 1.693,0.387 1.693,0.387 0.179,-0.4 0,-0.713 0,-0.713 -1.047,-0.379 -1.982,-0.408 -1.982,-0.408 -0.551,0.087 -1.226,0.2 -1.648,0.399 -0.557,0.245 -1.114,-0.087 -1.114,-0.087 -0.312,-0.202 -1.006,-1.315 -1.006,-1.315 -0.315,0.034 -0.624,0.092 -0.958,0.14 0.257,0.412 1.006,1.074 1.04,1.653 0.067,0.313 -0.133,0.646 -0.356,0.804 -0.469,0.278 -1.115,0.056 -1.493,-0.212 -0.312,-0.244 -0.824,-0.639 -1.247,-1.898 -0.343,0.076 -0.735,0.17 -1.073,0.263 0.296,0.366 0.941,1.036 0.75,1.59 -0.111,0.391 -0.679,0.626 -1.014,0.626 -0.636,0.032 -1.466,-0.795 -1.833,-1.498 -0.001,-10e-4 -0.519,0.292 -0.799,0.457 l 0,0 0,0 z"
       id="path11733"
       inkscape:connector-curvature="0" /><path
       style="clip-rule:evenodd;fill:#ffffff;fill-rule:evenodd;stroke:#000000;stroke-width:0.40000001;stroke-miterlimit:3.49367142;stroke-dasharray:none"
       d="m 34.158,111.427 0.371,-0.432 c 3.097,-3.238 11.889,-3.146 11.889,-3.146 3.781,-0.546 4.289,-4.601 4.289,-4.601 l 0,-16.404 -16.549,0 0,24.583 0,0 0,0 z"
       id="path11735"
       inkscape:connector-curvature="0" /><polygon
       style="clip-rule:evenodd;fill:#ffffff;fill-rule:evenodd;stroke:#000000;stroke-width:0.40000001;stroke-miterlimit:3.49367142;stroke-dasharray:none"
       points="37.066,83.818 37.066,71.205 37.066,71.205 37.066,71.205 47.794,71.205 47.794,83.818 "
       id="polygon11737" /><polygon
       style="clip-rule:evenodd;fill:#ffffff;fill-rule:evenodd;stroke:#000000;stroke-width:0.40000001;stroke-miterlimit:3.49367142;stroke-dasharray:none"
       points="37.066,83.818 37.066,71.205 37.066,71.205 37.066,71.205 47.794,71.205 47.794,83.818 "
       id="polygon11739" /><polygon
       style="clip-rule:evenodd;fill:#ffffff;fill-rule:evenodd;stroke:#000000;stroke-width:0.40000001;stroke-miterlimit:3.49367142;stroke-dasharray:none"
       points="46.763,75.996 46.763,77.891 38.098,77.891 38.098,75.996 41.476,75.996 41.484,72.607 41.484,72.607 41.484,72.607 43.377,72.607 43.377,76.007 "
       id="polygon11741" /><path
       style="clip-rule:evenodd;fill:#000000;fill-rule:evenodd;stroke:#000000;stroke-width:0.40000001;stroke-miterlimit:3.49367142;stroke-dasharray:none"
       d="m 40.616,79.779 3.721,0 c 1.202,-0.29 0.958,-1.583 0.958,-1.583 1.426,-1.338 0,-2.43 0,-2.43 0.2,-1.895 -1.715,-1.694 -1.715,-1.694 -1.225,-1.404 -2.362,0 -2.362,0 -1.916,0.022 -1.671,1.694 -1.671,1.694 -1.381,1.36 0,2.319 0,2.319 -0.023,1.627 1.069,1.694 1.069,1.694 l 0,0 0,0 z"
       id="path11743"
       inkscape:connector-curvature="0" /><path
       style="clip-rule:evenodd;fill:#000000;fill-rule:evenodd;stroke:#000000;stroke-width:0.40000001;stroke-miterlimit:3.49367142;stroke-dasharray:none"
       d="m 41.684,81.28 0,-1.207 c 0,0 -0.1,-0.221 -0.367,-0.299 l 2.161,0 c 0,0 -0.334,0.099 -0.312,0.299 l 0,1.207 c 0,0 -0.012,0.29 0.39,0.535 l 4.239,0 0,2.003 -10.729,0 0,-2.003 4.265,0 c 10e-4,0 0.342,-0.157 0.353,-0.535 l 0,0 0,0 z"
       id="path11745"
       inkscape:connector-curvature="0" /><path
       style="clip-rule:evenodd;fill:#000000;fill-rule:evenodd;stroke:#000000;stroke-width:0.40000001;stroke-miterlimit:3.49367142;stroke-dasharray:none"
       d="m 30.197,76.023 -0.747,-10e-4 0,0.624 0.59,0.046 c 0.489,0.212 0.288,0.691 0.288,0.691 -0.312,0.535 -0.88,-0.024 -0.88,-0.024 l -0.803,-1.04 -0.101,0.635 -0.613,-10e-4 1.336,1.722 -1.06,0.935 0.702,0.001 -10e-4,0.636 1.015,-0.745 0.5,0.558 -0.927,1.503 c -0.213,0.423 0.311,0.669 0.311,0.669 l -0.916,1.57 0.546,-0.088 0.289,0.558 1.072,-1.804 -0.021,-0.368 0.536,-0.779 -0.002,1.092 c 0.223,0.536 0.646,0.358 0.646,0.358 l -0.002,1.719 0.491,-0.347 0.534,0.42 0.003,-2.158 -0.278,-0.001 0.005,-4.447 0.561,-0.478 -0.557,-0.469 -0.379,0.378 -0.004,2.552 -0.7,-0.937 0.38,-1.07 -0.356,0 0.414,-1.112 -0.401,0 0.503,-1.061 -1.971,-0.004 -0.003,0.267 0,0 0,0 z"
       id="path11747"
       inkscape:connector-curvature="0" /><polygon
       style="clip-rule:evenodd;fill:#ffffff;fill-rule:evenodd;stroke:#000000;stroke-width:0.40000001;stroke-miterlimit:3.49367142;stroke-dasharray:none"
       points="36.41,68.83 36.803,69.223 36.169,69.857 36.803,70.492 36.41,70.885 35.776,70.25 35.142,70.885 34.749,70.492 35.383,69.857 34.749,69.223 34.749,69.223 34.749,69.223 35.142,68.83 35.776,69.465 "
       id="polygon11749" /><polygon
       style="clip-rule:evenodd;fill:#ffffff;fill-rule:evenodd;stroke:#000000;stroke-width:0.40000001;stroke-miterlimit:3.49367142;stroke-dasharray:none"
       points="36.41,76.488 36.803,76.881 36.169,77.516 36.803,78.15 36.41,78.544 35.776,77.909 35.142,78.544 34.749,78.15 35.383,77.515 34.749,76.881 34.749,76.881 34.749,76.881 35.142,76.488 35.776,77.122 "
       id="polygon11751" /><polygon
       style="clip-rule:evenodd;fill:#ffffff;fill-rule:evenodd;stroke:#000000;stroke-width:0.40000001;stroke-miterlimit:3.49367142;stroke-dasharray:none"
       points="36.41,84.146 36.803,84.54 36.169,85.174 36.803,85.809 36.41,86.202 35.776,85.567 35.142,86.202 34.749,85.809 35.383,85.174 34.749,84.54 34.749,84.54 34.749,84.54 35.142,84.146 35.776,84.781 "
       id="polygon11753" /><polygon
       style="clip-rule:evenodd;fill:#ffffff;fill-rule:evenodd;stroke:#000000;stroke-width:0.40000001;stroke-miterlimit:3.49367142;stroke-dasharray:none"
       points="49.718,68.83 50.111,69.223 49.478,69.857 50.111,70.492 49.718,70.885 49.084,70.25 48.451,70.885 48.058,70.492 48.692,69.857 48.058,69.223 48.058,69.223 48.058,69.223 48.451,68.83 49.084,69.465 "
       id="polygon11755" /><polygon
       style="clip-rule:evenodd;fill:#ffffff;fill-rule:evenodd;stroke:#000000;stroke-width:0.40000001;stroke-miterlimit:3.49367142;stroke-dasharray:none"
       points="49.718,76.488 50.111,76.881 49.478,77.516 50.111,78.15 49.718,78.544 49.084,77.909 48.451,78.544 48.058,78.15 48.692,77.515 48.058,76.881 48.058,76.881 48.058,76.881 48.451,76.488 49.084,77.122 "
       id="polygon11757" /><polygon
       style="clip-rule:evenodd;fill:#ffffff;fill-rule:evenodd;stroke:#000000;stroke-width:0.40000001;stroke-miterlimit:3.49367142;stroke-dasharray:none"
       points="49.718,84.146 50.111,84.54 49.478,85.174 50.111,85.809 49.718,86.202 49.084,85.567 48.451,86.202 48.058,85.809 48.692,85.174 48.058,84.54 48.058,84.54 48.058,84.54 48.451,84.146 49.084,84.781 "
       id="polygon11759" /><polygon
       style="clip-rule:evenodd;fill:#ffffff;fill-rule:evenodd;stroke:#000000;stroke-width:0.40000001;stroke-miterlimit:3.49367142;stroke-dasharray:none"
       points="43.064,68.83 43.457,69.223 42.823,69.857 43.457,70.492 43.064,70.885 42.43,70.25 41.796,70.885 41.404,70.492 42.037,69.857 41.404,69.223 41.404,69.223 41.404,69.223 41.796,68.83 42.43,69.465 "
       id="polygon11761" /><polygon
       style="clip-rule:evenodd;fill:#ffffff;fill-rule:evenodd;stroke:#000000;stroke-width:0.40000001;stroke-miterlimit:3.49367142;stroke-dasharray:none"
       points="43.064,84.146 43.457,84.54 42.823,85.174 43.457,85.809 43.064,86.202 42.43,85.567 41.796,86.202 41.404,85.809 42.037,85.174 41.404,84.54 41.404,84.54 41.404,84.54 41.796,84.146 42.43,84.781 "
       id="polygon11763" /><polygon
       style="clip-rule:evenodd;fill:#000000;fill-rule:evenodd;stroke:#000000;stroke-width:0.40000001;stroke-miterlimit:3.49367142;stroke-dasharray:none"
       points="25.348,74.943 24.733,75.597 24.932,75.775 26.795,73.763 26.596,73.56 25.941,74.276 20.273,69.428 20.273,69.428 20.273,69.428 19.941,69.268 20.115,69.582 "
       id="polygon11767" /><path
       style="clip-rule:evenodd;fill:#ffffff;fill-rule:evenodd;stroke:#000000;stroke-width:0.40000001;stroke-miterlimit:3.49367142;stroke-dasharray:none"
       d="m 34.158,102.768 c 0,0 -1.038,1.029 -2.107,0.227 0,0 -1.337,-0.825 -2.784,0 0,0 -0.936,0.87 -1.894,0 0,0 -1.403,-0.78 -2.896,0.089 0,0 -0.824,0.691 -1.715,-0.067 0,0 -1.381,-0.779 -2.718,0.045 0,0 -0.757,0.646 -1.426,0.229 l -0.97,-0.557 0,-1.558 0.97,0.553 c 0.668,0.418 1.426,-0.229 1.426,-0.229 1.337,-0.824 2.718,-0.044 2.718,-0.044 0.891,0.758 1.715,0.066 1.715,0.066 1.493,-0.869 2.896,-0.089 2.896,-0.089 0.958,0.869 1.894,0 1.894,0 1.447,-0.825 2.784,0 2.784,0 1.069,0.803 2.107,-0.253 2.107,-0.253 l 0,1.588 0,0 0,0 z"
       id="path11769"
       inkscape:connector-curvature="0" /><polygon
       style="clip-rule:evenodd;fill:#000000;fill-rule:evenodd;stroke:#000000;stroke-width:0.40000001;stroke-miterlimit:3.49367142;stroke-dasharray:none"
       points="17.647,86.844 34.153,86.844 34.153,86.844 34.153,86.844 34.153,84.643 17.647,83.544 "
       id="polygon11771" /><path
       style="clip-rule:evenodd;fill:#ffffff;fill-rule:evenodd;stroke:#000000;stroke-width:0.40000001;stroke-miterlimit:3.49367142;stroke-dasharray:none"
       d="m 18.183,105 0.434,0.251 c 0.668,0.418 1.426,-0.228 1.426,-0.228 1.337,-0.827 2.718,-0.046 2.718,-0.046 0.891,0.76 1.715,0.068 1.715,0.068 1.493,-0.871 2.896,-0.09 2.896,-0.09 0.958,0.868 1.894,0 1.894,0 1.447,-0.825 2.784,0 2.784,0 1.069,0.803 2.107,-0.253 2.107,-0.253 l 0,1.588 c 0,0 -1.038,1.027 -2.107,0.225 0,0 -1.337,-0.824 -2.784,0 0,0 -0.936,0.871 -1.894,0 0,0 -1.403,-0.778 -2.896,0.09 0,0 -0.824,0.691 -1.715,-0.067 0,0 -1.381,-0.779 -2.718,0.046 0,0 -0.177,0.155 -0.437,0.265 -0.132,-0.077 -0.438,-0.299 -0.777,-0.747 -0.269,-0.359 -0.538,-0.753 -0.646,-1.102 l 0,0 0,0 z"
       id="path11773"
       inkscape:connector-curvature="0" /><path
       style="clip-rule:evenodd;fill:#ffffff;fill-rule:evenodd;stroke:#000000;stroke-width:0.40000001;stroke-miterlimit:3.49367142;stroke-dasharray:none"
       d="m 34.158,111.427 -0.378,-0.432 c -0.25,-0.3 -0.967,-0.837 -1.816,-1.292 -0.854,-0.391 -1.732,-0.73 -3.008,-1.054 0.193,-0.102 0.31,-0.171 0.31,-0.171 1.447,-0.825 2.784,0 2.784,0 1.069,0.803 2.107,-0.253 2.107,-0.253 l 0,3.202 0.001,0 0,0 z"
       id="path11775"
       inkscape:connector-curvature="0" /><path
       style="fill:none;stroke:#000000;stroke-width:0.40000001;stroke-miterlimit:3.49367142;stroke-dasharray:none"
       d="m 17.631,86.846 33.073,0 m -16.55,-18.641 0.004,43.191 m 0.371,-0.401 c 3.097,-3.238 11.889,-3.146 11.889,-3.146 3.781,-0.546 4.289,-4.601 4.289,-4.601 l 0,-35.034 -33.06,0 0,35.034 c 0,0 0.462,4.055 4.243,4.601 0,0 8.792,-0.092 11.89,3.146 l 0.378,0.432 0.371,-0.432 0,0 0,0 z"
       id="path11777"
       inkscape:connector-curvature="0" /><path
       style="fill:none;fill-rule:evenodd;stroke:#000000;stroke-width:0.40000001;stroke-linecap:butt;stroke-linejoin:miter;stroke-miterlimit:4;stroke-dasharray:none;stroke-opacity:1"
       d="m 35.444941,87.071544 0,23.304776"
       id="path12505"
       inkscape:connector-curvature="0" /><path
       style="fill:none;fill-rule:evenodd;stroke:#000000;stroke-width:0.40000001;stroke-linecap:butt;stroke-linejoin:miter;stroke-miterlimit:4;stroke-dasharray:none;stroke-opacity:1"
       d="m 36.854067,87.071548 0,22.423342"
       id="path12505-0"
       inkscape:connector-curvature="0"
       sodipodi:nodetypes="cc" /><path
       style="fill:none;fill-rule:evenodd;stroke:#000000;stroke-width:0.40000001;stroke-linecap:butt;stroke-linejoin:miter;stroke-miterlimit:4;stroke-dasharray:none;stroke-opacity:1"
       d="m 38.479982,87.071548 0,21.886812"
       id="path12505-0-0"
       inkscape:connector-curvature="0"
       sodipodi:nodetypes="cc" /><path
       style="fill:none;fill-rule:evenodd;stroke:#000000;stroke-width:0.40000001;stroke-linecap:butt;stroke-linejoin:miter;stroke-miterlimit:4;stroke-dasharray:none;stroke-opacity:1"
       d="m 39.997502,87.071548 0,21.503582"
       id="path12505-0-04"
       inkscape:connector-curvature="0"
       sodipodi:nodetypes="cc" /><path
       style="fill:none;fill-rule:evenodd;stroke:#000000;stroke-width:0.40000001;stroke-linecap:butt;stroke-linejoin:miter;stroke-miterlimit:4;stroke-dasharray:none;stroke-opacity:1"
       d="m 41.623417,87.071548 0,21.120352"
       id="path12505-0-8"
       inkscape:connector-curvature="0"
       sodipodi:nodetypes="cc" /><path
       style="fill:none;fill-rule:evenodd;stroke:#000000;stroke-width:0.40000001;stroke-linecap:butt;stroke-linejoin:miter;stroke-miterlimit:4;stroke-dasharray:none;stroke-opacity:1"
       d="m 43.249332,87.071548 0,21.043702"
       id="path12505-0-6"
       inkscape:connector-curvature="0"
       sodipodi:nodetypes="cc" /><path
       style="fill:none;fill-rule:evenodd;stroke:#000000;stroke-width:0.40000001;stroke-linecap:butt;stroke-linejoin:miter;stroke-miterlimit:4;stroke-dasharray:none;stroke-opacity:1"
       d="m 45.200429,87.071548 0,20.813762"
       id="path12505-0-01"
       inkscape:connector-curvature="0"
       sodipodi:nodetypes="cc" /><path
       style="fill:none;fill-rule:evenodd;stroke:#000000;stroke-width:0.40000001;stroke-linecap:butt;stroke-linejoin:miter;stroke-miterlimit:4;stroke-dasharray:none;stroke-opacity:1"
       d="m 47.043132,87.071548 0,20.698792"
       id="path12505-0-3"
       inkscape:connector-curvature="0"
       sodipodi:nodetypes="cc" /><path
       style="fill:none;fill-rule:evenodd;stroke:#000000;stroke-width:0.40000001;stroke-linecap:butt;stroke-linejoin:miter;stroke-miterlimit:4;stroke-dasharray:none;stroke-opacity:1"
       d="m 48.885836,87.071548 0,19.740712"
       id="path12505-0-5"
       inkscape:connector-curvature="0"
       sodipodi:nodetypes="cc" /></g></svg>