<?xml version="1.0" encoding="UTF-8" standalone="no"?>
<!-- Created with Inkscape (http://www.inkscape.org/) -->

<svg
   xmlns:dc="http://purl.org/dc/elements/1.1/"
   xmlns:cc="http://creativecommons.org/ns#"
   xmlns:rdf="http://www.w3.org/1999/02/22-rdf-syntax-ns#"
   xmlns:svg="http://www.w3.org/2000/svg"
   xmlns="http://www.w3.org/2000/svg"
   xmlns:sodipodi="http://sodipodi.sourceforge.net/DTD/sodipodi-0.dtd"
   xmlns:inkscape="http://www.inkscape.org/namespaces/inkscape"
   width="243.08311"
   height="88.662529"
   id="svg2"
   sodipodi:version="0.32"
   inkscape:version="0.91pre1 r13432"
   sodipodi:docname="pausumedia.svg"
   inkscape:output_extension="org.inkscape.output.svg.inkscape"
   version="1.1"
   viewBox="0 0 243.08311 88.66253">
  <defs
     id="defs4" />
  <sodipodi:namedview
     id="base"
     pagecolor="#ffffff"
     bordercolor="#666666"
     borderopacity="1.0"
     inkscape:pageopacity="0.0"
     inkscape:pageshadow="2"
     inkscape:zoom="1.8028332"
     inkscape:cx="54.13417"
     inkscape:cy="7.717312"
     inkscape:document-units="px"
     inkscape:current-layer="layer1"
     inkscape:window-width="1598"
     inkscape:window-height="879"
     inkscape:window-x="0"
     inkscape:window-y="19"
     showgrid="false"
     fit-margin-top="0"
     fit-margin-left="0"
     fit-margin-right="0"
     fit-margin-bottom="0"
     inkscape:window-maximized="0" />
  <metadata
     id="metadata7">
    <rdf:RDF>
      <cc:Work
         rdf:about="">
        <dc:format>image/svg+xml</dc:format>
        <dc:type
           rdf:resource="http://purl.org/dc/dcmitype/StillImage" />
        <dc:title />
      </cc:Work>
    </rdf:RDF>
  </metadata>
  <g
     inkscape:label="Capa 1"
     inkscape:groupmode="layer"
     id="layer1"
     transform="translate(-209.45269,-196.76875)">
    <rect
       style="color:#000000;text-decoration:none;text-decoration-line:none;text-decoration-style:solid;text-decoration-color:#000000;clip-rule:nonzero;display:inline;overflow:visible;visibility:visible;opacity:1;isolation:auto;color-interpolation:sRGB;color-interpolation-filters:linearRGB;fill:#ffffff;fill-opacity:1;fill-rule:nonzero;stroke:none;stroke-width:1px;stroke-linecap:butt;stroke-linejoin:miter;stroke-miterlimit:4;stroke-dasharray:none;stroke-dashoffset:0;stroke-opacity:1;marker:none;color-rendering:auto;image-rendering:auto;shape-rendering:auto;text-rendering:auto;enable-background:accumulate"
       id="rect10977"
       width="84.153893"
       height="84.153893"
       x="359.21057"
       y="198.85666"
       ry="21.20413" />
    <path
       style="fill:#1a1a1a;fill-opacity:1;stroke:none"
       d="m 369.16306,272.874 0,-36.11324 c -0.25934,-11.04654 2.93303,-26.90445 23.38762,-27.51488 12.62396,-0.37671 20.7431,10.56237 20.63614,19.94829 -0.26581,23.32525 -24.76337,24.76332 -24.76337,24.76332 l 0,-13.75737 c 0,0 11.39711,-0.21265 11.69382,-10.23462 0.13777,-4.65376 -1.17424,-7.42888 -7.52486,-7.65005 -8.71065,-0.30338 -8.29618,11.69382 -8.29618,11.69382 l 0,38.86473 z"
       id="path5632-4"
       inkscape:connector-curvature="0"
       sodipodi:nodetypes="ccssccssccc" />
    <path
       style="fill:#808080;fill-opacity:1;stroke:none"
       d="m 430.92745,272.63081 0,-36.11324 c 0.25934,-11.04655 -2.93302,-26.90445 -23.38762,-27.51488 -12.62396,-0.37671 -20.74309,10.56237 -20.63614,19.94828 0.26581,23.32526 24.76337,24.76332 24.76337,24.76332 l 0,-13.75736 c 0,0 -11.3971,-0.21266 -11.69381,-10.23462 -0.13778,-4.65376 1.17423,-7.42889 7.52485,-7.65005 8.71064,-0.30339 8.29618,11.69382 8.29618,11.69382 l 0,38.86473 z"
       id="path5632-3-3"
       inkscape:connector-curvature="0"
       sodipodi:nodetypes="ccssccssccc" />
    <path
       style="fill:#1a1a1a;fill-opacity:1;stroke:none"
       d="m 392.54071,209.24548 c -0.57623,0.0172 -1.1254,0.0508 -1.67454,0.0918 l -4.72119,15.2637 c 1.132,-0.8565 4.53615,-2.34668 6.4416,-2.28031 6.35063,0.22117 7.66172,2.98488 7.52395,7.63864 -0.0476,1.60882 -0.36794,2.96309 -0.89462,4.10605 l 7.34044,6.53757 5.06948,-2.45445 c 0.93793,-2.55446 1.52062,-5.50424 1.55984,-8.94616 0.10696,-9.38591 -8.021,-20.33351 -20.64496,-19.9568 z"
       id="path5632-4-7"
       inkscape:connector-curvature="0"
       sodipodi:nodetypes="sccsscccss" />
    <path
       style="fill:#808080;fill-opacity:1;stroke:none"
       d="m 423.43442,225.93116 -9.12966,0.38996 c 1.62562,3.34684 1.49103,7.45513 1.49103,7.45513 l 0,23.87934 c 0.001,-0.002 0.0688,-0.0917 0.0688,-0.0917 l 7.56982,-31.63268 z m -23.35175,1.42221 c -3.54063,0.32522 -7.33859,0.64228 -8.96909,0.64228 0,0 -1.87269,1.36544 -4.10606,2.95912 1.60673,21.39759 24.65927,22.75534 24.65927,22.75534 l 0,-13.76331 c 0,0 -11.40211,-0.20877 -11.69881,-10.23073 -0.0253,-0.85521 0.0198,-1.63857 0.11469,-2.3627 z"
       id="path5632-3-3-3"
       inkscape:connector-curvature="0" />
    <path
       inkscape:connector-curvature="0"
       id="path10986"
       style="color:#000000;font-style:normal;font-variant:normal;font-weight:bold;font-stretch:normal;font-size:34.63217163px;line-height:100%;font-family:'DejaVu Sans';-inkscape-font-specification:'DejaVu Sans, Bold';text-indent:0;text-align:end;text-decoration:none;text-decoration-line:none;letter-spacing:0px;word-spacing:0px;text-transform:none;direction:ltr;block-progression:tb;writing-mode:lr-tb;baseline-shift:baseline;text-anchor:end;visibility:visible;fill:#808080;fill-opacity:1;fill-rule:nonzero;stroke:none;stroke-width:1px;stroke-linecap:butt;stroke-linejoin:miter;stroke-opacity:1;marker:none"
       d="m 239.6231,229.86009 0,10.38474 -6.32269,0 0,-27.30409 6.32269,0 0,2.89642 q 1.30691,-1.73079 2.89642,-2.5432 1.5895,-0.83007 3.65585,-0.83007 3.65585,0 6.00479,2.91408 2.34892,2.89643 2.34892,7.47066 0,4.57423 -2.34892,7.48832 -2.34894,2.89641 -6.00479,2.89641 -2.06635,0 -3.65585,-0.81241 -1.58951,-0.83007 -2.89642,-2.56086 z m 4.20334,-12.80431 q -2.03102,0 -3.12602,1.5012 -1.07732,1.48353 -1.07732,4.29165 0,2.80812 1.07732,4.30931 1.095,1.48353 3.12602,1.48353 2.03103,0 3.09069,-1.48353 1.07734,-1.48353 1.07734,-4.30931 0,-2.82578 -1.07734,-4.30932 -1.05966,-1.48353 -3.09069,-1.48353 z" />
    <path
       inkscape:connector-curvature="0"
       id="path10988"
       style="color:#000000;font-style:normal;font-variant:normal;font-weight:bold;font-stretch:normal;font-size:34.63217163px;line-height:100%;font-family:'DejaVu Sans';-inkscape-font-specification:'DejaVu Sans, Bold';text-indent:0;text-align:end;text-decoration:none;text-decoration-line:none;letter-spacing:0px;word-spacing:0px;text-transform:none;direction:ltr;block-progression:tb;writing-mode:lr-tb;baseline-shift:baseline;text-anchor:end;visibility:visible;fill:#ffffff;fill-opacity:1;fill-rule:nonzero;stroke:none;stroke-width:1px;stroke-linecap:butt;stroke-linejoin:miter;stroke-opacity:1;marker:none"
       d="m 268.09282,223.81999 q -1.97804,0 -2.98473,0.67112 -0.98902,0.67112 -0.98902,1.97805 0,1.20095 0.79475,1.88974 0.81241,0.67112 2.24296,0.67112 1.78377,0 3.00239,-1.2716 1.21862,-1.28926 1.21862,-3.21433 l 0,-0.7241 -3.28497,0 z m 9.66063,-2.38425 0,11.28546 -6.37566,0 0,-2.93175 q -1.2716,1.80143 -2.8611,2.6315 -1.5895,0.81241 -3.86778,0.81241 -3.07305,0 -4.9981,-1.78377 -1.90741,-1.80143 -1.90741,-4.66253 0,-3.47924 2.38425,-5.10407 2.40192,-1.62482 7.52365,-1.62482 l 3.72649,0 0,-0.49451 q 0,-1.5012 -1.1833,-2.18998 -1.1833,-0.70644 -3.69117,-0.70644 -2.03103,0 -3.77948,0.4062 -1.74845,0.40621 -3.24964,1.21862 l 0,-4.82149 q 2.03102,-0.49451 4.07971,-0.74176 2.04869,-0.26492 4.09739,-0.26492 5.35131,0 7.7179,2.11933 2.38425,2.10168 2.38425,6.85252 z" />
    <path
       inkscape:connector-curvature="0"
       id="path10990"
       style="color:#000000;font-style:normal;font-variant:normal;font-weight:bold;font-stretch:normal;font-size:34.63217163px;line-height:100%;font-family:'DejaVu Sans';-inkscape-font-specification:'DejaVu Sans, Bold';text-indent:0;text-align:end;text-decoration:none;text-decoration-line:none;letter-spacing:0px;word-spacing:0px;text-transform:none;direction:ltr;block-progression:tb;writing-mode:lr-tb;baseline-shift:baseline;text-anchor:end;visibility:visible;fill:#ffffff;fill-opacity:1;fill-rule:nonzero;stroke:none;stroke-width:1px;stroke-linecap:butt;stroke-linejoin:miter;stroke-opacity:1;marker:none"
       d="m 283.45799,225.02095 0,-12.08021 6.35801,0 0,1.97805 q 0,1.60716 -0.0176,4.04439 -0.0177,2.41958 -0.0177,3.23199 0,2.38425 0.12363,3.44391 0.12362,1.04202 0.42386,1.51886 0.38855,0.61814 1.00669,0.9537 0.6358,0.33556 1.44821,0.33556 1.97804,0 3.10836,-1.51885 1.13031,-1.51886 1.13031,-4.22101 l 0,-9.7666 6.32268,0 0,19.78046 -6.32268,0 0,-2.86111 q -1.43055,1.73079 -3.03772,2.56086 -1.5895,0.81241 -3.51455,0.81241 -3.42627,0 -5.2277,-2.10166 -1.78377,-2.10168 -1.78377,-6.11075 z" />
    <path
       inkscape:connector-curvature="0"
       id="path10992"
       style="color:#000000;font-style:normal;font-variant:normal;font-weight:bold;font-stretch:normal;font-size:34.63217163px;line-height:100%;font-family:'DejaVu Sans';-inkscape-font-specification:'DejaVu Sans, Bold';text-indent:0;text-align:end;text-decoration:none;text-decoration-line:none;letter-spacing:0px;word-spacing:0px;text-transform:none;direction:ltr;block-progression:tb;writing-mode:lr-tb;baseline-shift:baseline;text-anchor:end;visibility:visible;fill:#ffffff;fill-opacity:1;fill-rule:nonzero;stroke:none;stroke-width:1px;stroke-linecap:butt;stroke-linejoin:miter;stroke-opacity:1;marker:none"
       d="m 324.90864,213.55888 0,4.80382 q -2.03102,-0.84773 -3.92076,-1.2716 -1.88975,-0.42386 -3.56755,-0.42386 -1.80143,0 -2.68449,0.45919 -0.8654,0.44152 -0.8654,1.37756 0,0.75943 0.65346,1.16564 0.67113,0.4062 2.38426,0.60047 l 1.11265,0.15895 q 4.85681,0.61814 6.53461,2.03103 1.67781,1.41289 1.67781,4.43295 0,3.16133 -2.33127,4.75083 -2.33126,1.5895 -6.95848,1.5895 -1.96038,0 -4.06206,-0.31789 -2.08401,-0.30024 -4.29165,-0.91838 l 0,-4.80383 q 1.88974,0.91838 3.86778,1.37757 1.99571,0.45919 4.0444,0.45919 1.85441,0 2.79046,-0.51217 0.93604,-0.51218 0.93604,-1.51886 0,-0.84773 -0.65346,-1.25394 -0.63581,-0.42387 -2.56086,-0.65346 l -1.11266,-0.14129 q -4.22101,-0.52983 -5.91647,-1.96038 -1.69547,-1.43055 -1.69547,-4.34464 0,-3.14368 2.15466,-4.66253 2.15466,-1.51886 6.60526,-1.51886 1.74845,0 3.67351,0.26492 1.92506,0.26491 4.18568,0.83007 z" />
    <path
       inkscape:connector-curvature="0"
       id="path10994"
       style="color:#000000;font-style:normal;font-variant:normal;font-weight:bold;font-stretch:normal;font-size:34.63217163px;line-height:100%;font-family:'DejaVu Sans';-inkscape-font-specification:'DejaVu Sans, Bold';text-indent:0;text-align:end;text-decoration:none;text-decoration-line:none;letter-spacing:0px;word-spacing:0px;text-transform:none;direction:ltr;block-progression:tb;writing-mode:lr-tb;baseline-shift:baseline;text-anchor:end;visibility:visible;fill:#ffffff;fill-opacity:1;fill-rule:nonzero;stroke:none;stroke-width:1px;stroke-linecap:butt;stroke-linejoin:miter;stroke-opacity:1;marker:none"
       d="m 330.78979,225.02095 0,-12.08021 6.35801,0 0,1.97805 q 0,1.60716 -0.0177,4.04439 -0.0177,2.41958 -0.0177,3.23199 0,2.38425 0.12363,3.44391 0.12362,1.04202 0.42387,1.51886 0.38854,0.61814 1.00668,0.9537 0.6358,0.33556 1.44821,0.33556 1.97805,0 3.10836,-1.51885 1.13031,-1.51886 1.13031,-4.22101 l 0,-9.7666 6.32268,0 0,19.78046 -6.32268,0 0,-2.86111 q -1.43055,1.73079 -3.03771,2.56086 -1.5895,0.81241 -3.51456,0.81241 -3.42627,0 -5.2277,-2.10166 -1.78377,-2.10168 -1.78377,-6.11075 z" />
    <path
       inkscape:connector-curvature="0"
       id="path10996"
       style="color:#000000;font-style:normal;font-variant:normal;font-weight:bold;font-stretch:normal;font-size:34.63217163px;line-height:100%;font-family:'DejaVu Sans';-inkscape-font-specification:'DejaVu Sans, Bold';text-indent:0;text-align:end;text-decoration:none;text-decoration-line:none;letter-spacing:0px;word-spacing:0px;text-transform:none;direction:ltr;block-progression:tb;writing-mode:lr-tb;baseline-shift:baseline;text-anchor:end;visibility:visible;fill:#ffffff;fill-opacity:1;fill-rule:nonzero;stroke:none;stroke-width:1px;stroke-linecap:butt;stroke-linejoin:miter;stroke-opacity:1;marker:none"
       d="m 218.62402,262.05632 6.35801,0 0,6.83485 -6.35801,0 0,-6.83485 z" />
    <path
       inkscape:connector-curvature="0"
       id="path10998"
       style="color:#000000;font-style:normal;font-variant:normal;font-weight:bold;font-stretch:normal;font-size:34.63217163px;line-height:100%;font-family:'DejaVu Sans';-inkscape-font-specification:'DejaVu Sans, Bold';text-indent:0;text-align:end;text-decoration:none;text-decoration-line:none;letter-spacing:0px;word-spacing:0px;text-transform:none;direction:ltr;block-progression:tb;writing-mode:lr-tb;baseline-shift:baseline;text-anchor:end;visibility:visible;fill:#ffffff;fill-opacity:1;fill-rule:nonzero;stroke:none;stroke-width:1px;stroke-linecap:butt;stroke-linejoin:miter;stroke-opacity:1;marker:none"
       d="m 250.07848,252.39569 q 1.20095,-1.83676 2.84344,-2.79046 1.66014,-0.97137 3.63819,-0.97137 3.40859,0 5.19237,2.10167 1.78377,2.10168 1.78377,6.11076 l 0,12.04488 -6.35801,0 0,-10.31409 q 0.0177,-0.2296 0.0177,-0.47686 0.0177,-0.24725 0.0177,-0.70644 0,-2.10168 -0.61814,-3.03771 -0.61814,-0.9537 -1.99571,-0.9537 -1.80144,0 -2.79045,1.48353 -0.97136,1.48354 -1.00668,4.29166 l 0,9.71361 -6.35801,0 0,-10.31409 q 0,-3.28498 -0.56516,-4.22101 -0.56515,-0.9537 -2.01336,-0.9537 -1.8191,0 -2.80812,1.50119 -0.98903,1.48354 -0.98903,4.25634 l 0,9.73127 -6.358,0 0,-19.78046 6.358,0 0,2.89643 q 1.16564,-1.67781 2.66683,-2.52554 1.51886,-0.84774 3.33796,-0.84774 2.04868,0 3.62053,0.98903 1.57184,0.98902 2.38425,2.7728 z" />
    <path
       inkscape:connector-curvature="0"
       id="path11000"
       style="color:#000000;font-style:normal;font-variant:normal;font-weight:bold;font-stretch:normal;font-size:34.63217163px;line-height:100%;font-family:'DejaVu Sans';-inkscape-font-specification:'DejaVu Sans, Bold';text-indent:0;text-align:end;text-decoration:none;text-decoration-line:none;letter-spacing:0px;word-spacing:0px;text-transform:none;direction:ltr;block-progression:tb;writing-mode:lr-tb;baseline-shift:baseline;text-anchor:end;visibility:visible;fill:#ffffff;fill-opacity:1;fill-rule:nonzero;stroke:none;stroke-width:1px;stroke-linecap:butt;stroke-linejoin:miter;stroke-opacity:1;marker:none"
       d="m 289.21552,258.94795 0,1.80144 -14.78236,0 q 0.2296,2.22531 1.60716,3.33795 1.37757,1.11266 3.85013,1.11266 1.99571,0 4.07972,-0.58282 2.10168,-0.60048 4.30932,-1.80143 l 0,4.87446 q -2.24297,0.84773 -4.48593,1.2716 -2.24296,0.44154 -4.48592,0.44154 -5.36899,0 -8.35372,-2.71982 -2.96707,-2.73748 -2.96707,-7.66492 0,-4.83915 2.91409,-7.61195 2.93174,-2.7728 8.05347,-2.7728 4.66253,0 7.45299,2.80812 2.80812,2.80812 2.80812,7.50597 z m -6.49929,-2.10166 q 0,-1.80144 -1.05966,-2.89642 -1.04202,-1.11266 -2.73748,-1.11266 -1.83675,0 -2.98473,1.04201 -1.14798,1.02434 -1.43055,2.96707 l 8.21242,0 z" />
    <path
       inkscape:connector-curvature="0"
       id="path11002"
       style="color:#000000;font-style:normal;font-variant:normal;font-weight:bold;font-stretch:normal;font-size:34.63217163px;line-height:100%;font-family:'DejaVu Sans';-inkscape-font-specification:'DejaVu Sans, Bold';text-indent:0;text-align:end;text-decoration:none;text-decoration-line:none;letter-spacing:0px;word-spacing:0px;text-transform:none;direction:ltr;block-progression:tb;writing-mode:lr-tb;baseline-shift:baseline;text-anchor:end;visibility:visible;fill:#ffffff;fill-opacity:1;fill-rule:nonzero;stroke:none;stroke-width:1px;stroke-linecap:butt;stroke-linejoin:miter;stroke-opacity:1;marker:none"
       d="m 307.4418,252.00714 0,-10.59667 6.35801,0 0,27.4807 -6.35801,0 0,-2.8611 q -1.30692,1.74844 -2.87876,2.56087 -1.57184,0.81241 -3.63819,0.81241 -3.65586,0 -6.00478,-2.89643 -2.34893,-2.91408 -2.34893,-7.48831 0,-4.57424 2.34893,-7.47066 2.34892,-2.91409 6.00478,-2.91409 2.04869,0 3.62053,0.83008 1.5895,0.81241 2.89642,2.5432 z m -4.16803,12.80431 q 2.03103,0 3.09071,-1.48354 1.07732,-1.48353 1.07732,-4.3093 0,-2.82578 -1.07732,-4.30932 -1.05968,-1.48353 -3.09071,-1.48353 -2.01336,0 -3.09069,1.48353 -1.05966,1.48354 -1.05966,4.30932 0,2.82577 1.05966,4.3093 1.07733,1.48354 3.09069,1.48354 z" />
    <path
       inkscape:connector-curvature="0"
       id="path11004"
       style="color:#000000;font-style:normal;font-variant:normal;font-weight:bold;font-stretch:normal;font-size:34.63217163px;line-height:100%;font-family:'DejaVu Sans';-inkscape-font-specification:'DejaVu Sans, Bold';text-indent:0;text-align:end;text-decoration:none;text-decoration-line:none;letter-spacing:0px;word-spacing:0px;text-transform:none;direction:ltr;block-progression:tb;writing-mode:lr-tb;baseline-shift:baseline;text-anchor:end;visibility:visible;fill:#ffffff;fill-opacity:1;fill-rule:nonzero;stroke:none;stroke-width:1px;stroke-linecap:butt;stroke-linejoin:miter;stroke-opacity:1;marker:none"
       d="m 319.91055,249.11071 6.32268,0 0,19.78046 -6.32268,0 0,-19.78046 z m 0,-7.70024 6.32268,0 0,5.15705 -6.32268,0 0,-5.15705 z" />
    <path
       inkscape:connector-curvature="0"
       id="path11006"
       style="color:#000000;font-style:normal;font-variant:normal;font-weight:bold;font-stretch:normal;font-size:34.63217163px;line-height:100%;font-family:'DejaVu Sans';-inkscape-font-specification:'DejaVu Sans, Bold';text-indent:0;text-align:end;text-decoration:none;text-decoration-line:none;letter-spacing:0px;word-spacing:0px;text-transform:none;direction:ltr;block-progression:tb;writing-mode:lr-tb;baseline-shift:baseline;text-anchor:end;visibility:visible;fill:#ffffff;fill-opacity:1;fill-rule:nonzero;stroke:none;stroke-width:1px;stroke-linecap:butt;stroke-linejoin:miter;stroke-opacity:1;marker:none"
       d="m 341.20985,259.98997 q -1.97803,0 -2.98472,0.67112 -0.98902,0.67112 -0.98902,1.97804 0,1.20096 0.79475,1.88974 0.81241,0.67113 2.24296,0.67113 1.78378,0 3.00239,-1.27161 1.21862,-1.28926 1.21862,-3.21432 l 0,-0.7241 -3.28498,0 z m 9.66064,-2.38425 0,11.28545 -6.37566,0 0,-2.93175 q -1.27161,1.80143 -2.8611,2.63152 -1.5895,0.81241 -3.86779,0.81241 -3.07304,0 -4.9981,-1.78378 -1.9074,-1.80143 -1.9074,-4.66254 0,-3.47924 2.38426,-5.10406 2.40191,-1.62482 7.52363,-1.62482 l 3.7265,0 0,-0.49452 q 0,-1.50119 -1.1833,-2.18998 -1.18329,-0.70644 -3.69118,-0.70644 -2.03103,0 -3.77947,0.40621 -1.74845,0.4062 -3.24965,1.21861 l 0,-4.82148 q 2.03103,-0.49451 4.07972,-0.74177 2.04869,-0.26492 4.09738,-0.26492 5.35132,0 7.71791,2.11934 2.38425,2.10167 2.38425,6.85252 z" />
  </g>
</svg>
