<?xml version="1.0" encoding="UTF-8" standalone="no"?>
<svg
   xmlns:dc="http://purl.org/dc/elements/1.1/"
   xmlns:cc="http://creativecommons.org/ns#"
   xmlns:rdf="http://www.w3.org/1999/02/22-rdf-syntax-ns#"
   xmlns:svg="http://www.w3.org/2000/svg"
   xmlns="http://www.w3.org/2000/svg"
   xmlns:sodipodi="http://sodipodi.sourceforge.net/DTD/sodipodi-0.dtd"
   xmlns:inkscape="http://www.inkscape.org/namespaces/inkscape"
   id="svg2"
   viewBox="0 0 64 64"
   version="1.1"
   inkscape:version="0.91pre1 r13432"
   sodipodi:docname="radio.svg">
  <defs
     id="defs4624" />
  <sodipodi:namedview
     pagecolor="#ffffff"
     bordercolor="#666666"
     borderopacity="1"
     objecttolerance="10"
     gridtolerance="10"
     guidetolerance="10"
     inkscape:pageopacity="0"
     inkscape:pageshadow="2"
     inkscape:window-width="1598"
     inkscape:window-height="879"
     id="namedview4622"
     showgrid="false"
     inkscape:snap-page="true"
     inkscape:zoom="5.171875"
     inkscape:cx="32"
     inkscape:cy="32"
     inkscape:window-x="0"
     inkscape:window-y="19"
     inkscape:window-maximized="0"
     inkscape:current-layer="svg2" />
  <rect
     style="color:#000000;text-decoration:none;text-decoration-line:none;text-decoration-style:solid;text-decoration-color:#000000;clip-rule:nonzero;display:inline;overflow:visible;visibility:visible;opacity:1;isolation:auto;color-interpolation:sRGB;color-interpolation-filters:linearRGB;fill:#1a1a1a;fill-opacity:1;fill-rule:nonzero;stroke:none;stroke-width:1.10000002;stroke-linecap:butt;stroke-miterlimit:4;stroke-dasharray:none;stroke-opacity:1;marker:none;color-rendering:auto;image-rendering:auto;shape-rendering:auto;text-rendering:auto;enable-background:accumulate"
     id="rect4626"
     width="64"
     height="64"
     x="0"
     y="0" />
  <g
     id="g4882"
     transform="matrix(0.89740428,0,0,0.89740428,3.3343609,3.4410605)">
    <path
       style="fill-opacity:0.39216003"
       inkscape:connector-curvature="0"
       d="m 5,56.04 55,0 c 1,0 1,2 0,2 l -55,0 c -1,0 -1,-2 0,-2 z"
       id="rect2846" />
    <path
       style="fill:#5a9503;fill-opacity:1"
       inkscape:connector-curvature="0"
       d="m 40,22.04 0,35 -30.058,0 C 7,57.04 5,55.04 5,52.04 l 0,-25 c 0,-3 2,-5 5.0161,-5 l 29.984,0 z"
       id="path2859" />
    <path
       style="fill:#cccccc"
       inkscape:connector-curvature="0"
       d="m 40,22.04 15,0 c 3,0 5,2 5,5 l 0,25 c 0,3 -2,5 -5,5 l -15,0 0,-35 z"
       id="rect2952" />
    <path
       id="rect2955"
       d="m 36,25.04 2,0 0,2 -2,0 0,-2 z"
       inkscape:connector-curvature="0" />
    <path
       id="path2958"
       d="m 32,25.04 2,0 0,2 -2,0 0,-2 z"
       inkscape:connector-curvature="0" />
    <path
       id="path2960"
       d="m 28,25.04 2,0 0,2 -2,0 0,-2 z"
       inkscape:connector-curvature="0" />
    <path
       id="path2962"
       d="m 24,25.04 2,0 0,2 -2,0 0,-2 z"
       inkscape:connector-curvature="0" />
    <path
       id="path2964"
       d="m 20,25.04 2,0 0,2 -2,0 0,-2 z"
       inkscape:connector-curvature="0" />
    <path
       id="path2966"
       d="m 16,25.04 2,0 0,2 -2,0 0,-2 z"
       inkscape:connector-curvature="0" />
    <path
       id="path2968"
       d="m 12,25.04 2,0 0,2 -2,0 0,-2 z"
       inkscape:connector-curvature="0" />
    <path
       id="path2970"
       d="m 8,25.04 2,0 0,2 -2,0 0,-2 z"
       inkscape:connector-curvature="0" />
    <path
       id="path2972"
       d="m 36,29.04 2,0 0,2 -2,0 0,-2 z"
       inkscape:connector-curvature="0" />
    <path
       id="path2974"
       d="m 32,29.04 2,0 0,2 -2,0 0,-2 z"
       inkscape:connector-curvature="0" />
    <path
       id="path2976"
       d="m 28,29.04 2,0 0,2 -2,0 0,-2 z"
       inkscape:connector-curvature="0" />
    <path
       id="path2978"
       d="m 24,29.04 2,0 0,2 -2,0 0,-2 z"
       inkscape:connector-curvature="0" />
    <path
       id="path2980"
       d="m 20,29.04 2,0 0,2 -2,0 0,-2 z"
       inkscape:connector-curvature="0" />
    <path
       id="path2982"
       d="m 16,29.04 2,0 0,2 -2,0 0,-2 z"
       inkscape:connector-curvature="0" />
    <path
       id="path2984"
       d="m 12,29.04 2,0 0,2 -2,0 0,-2 z"
       inkscape:connector-curvature="0" />
    <path
       id="path2986"
       d="m 8,29.04 2,0 0,2 -2,0 0,-2 z"
       inkscape:connector-curvature="0" />
    <path
       id="path2988"
       d="m 36,33.04 2,0 0,2 -2,0 0,-2 z"
       inkscape:connector-curvature="0" />
    <path
       id="path2990"
       d="m 32,33.04 2,0 0,2 -2,0 0,-2 z"
       inkscape:connector-curvature="0" />
    <path
       id="path2992"
       d="m 28,33.04 2,0 0,2 -2,0 0,-2 z"
       inkscape:connector-curvature="0" />
    <path
       id="path2994"
       d="m 24,33.04 2,0 0,2 -2,0 0,-2 z"
       inkscape:connector-curvature="0" />
    <path
       id="path2996"
       d="m 20,33.04 2,0 0,2 -2,0 0,-2 z"
       inkscape:connector-curvature="0" />
    <path
       id="path2998"
       d="m 16,33.04 2,0 0,2 -2,0 0,-2 z"
       inkscape:connector-curvature="0" />
    <path
       id="path3000"
       d="m 12,33.04 2,0 0,2 -2,0 0,-2 z"
       inkscape:connector-curvature="0" />
    <path
       id="path3002"
       d="m 8,33.04 2,0 0,2 -2,0 0,-2 z"
       inkscape:connector-curvature="0" />
    <path
       id="path3004"
       d="m 36,37.04 2,0 0,2 -2,0 0,-2 z"
       inkscape:connector-curvature="0" />
    <path
       id="path3006"
       d="m 32,37.04 2,0 0,2 -2,0 0,-2 z"
       inkscape:connector-curvature="0" />
    <path
       id="path3008"
       d="m 28,37.04 2,0 0,2 -2,0 0,-2 z"
       inkscape:connector-curvature="0" />
    <path
       id="path3010"
       d="m 24,37.04 2,0 0,2 -2,0 0,-2 z"
       inkscape:connector-curvature="0" />
    <path
       id="path3012"
       d="m 20,37.04 2,0 0,2 -2,0 0,-2 z"
       inkscape:connector-curvature="0" />
    <path
       id="path3014"
       d="m 16,37.04 2,0 0,2 -2,0 0,-2 z"
       inkscape:connector-curvature="0" />
    <path
       id="path3016"
       d="m 12,37.04 2,0 0,2 -2,0 0,-2 z"
       inkscape:connector-curvature="0" />
    <path
       id="path3018"
       d="m 8,37.04 2,0 0,2 -2,0 0,-2 z"
       inkscape:connector-curvature="0" />
    <path
       id="path3020"
       d="m 36,41.04 2,0 0,2 -2,0 0,-2 z"
       inkscape:connector-curvature="0" />
    <path
       id="path3022"
       d="m 32,41.04 2,0 0,2 -2,0 0,-2 z"
       inkscape:connector-curvature="0" />
    <path
       id="path3024"
       d="m 28,41.04 2,0 0,2 -2,0 0,-2 z"
       inkscape:connector-curvature="0" />
    <path
       id="path3026"
       d="m 24,41.04 2,0 0,2 -2,0 0,-2 z"
       inkscape:connector-curvature="0" />
    <path
       id="path3028"
       d="m 20,41.04 2,0 0,2 -2,0 0,-2 z"
       inkscape:connector-curvature="0" />
    <path
       id="path3030"
       d="m 16,41.04 2,0 0,2 -2,0 0,-2 z"
       inkscape:connector-curvature="0" />
    <path
       id="path3032"
       d="m 12,41.04 2,0 0,2 -2,0 0,-2 z"
       inkscape:connector-curvature="0" />
    <path
       id="path3034"
       d="m 8,41.04 2,0 0,2 -2,0 0,-2 z"
       inkscape:connector-curvature="0" />
    <path
       id="path3036"
       d="m 36,45.04 2,0 0,2 -2,0 0,-2 z"
       inkscape:connector-curvature="0" />
    <path
       id="path3038"
       d="m 32,45.04 2,0 0,2 -2,0 0,-2 z"
       inkscape:connector-curvature="0" />
    <path
       id="path3040"
       d="m 28,45.04 2,0 0,2 -2,0 0,-2 z"
       inkscape:connector-curvature="0" />
    <path
       id="path3042"
       d="m 24,45.04 2,0 0,2 -2,0 0,-2 z"
       inkscape:connector-curvature="0" />
    <path
       id="path3044"
       d="m 20,45.04 2,0 0,2 -2,0 0,-2 z"
       inkscape:connector-curvature="0" />
    <path
       id="path3046"
       d="m 16,45.04 2,0 0,2 -2,0 0,-2 z"
       inkscape:connector-curvature="0" />
    <path
       id="path3048"
       d="m 12,45.04 2,0 0,2 -2,0 0,-2 z"
       inkscape:connector-curvature="0" />
    <path
       id="path3050"
       d="m 8,45.04 2,0 0,2 -2,0 0,-2 z"
       inkscape:connector-curvature="0" />
    <path
       id="path3052"
       d="m 36,49.04 2,0 0,2 -2,0 0,-2 z"
       inkscape:connector-curvature="0" />
    <path
       id="path3054"
       d="m 32,49.04 2,0 0,2 -2,0 0,-2 z"
       inkscape:connector-curvature="0" />
    <path
       id="path3056"
       d="m 28,49.04 2,0 0,2 -2,0 0,-2 z"
       inkscape:connector-curvature="0" />
    <path
       id="path3058"
       d="m 24,49.04 2,0 0,2 -2,0 0,-2 z"
       inkscape:connector-curvature="0" />
    <path
       id="path3060"
       d="m 20,49.04 2,0 0,2 -2,0 0,-2 z"
       inkscape:connector-curvature="0" />
    <path
       id="path3062"
       d="m 16,49.04 2,0 0,2 -2,0 0,-2 z"
       inkscape:connector-curvature="0" />
    <path
       id="path3064"
       d="m 12,49.04 2,0 0,2 -2,0 0,-2 z"
       inkscape:connector-curvature="0" />
    <path
       id="path3066"
       d="m 8,49.04 2,0 0,2 -2,0 0,-2 z"
       inkscape:connector-curvature="0" />
    <path
       id="path3068"
       d="m 36,53.04 2,0 0,2 -2,0 0,-2 z"
       inkscape:connector-curvature="0" />
    <path
       id="path3070"
       d="m 32,53.04 2,0 0,2 -2,0 0,-2 z"
       inkscape:connector-curvature="0" />
    <path
       id="path3072"
       d="m 28,53.04 2,0 0,2 -2,0 0,-2 z"
       inkscape:connector-curvature="0" />
    <path
       id="path3074"
       d="m 24,53.04 2,0 0,2 -2,0 0,-2 z"
       inkscape:connector-curvature="0" />
    <path
       id="path3076"
       d="m 20,53.04 2,0 0,2 -2,0 0,-2 z"
       inkscape:connector-curvature="0" />
    <path
       id="path3078"
       d="m 16,53.04 2,0 0,2 -2,0 0,-2 z"
       inkscape:connector-curvature="0" />
    <path
       id="path3080"
       d="m 12,53.04 2,0 0,2 -2,0 0,-2 z"
       inkscape:connector-curvature="0" />
    <path
       id="path3082"
       d="m 8,53.04 2,0 0,2 -2,0 0,-2 z"
       inkscape:connector-curvature="0" />
    <path
       id="path4701"
       d="m 56,47.54 c 0,3.5899 -2.9101,6.5 -6.5,6.5 -3.5899,0 -6.5,-2.9101 -6.5,-6.5 0,-3.5899 2.9101,-6.5 6.5,-6.5 3.5899,0 6.5,2.9101 6.5,6.5 z"
       inkscape:connector-curvature="0"
       style="fill:#5a9503;fill-opacity:1" />
    <path
       id="path4716"
       d="m 45,51 6,6 4,0 c 3,0 5,-2 5,-5 l 0,-1 -5,-5 c 1,4 -4,10 -10,5 z"
       inkscape:connector-curvature="0"
       style="fill-opacity:0.13725" />
    <path
       style="fill:#5a9503;fill-opacity:1"
       inkscape:connector-curvature="0"
       d="m 56,32.54 c 0,3.5899 -2.9101,6.5 -6.5,6.5 -3.5899,0 -6.5,-2.9101 -6.5,-6.5 0,-3.5899 2.9101,-6.5 6.5,-6.5 3.5899,0 6.5,2.9101 6.5,6.5 z"
       id="path3921" />
    <path
       style="fill:#e6e6e6"
       inkscape:connector-curvature="0"
       d="m 55,32.54 c 0,3.0375 -2.4624,5.5 -5.5,5.5 -3.0376,0 -5.5,-2.4625 -5.5,-5.5 0,-3.0375 2.4624,-5.5 5.5,-5.5 3.0376,0 5.5,2.4625 5.5,5.5 z"
       id="path3918" />
    <path
       id="path4718"
       d="m 46,37.04 14,14 0,-16 -7,-7 c 5,6 -1,13 -7,9 z"
       inkscape:connector-curvature="0"
       style="fill-opacity:0.13725" />
    <path
       id="path4703"
       d="m 55,47.54 c 0,3.0375 -2.4624,5.5 -5.5,5.5 -3.0376,0 -5.5,-2.4625 -5.5,-5.5 0,-3.0375 2.4624,-5.5 5.5,-5.5 3.0376,0 5.5,2.4625 5.5,5.5 z"
       inkscape:connector-curvature="0"
       style="fill:#e6e6e6" />
    <path
       id="path4705"
       d="M 4.9344,31.94 3,32.04 l 0,-21 c 0,-1 1,-2 2,-2 l 55,0 c 1,0 2,1 2,2 l 0,21 -2,0 0,-20.049 C 60,11.04 60,11.04 59,11.04 l -53,0 c -1,0 -1,0 -1.0032,0.9881 l -0.06234,19.99 z"
       inkscape:connector-curvature="0"
       style="fill:#5a9503;fill-opacity:1" />
    <rect
       id="rect4736"
       height="3"
       width="2"
       y="29"
       x="60"
       style="fill-opacity:0.13725" />
    <rect
       id="rect4738"
       height="3"
       width="2"
       y="29.040024"
       x="3"
       style="fill-opacity:0.13725" />
    <path
       id="path4709"
       d="m 54,21.04 0,-2 -46,0 0,1 17,0 0,1 29,0 z"
       inkscape:connector-curvature="0"
       style="fill:#bebebe" />
    <path
       id="path4707"
       d="m 51,22.04 4,0 0,-2 c 0,-3 -4,-3 -4,0 l 0,2 z"
       inkscape:connector-curvature="0"
       style="fill:#e0e0e0" />
    <path
       id="path4711"
       d="m 54,20.04 c 0,0.5522 -0.44772,1 -1,1 -0.55228,0 -1,-0.4478 -1,-1 0,-0.5524 0.44772,-1 1,-1 0.55228,0 1,0.4476 1,1 z"
       inkscape:connector-curvature="0"
       style="fill:#808080" />
    <path
       id="path4714"
       d="M 9,19.5 C 9,20.32842 8.32842,21 7.5,21 6.67158,21 6,20.32842 6,19.5 6,18.67158 6.67158,18 7.5,18 8.32842,18 9,18.67158 9,19.5 Z"
       inkscape:connector-curvature="0"
       style="fill:#5a9503;fill-opacity:1" />
    <path
       id="rect4740"
       d="m 25,20 26,0 0,1 -26,0 0,-1 z"
       inkscape:connector-curvature="0"
       style="fill-opacity:0.13725" />
  </g>
  <metadata
     id="metadata4620">
    <rdf:RDF>
      <cc:Work>
        <dc:format>image/svg+xml</dc:format>
        <dc:type
           rdf:resource="http://purl.org/dc/dcmitype/StillImage" />
        <cc:license
           rdf:resource="http://creativecommons.org/publicdomain/zero/1.0/" />
        <dc:publisher>
          <cc:Agent
             rdf:about="http://openclipart.org/">
            <dc:title>Openclipart</dc:title>
          </cc:Agent>
        </dc:publisher>
        <dc:title></dc:title>
        <dc:date>2013-09-17T22:35:05</dc:date>
        <dc:description>portable compact radio</dc:description>
        <dc:source>https://openclipart.org/detail/183544/radio-portable-by-crisg-183544</dc:source>
        <dc:creator>
          <cc:Agent>
            <dc:title>crisg</dc:title>
          </cc:Agent>
        </dc:creator>
        <dc:subject>
          <rdf:Bag>
            <rdf:li>AM-FM tuner</rdf:li>
            <rdf:li>icon</rdf:li>
            <rdf:li>music</rdf:li>
            <rdf:li>news</rdf:li>
            <rdf:li>object</rdf:li>
            <rdf:li>portable radio</rdf:li>
            <rdf:li>radio</rdf:li>
            <rdf:li>wooden radio</rdf:li>
          </rdf:Bag>
        </dc:subject>
      </cc:Work>
      <cc:License
         rdf:about="http://creativecommons.org/publicdomain/zero/1.0/">
        <cc:permits
           rdf:resource="http://creativecommons.org/ns#Reproduction" />
        <cc:permits
           rdf:resource="http://creativecommons.org/ns#Distribution" />
        <cc:permits
           rdf:resource="http://creativecommons.org/ns#DerivativeWorks" />
      </cc:License>
    </rdf:RDF>
  </metadata>
</svg>
