<?xml version="1.0" encoding="UTF-8" standalone="no"?>
<!-- Created with Inkscape (http://www.inkscape.org/) -->

<svg
   xmlns:dc="http://purl.org/dc/elements/1.1/"
   xmlns:cc="http://creativecommons.org/ns#"
   xmlns:rdf="http://www.w3.org/1999/02/22-rdf-syntax-ns#"
   xmlns:svg="http://www.w3.org/2000/svg"
   xmlns="http://www.w3.org/2000/svg"
   xmlns:sodipodi="http://sodipodi.sourceforge.net/DTD/sodipodi-0.dtd"
   xmlns:inkscape="http://www.inkscape.org/namespaces/inkscape"
   width="100"
   height="100"
   id="svg2"
   sodipodi:version="0.32"
   inkscape:version="0.91pre1 r13432"
   sodipodi:docname="zuzenean_blob.svg"
   inkscape:output_extension="org.inkscape.output.svg.inkscape"
   version="1.1"
   viewBox="0 0 99.999997 100">
  <defs
     id="defs4" />
  <sodipodi:namedview
     id="base"
     pagecolor="#ffffff"
     bordercolor="#666666"
     borderopacity="1.0"
     inkscape:pageopacity="0.0"
     inkscape:pageshadow="2"
     inkscape:zoom="1.3534466"
     inkscape:cx="-7.1288985"
     inkscape:cy="81.864299"
     inkscape:document-units="px"
     inkscape:current-layer="layer1"
     inkscape:window-width="1598"
     inkscape:window-height="879"
     inkscape:window-x="0"
     inkscape:window-y="19"
     showgrid="false"
     fit-margin-top="0"
     fit-margin-left="0"
     fit-margin-right="0"
     fit-margin-bottom="0"
     inkscape:window-maximized="0"
     showguides="false"
     inkscape:snap-page="true" />
  <metadata
     id="metadata7">
    <rdf:RDF>
      <cc:Work
         rdf:about="">
        <dc:format>image/svg+xml</dc:format>
        <dc:type
           rdf:resource="http://purl.org/dc/dcmitype/StillImage" />
        <dc:title></dc:title>
      </cc:Work>
    </rdf:RDF>
  </metadata>
  <g
     inkscape:label="Capa 1"
     inkscape:groupmode="layer"
     id="layer1"
     transform="translate(-205.01024,-309.70249)">
    <rect
       style="color:#000000;text-decoration:none;text-decoration-line:none;text-decoration-style:solid;text-decoration-color:#000000;clip-rule:nonzero;display:inline;overflow:visible;visibility:visible;opacity:1;isolation:auto;color-interpolation:sRGB;color-interpolation-filters:linearRGB;fill:#1a1a1a;fill-opacity:1;fill-rule:nonzero;stroke:none;stroke-width:2;stroke-miterlimit:4;stroke-dasharray:none;stroke-dashoffset:0;stroke-opacity:1;marker:none;color-rendering:auto;image-rendering:auto;shape-rendering:auto;text-rendering:auto;enable-background:accumulate"
       id="rect5314"
       width="100"
       height="100"
       x="205.01024"
       y="309.70248" />
    <text
       xml:space="preserve"
       style="color:#000000;font-style:normal;font-variant:normal;font-weight:normal;font-stretch:normal;font-size:16px;line-height:125%;font-family:Lato;-inkscape-font-specification:Lato;text-indent:0;text-align:start;text-decoration:none;text-decoration-line:none;letter-spacing:0px;word-spacing:0px;text-transform:none;direction:ltr;block-progression:tb;writing-mode:lr-tb;baseline-shift:baseline;text-anchor:start;display:inline;overflow:visible;visibility:visible;fill:#000000;fill-opacity:1;fill-rule:nonzero;stroke:none;stroke-width:1px;stroke-linecap:butt;stroke-linejoin:miter;stroke-opacity:1;marker:none;enable-background:accumulate"
       x="225.44649"
       y="402.16092"
       id="text4354"
       sodipodi:linespacing="125%"><tspan
         sodipodi:role="line"
         id="tspan4356"
         x="225.44649"
         y="402.16092"
         style="font-style:normal;font-variant:normal;font-weight:normal;font-stretch:normal;font-family:'Lobster 1.4';-inkscape-font-specification:'Lobster 1.4, ';fill:#ffffff">Zuzenean</tspan></text>
    <g
       id="g5230"
       transform="matrix(1.4158414,0,0,1.4158414,-227.40166,-79.908406)">
      <g
         transform="matrix(0.89740428,0,0,0.89740428,311.55889,275.31784)"
         id="g4882">
        <path
           id="rect2846"
           d="m 5,56.04 55,0 c 1,0 1,2 0,2 l -55,0 c -1,0 -1,-2 0,-2 z"
           inkscape:connector-curvature="0"
           style="fill-opacity:0.39216003" />
        <path
           id="path2859"
           d="m 40,22.04 0,35 -30.058,0 C 7,57.04 5,55.04 5,52.04 l 0,-25 c 0,-3 2,-5 5.0161,-5 l 29.984,0 z"
           inkscape:connector-curvature="0"
           style="fill:#5a9503;fill-opacity:1" />
        <path
           id="rect2952"
           d="m 40,22.04 15,0 c 3,0 5,2 5,5 l 0,25 c 0,3 -2,5 -5,5 l -15,0 0,-35 z"
           inkscape:connector-curvature="0"
           style="fill:#cccccc" />
        <path
           inkscape:connector-curvature="0"
           d="m 36,25.04 2,0 0,2 -2,0 0,-2 z"
           id="rect2955" />
        <path
           inkscape:connector-curvature="0"
           d="m 32,25.04 2,0 0,2 -2,0 0,-2 z"
           id="path2958" />
        <path
           inkscape:connector-curvature="0"
           d="m 28,25.04 2,0 0,2 -2,0 0,-2 z"
           id="path2960" />
        <path
           inkscape:connector-curvature="0"
           d="m 24,25.04 2,0 0,2 -2,0 0,-2 z"
           id="path2962" />
        <path
           inkscape:connector-curvature="0"
           d="m 20,25.04 2,0 0,2 -2,0 0,-2 z"
           id="path2964" />
        <path
           inkscape:connector-curvature="0"
           d="m 16,25.04 2,0 0,2 -2,0 0,-2 z"
           id="path2966" />
        <path
           inkscape:connector-curvature="0"
           d="m 12,25.04 2,0 0,2 -2,0 0,-2 z"
           id="path2968" />
        <path
           inkscape:connector-curvature="0"
           d="m 8,25.04 2,0 0,2 -2,0 0,-2 z"
           id="path2970" />
        <path
           inkscape:connector-curvature="0"
           d="m 36,29.04 2,0 0,2 -2,0 0,-2 z"
           id="path2972" />
        <path
           inkscape:connector-curvature="0"
           d="m 32,29.04 2,0 0,2 -2,0 0,-2 z"
           id="path2974" />
        <path
           inkscape:connector-curvature="0"
           d="m 28,29.04 2,0 0,2 -2,0 0,-2 z"
           id="path2976" />
        <path
           inkscape:connector-curvature="0"
           d="m 24,29.04 2,0 0,2 -2,0 0,-2 z"
           id="path2978" />
        <path
           inkscape:connector-curvature="0"
           d="m 20,29.04 2,0 0,2 -2,0 0,-2 z"
           id="path2980" />
        <path
           inkscape:connector-curvature="0"
           d="m 16,29.04 2,0 0,2 -2,0 0,-2 z"
           id="path2982" />
        <path
           inkscape:connector-curvature="0"
           d="m 12,29.04 2,0 0,2 -2,0 0,-2 z"
           id="path2984" />
        <path
           inkscape:connector-curvature="0"
           d="m 8,29.04 2,0 0,2 -2,0 0,-2 z"
           id="path2986" />
        <path
           inkscape:connector-curvature="0"
           d="m 36,33.04 2,0 0,2 -2,0 0,-2 z"
           id="path2988" />
        <path
           inkscape:connector-curvature="0"
           d="m 32,33.04 2,0 0,2 -2,0 0,-2 z"
           id="path2990" />
        <path
           inkscape:connector-curvature="0"
           d="m 28,33.04 2,0 0,2 -2,0 0,-2 z"
           id="path2992" />
        <path
           inkscape:connector-curvature="0"
           d="m 24,33.04 2,0 0,2 -2,0 0,-2 z"
           id="path2994" />
        <path
           inkscape:connector-curvature="0"
           d="m 20,33.04 2,0 0,2 -2,0 0,-2 z"
           id="path2996" />
        <path
           inkscape:connector-curvature="0"
           d="m 16,33.04 2,0 0,2 -2,0 0,-2 z"
           id="path2998" />
        <path
           inkscape:connector-curvature="0"
           d="m 12,33.04 2,0 0,2 -2,0 0,-2 z"
           id="path3000" />
        <path
           inkscape:connector-curvature="0"
           d="m 8,33.04 2,0 0,2 -2,0 0,-2 z"
           id="path3002" />
        <path
           inkscape:connector-curvature="0"
           d="m 36,37.04 2,0 0,2 -2,0 0,-2 z"
           id="path3004" />
        <path
           inkscape:connector-curvature="0"
           d="m 32,37.04 2,0 0,2 -2,0 0,-2 z"
           id="path3006" />
        <path
           inkscape:connector-curvature="0"
           d="m 28,37.04 2,0 0,2 -2,0 0,-2 z"
           id="path3008" />
        <path
           inkscape:connector-curvature="0"
           d="m 24,37.04 2,0 0,2 -2,0 0,-2 z"
           id="path3010" />
        <path
           inkscape:connector-curvature="0"
           d="m 20,37.04 2,0 0,2 -2,0 0,-2 z"
           id="path3012" />
        <path
           inkscape:connector-curvature="0"
           d="m 16,37.04 2,0 0,2 -2,0 0,-2 z"
           id="path3014" />
        <path
           inkscape:connector-curvature="0"
           d="m 12,37.04 2,0 0,2 -2,0 0,-2 z"
           id="path3016" />
        <path
           inkscape:connector-curvature="0"
           d="m 8,37.04 2,0 0,2 -2,0 0,-2 z"
           id="path3018" />
        <path
           inkscape:connector-curvature="0"
           d="m 36,41.04 2,0 0,2 -2,0 0,-2 z"
           id="path3020" />
        <path
           inkscape:connector-curvature="0"
           d="m 32,41.04 2,0 0,2 -2,0 0,-2 z"
           id="path3022" />
        <path
           inkscape:connector-curvature="0"
           d="m 28,41.04 2,0 0,2 -2,0 0,-2 z"
           id="path3024" />
        <path
           inkscape:connector-curvature="0"
           d="m 24,41.04 2,0 0,2 -2,0 0,-2 z"
           id="path3026" />
        <path
           inkscape:connector-curvature="0"
           d="m 20,41.04 2,0 0,2 -2,0 0,-2 z"
           id="path3028" />
        <path
           inkscape:connector-curvature="0"
           d="m 16,41.04 2,0 0,2 -2,0 0,-2 z"
           id="path3030" />
        <path
           inkscape:connector-curvature="0"
           d="m 12,41.04 2,0 0,2 -2,0 0,-2 z"
           id="path3032" />
        <path
           inkscape:connector-curvature="0"
           d="m 8,41.04 2,0 0,2 -2,0 0,-2 z"
           id="path3034" />
        <path
           inkscape:connector-curvature="0"
           d="m 36,45.04 2,0 0,2 -2,0 0,-2 z"
           id="path3036" />
        <path
           inkscape:connector-curvature="0"
           d="m 32,45.04 2,0 0,2 -2,0 0,-2 z"
           id="path3038" />
        <path
           inkscape:connector-curvature="0"
           d="m 28,45.04 2,0 0,2 -2,0 0,-2 z"
           id="path3040" />
        <path
           inkscape:connector-curvature="0"
           d="m 24,45.04 2,0 0,2 -2,0 0,-2 z"
           id="path3042" />
        <path
           inkscape:connector-curvature="0"
           d="m 20,45.04 2,0 0,2 -2,0 0,-2 z"
           id="path3044" />
        <path
           inkscape:connector-curvature="0"
           d="m 16,45.04 2,0 0,2 -2,0 0,-2 z"
           id="path3046" />
        <path
           inkscape:connector-curvature="0"
           d="m 12,45.04 2,0 0,2 -2,0 0,-2 z"
           id="path3048" />
        <path
           inkscape:connector-curvature="0"
           d="m 8,45.04 2,0 0,2 -2,0 0,-2 z"
           id="path3050" />
        <path
           inkscape:connector-curvature="0"
           d="m 36,49.04 2,0 0,2 -2,0 0,-2 z"
           id="path3052" />
        <path
           inkscape:connector-curvature="0"
           d="m 32,49.04 2,0 0,2 -2,0 0,-2 z"
           id="path3054" />
        <path
           inkscape:connector-curvature="0"
           d="m 28,49.04 2,0 0,2 -2,0 0,-2 z"
           id="path3056" />
        <path
           inkscape:connector-curvature="0"
           d="m 24,49.04 2,0 0,2 -2,0 0,-2 z"
           id="path3058" />
        <path
           inkscape:connector-curvature="0"
           d="m 20,49.04 2,0 0,2 -2,0 0,-2 z"
           id="path3060" />
        <path
           inkscape:connector-curvature="0"
           d="m 16,49.04 2,0 0,2 -2,0 0,-2 z"
           id="path3062" />
        <path
           inkscape:connector-curvature="0"
           d="m 12,49.04 2,0 0,2 -2,0 0,-2 z"
           id="path3064" />
        <path
           inkscape:connector-curvature="0"
           d="m 8,49.04 2,0 0,2 -2,0 0,-2 z"
           id="path3066" />
        <path
           inkscape:connector-curvature="0"
           d="m 36,53.04 2,0 0,2 -2,0 0,-2 z"
           id="path3068" />
        <path
           inkscape:connector-curvature="0"
           d="m 32,53.04 2,0 0,2 -2,0 0,-2 z"
           id="path3070" />
        <path
           inkscape:connector-curvature="0"
           d="m 28,53.04 2,0 0,2 -2,0 0,-2 z"
           id="path3072" />
        <path
           inkscape:connector-curvature="0"
           d="m 24,53.04 2,0 0,2 -2,0 0,-2 z"
           id="path3074" />
        <path
           inkscape:connector-curvature="0"
           d="m 20,53.04 2,0 0,2 -2,0 0,-2 z"
           id="path3076" />
        <path
           inkscape:connector-curvature="0"
           d="m 16,53.04 2,0 0,2 -2,0 0,-2 z"
           id="path3078" />
        <path
           inkscape:connector-curvature="0"
           d="m 12,53.04 2,0 0,2 -2,0 0,-2 z"
           id="path3080" />
        <path
           inkscape:connector-curvature="0"
           d="m 8,53.04 2,0 0,2 -2,0 0,-2 z"
           id="path3082" />
        <path
           style="fill:#5a9503;fill-opacity:1"
           inkscape:connector-curvature="0"
           d="m 56,47.54 c 0,3.5899 -2.9101,6.5 -6.5,6.5 -3.5899,0 -6.5,-2.9101 -6.5,-6.5 0,-3.5899 2.9101,-6.5 6.5,-6.5 3.5899,0 6.5,2.9101 6.5,6.5 z"
           id="path4701" />
        <path
           style="fill-opacity:0.13725"
           inkscape:connector-curvature="0"
           d="m 45,51 6,6 4,0 c 3,0 5,-2 5,-5 l 0,-1 -5,-5 c 1,4 -4,10 -10,5 z"
           id="path4716" />
        <path
           id="path3921"
           d="m 56,32.54 c 0,3.5899 -2.9101,6.5 -6.5,6.5 -3.5899,0 -6.5,-2.9101 -6.5,-6.5 0,-3.5899 2.9101,-6.5 6.5,-6.5 3.5899,0 6.5,2.9101 6.5,6.5 z"
           inkscape:connector-curvature="0"
           style="fill:#5a9503;fill-opacity:1" />
        <path
           id="path3918"
           d="m 55,32.54 c 0,3.0375 -2.4624,5.5 -5.5,5.5 -3.0376,0 -5.5,-2.4625 -5.5,-5.5 0,-3.0375 2.4624,-5.5 5.5,-5.5 3.0376,0 5.5,2.4625 5.5,5.5 z"
           inkscape:connector-curvature="0"
           style="fill:#e6e6e6" />
        <path
           style="fill-opacity:0.13725"
           inkscape:connector-curvature="0"
           d="m 46,37.04 14,14 0,-16 -7,-7 c 5,6 -1,13 -7,9 z"
           id="path4718" />
        <path
           style="fill:#e6e6e6"
           inkscape:connector-curvature="0"
           d="m 55,47.54 c 0,3.0375 -2.4624,5.5 -5.5,5.5 -3.0376,0 -5.5,-2.4625 -5.5,-5.5 0,-3.0375 2.4624,-5.5 5.5,-5.5 3.0376,0 5.5,2.4625 5.5,5.5 z"
           id="path4703" />
        <path
           style="fill:#5a9503;fill-opacity:1"
           inkscape:connector-curvature="0"
           d="M 4.9344,31.94 3,32.04 l 0,-21 c 0,-1 1,-2 2,-2 l 55,0 c 1,0 2,1 2,2 l 0,21 -2,0 0,-20.049 C 60,11.04 60,11.04 59,11.04 l -53,0 c -1,0 -1,0 -1.0032,0.9881 l -0.06234,19.99 z"
           id="path4705" />
        <rect
           style="fill-opacity:0.13725"
           x="60"
           y="29"
           width="2"
           height="3"
           id="rect4736" />
        <rect
           style="fill-opacity:0.13725"
           x="3"
           y="29.040024"
           width="2"
           height="3"
           id="rect4738" />
        <path
           style="fill:#bebebe"
           inkscape:connector-curvature="0"
           d="m 54,21.04 0,-2 -46,0 0,1 17,0 0,1 29,0 z"
           id="path4709" />
        <path
           style="fill:#e0e0e0"
           inkscape:connector-curvature="0"
           d="m 51,22.04 4,0 0,-2 c 0,-3 -4,-3 -4,0 l 0,2 z"
           id="path4707" />
        <path
           style="fill:#808080"
           inkscape:connector-curvature="0"
           d="m 54,20.04 c 0,0.5522 -0.44772,1 -1,1 -0.55228,0 -1,-0.4478 -1,-1 0,-0.5524 0.44772,-1 1,-1 0.55228,0 1,0.4476 1,1 z"
           id="path4711" />
        <path
           style="fill:#5a9503;fill-opacity:1"
           inkscape:connector-curvature="0"
           d="M 9,19.5 C 9,20.32842 8.32842,21 7.5,21 6.67158,21 6,20.32842 6,19.5 6,18.67158 6.67158,18 7.5,18 8.32842,18 9,18.67158 9,19.5 Z"
           id="path4714" />
        <path
           style="fill-opacity:0.13725"
           inkscape:connector-curvature="0"
           d="m 25,20 26,0 0,1 -26,0 0,-1 z"
           id="rect4740" />
      </g>
    </g>
  </g>
</svg>
