<?xml version="1.0" encoding="UTF-8" standalone="no"?>
<!-- Created with Inkscape (http://www.inkscape.org/) -->

<svg
   xmlns:dc="http://purl.org/dc/elements/1.1/"
   xmlns:cc="http://creativecommons.org/ns#"
   xmlns:rdf="http://www.w3.org/1999/02/22-rdf-syntax-ns#"
   xmlns:svg="http://www.w3.org/2000/svg"
   xmlns="http://www.w3.org/2000/svg"
   xmlns:sodipodi="http://sodipodi.sourceforge.net/DTD/sodipodi-0.dtd"
   xmlns:inkscape="http://www.inkscape.org/namespaces/inkscape"
   width="100"
   height="100"
   id="svg2"
   sodipodi:version="0.32"
   inkscape:version="0.91pre1 r13432"
   sodipodi:docname="zuzenean_blob.svg"
   inkscape:output_extension="org.inkscape.output.svg.inkscape"
   version="1.1"
   viewBox="0 0 99.999997 100">
  <defs
     id="defs4" />
  <sodipodi:namedview
     id="base"
     pagecolor="#ffffff"
     bordercolor="#666666"
     borderopacity="1.0"
     inkscape:pageopacity="0.0"
     inkscape:pageshadow="2"
     inkscape:zoom="1.9140625"
     inkscape:cx="185.02245"
     inkscape:cy="46.92574"
     inkscape:document-units="px"
     inkscape:current-layer="layer1"
     inkscape:window-width="1598"
     inkscape:window-height="879"
     inkscape:window-x="0"
     inkscape:window-y="19"
     showgrid="false"
     fit-margin-top="0"
     fit-margin-left="0"
     fit-margin-right="0"
     fit-margin-bottom="0"
     inkscape:window-maximized="0"
     showguides="false"
     inkscape:snap-page="true" />
  <metadata
     id="metadata7">
    <rdf:RDF>
      <cc:Work
         rdf:about="">
        <dc:format>image/svg+xml</dc:format>
        <dc:type
           rdf:resource="http://purl.org/dc/dcmitype/StillImage" />
        <dc:title></dc:title>
      </cc:Work>
    </rdf:RDF>
  </metadata>
  <g
     inkscape:label="Capa 1"
     inkscape:groupmode="layer"
     id="layer1"
     transform="translate(-205.01024,-309.70249)">
    <g
       id="g4374"
       transform="translate(-0.9134949,0.06319)">
      <path
         inkscape:connector-curvature="0"
         id="path4370-5-9-94-35-8-3-5-3-2"
         d="m 252.83067,344.30659 c -6.38836,0 -11.4903,5.54293 -11.4903,12.21284 0,3.97361 1.81915,7.53679 4.63391,9.7767 2.10085,2.66108 5.2467,4.37295 8.79319,4.37295 6.38846,0 11.49038,-5.54295 11.49038,-12.21284 0,-3.97364 -1.81914,-7.5368 -4.634,-9.77671 -2.10075,-2.66109 -5.24661,-4.37294 -8.79318,-4.37294 z m 1.9368,5.03493 c 1.70865,0 3.30709,0.55714 4.64155,1.51692 1.12964,1.54571 1.81382,3.50284 1.81382,5.66099 0,5.10863 -3.8003,9.11471 -8.39217,9.11471 -1.70953,0 -3.307,-0.5581 -4.64146,-1.51881 -1.12867,-1.54552 -1.81198,-3.50152 -1.81198,-5.65909 0,-5.10865 3.79837,-9.11472 8.39024,-9.11472 z"
         style="color:#000000;font-style:normal;font-variant:normal;font-weight:normal;font-stretch:normal;font-size:medium;line-height:normal;font-family:sans-serif;text-indent:0;text-align:start;text-decoration:none;text-decoration-line:none;text-decoration-style:solid;text-decoration-color:#000000;letter-spacing:normal;word-spacing:normal;text-transform:none;direction:ltr;block-progression:tb;writing-mode:lr-tb;baseline-shift:baseline;text-anchor:start;clip-rule:nonzero;display:inline;overflow:visible;visibility:visible;opacity:1;isolation:auto;color-interpolation:sRGB;color-interpolation-filters:linearRGB;fill:#4f8203;fill-opacity:1;fill-rule:nonzero;stroke:none;stroke-width:3.20000005;stroke-linecap:round;stroke-linejoin:miter;stroke-miterlimit:4;stroke-dasharray:none;stroke-dashoffset:0;stroke-opacity:1;marker:none;color-rendering:auto;image-rendering:auto;shape-rendering:auto;text-rendering:auto;enable-background:accumulate" />
      <path
         inkscape:connector-curvature="0"
         id="path4370-5-7-4-8-0-1-3-8-6-2"
         d="m 252.83067,335.54558 c -10.93685,0 -19.73304,9.46226 -19.73304,20.97385 0,6.53804 2.84158,12.40828 7.29701,16.26613 3.59354,4.07338 8.68685,6.64452 14.37283,6.64452 10.93684,0 19.73313,-9.46226 19.73313,-20.97384 0,-6.54061 -2.84429,-12.41403 -7.30272,-16.27182 -3.59335,-4.0699 -8.68405,-6.63884 -14.36721,-6.63884 z m 1.9368,5.03682 c 3.88339,0 7.45815,1.43969 10.29683,3.84523 2.71966,3.17337 4.39945,7.40154 4.39945,12.0918 0,9.94383 -7.48526,17.87572 -16.63308,17.87572 -3.88301,0 -7.45825,-1.43966 -10.29683,-3.84524 -2.72015,-3.17393 -4.39946,-7.40288 -4.39946,-12.09367 0,-9.94384 7.48537,-17.87384 16.63309,-17.87384 z"
         style="color:#000000;font-style:normal;font-variant:normal;font-weight:normal;font-stretch:normal;font-size:medium;line-height:normal;font-family:sans-serif;text-indent:0;text-align:start;text-decoration:none;text-decoration-line:none;text-decoration-style:solid;text-decoration-color:#000000;letter-spacing:normal;word-spacing:normal;text-transform:none;direction:ltr;block-progression:tb;writing-mode:lr-tb;baseline-shift:baseline;text-anchor:start;clip-rule:nonzero;display:inline;overflow:visible;visibility:visible;opacity:1;isolation:auto;color-interpolation:sRGB;color-interpolation-filters:linearRGB;fill:#4f8203;fill-opacity:1;fill-rule:nonzero;stroke:none;stroke-width:3.20000029;stroke-linecap:round;stroke-linejoin:miter;stroke-miterlimit:4;stroke-dasharray:none;stroke-dashoffset:0;stroke-opacity:1;marker:none;color-rendering:auto;image-rendering:auto;shape-rendering:auto;text-rendering:auto;enable-background:accumulate" />
      <path
         inkscape:connector-curvature="0"
         id="path4370-5-7-6-87-6-4-7-1-0-3-5"
         d="m 252.83067,327.30281 c -15.21826,0 -27.48781,13.1517 -27.48781,29.21662 0,8.869 3.7448,16.84417 9.65565,22.21461 4.99269,5.50087 11.99356,8.93881 19.76896,8.93881 15.21825,0 27.48791,-13.15172 27.48791,-29.21661 0,-8.87165 -3.74743,-16.84982 -9.66137,-22.2203 -4.9924,-5.4974 -11.99066,-8.93313 -19.76334,-8.93313 z m 1.9368,5.03683 c 5.93941,0 11.39268,2.27555 15.63059,6.06385 4.21682,4.68559 6.82046,11.05752 6.82046,18.11594 0,14.49479 -10.95593,26.1166 -24.38785,26.1166 -5.94164,0 -11.39762,-2.27666 -15.63632,-6.06765 -4.21439,-4.68517 -6.81474,-11.05601 -6.81474,-18.11214 0,-14.49481 10.95602,-26.1166 24.38786,-26.1166 z"
         style="color:#000000;font-style:normal;font-variant:normal;font-weight:normal;font-stretch:normal;font-size:medium;line-height:normal;font-family:sans-serif;text-indent:0;text-align:start;text-decoration:none;text-decoration-line:none;text-decoration-style:solid;text-decoration-color:#000000;letter-spacing:normal;word-spacing:normal;text-transform:none;direction:ltr;block-progression:tb;writing-mode:lr-tb;baseline-shift:baseline;text-anchor:start;clip-rule:nonzero;display:inline;overflow:visible;visibility:visible;opacity:1;isolation:auto;color-interpolation:sRGB;color-interpolation-filters:linearRGB;fill:#4f8203;fill-opacity:1;fill-rule:nonzero;stroke:none;stroke-width:3.20000005;stroke-linecap:round;stroke-linejoin:miter;stroke-miterlimit:4;stroke-dasharray:none;stroke-dashoffset:0;stroke-opacity:1;marker:none;color-rendering:auto;image-rendering:auto;shape-rendering:auto;text-rendering:auto;enable-background:accumulate" />
      <path
         sodipodi:nodetypes="scccsccccs"
         inkscape:connector-curvature="0"
         id="path4370-5-7-6-8-7-4-40-9-4-8-9-1"
         d="m 252.46751,318.54746 c -3.97742,0.0387 -7.99784,0.78707 -11.89885,2.30184 -2.25435,1.79392 2.05098,5.1912 3.05841,4.825 11.30309,-4.38902 23.64547,-1.74392 32.41882,6.33812 1.48881,1.61536 2.85242,3.39994 4.05518,5.35647 8.33349,13.55596 6.807,31.49306 -3.65611,43.22063 -0.61125,2.17132 3.02423,5.23882 4.25003,4.00034 11.40468,-12.78297 13.04147,-32.17217 3.98324,-46.90699 -1.79514,-2.92019 -3.9293,-5.49473 -6.30779,-7.71695 -6.83741,-7.4228 -16.2434,-11.51231 -25.90293,-11.41846 z"
         style="color:#000000;font-style:normal;font-variant:normal;font-weight:normal;font-stretch:normal;font-size:medium;line-height:normal;font-family:sans-serif;text-indent:0;text-align:start;text-decoration:none;text-decoration-line:none;text-decoration-style:solid;text-decoration-color:#000000;letter-spacing:normal;word-spacing:normal;text-transform:none;direction:ltr;block-progression:tb;writing-mode:lr-tb;baseline-shift:baseline;text-anchor:start;clip-rule:nonzero;display:inline;overflow:visible;visibility:visible;opacity:1;isolation:auto;color-interpolation:sRGB;color-interpolation-filters:linearRGB;fill:#4f8203;fill-opacity:1;fill-rule:nonzero;stroke:none;stroke-width:3.20000005;stroke-linecap:round;stroke-linejoin:miter;stroke-miterlimit:4;stroke-dasharray:none;stroke-dashoffset:0;stroke-opacity:1;marker:none;color-rendering:auto;image-rendering:auto;shape-rendering:auto;text-rendering:auto;enable-background:accumulate" />
      <path
         id="path4370-5-9-94-3-3-0-8-1-7-5"
         d="m 252.83067,344.30659 c -6.38836,0 -11.4903,5.54293 -11.4903,12.21284 0,3.97361 1.81915,7.53679 4.63391,9.7767 2.10085,2.66108 5.2467,4.37295 8.79319,4.37295 6.38846,0 11.49038,-5.54295 11.49038,-12.21284 0,-3.97364 -1.81914,-7.5368 -4.634,-9.77671 -2.10075,-2.66109 -5.24661,-4.37294 -8.79318,-4.37294 z m 1.9368,5.03493 c 1.70865,0 3.30709,0.55714 4.64155,1.51692 1.12964,1.54571 1.81382,3.50284 1.81382,5.66099 0,5.10863 -3.8003,9.11471 -8.39217,9.11471 -1.70953,0 -3.307,-0.5581 -4.64146,-1.51881 -1.12867,-1.54552 -1.81198,-3.50152 -1.81198,-5.65909 0,-5.10865 3.79837,-9.11472 8.39024,-9.11472 z"
         style="color:#000000;font-style:normal;font-variant:normal;font-weight:normal;font-stretch:normal;font-size:medium;line-height:normal;font-family:sans-serif;text-indent:0;text-align:start;text-decoration:none;text-decoration-line:none;text-decoration-style:solid;text-decoration-color:#000000;letter-spacing:normal;word-spacing:normal;text-transform:none;direction:ltr;block-progression:tb;writing-mode:lr-tb;baseline-shift:baseline;text-anchor:start;clip-rule:nonzero;display:inline;overflow:visible;visibility:visible;opacity:1;isolation:auto;color-interpolation:sRGB;color-interpolation-filters:linearRGB;fill:#4f8203;fill-opacity:1;fill-rule:nonzero;stroke:none;stroke-width:3.20000005;stroke-linecap:round;stroke-linejoin:miter;stroke-miterlimit:4;stroke-dasharray:none;stroke-dashoffset:0;stroke-opacity:1;marker:none;color-rendering:auto;image-rendering:auto;shape-rendering:auto;text-rendering:auto;enable-background:accumulate"
         inkscape:connector-curvature="0" />
      <path
         id="path4370-5-7-4-8-7-7-3-3-4-2-9"
         d="m 252.83067,335.54558 c -10.93685,0 -19.73304,9.46226 -19.73304,20.97385 0,6.53804 2.84158,12.40828 7.29701,16.26613 3.59354,4.07338 8.68685,6.64452 14.37283,6.64452 10.93684,0 19.73313,-9.46226 19.73313,-20.97384 0,-6.54061 -2.84429,-12.41403 -7.30272,-16.27182 -3.59335,-4.0699 -8.68405,-6.63884 -14.36721,-6.63884 z m 1.9368,5.03682 c 3.88339,0 7.45815,1.43969 10.29683,3.84523 2.71966,3.17337 4.39945,7.40154 4.39945,12.0918 0,9.94383 -7.48526,17.87572 -16.63308,17.87572 -3.88301,0 -7.45825,-1.43966 -10.29683,-3.84524 -2.72015,-3.17393 -4.39946,-7.40288 -4.39946,-12.09367 0,-9.94384 7.48537,-17.87384 16.63309,-17.87384 z"
         style="color:#000000;font-style:normal;font-variant:normal;font-weight:normal;font-stretch:normal;font-size:medium;line-height:normal;font-family:sans-serif;text-indent:0;text-align:start;text-decoration:none;text-decoration-line:none;text-decoration-style:solid;text-decoration-color:#000000;letter-spacing:normal;word-spacing:normal;text-transform:none;direction:ltr;block-progression:tb;writing-mode:lr-tb;baseline-shift:baseline;text-anchor:start;clip-rule:nonzero;display:inline;overflow:visible;visibility:visible;opacity:1;isolation:auto;color-interpolation:sRGB;color-interpolation-filters:linearRGB;fill:#4f8203;fill-opacity:1;fill-rule:nonzero;stroke:none;stroke-width:3.20000029;stroke-linecap:round;stroke-linejoin:miter;stroke-miterlimit:4;stroke-dasharray:none;stroke-dashoffset:0;stroke-opacity:1;marker:none;color-rendering:auto;image-rendering:auto;shape-rendering:auto;text-rendering:auto;enable-background:accumulate"
         inkscape:connector-curvature="0" />
      <path
         id="path4370-5-7-6-87-6-8-1-1-3-3-8-6"
         d="m 252.83067,327.30281 c -15.21826,0 -27.48781,13.1517 -27.48781,29.21662 0,8.869 3.7448,16.84417 9.65565,22.21461 4.99269,5.50087 11.99356,8.93881 19.76896,8.93881 15.21825,0 27.48791,-13.15172 27.48791,-29.21661 0,-8.87165 -3.74743,-16.84982 -9.66137,-22.2203 -4.9924,-5.4974 -11.99066,-8.93313 -19.76334,-8.93313 z m 1.9368,5.03683 c 5.93941,0 11.39268,2.27555 15.63059,6.06385 4.21682,4.68559 6.82046,11.05752 6.82046,18.11594 0,14.49479 -10.95593,26.1166 -24.38785,26.1166 -5.94164,0 -11.39762,-2.27666 -15.63632,-6.06765 -4.21439,-4.68517 -6.81474,-11.05601 -6.81474,-18.11214 0,-14.49481 10.95602,-26.1166 24.38786,-26.1166 z"
         style="color:#000000;font-style:normal;font-variant:normal;font-weight:normal;font-stretch:normal;font-size:medium;line-height:normal;font-family:sans-serif;text-indent:0;text-align:start;text-decoration:none;text-decoration-line:none;text-decoration-style:solid;text-decoration-color:#000000;letter-spacing:normal;word-spacing:normal;text-transform:none;direction:ltr;block-progression:tb;writing-mode:lr-tb;baseline-shift:baseline;text-anchor:start;clip-rule:nonzero;display:inline;overflow:visible;visibility:visible;opacity:1;isolation:auto;color-interpolation:sRGB;color-interpolation-filters:linearRGB;fill:#4f8203;fill-opacity:1;fill-rule:nonzero;stroke:none;stroke-width:3.20000005;stroke-linecap:round;stroke-linejoin:miter;stroke-miterlimit:4;stroke-dasharray:none;stroke-dashoffset:0;stroke-opacity:1;marker:none;color-rendering:auto;image-rendering:auto;shape-rendering:auto;text-rendering:auto;enable-background:accumulate"
         inkscape:connector-curvature="0" />
      <path
         sodipodi:nodetypes="scccsccccs"
         inkscape:connector-curvature="0"
         id="path4370-5-7-6-8-7-4-4-5-0-2-0-8-3"
         d="m 252.46751,318.54746 c -3.97742,0.0387 -7.99784,0.78707 -11.89885,2.30184 -2.25435,1.79392 2.05098,5.1912 3.05841,4.825 11.30309,-4.38902 23.64547,-1.74392 32.41882,6.33812 1.48881,1.61536 2.85242,3.39994 4.05518,5.35647 8.33349,13.55596 6.807,31.49306 -3.65611,43.22063 -0.61125,2.17132 3.02423,5.23882 4.25003,4.00034 11.40468,-12.78297 13.04147,-32.17217 3.98324,-46.90699 -1.79514,-2.92019 -3.9293,-5.49473 -6.30779,-7.71695 -6.83741,-7.4228 -16.2434,-11.51231 -25.90293,-11.41846 z"
         style="color:#000000;font-style:normal;font-variant:normal;font-weight:normal;font-stretch:normal;font-size:medium;line-height:normal;font-family:sans-serif;text-indent:0;text-align:start;text-decoration:none;text-decoration-line:none;text-decoration-style:solid;text-decoration-color:#000000;letter-spacing:normal;word-spacing:normal;text-transform:none;direction:ltr;block-progression:tb;writing-mode:lr-tb;baseline-shift:baseline;text-anchor:start;clip-rule:nonzero;display:inline;overflow:visible;visibility:visible;opacity:1;isolation:auto;color-interpolation:sRGB;color-interpolation-filters:linearRGB;fill:#4f8203;fill-opacity:1;fill-rule:nonzero;stroke:none;stroke-width:3.20000005;stroke-linecap:round;stroke-linejoin:miter;stroke-miterlimit:4;stroke-dasharray:none;stroke-dashoffset:0;stroke-opacity:1;marker:none;color-rendering:auto;image-rendering:auto;shape-rendering:auto;text-rendering:auto;enable-background:accumulate" />
    </g>
    <g
       id="g4384"
       transform="translate(-0.97666686,0)">
      <path
         inkscape:connector-curvature="0"
         id="path4370-5-9-94-30-9-7-4-8"
         d="m 250.89384,342.36978 c -6.38836,0 -11.49029,5.54293 -11.49029,12.21284 0,3.97361 1.81915,7.53679 4.6339,9.7767 2.10086,2.66108 5.24671,4.37295 8.79319,4.37295 6.38846,0 11.49039,-5.54295 11.49039,-12.21284 0,-3.97364 -1.81914,-7.5368 -4.634,-9.77671 -2.10075,-2.66109 -5.24661,-4.37294 -8.79319,-4.37294 z m 1.9368,5.03493 c 1.70865,0 3.3071,0.55714 4.64156,1.51692 1.12964,1.54571 1.81382,3.50284 1.81382,5.66099 0,5.10863 -3.80031,9.11471 -8.39218,9.11471 -1.70953,0 -3.307,-0.5581 -4.64145,-1.51881 -1.12868,-1.54552 -1.81199,-3.50152 -1.81199,-5.65909 0,-5.10865 3.79837,-9.11472 8.39024,-9.11472 z"
         style="color:#000000;font-style:normal;font-variant:normal;font-weight:normal;font-stretch:normal;font-size:medium;line-height:normal;font-family:sans-serif;text-indent:0;text-align:start;text-decoration:none;text-decoration-line:none;text-decoration-style:solid;text-decoration-color:#000000;letter-spacing:normal;word-spacing:normal;text-transform:none;direction:ltr;block-progression:tb;writing-mode:lr-tb;baseline-shift:baseline;text-anchor:start;clip-rule:nonzero;display:inline;overflow:visible;visibility:visible;opacity:1;isolation:auto;color-interpolation:sRGB;color-interpolation-filters:linearRGB;fill:#ffffff;fill-opacity:1;fill-rule:nonzero;stroke:none;stroke-width:3.20000005;stroke-linecap:round;stroke-linejoin:miter;stroke-miterlimit:4;stroke-dasharray:none;stroke-dashoffset:0;stroke-opacity:1;marker:none;color-rendering:auto;image-rendering:auto;shape-rendering:auto;text-rendering:auto;enable-background:accumulate" />
      <path
         inkscape:connector-curvature="0"
         id="path4370-5-7-4-8-61-4-8-7-9"
         d="m 250.89384,333.60877 c -10.93685,0 -19.73304,9.46226 -19.73304,20.97385 0,6.53804 2.84158,12.40828 7.29701,16.26613 3.59355,4.07338 8.68685,6.64452 14.37283,6.64452 10.93685,0 19.73313,-9.46226 19.73313,-20.97384 0,-6.54061 -2.84429,-12.41403 -7.30272,-16.27182 -3.59335,-4.0699 -8.68405,-6.63884 -14.36721,-6.63884 z m 1.9368,5.03682 c 3.88339,0 7.45815,1.43969 10.29683,3.84523 2.71967,3.17337 4.39945,7.40154 4.39945,12.0918 0,9.94383 -7.48526,17.87572 -16.63308,17.87572 -3.88301,0 -7.45825,-1.43966 -10.29683,-3.84524 -2.72015,-3.17393 -4.39945,-7.40288 -4.39945,-12.09367 0,-9.94384 7.48536,-17.87384 16.63308,-17.87384 z"
         style="color:#000000;font-style:normal;font-variant:normal;font-weight:normal;font-stretch:normal;font-size:medium;line-height:normal;font-family:sans-serif;text-indent:0;text-align:start;text-decoration:none;text-decoration-line:none;text-decoration-style:solid;text-decoration-color:#000000;letter-spacing:normal;word-spacing:normal;text-transform:none;direction:ltr;block-progression:tb;writing-mode:lr-tb;baseline-shift:baseline;text-anchor:start;clip-rule:nonzero;display:inline;overflow:visible;visibility:visible;opacity:1;isolation:auto;color-interpolation:sRGB;color-interpolation-filters:linearRGB;fill:#ffffff;fill-opacity:1;fill-rule:nonzero;stroke:none;stroke-width:3.20000029;stroke-linecap:round;stroke-linejoin:miter;stroke-miterlimit:4;stroke-dasharray:none;stroke-dashoffset:0;stroke-opacity:1;marker:none;color-rendering:auto;image-rendering:auto;shape-rendering:auto;text-rendering:auto;enable-background:accumulate" />
      <path
         inkscape:connector-curvature="0"
         id="path4370-5-7-6-87-6-5-2-5-7-2"
         d="m 250.89384,325.366 c -15.21825,0 -27.48781,13.1517 -27.48781,29.21662 0,8.869 3.74481,16.84417 9.65565,22.21461 4.99269,5.50087 11.99356,8.93881 19.76896,8.93881 15.21825,0 27.48791,-13.15172 27.48791,-29.21661 0,-8.87165 -3.74743,-16.84982 -9.66136,-22.2203 -4.99241,-5.4974 -11.99066,-8.93313 -19.76335,-8.93313 z m 1.9368,5.03683 c 5.93941,0 11.39268,2.27555 15.6306,6.06385 4.21681,4.68559 6.82046,11.05752 6.82046,18.11594 0,14.49479 -10.95593,26.1166 -24.38786,26.1166 -5.94164,0 -11.39761,-2.27666 -15.63631,-6.06765 -4.21439,-4.68517 -6.81474,-11.05601 -6.81474,-18.11214 0,-14.49481 10.95602,-26.1166 24.38785,-26.1166 z"
         style="color:#000000;font-style:normal;font-variant:normal;font-weight:normal;font-stretch:normal;font-size:medium;line-height:normal;font-family:sans-serif;text-indent:0;text-align:start;text-decoration:none;text-decoration-line:none;text-decoration-style:solid;text-decoration-color:#000000;letter-spacing:normal;word-spacing:normal;text-transform:none;direction:ltr;block-progression:tb;writing-mode:lr-tb;baseline-shift:baseline;text-anchor:start;clip-rule:nonzero;display:inline;overflow:visible;visibility:visible;opacity:1;isolation:auto;color-interpolation:sRGB;color-interpolation-filters:linearRGB;fill:#ffffff;fill-opacity:1;fill-rule:nonzero;stroke:none;stroke-width:3.20000005;stroke-linecap:round;stroke-linejoin:miter;stroke-miterlimit:4;stroke-dasharray:none;stroke-dashoffset:0;stroke-opacity:1;marker:none;color-rendering:auto;image-rendering:auto;shape-rendering:auto;text-rendering:auto;enable-background:accumulate" />
      <path
         sodipodi:nodetypes="scccsccccs"
         inkscape:connector-curvature="0"
         id="path4370-5-7-6-8-7-4-8-0-3-6-5"
         d="m 250.53069,316.61065 c -3.97743,0.0387 -7.99784,0.78707 -11.89886,2.30184 -2.25434,1.79392 2.05098,5.1912 3.05841,4.825 11.30309,-4.38902 23.64548,-1.74392 32.41882,6.33812 1.48882,1.61536 2.85242,3.39994 4.05519,5.35647 8.33348,13.55596 6.80699,31.49306 -3.65611,43.22063 -0.61126,2.17132 3.02422,5.23882 4.25003,4.00034 11.40468,-12.78297 13.04146,-32.17217 3.98323,-46.90699 -1.79513,-2.92019 -3.9293,-5.49473 -6.30779,-7.71695 -6.8374,-7.4228 -16.2434,-11.51231 -25.90292,-11.41846 z"
         style="color:#000000;font-style:normal;font-variant:normal;font-weight:normal;font-stretch:normal;font-size:medium;line-height:normal;font-family:sans-serif;text-indent:0;text-align:start;text-decoration:none;text-decoration-line:none;text-decoration-style:solid;text-decoration-color:#000000;letter-spacing:normal;word-spacing:normal;text-transform:none;direction:ltr;block-progression:tb;writing-mode:lr-tb;baseline-shift:baseline;text-anchor:start;clip-rule:nonzero;display:inline;overflow:visible;visibility:visible;opacity:1;isolation:auto;color-interpolation:sRGB;color-interpolation-filters:linearRGB;fill:#ffffff;fill-opacity:1;fill-rule:nonzero;stroke:none;stroke-width:3.20000005;stroke-linecap:round;stroke-linejoin:miter;stroke-miterlimit:4;stroke-dasharray:none;stroke-dashoffset:0;stroke-opacity:1;marker:none;color-rendering:auto;image-rendering:auto;shape-rendering:auto;text-rendering:auto;enable-background:accumulate" />
      <path
         id="path4370-5-9-94-3-5-6-2-2-4"
         d="m 250.89384,342.36978 c -6.38836,0 -11.49029,5.54293 -11.49029,12.21284 0,3.97361 1.81915,7.53679 4.6339,9.7767 2.10086,2.66108 5.24671,4.37295 8.79319,4.37295 6.38846,0 11.49039,-5.54295 11.49039,-12.21284 0,-3.97364 -1.81914,-7.5368 -4.634,-9.77671 -2.10075,-2.66109 -5.24661,-4.37294 -8.79319,-4.37294 z m 1.9368,5.03493 c 1.70865,0 3.3071,0.55714 4.64156,1.51692 1.12964,1.54571 1.81382,3.50284 1.81382,5.66099 0,5.10863 -3.80031,9.11471 -8.39218,9.11471 -1.70953,0 -3.307,-0.5581 -4.64145,-1.51881 -1.12868,-1.54552 -1.81199,-3.50152 -1.81199,-5.65909 0,-5.10865 3.79837,-9.11472 8.39024,-9.11472 z"
         style="color:#000000;font-style:normal;font-variant:normal;font-weight:normal;font-stretch:normal;font-size:medium;line-height:normal;font-family:sans-serif;text-indent:0;text-align:start;text-decoration:none;text-decoration-line:none;text-decoration-style:solid;text-decoration-color:#000000;letter-spacing:normal;word-spacing:normal;text-transform:none;direction:ltr;block-progression:tb;writing-mode:lr-tb;baseline-shift:baseline;text-anchor:start;clip-rule:nonzero;display:inline;overflow:visible;visibility:visible;opacity:1;isolation:auto;color-interpolation:sRGB;color-interpolation-filters:linearRGB;fill:#ffffff;fill-opacity:1;fill-rule:nonzero;stroke:none;stroke-width:3.20000005;stroke-linecap:round;stroke-linejoin:miter;stroke-miterlimit:4;stroke-dasharray:none;stroke-dashoffset:0;stroke-opacity:1;marker:none;color-rendering:auto;image-rendering:auto;shape-rendering:auto;text-rendering:auto;enable-background:accumulate"
         inkscape:connector-curvature="0" />
      <path
         id="path4370-5-7-4-8-7-8-9-4-1-6"
         d="m 250.89384,333.60877 c -10.93685,0 -19.73304,9.46226 -19.73304,20.97385 0,6.53804 2.84158,12.40828 7.29701,16.26613 3.59355,4.07338 8.68685,6.64452 14.37283,6.64452 10.93685,0 19.73313,-9.46226 19.73313,-20.97384 0,-6.54061 -2.84429,-12.41403 -7.30272,-16.27182 -3.59335,-4.0699 -8.68405,-6.63884 -14.36721,-6.63884 z m 1.9368,5.03682 c 3.88339,0 7.45815,1.43969 10.29683,3.84523 2.71967,3.17337 4.39945,7.40154 4.39945,12.0918 0,9.94383 -7.48526,17.87572 -16.63308,17.87572 -3.88301,0 -7.45825,-1.43966 -10.29683,-3.84524 -2.72015,-3.17393 -4.39945,-7.40288 -4.39945,-12.09367 0,-9.94384 7.48536,-17.87384 16.63308,-17.87384 z"
         style="color:#000000;font-style:normal;font-variant:normal;font-weight:normal;font-stretch:normal;font-size:medium;line-height:normal;font-family:sans-serif;text-indent:0;text-align:start;text-decoration:none;text-decoration-line:none;text-decoration-style:solid;text-decoration-color:#000000;letter-spacing:normal;word-spacing:normal;text-transform:none;direction:ltr;block-progression:tb;writing-mode:lr-tb;baseline-shift:baseline;text-anchor:start;clip-rule:nonzero;display:inline;overflow:visible;visibility:visible;opacity:1;isolation:auto;color-interpolation:sRGB;color-interpolation-filters:linearRGB;fill:#ffffff;fill-opacity:1;fill-rule:nonzero;stroke:none;stroke-width:3.20000029;stroke-linecap:round;stroke-linejoin:miter;stroke-miterlimit:4;stroke-dasharray:none;stroke-dashoffset:0;stroke-opacity:1;marker:none;color-rendering:auto;image-rendering:auto;shape-rendering:auto;text-rendering:auto;enable-background:accumulate"
         inkscape:connector-curvature="0" />
      <path
         id="path4370-5-7-6-87-6-8-0-6-3-4-9"
         d="m 250.89384,325.366 c -15.21825,0 -27.48781,13.1517 -27.48781,29.21662 0,8.869 3.74481,16.84417 9.65565,22.21461 4.99269,5.50087 11.99356,8.93881 19.76896,8.93881 15.21825,0 27.48791,-13.15172 27.48791,-29.21661 0,-8.87165 -3.74743,-16.84982 -9.66136,-22.2203 -4.99241,-5.4974 -11.99066,-8.93313 -19.76335,-8.93313 z m 1.9368,5.03683 c 5.93941,0 11.39268,2.27555 15.6306,6.06385 4.21681,4.68559 6.82046,11.05752 6.82046,18.11594 0,14.49479 -10.95593,26.1166 -24.38786,26.1166 -5.94164,0 -11.39761,-2.27666 -15.63631,-6.06765 -4.21439,-4.68517 -6.81474,-11.05601 -6.81474,-18.11214 0,-14.49481 10.95602,-26.1166 24.38785,-26.1166 z"
         style="color:#000000;font-style:normal;font-variant:normal;font-weight:normal;font-stretch:normal;font-size:medium;line-height:normal;font-family:sans-serif;text-indent:0;text-align:start;text-decoration:none;text-decoration-line:none;text-decoration-style:solid;text-decoration-color:#000000;letter-spacing:normal;word-spacing:normal;text-transform:none;direction:ltr;block-progression:tb;writing-mode:lr-tb;baseline-shift:baseline;text-anchor:start;clip-rule:nonzero;display:inline;overflow:visible;visibility:visible;opacity:1;isolation:auto;color-interpolation:sRGB;color-interpolation-filters:linearRGB;fill:#ffffff;fill-opacity:1;fill-rule:nonzero;stroke:none;stroke-width:3.20000005;stroke-linecap:round;stroke-linejoin:miter;stroke-miterlimit:4;stroke-dasharray:none;stroke-dashoffset:0;stroke-opacity:1;marker:none;color-rendering:auto;image-rendering:auto;shape-rendering:auto;text-rendering:auto;enable-background:accumulate"
         inkscape:connector-curvature="0" />
      <path
         sodipodi:nodetypes="scccsccccs"
         inkscape:connector-curvature="0"
         id="path4370-5-7-6-8-7-4-4-7-6-9-4-9"
         d="m 250.53069,316.61065 c -3.97743,0.0387 -7.99784,0.78707 -11.89886,2.30184 -2.25434,1.79392 2.05098,5.1912 3.05841,4.825 11.30309,-4.38902 23.64548,-1.74392 32.41882,6.33812 1.48882,1.61536 2.85242,3.39994 4.05519,5.35647 8.33348,13.55596 6.80699,31.49306 -3.65611,43.22063 -0.61126,2.17132 3.02422,5.23882 4.25003,4.00034 11.40468,-12.78297 13.04146,-32.17217 3.98323,-46.90699 -1.79513,-2.92019 -3.9293,-5.49473 -6.30779,-7.71695 -6.8374,-7.4228 -16.2434,-11.51231 -25.90292,-11.41846 z"
         style="color:#000000;font-style:normal;font-variant:normal;font-weight:normal;font-stretch:normal;font-size:medium;line-height:normal;font-family:sans-serif;text-indent:0;text-align:start;text-decoration:none;text-decoration-line:none;text-decoration-style:solid;text-decoration-color:#000000;letter-spacing:normal;word-spacing:normal;text-transform:none;direction:ltr;block-progression:tb;writing-mode:lr-tb;baseline-shift:baseline;text-anchor:start;clip-rule:nonzero;display:inline;overflow:visible;visibility:visible;opacity:1;isolation:auto;color-interpolation:sRGB;color-interpolation-filters:linearRGB;fill:#ffffff;fill-opacity:1;fill-rule:nonzero;stroke:none;stroke-width:3.20000005;stroke-linecap:round;stroke-linejoin:miter;stroke-miterlimit:4;stroke-dasharray:none;stroke-dashoffset:0;stroke-opacity:1;marker:none;color-rendering:auto;image-rendering:auto;shape-rendering:auto;text-rendering:auto;enable-background:accumulate" />
    </g>
    <text
       xml:space="preserve"
       style="color:#000000;font-style:normal;font-variant:normal;font-weight:normal;font-stretch:normal;font-size:16px;line-height:125%;font-family:Lato;-inkscape-font-specification:Lato;text-indent:0;text-align:start;text-decoration:none;text-decoration-line:none;letter-spacing:0px;word-spacing:0px;text-transform:none;direction:ltr;block-progression:tb;writing-mode:lr-tb;baseline-shift:baseline;text-anchor:start;display:inline;overflow:visible;visibility:visible;fill:#4f8203;fill-opacity:1;fill-rule:nonzero;stroke:none;stroke-width:1px;stroke-linecap:butt;stroke-linejoin:miter;stroke-opacity:1;marker:none;enable-background:accumulate"
       x="226.07506"
       y="403.31195"
       id="text4354-4"
       sodipodi:linespacing="125%"><tspan
         sodipodi:role="line"
         id="tspan4356-7"
         x="226.07506"
         y="403.31195"
         style="font-style:normal;font-variant:normal;font-weight:normal;font-stretch:normal;font-family:'Lobster 1.4';-inkscape-font-specification:'Lobster 1.4, ';fill:#4f8203;fill-opacity:1">Zuzenean</tspan></text>
    <text
       xml:space="preserve"
       style="color:#000000;font-style:normal;font-variant:normal;font-weight:normal;font-stretch:normal;font-size:16px;line-height:125%;font-family:Lato;-inkscape-font-specification:Lato;text-indent:0;text-align:start;text-decoration:none;text-decoration-line:none;letter-spacing:0px;word-spacing:0px;text-transform:none;direction:ltr;block-progression:tb;writing-mode:lr-tb;baseline-shift:baseline;text-anchor:start;display:inline;overflow:visible;visibility:visible;fill:#000000;fill-opacity:1;fill-rule:nonzero;stroke:none;stroke-width:1px;stroke-linecap:butt;stroke-linejoin:miter;stroke-opacity:1;marker:none;enable-background:accumulate"
       x="225.44649"
       y="402.68338"
       id="text4354"
       sodipodi:linespacing="125%"><tspan
         sodipodi:role="line"
         id="tspan4356"
         x="225.44649"
         y="402.68338"
         style="font-style:normal;font-variant:normal;font-weight:normal;font-stretch:normal;font-family:'Lobster 1.4';-inkscape-font-specification:'Lobster 1.4, ';fill:#ffffff">Zuzenean</tspan></text>
  </g>
</svg>
